<svg xmlns="http://www.w3.org/2000/svg" xmlns:xlink="http://www.w3.org/1999/xlink" width="609" height="453" viewBox="0 0 609 453">
    <defs>
        <path id="a" d="M11.59 3.849C14.182.87 16.905.592 17.91.43c.803-.128 1.008.395.816.802.627.713-1.539 1.078-3.173 2.788-.548.85-1.095 2.017-1.592 3.647-.216 2.57.789 5.596 1.849 8.015 2.751 6.279 12.218 14.157 7.8 26.45C19.19 54.422 1.536 55.764 1.536 55.764c.65-2.96 1.587-5.214 2.664-7.029l-4.062-.248s2.844-3.048 6.723-5.205c1.64-.91 3.736-2.234 5.707-4.062.74-1.124 1.295-2.423 1.563-4.079 1.334-8.224-4.733-11.006-6.277-20.775C7.126 9.761 9.108 6.17 11.59 3.85z"/>
        <path id="c" d="M12.424 15.93s-4.35-7.659-1.56-11.497C13.656.595 16.81.28 17.91.103c1.099-.177 1.078.87.45 1.164-1.553.726-4.708 2.1-5.936 14.664zm6.017 12.404l-2.993 20.761-15.31-.934s2.844-3.05 6.723-5.206c3.88-2.156 10.323-6.62 11.58-14.621z"/>
        <path id="e" d="M11.971 1.901a1515.239 1515.239 0 0 1 151.717 0 4.449 4.449 0 0 1 4.027 3.128l6.783 21.92a4.449 4.449 0 0 1-4.36 5.763c-36.781-.919-64.217-1.378-82.308-1.378-18.092 0-45.528.46-82.308 1.378a4.449 4.449 0 0 1-4.361-5.762L7.944 5.03A4.449 4.449 0 0 1 11.97 1.9z"/>
        <path id="g" d="M8.69 8.008C20.92 10.17 21.408 12.18 30.033 21.89c1.124 1.266 2.874.292 2.324-1.609-.9-3.117-3.564-13.518-7.022-16.16-3.458-2.64-7.359-4.256-13.027-4.09C6.638.196.112 3.08.112 4.12c0 1.042 3.987 3.075 8.579 3.887z"/>
        <filter id="h" width="106.2%" height="108.9%" x="-1.5%" y="-6.7%" filterUnits="objectBoundingBox">
            <feOffset dx="1" dy="-1" in="SourceAlpha" result="shadowOffsetOuter1"/>
            <feColorMatrix in="shadowOffsetOuter1" values="0 0 0 0 0.149019608 0 0 0 0 0.223529412 0 0 0 0 0.301960784 0 0 0 0.1 0"/>
        </filter>
        <path id="j" d="M0 47.754L7.433 0h90.555l7.433 47.754z"/>
        <path id="l" d="M0 0h466v251H0z"/>
        <path id="n" d="M0 0h531v267H0z"/>
        <path id="p" d="M1.57 37.866s43.26-16.687 56.116-16.687c12.855 0 48 10.35 60.28 9.905 12.281-.445 45.984-13.098 59.707-13.098 13.724 0 44.037 6.319 63.785 6.319 19.748 0 70.614-21.847 91.848-23.648 21.234-1.8 74.776 14.596 88.128 14.596 13.351 0 56.091-14.596 75.926-14.596s69.91 17.329 84.457 17.329l3.902 140.285H.151L1.57 37.866z"/>
        <path id="s" d="M418.039 419.5c10.115 0 21.723 2.532 25.927 5.655l12.323 9.156c4.204 3.124-.589 5.656-10.704 5.656s-21.723-2.532-25.927-5.656l-12.323-9.156c-4.204-3.123.589-5.655 10.704-5.655z"/>
        <filter id="r" width="111.5%" height="139.1%" x="-5.8%" y="-9.8%" filterUnits="objectBoundingBox">
            <feMorphology in="SourceAlpha" operator="dilate" radius=".5" result="shadowSpreadOuter1"/>
            <feOffset dy="3" in="shadowSpreadOuter1" result="shadowOffsetOuter1"/>
            <feColorMatrix in="shadowOffsetOuter1" values="0 0 0 0 0.894117647 0 0 0 0 0.925490196 0 0 0 0 0.960784314 0 0 0 1 0"/>
        </filter>
        <rect id="u" width="83" height="124" x="214" y="89" rx="4"/>
        <filter id="t" width="116.9%" height="111.3%" x="-8.4%" y="-4%" filterUnits="objectBoundingBox">
            <feOffset dy="2" in="SourceAlpha" result="shadowOffsetOuter1"/>
            <feGaussianBlur in="shadowOffsetOuter1" result="shadowBlurOuter1" stdDeviation="2"/>
            <feColorMatrix in="shadowBlurOuter1" values="0 0 0 0 0.257163912 0 0 0 0 0.374803603 0 0 0 0 0.476046383 0 0 0 0.165562726 0"/>
        </filter>
    </defs>
    <g fill="none" fill-rule="evenodd">
        <g transform="translate(541.816 317.605)">
            <mask id="b" fill="#fff">
                <use xlink:href="#a"/>
            </mask>
            <use fill="#F34" xlink:href="#a"/>
            <g fill="#223040" mask="url(#b)" opacity=".6">
                <g transform="scale(1 -1) rotate(45 63.83 -13.224)">
                    <ellipse cx="20.057" cy="6.64" rx="1" ry="1.252" transform="rotate(-35 20.057 6.64)"/>
                    <ellipse cx="15.141" cy="5.345" rx="2.789" ry="2.56" transform="rotate(-149 15.14 5.345)"/>
                    <ellipse cx="30.057" cy="24.038" rx="2.139" ry="1.561" transform="rotate(45 30.057 24.038)"/>
                    <ellipse cx="5.055" cy="4.728" rx="2.799" ry="3.662" transform="rotate(-102 5.055 4.728)"/>
                    <ellipse cx="10.597" cy="1.983" rx="1.589" ry="2.079" transform="rotate(-83 10.597 1.983)"/>
                    <ellipse cx="25.894" cy="21.833" rx="1.589" ry="2.079" transform="rotate(-40 25.894 21.833)"/>
                    <ellipse cx="27.346" cy="25.43" rx="1" ry="1.04" transform="rotate(-40 27.346 25.43)"/>
                </g>
            </g>
        </g>
        <path fill="#211D1E" d="M565.148 289.041a1.907 1.907 0 0 1 1.585 2.182l-13.765 86.904a1.907 1.907 0 0 1-3.766-.596l13.764-86.905a1.907 1.907 0 0 1 2.182-1.585zm-156.406 0a1.907 1.907 0 0 1 2.182 1.585l13.764 86.905a1.907 1.907 0 0 1-3.766.596l-13.765-86.904a1.907 1.907 0 0 1 1.585-2.182z"/>
        <path fill="#26394D" d="M567.692 274.312c2.08.33 3.499 2.282 3.17 4.362l-12.142 76.662a3.813 3.813 0 1 1-7.533-1.193l12.142-76.662a3.813 3.813 0 0 1 4.363-3.17zm-161.384 0a3.813 3.813 0 0 1 4.363 3.17l12.142 76.661a3.813 3.813 0 1 1-7.533 1.193l-12.142-76.662a3.813 3.813 0 0 1 3.17-4.362zM403.638 379.447H570.33l3.25 10.374a8.898 8.898 0 0 1-8.49 11.558H408.876a8.898 8.898 0 0 1-8.49-11.56l3.252-10.372z"/>
        <g transform="translate(541.816 317.933)">
            <mask id="d" fill="#fff">
                <use xlink:href="#c"/>
            </mask>
            <use fill="#FB3841" xlink:href="#c"/>
            <g fill="#223040" mask="url(#d)" opacity=".6">
                <g transform="scale(1 -1) rotate(45 63.434 -13.06)">
                    <ellipse cx="20.057" cy="6.64" rx="1" ry="1.252" transform="rotate(-35 20.057 6.64)"/>
                    <ellipse cx="15.141" cy="5.345" rx="2.789" ry="2.56" transform="rotate(-149 15.14 5.345)"/>
                    <ellipse cx="30.057" cy="24.038" rx="2.139" ry="1.561" transform="rotate(45 30.057 24.038)"/>
                    <ellipse cx="5.055" cy="4.728" rx="2.799" ry="3.662" transform="rotate(-102 5.055 4.728)"/>
                    <ellipse cx="10.597" cy="1.983" rx="1.589" ry="2.079" transform="rotate(-83 10.597 1.983)"/>
                    <ellipse cx="25.894" cy="21.833" rx="1.589" ry="2.079" transform="rotate(-40 25.894 21.833)"/>
                    <ellipse cx="27.346" cy="25.43" rx="1" ry="1.04" transform="rotate(-40 27.346 25.43)"/>
                </g>
            </g>
        </g>
        <g transform="translate(399.136 362.667)">
            <mask id="f" fill="#fff">
                <use xlink:href="#e"/>
            </mask>
            <use fill="#F34" xlink:href="#e"/>
            <path fill="#E62939" d="M65.461-1.883h44.489l6.355 34.575h-57.2z" mask="url(#f)"/>
            <g mask="url(#f)">
                <path fill="#FFF" d="M87.75 18.76c-9.428 0-17.1-1.777-17.1-3.958 0-2.186 7.672-3.96 17.1-3.96s17.1 1.778 17.1 3.96c0 2.185-7.672 3.959-17.1 3.959z"/>
                <path fill="#26394D" d="M87.75 13.414c0-.343.553-.655 1.45-.898a39.665 39.665 0 0 0-1.45-.026c-5.496 0-9.981 1.037-9.981 2.312s4.485 2.311 9.981 2.311c5.496 0 9.981-1.036 9.981-2.311 0-.1-.038-.2-.076-.3-1.05.187-2.347.3-3.779.3-3.397 0-6.126-.62-6.126-1.388z"/>
            </g>
        </g>
        <g transform="rotate(-180 220.748 203.375)">
            <mask id="i" fill="#fff">
                <use xlink:href="#g"/>
            </mask>
            <use fill="#000" filter="url(#h)" xlink:href="#g"/>
            <use fill="#F34" xlink:href="#g"/>
            <g fill="#223040" mask="url(#i)" opacity=".6">
                <g transform="translate(4.196 4.533)">
                    <ellipse cx="18.908" cy="10.131" rx="4.577" ry="2.936" transform="rotate(44 18.908 10.131)"/>
                    <ellipse cx="2.314" cy="2.033" rx="2.163" ry="1.754" transform="rotate(-4 2.314 2.033)"/>
                    <ellipse cx="16.03" cy="3.405" rx="2.277" ry="1.888" transform="rotate(23 16.03 3.405)"/>
                    <ellipse cx="9.074" cy="3.197" rx="3.89" ry="2.741" transform="rotate(-1 9.074 3.197)"/>
                </g>
            </g>
        </g>
        <g transform="translate(20 6)">
            <g transform="translate(201 333)">
                <mask id="k" fill="#fff">
                    <use xlink:href="#j"/>
                </mask>
                <use fill="#F5F9FD" xlink:href="#j"/>
                <path fill="#E4ECF5" d="M2 1h100v6H2z" mask="url(#k)"/>
            </g>
            <path fill="#F5F9FD" d="M202 378h104c3.314 0 9.647 3.667 19 11H183c9.353-7.333 15.686-11 19-11z"/>
            <path fill="#E4ECF5" d="M183 389h142v6H183zM113 436h260v6H113z"/>
            <path fill="#F5F9FD" d="M136.508 420h212.864a10 10 0 0 1 6.247 2.191L372.879 436H113l17.26-13.809a10 10 0 0 1 6.248-2.191z"/>
            <rect width="508" height="334" fill="#F5F9FD" rx="14"/>
            <path fill="#26394D" d="M14 0h480c7.732 0 14 6.268 14 14v275H0V14C0 6.268 6.268 0 14 0z"/>
            <g transform="translate(21 20)">
                <mask id="m" fill="#fff">
                    <use xlink:href="#l"/>
                </mask>
                <use fill="#26394D" xlink:href="#l"/>
                <g mask="url(#m)" opacity=".8">
                    <g transform="translate(-33 -16)">
                        <mask id="o" fill="#fff">
                            <use xlink:href="#n"/>
                        </mask>
                        <path fill="#CCF2FF" d="M0 0h531v267H0z" mask="url(#o)"/>
                        <g mask="url(#o)">
                            <g transform="translate(-14.395 129.23)">
                                <mask id="q" fill="#fff">
                                    <use xlink:href="#p"/>
                                </mask>
                                <use fill="#DBEBC4" xlink:href="#p"/>
                                <path fill="#B9DB96" d="M-.964 89.48s116.739-19.769 170.7-38.636C223.698 31.977 321.847-2.283 332.426-.062c4.205.883-16.465 6.629-40.477 17.404-24.012 10.776-82.818 41.04-80.13 42.337 4.462 2.153 55.937-18.452 68.033-17.528 12.097.924 26.242 14.53 47.36 14.53 21.116 0 106.334-43.324 109.715-41.489 3.381 1.836-45.998 24.634 3.483 44.487 49.482 19.853 177.57 19.853 177.57 19.853v93.187H-2.536L-.964 89.48z" mask="url(#q)"/>
                                <path fill="#D7E9FA" d="M229.103 93.64c-40.306 14.92-77.27 30.305-124.613 32.865-47.343 2.56-101.112 4.78-101.112 4.78s78.248-4.78 115.754-4.78c37.507 0 54.691-5.123 112.046-27.573 56.472-22.105 169.441-68.266 187.905-76.476 6.462-2.873 26.672-11.753 24.745-11.753-1.927 0-161.103 63.09-214.725 82.938z" mask="url(#q)"/>
                                <path fill="#7FAF4E" d="M263.086 24.482a5.447 5.447 0 0 1 9.763 1.3h-8.226c.424.521.753 1.123.963 1.78h-10.375a5.445 5.445 0 0 1 7.875-3.08zm18.062-6.715a5.445 5.445 0 0 1 10.375 0h-10.375zM169.1 52.498a5.445 5.445 0 0 1 10.375 0H169.1zm-15.562 8.906a5.445 5.445 0 0 1 10.375 0h-10.375zm103.748-8.906a5.445 5.445 0 0 1 10.375 0h-10.375zm108.936-5.343a5.445 5.445 0 0 1 10.375 0h-10.375zm-10.375 5.343a5.445 5.445 0 0 1 10.375 0h-10.375z"/>
                                <path fill="#3C5F7F" d="M456.504 14.14a5.445 5.445 0 0 1 10.354.065h-10.3c.424.52.753 1.123.963 1.78h-10.375a5.445 5.445 0 0 1 9.358-1.845zM361.58 7.848a5.446 5.446 0 0 1 9.31 1.904h-7.635c.149.282.275.58.373.89h-10.374a5.445 5.445 0 0 1 8.326-2.794zm-18.182.123a5.445 5.445 0 0 1 10.374 0h-10.374zm31.124 4.452a5.445 5.445 0 0 1 10.375 0h-10.375zm10.375 4.898a5.445 5.445 0 0 1 10.375 0h-10.375zm-177.41 10.242a5.445 5.445 0 0 1 10.375 0h-10.375zm-9.856-1.781a5.445 5.445 0 0 1 10.375 0H197.63zm-12.969 1.336a5.445 5.445 0 0 1 10.375 0h-10.375zm-98.56 4.452a5.445 5.445 0 0 1 10.374 0H86.101zm11.411 4.453a5.445 5.445 0 0 1 10.375 0H97.513zm-77.81 0a5.445 5.445 0 0 1 10.374 0H19.702zm20.749-4.453a5.445 5.445 0 0 1 10.375 0H40.452zm-10.375 0a5.445 5.445 0 0 1 10.375 0H30.077z" opacity=".4"/>
                            </g>
                        </g>
                        <path fill="#81B54C" d="M152.47 254.356c38.493-1.076 81.868-2.632 127.824-4.878 64.572-3.155 124.046-7.898 172.045-12.437a5.445 5.445 0 0 1 9.083-1.314 5.436 5.436 0 0 1 6.062-.147c1.928-.19 3.835-.379 5.72-.567a5.417 5.417 0 0 1 2.409-.242c9.413-.946 18.252-1.87 26.451-2.752a5.445 5.445 0 0 1 7.097-.77c37.79-4.142 60.225-7.208 60.225-7.208v65.365l-578.183-3.077v-29.58s37.634.164 97.52-.922a5.411 5.411 0 0 1 2.497-.046c14.128-.261 29.458-.592 45.794-1.01a5.446 5.446 0 0 1 9.718-.257l1.001-.027a5.427 5.427 0 0 1 4.737-.13z" mask="url(#o)"/>
                    </g>
                </g>
            </g>
            <rect width="16" height="16" x="246" y="303" fill="#26394D" rx="8"/>
            <use fill="#000" filter="url(#r)" xlink:href="#s"/>
            <use fill="#F5F9FD" xlink:href="#s"/>
            <g>
                <use fill="#000" filter="url(#t)" xlink:href="#u"/>
                <use fill="#FFF" xlink:href="#u"/>
            </g>
            <g fill="#F34">
                <path d="M236.723 118.703c-.04-1.808-2.203-2.246-2.467-2.313-.285-.074-.255-.39-.255-.39h6.693c.039 0 .076.018.102.049a.14.14 0 0 1 .03.112l-2.327 14.519a.136.136 0 0 1-.124.115L234.9 131h-.007a.132.132 0 0 1-.1-.046.141.141 0 0 1-.033-.115l1.963-12.136zm17.74-2.638a.14.14 0 0 1 .005.134l-6.89 13.704a.13.13 0 0 1-.108.073l-3.962.234h-.008a.132.132 0 0 1-.129-.11l-2.541-13.939a.14.14 0 0 1 .028-.112.13.13 0 0 1 .1-.049h3.433c.064 0 .118.047.13.112l1.6 9.268 4.705-9.307a.131.131 0 0 1 .116-.073h3.41a.13.13 0 0 1 .112.065zm10.619 2.942c.043.418.021.907-.065 1.452l-.3 1.763c-.188 1.09-.54 1.948-1.043 2.55-.5.598-1.027 1.04-1.567 1.315a5.163 5.163 0 0 1-2.035.548h-3.187l-.391 2.479a.13.13 0 0 1-.12.112l-3.273.195h-.007a.125.125 0 0 1-.096-.044.138.138 0 0 1-.03-.112l2.102-13.153a.13.13 0 0 1 .126-.112h6.513c.736.046 1.38.232 1.92.552.224.14.44.32.647.535.209.219.386.49.527.807.141.318.235.692.279 1.113zm-3.776 3.143l.276-1.713a1.346 1.346 0 0 0-.058-.512.94.94 0 0 0-.242-.347c-.103-.096-.276-.145-.513-.145h-2.773l-.578 3.746h2.732c.244 0 .44-.048.581-.145a1.332 1.332 0 0 0 .575-.884zM277.87 116c.038 0 .074.018.1.05a.148.148 0 0 1 .028.114l-1.901 12.474a.134.134 0 0 1-.12.118l-4.493.278a.132.132 0 0 1-.13-.093l-1.784-5.39-.845 5.544a.134.134 0 0 1-.12.117l-3.372.21a.125.125 0 0 1-.096-.048.149.149 0 0 1-.032-.117l2.022-13.14a.133.133 0 0 1 .128-.117h3.313c.055 0 .103.037.122.093l2.559 7.696 1.18-7.671a.133.133 0 0 1 .128-.118h3.313z"/>
            </g>
            <rect width="65" height="17" x="224" y="186" fill="#398FE6" rx="2"/>
            <path stroke="#FFF" stroke-linecap="round" stroke-linejoin="round" d="M252 195.044l2.912 2.913L260.87 192"/>
        </g>
    </g>
</svg>
