<svg xmlns="http://www.w3.org/2000/svg" xmlns:xlink="http://www.w3.org/1999/xlink" width="609" height="453" viewBox="0 0 609 453">
    <defs>
        <linearGradient id="b" x1="82.222%" x2="29.879%" y1="0%" y2="92.149%">
            <stop offset="0%" stop-color="#F5D9C9"/>
            <stop offset="79.07%" stop-color="#F5D9C9"/>
            <stop offset="100%" stop-color="#F5F9FD"/>
        </linearGradient>
        <path id="a" d="M29.195 346.475L68.46 246.99c-10.36-5.175-15.807-18.644-16.342-40.406-.535-21.762-5.111-58.318-13.728-109.67 12.772-3.269 25.94 3.693 30.43 16.089l18.07 49.888c21.217-27.405 35.307-47.59 42.27-60.554 6.406-11.928 18.28-37.438 35.622-76.53 2.31-5.208 8.407-7.558 13.615-5.247.336.15.664.316.982.5a13.286 13.286 0 0 1 5.686 16.43l-34.255 85.741a1.5 1.5 0 0 0 2.73 1.236l49.75-97.95c3.129-6.159 10.657-8.616 16.816-5.488l.06.031c6.22 3.201 8.749 10.779 5.7 17.073l-45.35 93.64a1.5 1.5 0 0 0 2.647 1.406l47.922-82.622c2.897-4.995 9.295-6.695 14.29-3.798.242.14.479.29.709.45a12.402 12.402 0 0 1 3.724 16.311l-45.077 79.5a2.25 2.25 0 0 0 3.66 2.58l42.13-48.8a6.517 6.517 0 0 1 9.817-.056 10.551 10.551 0 0 1 1.314 12.115L171.985 270.07l-35.187 63.263-107.603 13.141z"/>
        <path id="e" d="M-62.25 328.27l60.14-83.15c-10.359-5.177-15.806-18.645-16.341-40.407-.535-21.762-5.111-58.318-13.729-109.67 12.773-3.269 25.94 3.693 30.43 16.088l18.071 49.889c21.217-27.405 35.307-47.59 42.27-60.554 6.314-11.758 17.942-36.711 34.882-74.862 2.898-6.527 10.539-9.469 17.066-6.57.114.05.226.102.338.155 6.709 3.213 9.675 11.156 6.716 17.98l-32.471 74.869a1.5 1.5 0 0 0 2.714 1.274l44.899-88.66c3.117-6.155 10.633-8.618 16.789-5.5l.073.037c6.219 3.201 8.749 10.779 5.7 17.073l-45.35 93.64a1.5 1.5 0 0 0 2.647 1.406l47.922-82.622c2.897-4.995 9.295-6.696 14.29-3.799.242.141.478.291.709.451a12.474 12.474 0 0 1 3.781 16.343l-43.998 78.65a2.25 2.25 0 0 0 3.738 2.482l34.349-44.056a10.587 10.587 0 0 1 13.518-2.729 9.106 9.106 0 0 1 3.51 12.378L101.416 268.2 66.23 331.463l-128.48-3.193z"/>
        <filter id="d" width="116.5%" height="113.4%" x="-8.3%" y="-3.8%" filterUnits="objectBoundingBox">
            <feOffset dy="9" in="SourceAlpha" result="shadowOffsetOuter1"/>
            <feGaussianBlur in="shadowOffsetOuter1" result="shadowBlurOuter1" stdDeviation="5.5"/>
            <feColorMatrix in="shadowBlurOuter1" values="0 0 0 0 0.2 0 0 0 0 0.301960784 0 0 0 0 0.4 0 0 0 0.1 0"/>
        </filter>
        <linearGradient id="g" x1="90.715%" x2="47.179%" y1="0%" y2="100%">
            <stop offset="0%" stop-color="#FAE2D4"/>
            <stop offset="87.237%" stop-color="#FAE2D4"/>
            <stop offset="100%" stop-color="#F5F9FD"/>
        </linearGradient>
        <path id="f" d="M0 310.52l60.14-83.15c-10.359-5.177-15.806-18.645-16.341-40.407-.535-21.762-5.111-58.318-13.729-109.67 12.773-3.269 25.94 3.693 30.43 16.088l18.071 49.889c21.217-27.405 35.307-47.59 42.27-60.554 6.314-11.758 17.942-36.711 34.882-74.862 2.898-6.527 10.539-9.469 17.066-6.57.114.05.226.102.338.155 6.709 3.213 9.675 11.156 6.716 17.98l-32.471 74.869a1.5 1.5 0 0 0 2.714 1.274l44.899-88.66c3.117-6.155 10.633-8.618 16.789-5.5l.073.037c6.219 3.201 8.749 10.779 5.7 17.073l-45.35 93.64a1.5 1.5 0 0 0 2.647 1.406l47.922-82.622c2.897-4.995 9.295-6.696 14.29-3.799.242.141.478.291.709.451a12.474 12.474 0 0 1 3.781 16.343l-43.998 78.65a2.25 2.25 0 0 0 3.738 2.482l34.349-44.056a10.587 10.587 0 0 1 13.518-2.729 9.106 9.106 0 0 1 3.51 12.378L163.666 250.45l-35.187 63.263L0 310.52z"/>
        <path id="j" d="M79.404 135.594c-2.202-1.083-5.777-1.08-7.974 0l-15.846 7.793c-2.201 1.083-4.918.195-6.06-1.97l-8.242-15.624c-1.145-2.17-4.039-4.271-6.45-4.689l-17.398-3.014c-2.418-.42-4.094-2.734-3.746-5.158L16.2 95.445c.349-2.43-.758-5.83-2.464-7.587L1.43 75.188c-1.71-1.76-1.706-4.62 0-6.376l12.304-12.67c1.71-1.76 2.812-5.163 2.464-7.587l-2.51-17.487c-.35-2.43 1.333-4.74 3.745-5.158l17.397-3.014c2.418-.419 5.309-2.524 6.451-4.69l8.242-15.623c1.145-2.17 3.864-3.05 6.06-1.97L71.43 8.406c2.202 1.083 5.778 1.08 7.974 0L95.25.613c2.202-1.083 4.918-.195 6.06 1.97l8.242 15.624c1.145 2.17 4.04 4.271 6.451 4.689l17.398 3.014c2.417.42 4.094 2.734 3.746 5.158l-2.511 17.487c-.35 2.43.758 5.83 2.464 7.587l12.304 12.67c1.71 1.76 1.705 4.62 0 6.376L137.1 87.858c-1.71 1.76-2.812 5.163-2.464 7.587l2.51 17.487c.35 2.43-1.333 4.74-3.745 5.158l-17.398 3.014c-2.417.419-5.308 2.524-6.45 4.69l-8.242 15.623c-1.146 2.17-3.864 3.05-6.06 1.97l-15.847-7.793z"/>
        <filter id="i" width="111.3%" height="111.8%" x="-5.6%" y="-4.5%" filterUnits="objectBoundingBox">
            <feOffset dy="2" in="SourceAlpha" result="shadowOffsetOuter1"/>
            <feGaussianBlur in="shadowOffsetOuter1" result="shadowBlurOuter1" stdDeviation="2.5"/>
            <feColorMatrix in="shadowBlurOuter1" values="0 0 0 0 0.257163912 0 0 0 0 0.374803603 0 0 0 0 0.476046383 0 0 0 0.165562726 0"/>
        </filter>
        <path id="l" d="M53.436 90.396c-1.468-.722-3.851-.72-5.316 0l-10.564 5.195a3.068 3.068 0 0 1-4.04-1.313l-5.494-10.416c-.764-1.447-2.693-2.847-4.301-3.126l-11.599-2.01a3.07 3.07 0 0 1-2.497-3.438L11.3 63.63c.233-1.62-.505-3.887-1.642-5.058l-8.203-8.447a3.072 3.072 0 0 1 0-4.25l8.203-8.447c1.14-1.174 1.874-3.442 1.642-5.058L9.625 20.712a3.07 3.07 0 0 1 2.497-3.439l11.599-2.01c1.612-.278 3.539-1.682 4.3-3.125l5.495-10.416A3.068 3.068 0 0 1 37.556.41L48.12 5.604c1.468.722 3.852.72 5.316 0L64 .409a3.068 3.068 0 0 1 4.04 1.313l5.495 10.416c.763 1.447 2.693 2.847 4.3 3.126l11.599 2.01a3.07 3.07 0 0 1 2.497 3.438L90.257 32.37c-.232 1.62.506 3.887 1.643 5.058l8.203 8.447a3.072 3.072 0 0 1 0 4.25L91.9 58.572c-1.14 1.174-1.875 3.442-1.643 5.058l1.674 11.658a3.07 3.07 0 0 1-2.497 3.438l-11.599 2.01c-1.611.28-3.539 1.683-4.3 3.126L68.04 94.278A3.068 3.068 0 0 1 64 95.59l-10.564-5.195z"/>
        <filter id="k" width="111%" height="111.5%" x="-5.5%" y="-3.7%" filterUnits="objectBoundingBox">
            <feOffset dy="2" in="SourceAlpha" result="shadowOffsetOuter1"/>
            <feGaussianBlur in="shadowOffsetOuter1" result="shadowBlurOuter1" stdDeviation="1.5"/>
            <feColorMatrix in="shadowBlurOuter1" values="0 0 0 0 0.257163912 0 0 0 0 0.374803603 0 0 0 0 0.476046383 0 0 0 0.165562726 0"/>
        </filter>
    </defs>
    <g fill="none" fill-rule="evenodd">
        <g transform="translate(193.75 83.75)">
            <mask id="c" fill="#fff">
                <use xlink:href="#a"/>
            </mask>
            <use fill="url(#b)" transform="scale(-1 1) rotate(11 0 -1334.113)" xlink:href="#a"/>
            <ellipse cx="235.75" cy="88.25" fill="#FEEDE3" mask="url(#c)" opacity=".5" rx="9.75" ry="16.5"/>
            <g mask="url(#c)">
                <use fill="#000" filter="url(#d)" xlink:href="#e"/>
                <use fill="#FAE2D4" xlink:href="#e"/>
            </g>
        </g>
        <g transform="translate(131.5 101.5)">
            <mask id="h" fill="#fff">
                <use xlink:href="#f"/>
            </mask>
            <use fill="url(#g)" xlink:href="#f"/>
            <ellipse cx="33" cy="88.5" fill="#FEEDE3" mask="url(#h)" rx="9.75" ry="16.5"/>
            <ellipse cx="169.359" cy="8.509" fill="#FEEDE3" mask="url(#h)" rx="9" ry="12.375" transform="rotate(25 169.36 8.509)"/>
            <ellipse cx="207.313" cy="9.72" fill="#FEEDE3" mask="url(#h)" rx="9.5" ry="12.375" transform="rotate(25 207.313 9.72)"/>
            <ellipse cx="232.359" cy="37.009" fill="#FEEDE3" mask="url(#h)" rx="9" ry="12.375" transform="rotate(25 232.36 37.009)"/>
            <ellipse cx="245.339" cy="82.964" fill="#FEEDE3" mask="url(#h)" rx="7" ry="10.5" transform="rotate(25 245.34 82.964)"/>
        </g>
        <g transform="rotate(-45 102.651 78.702)">
            <use fill="#000" filter="url(#i)" xlink:href="#j"/>
            <use fill="#398FE6" xlink:href="#j"/>
        </g>
        <path fill="#FFF" d="M48.329 128.178l-2.478 2.478-8.35-8.35c-.27.747-1.017 1.901-1.527 2.512l-1.815-1.816c.865-1.273 1.34-2.936 1.255-4.276l1.731-1.731 11.184 11.183zm16.343-16.342l-4.396-4.396c-1.985-1.985-4.191-4.26-5.464-5.634l-.085.085c1.85 2.936 4.565 7.993 7.11 12.779l-2.155 2.155c-4.073-2.342-9.707-5.566-12.558-7.4l-.085.086c1.477 1.272 3.937 3.631 5.94 5.634l4.192 4.192-2.308 2.308-11.693-11.693 3.767-3.768c3.971 2.139 8.825 4.956 10.912 6.33l.017-.016c-1.238-1.816-4.073-7.196-6.075-11.167l3.632-3.632 11.692 11.693-2.443 2.444zm-1.714-22.011c3.428-3.428 7.993-3.208 11.574.373 3.258 3.259 4.106 8.01.305 11.812-3.683 3.682-8.265 2.936-11.625-.425-3.394-3.394-3.886-8.128-.254-11.76zm1.951 2.155c-2.121 2.121-1.408 4.667.866 6.941 2.29 2.291 5.023 3.02 7.093.95 2.257-2.257 1.171-4.938-.916-7.025-2.223-2.224-4.87-3.038-7.043-.866zm19.77-.153l-2.307 2.308-11.693-11.692 3.14-3.14c4.073 1.154 11.523 3.208 13.339 3.937l.034-.034c-1.358-1.086-3.395-3.122-5.312-5.04l-3.462-3.462 2.29-2.291 11.694 11.693-2.97 2.97c-3.547-1.036-11.965-3.48-13.916-4.243l-.034.034c1.103.933 3.547 3.31 5.634 5.397l3.564 3.563zm12.763-12.762l-9.623-9.622-3.563 3.564-2.07-2.07 9.639-9.64 2.07 2.07-3.547 3.548 9.622 9.622-2.528 2.528zm7.382-7.382L93.131 59.991l2.529-2.529 4.548 4.548 4.718-4.718-4.548-4.548 2.528-2.528L114.6 61.908l-2.529 2.529-5.057-5.057-4.718 4.717 5.058 5.058-2.529 2.528zM83.133 131.374l-9.744-9.744 6.803-6.802 1.725 1.725-4.738 4.738 2.39 2.39 4.441-4.44 1.725 1.724-4.44 4.441 3.903 3.903-2.065 2.065zm7.708-15.514l-1.386 1.386 3.903 3.903-2.065 2.065-9.744-9.744 4.285-4.285c2.122-2.121 4.427-2.107 5.94-.594 1.301 1.301 1.301 2.715.891 3.72.665-.298 1.895-.538 3.649 1.216l.48.48c.651.651 1.4 1.4 1.995 1.712l-2.009 2.008c-.594-.255-1.357-.962-2.39-1.994l-.141-.142c-1.06-1.06-1.839-1.3-3.408.27zm-5.558-2.786l2.489 2.49 1.768-1.769c1.145-1.145 1.16-2.036.353-2.842-.792-.792-1.768-.721-2.8.31l-1.81 1.811zm16.009-11.738l1.74 1.74-4.668 4.667 2.475 2.474 5.148-5.147 1.47 1.98-6.943 6.943-9.744-9.744 6.916-6.915 1.725 1.725-4.865 4.865 2.079 2.079 4.667-4.667zm8.527-8.528l1.74 1.74-4.667 4.667 2.475 2.475 5.148-5.148 1.47 1.98-6.943 6.944-9.744-9.744 6.915-6.916 1.726 1.726-4.865 4.864 2.079 2.08 4.666-4.668z"/>
        <g>
            <g transform="rotate(30 222.273 1004.942)">
                <use fill="#000" filter="url(#k)" xlink:href="#l"/>
                <use fill="#398FE6" xlink:href="#l"/>
            </g>
            <path fill="#FFF" d="M548.986 96.054l14.398-12.533 11.19 6.46.721.417s1.629 1.056 2.993.502c.487.235-1.31 2.042-2.744 3.304-1.346 1.184-2.443 1.671-3.84.865l-1.79-1.034-4.527-2.613-18.263 16.126-7.161-4.135 4.834-23.879-4.526-2.613-1.79-1.033c-1.397-.807-1.525-2.001-1.172-3.759.376-1.873 1.043-4.333 1.49-4.028.202 1.458 1.93 2.34 1.93 2.34l.722.417 11.19 6.46-3.655 18.736zM538.902 79.81s-1.728-.883-1.931-2.341c-.447-.305-1.114 2.155-1.49 4.028-.352 1.757-.225 2.951 1.172 3.758l4.974 2.872 1.242-6.028-3.967-2.29zm-1.828 9.367s-1.728-.882-1.93-2.34c-.448-.305-1.114 2.154-1.49 4.028-.353 1.757-.226 2.951 1.171 3.758l4.974 2.871 1.242-6.027-3.967-2.29zm31.022 7.488s1.63 1.055 2.993.502c.487.234-1.31 2.042-2.744 3.304-1.345 1.184-2.443 1.67-3.84.865l-4.974-2.872 4.599-4.09 3.966 2.291zm-7.199 6.267s1.63 1.055 2.993.501c.488.235-1.31 2.042-2.744 3.304-1.345 1.185-2.443 1.671-3.84.865l-4.974-2.872 4.6-4.089 3.965 2.29z"/>
        </g>
        <g fill="#398FE6">
            <path d="M59.611 272.543c-.724-.362-1.9-.36-2.622 0l-5.21 2.603a1.502 1.502 0 0 1-1.993-.658l-2.71-5.219c-.377-.725-1.329-1.427-2.122-1.566l-5.72-1.007c-.796-.14-1.347-.913-1.232-1.723l.825-5.841c.115-.812-.25-1.948-.81-2.534l-4.046-4.233a1.557 1.557 0 0 1 0-2.13l4.046-4.232c.562-.588.925-1.725.81-2.534l-.825-5.841c-.115-.812.438-1.584 1.231-1.723l5.721-1.007c.795-.14 1.746-.843 2.121-1.566l2.71-5.22a1.502 1.502 0 0 1 1.993-.657l5.211 2.603c.724.361 1.9.36 2.622 0l5.21-2.603a1.502 1.502 0 0 1 1.993.658l2.71 5.219c.377.725 1.329 1.426 2.122 1.566l5.72 1.007c.796.14 1.347.913 1.232 1.723l-.825 5.84c-.115.812.25 1.949.81 2.535l4.046 4.233c.562.588.56 1.543 0 2.13l-4.046 4.232c-.562.588-.925 1.724-.81 2.534l.825 5.841c.115.812-.438 1.583-1.231 1.723l-5.721 1.007c-.795.14-1.746.843-2.121 1.566l-2.71 5.219a1.502 1.502 0 0 1-1.993.658l-5.211-2.603zM433.561 103.743c-.724-.362-1.9-.361-2.622 0l-5.21 2.603a1.502 1.502 0 0 1-1.993-.658l-2.71-5.22c-.377-.724-1.329-1.426-2.122-1.566l-5.72-1.006c-.796-.14-1.347-.914-1.232-1.723l.825-5.841c.115-.812-.25-1.948-.81-2.535l-4.046-4.232a1.557 1.557 0 0 1 0-2.13l4.046-4.232c.562-.588.925-1.725.81-2.535l-.825-5.84c-.115-.812.438-1.584 1.231-1.724l5.721-1.006c.795-.14 1.746-.843 2.121-1.567l2.71-5.219a1.502 1.502 0 0 1 1.993-.658l5.211 2.603c.724.362 1.9.361 2.622 0l5.21-2.603a1.502 1.502 0 0 1 1.993.658l2.71 5.22c.377.724 1.329 1.426 2.122 1.566l5.72 1.006c.796.14 1.347.914 1.232 1.723l-.825 5.841c-.115.812.25 1.948.81 2.535l4.046 4.232c.562.588.56 1.543 0 2.13l-4.046 4.232c-.562.588-.925 1.725-.81 2.535l.825 5.84c.115.812-.438 1.584-1.231 1.724l-5.721 1.006c-.795.14-1.746.843-2.121 1.567l-2.71 5.219a1.502 1.502 0 0 1-1.993.658l-5.211-2.603z"/>
            <g opacity=".25" transform="translate(33 7.5)">
                <circle cx="86.5" cy="182.25" r="3.75"/>
                <circle cx="102.25" cy="315" r="3.75"/>
                <circle cx="112.25" cy="405" r="3.75"/>
                <circle cx="508" cy="250.5" r="3.75"/>
                <circle cx="487.75" cy="339" r="3.75"/>
                <circle cx="227.75" cy="429" r="3.75"/>
                <circle cx="3.75" cy="178.75" r="3.75"/>
                <circle cx="106.75" cy="3.75" r="3.75"/>
                <circle cx="74.125" cy="367.875" r="1.875"/>
                <circle cx="222.25" cy="41.25" r="3.75"/>
                <circle cx="179.5" cy="81" r="6"/>
                <circle cx="453.25" cy="227.25" r="6"/>
                <circle cx="433.25" cy="137.25" r="6"/>
                <circle cx="453.25" cy="387.25" r="6"/>
                <circle cx="96.25" cy="256.5" r="6"/>
                <circle cx="443.5" cy="10.5" r="3.75"/>
                <circle cx="363.625" cy="125.625" r="1.875"/>
                <circle cx="431.125" cy="193.125" r="1.875"/>
            </g>
            <g>
                <path d="M536.311 224.493c-.724-.362-1.9-.361-2.622 0l-5.21 2.603a1.502 1.502 0 0 1-1.993-.658l-2.71-5.22c-.377-.724-1.329-1.426-2.122-1.566l-5.72-1.006c-.796-.14-1.347-.914-1.232-1.723l.825-5.841c.115-.812-.25-1.948-.81-2.535l-4.046-4.232a1.557 1.557 0 0 1 0-2.13l4.046-4.232c.562-.588.925-1.725.81-2.535l-.825-5.84c-.115-.812.438-1.584 1.231-1.724l5.721-1.006c.795-.14 1.746-.843 2.121-1.567l2.71-5.219a1.502 1.502 0 0 1 1.993-.658l5.211 2.603c.724.362 1.9.361 2.622 0l5.21-2.603a1.502 1.502 0 0 1 1.993.658l2.71 5.22c.377.724 1.329 1.426 2.122 1.566l5.72 1.006c.796.14 1.347.914 1.232 1.723l-.825 5.841c-.115.812.25 1.948.81 2.535l4.046 4.232c.562.588.56 1.543 0 2.13l-4.046 4.232c-.562.588-.925 1.725-.81 2.535l.825 5.84c.115.812-.438 1.584-1.231 1.724l-5.721 1.006c-.795.14-1.746.843-2.121 1.567l-2.71 5.219a1.502 1.502 0 0 1-1.993.658l-5.211-2.603zM338.78 69.121c-.362-.18-.95-.18-1.31 0l-2.606 1.302a.751.751 0 0 1-.996-.33l-1.355-2.609c-.189-.362-.664-.713-1.06-.783l-2.861-.503a.768.768 0 0 1-.616-.862l.413-2.92c.057-.406-.125-.974-.405-1.267l-2.023-2.117a.778.778 0 0 1 0-1.064l2.023-2.117c.28-.294.462-.862.405-1.267l-.413-2.92a.768.768 0 0 1 .616-.862l2.86-.503c.398-.07.873-.422 1.06-.783l1.356-2.61a.751.751 0 0 1 .996-.329l2.605 1.302c.363.18.95.18 1.312 0l2.605-1.302a.751.751 0 0 1 .996.33l1.355 2.609c.189.362.664.713 1.06.783l2.861.503c.398.07.673.457.616.862l-.413 2.92c-.057.406.125.974.405 1.267l2.023 2.117a.778.778 0 0 1 0 1.064l-2.023 2.117c-.28.294-.462.862-.405 1.267l.413 2.92a.768.768 0 0 1-.616.862l-2.86.503c-.398.07-.873.422-1.06.783l-1.356 2.61a.751.751 0 0 1-.996.329l-2.605-1.302zM59.03 375.871c-.362-.18-.95-.18-1.31 0l-2.606 1.302a.751.751 0 0 1-.996-.33l-1.355-2.609c-.189-.362-.664-.713-1.06-.783l-2.861-.503a.768.768 0 0 1-.616-.862l.413-2.92c.057-.406-.125-.974-.405-1.267l-2.023-2.117a.778.778 0 0 1 0-1.064l2.023-2.117c.28-.294.462-.862.405-1.267l-.413-2.92a.768.768 0 0 1 .616-.862l2.86-.503c.398-.07.873-.422 1.06-.783l1.356-2.61a.751.751 0 0 1 .996-.329l2.605 1.302c.363.18.95.18 1.312 0l2.605-1.302a.751.751 0 0 1 .996.33l1.355 2.609c.189.362.664.713 1.06.783l2.861.503c.398.07.673.457.616.862l-.413 2.92c-.057.406.125.974.405 1.267l2.023 2.117a.778.778 0 0 1 0 1.064l-2.023 2.117c-.28.294-.462.862-.405 1.267l.413 2.92a.768.768 0 0 1-.616.862l-2.86.503c-.398.07-.873.422-1.06.783l-1.356 2.61a.751.751 0 0 1-.996.329l-2.605-1.302zM565.28 351.871c-.362-.18-.95-.18-1.31 0l-2.606 1.302a.751.751 0 0 1-.996-.33l-1.355-2.609c-.189-.362-.664-.713-1.06-.783l-2.861-.503a.768.768 0 0 1-.616-.862l.413-2.92c.057-.406-.125-.974-.405-1.267l-2.023-2.117a.778.778 0 0 1 0-1.064l2.023-2.117c.28-.294.462-.862.405-1.267l-.413-2.92a.768.768 0 0 1 .616-.862l2.86-.503c.398-.07.873-.422 1.06-.783l1.356-2.61a.751.751 0 0 1 .996-.329l2.605 1.302c.363.18.95.18 1.312 0l2.605-1.302a.751.751 0 0 1 .996.33l1.355 2.609c.189.362.664.713 1.06.783l2.861.503c.398.07.673.457.616.862l-.413 2.92c-.057.406.125.974.405 1.267l2.023 2.117a.778.778 0 0 1 0 1.064l-2.023 2.117c-.28.294-.462.862-.405 1.267l.413 2.92a.768.768 0 0 1-.616.862l-2.86.503c-.398.07-.873.422-1.06.783l-1.356 2.61a.751.751 0 0 1-.996.329l-2.605-1.302zM470.78 285.871c-.362-.18-.95-.18-1.31 0l-2.606 1.302a.751.751 0 0 1-.996-.33l-1.355-2.609c-.189-.362-.664-.713-1.06-.783l-2.861-.503a.768.768 0 0 1-.616-.862l.413-2.92c.057-.406-.125-.974-.405-1.267l-2.023-2.117a.778.778 0 0 1 0-1.064l2.023-2.117c.28-.294.462-.862.405-1.267l-.413-2.92a.768.768 0 0 1 .616-.862l2.86-.503c.398-.07.873-.422 1.06-.783l1.356-2.61a.751.751 0 0 1 .996-.329l2.605 1.302c.363.18.95.18 1.312 0l2.605-1.302a.751.751 0 0 1 .996.33l1.355 2.609c.189.362.664.713 1.06.783l2.861.503c.398.07.673.457.616.862l-.413 2.92c-.057.406.125.974.405 1.267l2.023 2.117a.778.778 0 0 1 0 1.064l-2.023 2.117c-.28.294-.462.862-.405 1.267l.413 2.92a.768.768 0 0 1-.616.862l-2.86.503c-.398.07-.873.422-1.06.783l-1.356 2.61a.751.751 0 0 1-.996.329l-2.605-1.302zM364.03 446.121c-.362-.18-.95-.18-1.31 0l-2.606 1.302a.751.751 0 0 1-.996-.33l-1.355-2.609c-.189-.362-.664-.713-1.06-.783l-2.861-.503a.768.768 0 0 1-.616-.862l.413-2.92c.057-.406-.125-.974-.405-1.267l-2.023-2.117a.778.778 0 0 1 0-1.064l2.023-2.117c.28-.294.462-.862.405-1.267l-.413-2.92a.768.768 0 0 1 .616-.862l2.86-.503c.398-.07.873-.422 1.06-.783l1.356-2.61a.751.751 0 0 1 .996-.329l2.605 1.302c.363.18.95.18 1.312 0l2.605-1.302a.751.751 0 0 1 .996.33l1.355 2.609c.189.362.664.713 1.06.783l2.861.503c.398.07.673.457.616.862l-.413 2.92c-.057.406.125.974.405 1.267l2.023 2.117a.778.778 0 0 1 0 1.064l-2.023 2.117c-.28.294-.462.862-.405 1.267l.413 2.92a.768.768 0 0 1-.616.862l-2.86.503c-.398.07-.873.422-1.06.783l-1.356 2.61a.751.751 0 0 1-.996.329l-2.605-1.302z"/>
            </g>
        </g>
    </g>
</svg>
