<svg xmlns="http://www.w3.org/2000/svg" xmlns:xlink="http://www.w3.org/1999/xlink" width="529" height="629" viewBox="0 0 529 629">
    <defs>
        <path id="b" d="M0 0h288v470.693H0z"/>
        <filter id="a" width="117%" height="110.4%" x="-8.5%" y="-3.7%" filterUnits="objectBoundingBox">
            <feOffset dy="7" in="SourceAlpha" result="shadowOffsetOuter1"/>
            <feGaussianBlur in="shadowOffsetOuter1" result="shadowBlurOuter1" stdDeviation="7"/>
            <feColorMatrix in="shadowBlurOuter1" values="0 0 0 0 0.152941176 0 0 0 0 0.250980392 0 0 0 0 0.349019608 0 0 0 0.1 0"/>
        </filter>
        <path id="c" d="M7.2 3.628h1v1h-1z"/>
        <rect id="d" width="18" height="13.5" rx=".9"/>
        <rect id="f" width="320" height="530" rx="4"/>
        <filter id="g" width="117.5%" height="110.6%" x="-8.8%" y="-3.8%" filterUnits="objectBoundingBox">
            <feOffset dy="8" in="SourceAlpha" result="shadowOffsetOuter1"/>
            <feGaussianBlur in="shadowOffsetOuter1" result="shadowBlurOuter1" stdDeviation="8"/>
            <feColorMatrix in="shadowBlurOuter1" values="0 0 0 0 0.152941176 0 0 0 0 0.250980392 0 0 0 0 0.349019608 0 0 0 0.1 0"/>
        </filter>
        <linearGradient id="j" x1="35.542%" x2="35.542%" y1="95.749%" y2="0%">
            <stop offset="0%" stop-color="#FFF" stop-opacity=".5"/>
            <stop offset="100%" stop-color="#FFF" stop-opacity="0"/>
        </linearGradient>
        <path id="i" d="M297 393a8 8 0 1 1 0-16 8 8 0 0 1 0 16zm.005-1.495a6.5 6.5 0 1 0 0-13 6.5 6.5 0 0 0 0 13zm1.747-3.197l-.118.482c-.354.14-.636.246-.847.319-.21.073-.455.11-.733.11-.429 0-.762-.105-1-.314a1.013 1.013 0 0 1-.356-.795c0-.125.01-.253.027-.383a4.62 4.62 0 0 1 .086-.442l.439-1.564c.04-.15.072-.292.1-.426.026-.134.04-.257.04-.367 0-.2-.042-.34-.124-.418-.082-.079-.24-.118-.471-.118-.115 0-.232.018-.351.054-.12.035-.222.07-.308.101l.118-.482c.289-.118.566-.219.83-.302a2.48 2.48 0 0 1 .75-.126c.425 0 .753.102.983.308.23.205.345.472.345.8 0 .068-.008.188-.024.36a2.43 2.43 0 0 1-.088.47l-.44 1.56a4.333 4.333 0 0 0-.096.428c-.028.161-.043.282-.043.365 0 .207.047.348.14.423.093.075.253.112.482.112.107 0 .228-.018.364-.056.136-.037.234-.07.295-.1zm.112-6.54a.913.913 0 0 1-.308.693 1.05 1.05 0 0 1-.742.286 1.06 1.06 0 0 1-.744-.286.91.91 0 0 1-.311-.694c0-.271.104-.503.31-.696.208-.193.456-.29.745-.29.29 0 .537.097.742.29a.921.921 0 0 1 .308.696z"/>
        <path id="k" d="M0 451h320v80H0z"/>
        <filter id="l" width="100.3%" height="101.2%" x="-.2%" y="-.6%" filterUnits="objectBoundingBox">
            <feOffset dy="1" in="SourceAlpha" result="shadowOffsetInner1"/>
            <feComposite in="shadowOffsetInner1" in2="SourceAlpha" k2="-1" k3="1" operator="arithmetic" result="shadowInnerInner1"/>
            <feColorMatrix in="shadowInnerInner1" values="0 0 0 0 0.874 0 0 0 0 0.897 0 0 0 0 0.92 0 0 0 1 0"/>
        </filter>
        <path id="n" d="M160 408h160v44H160z"/>
        <filter id="m" width="101.2%" height="104.5%" x="-.6%" y="-2.3%" filterUnits="objectBoundingBox">
            <feOffset dy="2" in="SourceAlpha" result="shadowOffsetInner1"/>
            <feComposite in="shadowOffsetInner1" in2="SourceAlpha" k2="-1" k3="1" operator="arithmetic" result="shadowInnerInner1"/>
            <feColorMatrix in="shadowInnerInner1" result="shadowMatrixInner1" values="0 0 0 0 1 0 0 0 0 1 0 0 0 0 1 0 0 0 1 0"/>
            <feOffset dy="-1" in="SourceAlpha" result="shadowOffsetInner2"/>
            <feComposite in="shadowOffsetInner2" in2="SourceAlpha" k2="-1" k3="1" operator="arithmetic" result="shadowInnerInner2"/>
            <feColorMatrix in="shadowInnerInner2" result="shadowMatrixInner2" values="0 0 0 0 0.874509804 0 0 0 0 0.898039216 0 0 0 0 0.921568627 0 0 0 1 0"/>
            <feOffset dy="1" in="SourceAlpha" result="shadowOffsetInner3"/>
            <feComposite in="shadowOffsetInner3" in2="SourceAlpha" k2="-1" k3="1" operator="arithmetic" result="shadowInnerInner3"/>
            <feColorMatrix in="shadowInnerInner3" result="shadowMatrixInner3" values="0 0 0 0 0.874 0 0 0 0 0.897 0 0 0 0 0.92 0 0 0 1 0"/>
            <feOffset in="SourceAlpha" result="shadowOffsetInner4"/>
            <feComposite in="shadowOffsetInner4" in2="SourceAlpha" k2="-1" k3="1" operator="arithmetic" result="shadowInnerInner4"/>
            <feColorMatrix in="shadowInnerInner4" result="shadowMatrixInner4" values="0 0 0 0 0.874 0 0 0 0 0.897 0 0 0 0 0.92 0 0 0 1 0"/>
            <feMerge>
                <feMergeNode in="shadowMatrixInner1"/>
                <feMergeNode in="shadowMatrixInner2"/>
                <feMergeNode in="shadowMatrixInner3"/>
                <feMergeNode in="shadowMatrixInner4"/>
            </feMerge>
        </filter>
        <linearGradient id="q" x1="50%" x2="50%" y1="0%" y2="97.933%">
            <stop offset="0%" stop-color="#FFF" stop-opacity=".7"/>
            <stop offset="100%" stop-color="#FFF" stop-opacity="0"/>
        </linearGradient>
        <path id="p" d="M0 408h160v44H0z"/>
        <filter id="o" width="101.2%" height="104.5%" x="-.3%" y="-1.1%" filterUnits="objectBoundingBox">
            <feOffset dy="1" in="SourceAlpha" result="shadowOffsetOuter1"/>
            <feComposite in="shadowOffsetOuter1" in2="SourceAlpha" operator="out" result="shadowOffsetOuter1"/>
            <feColorMatrix in="shadowOffsetOuter1" result="shadowMatrixOuter1" values="0 0 0 0 0.874509804 0 0 0 0 0.898039216 0 0 0 0 0.921568627 0 0 0 0.251754982 0"/>
            <feOffset dx="1" in="SourceAlpha" result="shadowOffsetOuter2"/>
            <feComposite in="shadowOffsetOuter2" in2="SourceAlpha" operator="out" result="shadowOffsetOuter2"/>
            <feColorMatrix in="shadowOffsetOuter2" result="shadowMatrixOuter2" values="0 0 0 0 0.874509804 0 0 0 0 0.898039216 0 0 0 0 0.921568627 0 0 0 0.2 0"/>
            <feMerge>
                <feMergeNode in="shadowMatrixOuter1"/>
                <feMergeNode in="shadowMatrixOuter2"/>
            </feMerge>
        </filter>
        <filter id="r" width="101.9%" height="106.8%" x="-.6%" y="-2.3%" filterUnits="objectBoundingBox">
            <feOffset dy="2" in="SourceAlpha" result="shadowOffsetInner1"/>
            <feComposite in="shadowOffsetInner1" in2="SourceAlpha" k2="-1" k3="1" operator="arithmetic" result="shadowInnerInner1"/>
            <feColorMatrix in="shadowInnerInner1" result="shadowMatrixInner1" values="0 0 0 0 1 0 0 0 0 1 0 0 0 0 1 0 0 0 1 0"/>
            <feOffset dy="-1" in="SourceAlpha" result="shadowOffsetInner2"/>
            <feComposite in="shadowOffsetInner2" in2="SourceAlpha" k2="-1" k3="1" operator="arithmetic" result="shadowInnerInner2"/>
            <feColorMatrix in="shadowInnerInner2" result="shadowMatrixInner2" values="0 0 0 0 0.874509804 0 0 0 0 0.898039216 0 0 0 0 0.921568627 0 0 0 1 0"/>
            <feOffset dx="-1" in="SourceAlpha" result="shadowOffsetInner3"/>
            <feComposite in="shadowOffsetInner3" in2="SourceAlpha" k2="-1" k3="1" operator="arithmetic" result="shadowInnerInner3"/>
            <feColorMatrix in="shadowInnerInner3" result="shadowMatrixInner3" values="0 0 0 0 0.874 0 0 0 0 0.897 0 0 0 0 0.92 0 0 0 1 0"/>
            <feOffset dy="1" in="SourceAlpha" result="shadowOffsetInner4"/>
            <feComposite in="shadowOffsetInner4" in2="SourceAlpha" k2="-1" k3="1" operator="arithmetic" result="shadowInnerInner4"/>
            <feColorMatrix in="shadowInnerInner4" result="shadowMatrixInner4" values="0 0 0 0 0.874 0 0 0 0 0.897 0 0 0 0 0.92 0 0 0 1 0"/>
            <feMerge>
                <feMergeNode in="shadowMatrixInner1"/>
                <feMergeNode in="shadowMatrixInner2"/>
                <feMergeNode in="shadowMatrixInner3"/>
                <feMergeNode in="shadowMatrixInner4"/>
            </feMerge>
        </filter>
        <path id="t" d="M0-2h320v40H0z"/>
        <filter id="s" width="100.3%" height="102.5%" x="-.2%" y="-1.2%" filterUnits="objectBoundingBox">
            <feOffset dy="-1" in="SourceAlpha" result="shadowOffsetInner1"/>
            <feComposite in="shadowOffsetInner1" in2="SourceAlpha" k2="-1" k3="1" operator="arithmetic" result="shadowInnerInner1"/>
            <feColorMatrix in="shadowInnerInner1" result="shadowMatrixInner1" values="0 0 0 0 0.874509804 0 0 0 0 0.898039216 0 0 0 0 0.921568627 0 0 0 0.4 0"/>
            <feOffset dy="1" in="SourceAlpha" result="shadowOffsetInner2"/>
            <feComposite in="shadowOffsetInner2" in2="SourceAlpha" k2="-1" k3="1" operator="arithmetic" result="shadowInnerInner2"/>
            <feColorMatrix in="shadowInnerInner2" result="shadowMatrixInner2" values="0 0 0 0 0.874 0 0 0 0 0.897 0 0 0 0 0.92 0 0 0 1 0"/>
            <feMerge>
                <feMergeNode in="shadowMatrixInner1"/>
                <feMergeNode in="shadowMatrixInner2"/>
            </feMerge>
        </filter>
        <linearGradient id="u" x1="50%" x2="50%" y1="3.41%" y2="93.419%">
            <stop offset="0%" stop-color="#178FE6" stop-opacity=".1"/>
            <stop offset="100%" stop-color="#178FE6" stop-opacity=".2"/>
        </linearGradient>
        <linearGradient id="x" x1="65.501%" x2="65.501%" y1="98.914%" y2="5.359%">
            <stop offset="0%" stop-color="#178FE6"/>
            <stop offset="100%" stop-color="#399EE6"/>
        </linearGradient>
        <linearGradient id="y" x1="50%" x2="50%" y1=".909%" y2="97.636%">
            <stop offset="0%" stop-color="#3EA7E8"/>
            <stop offset="100%" stop-color="#1484E3"/>
        </linearGradient>
        <linearGradient id="A" x1="50%" x2="50%" y1="0%" y2="98.364%">
            <stop offset="0%" stop-color="#2792E4"/>
            <stop offset="100%" stop-color="#1585E3"/>
        </linearGradient>
        <circle id="w" cx="86" cy="86" r="86"/>
        <filter id="v" width="104.7%" height="104.7%" x="-2.3%" y="-1.7%" filterUnits="objectBoundingBox">
            <feMorphology in="SourceAlpha" operator="dilate" radius=".5" result="shadowSpreadOuter1"/>
            <feOffset dy="1" in="shadowSpreadOuter1" result="shadowOffsetOuter1"/>
            <feGaussianBlur in="shadowOffsetOuter1" result="shadowBlurOuter1" stdDeviation="1"/>
            <feComposite in="shadowBlurOuter1" in2="SourceAlpha" operator="out" result="shadowBlurOuter1"/>
            <feColorMatrix in="shadowBlurOuter1" values="0 0 0 0 0.149019608 0 0 0 0 0.223529412 0 0 0 0 0.301960784 0 0 0 0.177904212 0"/>
        </filter>
        <filter id="z" width="105.2%" height="105.2%" x="-2.6%" y="-2%" filterUnits="objectBoundingBox">
            <feGaussianBlur in="SourceAlpha" result="shadowBlurInner1" stdDeviation=".5"/>
            <feOffset dy="1" in="shadowBlurInner1" result="shadowOffsetInner1"/>
            <feComposite in="shadowOffsetInner1" in2="SourceAlpha" k2="-1" k3="1" operator="arithmetic" result="shadowInnerInner1"/>
            <feColorMatrix in="shadowInnerInner1" result="shadowMatrixInner1" values="0 0 0 0 1 0 0 0 0 1 0 0 0 0 1 0 0 0 0.30114923 0"/>
            <feGaussianBlur in="SourceAlpha" result="shadowBlurInner2" stdDeviation="1"/>
            <feOffset dy="-2" in="shadowBlurInner2" result="shadowOffsetInner2"/>
            <feComposite in="shadowOffsetInner2" in2="SourceAlpha" k2="-1" k3="1" operator="arithmetic" result="shadowInnerInner2"/>
            <feColorMatrix in="shadowInnerInner2" result="shadowMatrixInner2" values="0 0 0 0 1 0 0 0 0 1 0 0 0 0 1 0 0 0 0.268229167 0"/>
            <feMerge>
                <feMergeNode in="shadowMatrixInner1"/>
                <feMergeNode in="shadowMatrixInner2"/>
            </feMerge>
        </filter>
        <rect id="B" width="20" height="15" rx="2"/>
        <filter id="C" width="117.5%" height="123.3%" x="-8.8%" y="-8.3%" filterUnits="objectBoundingBox">
            <feOffset dy=".5" in="SourceAlpha" result="shadowOffsetOuter1"/>
            <feGaussianBlur in="shadowOffsetOuter1" result="shadowBlurOuter1" stdDeviation=".5"/>
            <feColorMatrix in="shadowBlurOuter1" values="0 0 0 0 0.149019608 0 0 0 0 0.223529412 0 0 0 0 0.301960784 0 0 0 0.108780571 0"/>
        </filter>
        <rect id="E" width="18" height="14" x="1" y="1" rx=".5"/>
        <filter id="F" width="105.6%" height="107.1%" x="-2.8%" y="-3.6%" filterUnits="objectBoundingBox">
            <feGaussianBlur in="SourceAlpha" result="shadowBlurInner1" stdDeviation=".25"/>
            <feOffset dy=".5" in="shadowBlurInner1" result="shadowOffsetInner1"/>
            <feComposite in="shadowOffsetInner1" in2="SourceAlpha" k2="-1" k3="1" operator="arithmetic" result="shadowInnerInner1"/>
            <feColorMatrix in="shadowInnerInner1" values="0 0 0 0 1 0 0 0 0 1 0 0 0 0 1 0 0 0 0.204625226 0"/>
        </filter>
        <rect id="G" width="20" height="15" rx="2"/>
        <circle id="H" cx="46" cy="6" r="6"/>
        <circle id="I" cx="26" cy="6" r="6"/>
        <circle id="J" cx="6" cy="6" r="6"/>
        <rect id="L" width="16" height="16" x="16" rx="8"/>
        <filter id="K" width="181.2%" height="181.2%" x="-40.6%" y="-25%" filterUnits="objectBoundingBox">
            <feOffset dy="2" in="SourceAlpha" result="shadowOffsetOuter1"/>
            <feGaussianBlur in="shadowOffsetOuter1" result="shadowBlurOuter1" stdDeviation="1.5"/>
            <feComposite in="shadowBlurOuter1" in2="SourceAlpha" operator="out" result="shadowBlurOuter1"/>
            <feColorMatrix in="shadowBlurOuter1" result="shadowMatrixOuter1" values="0 0 0 0 0.149019608 0 0 0 0 0.223529412 0 0 0 0 0.301960784 0 0 0 0.24 0"/>
            <feOffset dy=".5" in="SourceAlpha" result="shadowOffsetOuter2"/>
            <feGaussianBlur in="shadowOffsetOuter2" result="shadowBlurOuter2" stdDeviation=".5"/>
            <feComposite in="shadowBlurOuter2" in2="SourceAlpha" operator="out" result="shadowBlurOuter2"/>
            <feColorMatrix in="shadowBlurOuter2" result="shadowMatrixOuter2" values="0 0 0 0 0.149019608 0 0 0 0 0.223529412 0 0 0 0 0.301960784 0 0 0 0.12 0"/>
            <feMerge>
                <feMergeNode in="shadowMatrixOuter1"/>
                <feMergeNode in="shadowMatrixOuter2"/>
            </feMerge>
        </filter>
        <linearGradient id="M" x1="50%" x2="50%" y1="0%" y2="100%">
            <stop offset="0%" stop-color="#B4C1CC"/>
            <stop offset="97.038%" stop-color="#CAD3DB"/>
        </linearGradient>
    </defs>
    <g fill="none" fill-rule="evenodd">
        <g transform="translate(19 81.907)">
            <use fill="#000" filter="url(#a)" xlink:href="#b"/>
            <use fill="#FFF" xlink:href="#b"/>
        </g>
        <g transform="translate(85.6 169.878)">
            <ellipse cx="75.6" cy="76.182" fill="#DDE5EB" rx="75.6" ry="76.182"/>
            <path fill="#26394D" d="M45.762 81.63c-.9.542-1.966.812-3.2.812-1.668 0-3.014-.543-4.039-1.628-1.024-1.086-1.536-2.493-1.536-4.222 0-1.927.552-3.475 1.656-4.645 1.105-1.169 2.579-1.754 4.422-1.754 1.028 0 1.935.19 2.72.572v1.92c-.869-.61-1.798-.915-2.788-.915-1.196 0-2.177.429-2.943 1.286-.765.857-1.148 1.982-1.148 3.376 0 1.371.36 2.453 1.08 3.245.72.792 1.685 1.188 2.896 1.188 1.021 0 1.98-.339 2.88-1.017v1.783zm7.358.812c-1.73 0-3.11-.547-4.142-1.64-1.032-1.093-1.548-2.542-1.548-4.347 0-1.965.537-3.5 1.61-4.605 1.075-1.104 2.526-1.657 4.354-1.657 1.744 0 3.106.537 4.085 1.612.979 1.074 1.468 2.563 1.468 4.467 0 1.866-.528 3.361-1.583 4.485-1.055 1.123-2.47 1.685-4.244 1.685zm.137-10.672c-1.204 0-2.156.41-2.857 1.229-.7.818-1.05 1.948-1.05 3.387 0 1.387.353 2.48 1.062 3.28.708.8 1.657 1.2 2.845 1.2 1.211 0 2.142-.393 2.793-1.178.652-.784.977-1.9.977-3.347 0-1.463-.325-2.59-.977-3.382-.65-.793-1.582-1.189-2.793-1.189zm18.03 10.398h-1.874v-6.673c0-2.483-.906-3.725-2.72-3.725-.936 0-1.711.353-2.325 1.057-.613.705-.92 1.594-.92 2.668v6.673h-1.873v-11.7h1.874v1.942h.045c.884-1.478 2.164-2.217 3.84-2.217 1.28 0 2.258.414 2.936 1.24.678.827 1.017 2.02 1.017 3.582v7.153zm12.877 0H82.29v-6.673c0-2.483-.907-3.725-2.72-3.725-.936 0-1.712.353-2.325 1.057-.613.705-.92 1.594-.92 2.668v6.673h-1.873v-11.7h1.874v1.942h.045c.884-1.478 2.164-2.217 3.84-2.217 1.279 0 2.258.414 2.936 1.24.678.827 1.017 2.02 1.017 3.582v7.153zm12.568-5.382h-8.26c.03 1.303.38 2.308 1.05 3.017.67.708 1.592 1.062 2.765 1.062 1.318 0 2.53-.434 3.634-1.302v1.76c-1.029.746-2.388 1.119-4.08 1.119-1.652 0-2.95-.531-3.895-1.594-.945-1.063-1.417-2.557-1.417-4.485 0-1.82.516-3.304 1.548-4.45 1.032-1.146 2.314-1.72 3.845-1.72 1.53 0 2.715.496 3.553 1.486.838.99 1.257 2.365 1.257 4.125v.982zm-1.92-1.588c-.007-1.082-.268-1.923-.782-2.525-.514-.602-1.228-.903-2.143-.903-.883 0-1.633.316-2.25.949-.617.632-.998 1.458-1.143 2.479h6.318zm12.363 6.433c-.899.54-1.965.81-3.2.81-1.667 0-3.014-.542-4.038-1.627-1.025-1.086-1.537-2.493-1.537-4.222 0-1.927.552-3.475 1.657-4.645 1.104-1.169 2.578-1.754 4.422-1.754 1.028 0 1.934.19 2.719.572v1.92c-.868-.61-1.798-.915-2.788-.915-1.196 0-2.176.429-2.942 1.286s-1.148 1.982-1.148 3.376c0 1.371.36 2.453 1.08 3.245.72.792 1.685 1.188 2.896 1.188 1.02 0 1.98-.339 2.88-1.017v1.783zm7.895.422c-.441.244-1.024.366-1.748.366-2.049 0-3.073-1.143-3.073-3.428v-6.924h-2.011v-1.6h2.01v-2.856l1.875-.605v3.462h2.947v1.6h-2.947v6.592c0 .785.133 1.344.4 1.68.266.335.708.502 1.325.502.472 0 .88-.13 1.222-.388v1.6z"/>
        </g>
        <path fill="#FFF" fill-opacity=".02" d="M19 392.982h288V552.6H19z"/>
        <path d="M19 505.44h288v47.16H19z"/>
        <path d="M19 505.44h36v47.16H19z"/>
        <path fill="#000" d="M42.368 529.67c0 .043.001.086.004.129a2.33 2.33 0 0 1 0 .256 2.33 2.33 0 0 0-.004.128l1.832 1.148-1.125 2.73-2.1-.485a6.278 6.278 0 0 1-.354.356l.481 2.117-2.709 1.133-1.138-1.846c-.043 0-.085.002-.128.004a2.277 2.277 0 0 1-.254 0 2.277 2.277 0 0 0-.128-.004l-1.138 1.846-2.71-1.133.482-2.117a6.278 6.278 0 0 1-.354-.356l-2.1.485-1.125-2.73 1.832-1.148a2.33 2.33 0 0 0-.004-.128 2.33 2.33 0 0 1 0-.256 2.33 2.33 0 0 0 .004-.129l-1.832-1.147 1.125-2.73 2.1.485c.113-.124.231-.242.354-.357l-.481-2.116 2.709-1.133 1.138 1.845c.043 0 .085 0 .128-.003a2.277 2.277 0 0 1 .254 0c.043.002.085.003.128.003l1.138-1.845 2.71 1.133-.482 2.116c.123.115.24.233.354.357l2.1-.485 1.125 2.73-1.832 1.147zm-.827.927l.028-.339a4.021 4.021 0 0 0 0-.673l-.028-.335 1.669-1.048-.608-1.482-1.917.449a6.176 6.176 0 0 0-.45-.5 8.696 8.696 0 0 0-.498-.455l.446-1.932-1.471-.613-1.047 1.682-.333-.028a3.972 3.972 0 0 0-.668 0l-.336.028-1.04-1.682-1.47.613.445 1.932c-.18.147-.344.298-.495.452-.151.155-.302.322-.453.503l-1.917-.45-.608 1.483 1.67 1.055-.029.339a4.021 4.021 0 0 0 0 .673l.028.335-1.669 1.048.608 1.482 1.917-.449c.146.18.296.347.45.499.152.152.319.304.498.456l-.446 1.932 1.471.613 1.047-1.682.333.028a3.972 3.972 0 0 0 .668 0l.336-.028 1.04 1.682 1.47-.613-.445-1.932c.18-.147.344-.298.495-.452.151-.155.302-.322.453-.503l1.917.45.608-1.483-1.67-1.055zM37 527.247c.368 0 .713.07 1.036.21a2.682 2.682 0 0 1 1.415 1.426c.139.325.208.673.208 1.044 0 .37-.07.719-.208 1.044a2.682 2.682 0 0 1-1.415 1.425c-.323.14-.668.21-1.036.21s-.713-.07-1.036-.21a2.682 2.682 0 0 1-1.415-1.425 2.629 2.629 0 0 1-.208-1.044c0-.37.07-.719.208-1.044a2.682 2.682 0 0 1 1.415-1.425c.323-.14.668-.21 1.036-.21zm0 4.561c.26 0 .502-.048.728-.146a1.87 1.87 0 0 0 1.14-1.735 1.862 1.862 0 0 0-.545-1.333 1.87 1.87 0 0 0-.595-.403 1.823 1.823 0 0 0-.728-.146c-.26 0-.502.05-.728.146a1.87 1.87 0 0 0-1.14 1.736 1.862 1.862 0 0 0 .545 1.333c.17.17.368.305.595.402.226.098.469.146.728.146z"/>
        <path d="M55 505.44h36v47.16H55z"/>
        <g transform="translate(65.8 522.672)">
            <rect width="14.4" height="14.518" x=".45" y=".45" stroke="#000" stroke-width=".9" rx="7.2"/>
            <path stroke="#000" stroke-linecap="square" stroke-width=".9" d="M7.65 6.802v3.628M7.65 6.802h-.9M8.775 10.43h-2.25"/>
            <use fill="#D8D8D8" xlink:href="#c"/>
            <path stroke="#000" stroke-width=".9" d="M7.65 4.078h1v1h-1z"/>
        </g>
        <path d="M91 505.44h36v47.16H91z"/>
        <g stroke="#172533" stroke-width=".9">
            <path d="M101.35 524.936h15.3v10.89h-15.3z"/>
            <path stroke-linecap="square" d="M103.15 523.125h11.7"/>
            <path d="M102.077 524.935l6.923 6.202 6.923-6.202h-13.846z"/>
        </g>
        <g>
            <g transform="translate(256.6 519.113)">
                <rect width="39.6" height="18" fill="#178FE6" rx="9"/>
                <circle cx="30.6" cy="9" r="4.5" fill="#FFF"/>
            </g>
            <text fill="#26394D" font-family="SegoeUI, Segoe UI" font-size="13.5" transform="translate(195.4 519.113)">
                <tspan x="0" y="15">Firewall</tspan>
            </text>
        </g>
        <path fill="#26394D" d="M29.8 505.44h266.4v1H29.8z" opacity=".1"/>
        <g>
            <path d="M29.8 392.982H163v65.298H29.8z"/>
            <path fill="#178FE6" d="M32.393 432.434v-1.857c.942.696 1.98 1.045 3.111 1.045 1.519 0 2.278-.507 2.278-1.52 0-.288-.065-.532-.195-.732-.13-.2-.306-.378-.527-.533a4.06 4.06 0 0 0-.78-.416 50.36 50.36 0 0 0-.966-.385c-.478-.19-.898-.382-1.26-.575a3.807 3.807 0 0 1-.907-.654 2.433 2.433 0 0 1-.549-.828 2.93 2.93 0 0 1-.184-1.086c0-.507.116-.955.348-1.345.232-.39.541-.717.928-.981a4.328 4.328 0 0 1 1.324-.596 5.871 5.871 0 0 1 1.534-.2c.935 0 1.772.161 2.51.485v1.75c-.794-.52-1.708-.78-2.742-.78-.323 0-.615.037-.875.11-.26.075-.484.178-.67.312-.186.134-.33.294-.432.48a1.264 1.264 0 0 0-.153.617c0 .281.05.517.153.707.102.19.251.358.448.506.197.147.436.281.717.4.281.12.601.25.96.39.478.184.907.372 1.287.565.38.193.703.411.97.654.267.243.473.522.617.838.144.317.216.693.216 1.129 0 .534-.118.998-.353 1.392-.236.394-.55.72-.944.981-.394.26-.847.454-1.36.58a6.718 6.718 0 0 1-1.614.19c-1.111 0-2.075-.214-2.89-.643zm10.367-13.152c-.309 0-.573-.106-.79-.317a1.068 1.068 0 0 1-.328-.801c0-.324.11-.593.327-.807.218-.215.482-.322.791-.322.317 0 .586.107.807.322.222.214.332.483.332.807 0 .31-.11.573-.332.79-.221.219-.49.328-.807.328zm.844 13.542h-1.73v-10.8h1.73v10.8zm12.129 0h-1.73v-6.16c0-2.292-.836-3.438-2.51-3.438-.865 0-1.58.325-2.146.976-.566.65-.85 1.471-.85 2.462v6.16h-1.729v-10.8h1.73v1.793h.042c.816-1.364 1.997-2.046 3.544-2.046 1.181 0 2.085.381 2.71 1.144.626.763.939 1.865.939 3.307v6.602zm12.14-.865c0 3.966-1.899 5.948-5.696 5.948-1.336 0-2.503-.253-3.501-.759v-1.73c1.216.675 2.376 1.013 3.48 1.013 2.658 0 3.987-1.413 3.987-4.24v-1.181H66.1c-.823 1.378-2.06 2.067-3.713 2.067-1.343 0-2.424-.48-3.243-1.44-.82-.96-1.229-2.248-1.229-3.865 0-1.835.441-3.294 1.324-4.377.882-1.083 2.09-1.624 3.623-1.624 1.455 0 2.534.583 3.238 1.75h.042v-1.497h1.73v9.935zm-1.73-4.018v-1.593c0-.858-.29-1.593-.87-2.204-.58-.612-1.303-.918-2.168-.918-1.068 0-1.905.389-2.51 1.166-.605.777-.907 1.865-.907 3.264 0 1.202.29 2.164.87 2.884.58.721 1.348 1.082 2.305 1.082.97 0 1.76-.345 2.367-1.034.609-.69.913-1.572.913-2.647zm6.623 4.883h-1.73v-15.99h1.73v15.99zm11.844-4.968h-7.625c.028 1.203.352 2.13.97 2.785.619.654 1.47.98 2.553.98 1.216 0 2.334-.4 3.354-1.202v1.624c-.95.69-2.205 1.034-3.766 1.034-1.525 0-2.724-.49-3.596-1.471-.872-.981-1.308-2.361-1.308-4.14 0-1.68.476-3.05 1.43-4.108.952-1.058 2.135-1.587 3.548-1.587 1.413 0 2.507.457 3.28 1.37.774.915 1.16 2.184 1.16 3.808v.907zm-1.772-1.466c-.007-.998-.247-1.775-.722-2.33-.475-.556-1.134-.834-1.978-.834-.815 0-1.508.292-2.077.876-.57.583-.921 1.346-1.055 2.288h5.832zm9.577 1.097h-5.759v-1.36h5.759v1.36zm11.739 5.337h-1.73V426.6c0-2.25-.837-3.375-2.51-3.375-.844 0-1.554.325-2.13.976-.577.65-.865 1.485-.865 2.505v6.117h-1.73v-15.99h1.73v6.983h.042c.83-1.364 2.01-2.046 3.543-2.046 2.433 0 3.65 1.466 3.65 4.398v6.655zm7.435.253c-1.596 0-2.87-.505-3.823-1.514-.953-1.008-1.43-2.346-1.43-4.013 0-1.814.497-3.23 1.488-4.25s2.33-1.53 4.018-1.53c1.61 0 2.867.496 3.77 1.488.904.991 1.356 2.366 1.356 4.124 0 1.722-.487 3.102-1.46 4.14-.974 1.036-2.28 1.555-3.919 1.555zm.127-9.85c-1.111 0-1.99.377-2.637 1.133s-.97 1.798-.97 3.127c0 1.28.327 2.289.98 3.027.655.738 1.53 1.108 2.627 1.108 1.118 0 1.977-.363 2.579-1.087.6-.724.901-1.754.901-3.09 0-1.35-.3-2.39-.901-3.122-.602-.731-1.461-1.097-2.58-1.097zm9.45 8.036h-.042v6.528h-1.73v-15.767h1.73v1.898h.042c.85-1.434 2.095-2.151 3.733-2.151 1.393 0 2.479.483 3.26 1.45.78.967 1.17 2.262 1.17 3.886 0 1.807-.44 3.254-1.318 4.34-.88 1.087-2.082 1.63-3.607 1.63-1.4 0-2.479-.605-3.238-1.814zm-.042-4.356v1.508c0 .893.29 1.65.87 2.273.58.622 1.316.934 2.21.934 1.047 0 1.868-.401 2.462-1.203.594-.801.891-1.916.891-3.343 0-1.203-.278-2.145-.833-2.827-.555-.682-1.308-1.023-2.257-1.023-1.005 0-1.814.35-2.426 1.05-.612.7-.917 1.576-.917 2.631z"/>
            <path d="M163 392.982h133.2v65.298H163z"/>
            <path fill="#26394D" d="M180.086 432.824h-1.73v-6.202c0-1.195-.184-2.06-.553-2.594-.37-.535-.99-.802-1.862-.802-.738 0-1.366.338-1.883 1.013-.516.675-.775 1.483-.775 2.425v6.16h-1.73v-6.413c0-2.123-.819-3.185-2.457-3.185-.76 0-1.385.318-1.877.955-.492.636-.739 1.464-.739 2.483v6.16h-1.73v-10.8h1.73v1.708h.043c.766-1.307 1.884-1.961 3.354-1.961.738 0 1.381.205 1.93.617.548.411.924.95 1.128 1.619.802-1.491 1.997-2.236 3.586-2.236 2.377 0 3.565 1.466 3.565 4.398v6.655zm11.665 0h-1.73v-1.709h-.042c-.717 1.308-1.828 1.962-3.333 1.962-2.573 0-3.86-1.533-3.86-4.598v-6.455h1.72v6.18c0 2.278.87 3.418 2.615 3.418.843 0 1.538-.312 2.083-.934.545-.622.817-1.436.817-2.441v-6.223h1.73v10.8zm4.883 0h-1.73v-15.99h1.73v15.99zm8.174-.106c-.408.225-.946.338-1.614.338-1.891 0-2.837-1.055-2.837-3.164V423.5h-1.856v-1.476h1.856v-2.637l1.73-.559v3.196h2.72v1.476h-2.72v6.086c0 .724.123 1.241.369 1.55.246.31.654.464 1.223.464.436 0 .812-.12 1.129-.358v1.476zm2.858-13.436c-.31 0-.573-.106-.791-.317a1.068 1.068 0 0 1-.327-.801c0-.324.109-.593.327-.807.218-.215.482-.322.791-.322.316 0 .585.107.807.322.221.214.332.483.332.807 0 .31-.11.573-.332.79-.222.219-.49.328-.807.328zm.844 13.542h-1.73v-10.8h1.73v10.8zm8.69-5.337h-5.758v-1.36h5.758v1.36zm11.74 5.337h-1.73V426.6c0-2.25-.837-3.375-2.51-3.375-.845 0-1.555.325-2.131.976-.577.65-.865 1.485-.865 2.505v6.117h-1.73v-15.99h1.73v6.983h.042c.83-1.364 2.011-2.046 3.544-2.046 2.433 0 3.65 1.466 3.65 4.398v6.655zm7.435.253c-1.596 0-2.87-.505-3.824-1.514-.952-1.008-1.429-2.346-1.429-4.013 0-1.814.496-3.23 1.487-4.25.992-1.02 2.331-1.53 4.019-1.53 1.61 0 2.867.496 3.77 1.488.904.991 1.356 2.366 1.356 4.124 0 1.722-.487 3.102-1.461 4.14-.974 1.036-2.28 1.555-3.918 1.555zm.126-9.85c-1.11 0-1.99.377-2.637 1.133-.646.756-.97 1.798-.97 3.127 0 1.28.327 2.289.981 3.027.654.738 1.53 1.108 2.626 1.108 1.118 0 1.978-.363 2.579-1.087.601-.724.902-1.754.902-3.09 0-1.35-.3-2.39-.902-3.122-.601-.731-1.46-1.097-2.579-1.097zm9.45 8.036h-.042v6.528h-1.73v-15.767h1.73v1.898h.042c.851-1.434 2.095-2.151 3.734-2.151 1.392 0 2.478.483 3.259 1.45.78.967 1.17 2.262 1.17 3.886 0 1.807-.439 3.254-1.318 4.34-.879 1.087-2.081 1.63-3.607 1.63-1.4 0-2.478-.605-3.238-1.814zm-.042-4.356v1.508c0 .893.29 1.65.87 2.273.58.622 1.317.934 2.21.934 1.047 0 1.868-.401 2.462-1.203.595-.801.892-1.916.892-3.343 0-1.203-.278-2.145-.834-2.827-.555-.682-1.307-1.023-2.257-1.023-1.005 0-1.814.35-2.425 1.05-.612.7-.918 1.576-.918 2.631z"/>
            <g transform="translate(29.8 458.28)">
                <path d="M0 0h266.4v47.16H0z"/>
                <path fill="#26394D" d="M0 0h266.4v1H0z" opacity=".1"/>
                <path fill="#26394D" d="M44.556 29.76H43.33l-1.002-2.65H38.32l-.942 2.65h-1.233l3.626-9.453h1.146l3.64 9.453zm-2.59-3.645l-1.484-4.028a3.856 3.856 0 0 1-.145-.633h-.026a3.53 3.53 0 0 1-.152.633l-1.47 4.028h3.277zm13.42 3.645h-1.08v-3.876c0-.747-.116-1.288-.347-1.622-.23-.334-.618-.5-1.163-.5-.462 0-.854.21-1.177.632-.323.422-.484.928-.484 1.516v3.85h-1.081v-4.008c0-1.327-.512-1.99-1.536-1.99-.475 0-.866.198-1.174.596-.307.398-.46.915-.46 1.552v3.85h-1.082v-6.75h1.081v1.068h.026c.48-.818 1.178-1.226 2.097-1.226a1.954 1.954 0 0 1 1.911 1.397c.501-.931 1.248-1.397 2.241-1.397 1.486 0 2.228.916 2.228 2.749v4.159zm1.635-.244v-1.16a3.2 3.2 0 0 0 1.945.653c.949 0 1.424-.317 1.424-.95 0-.18-.041-.333-.122-.458a1.215 1.215 0 0 0-.33-.333 2.537 2.537 0 0 0-.488-.26 31.474 31.474 0 0 0-.603-.24 7.768 7.768 0 0 1-.788-.36 2.38 2.38 0 0 1-.566-.409 1.52 1.52 0 0 1-.343-.517 1.83 1.83 0 0 1-.116-.679c0-.316.073-.597.218-.84.145-.244.338-.449.58-.614.242-.164.517-.288.827-.372.31-.083.63-.125.96-.125.584 0 1.107.1 1.568.303v1.094c-.496-.325-1.068-.488-1.714-.488-.202 0-.384.024-.547.07a1.34 1.34 0 0 0-.418.194.898.898 0 0 0-.27.3.79.79 0 0 0-.096.386c0 .175.032.323.095.441a.972.972 0 0 0 .28.317c.124.092.273.176.449.25.176.075.376.156.6.244.299.114.567.232.804.353.237.12.44.257.606.408.167.152.296.327.386.525.09.197.135.432.135.705 0 .334-.074.624-.22.87-.148.246-.345.45-.59.613-.247.163-.53.283-.851.363-.32.079-.657.118-1.009.118-.694 0-1.296-.134-1.806-.402zm9.268.178c-.255.14-.59.211-1.008.211-1.182 0-1.773-.66-1.773-1.978v-3.994h-1.16v-.923h1.16v-1.648l1.08-.35v1.998h1.701v.923h-1.7v3.803c0 .453.077.776.23.97.154.193.409.29.765.29.272 0 .508-.075.705-.225v.923zm6.763-3.039h-4.765c.017.752.22 1.332.606 1.74.387.41.919.614 1.595.614.76 0 1.46-.251 2.096-.752v1.015c-.593.43-1.377.646-2.353.646-.953 0-1.703-.306-2.248-.92-.545-.612-.817-1.475-.817-2.587 0-1.05.298-1.906.893-2.567.596-.662 1.335-.992 2.218-.992.884 0 1.567.285 2.05.857.484.571.725 1.364.725 2.38v.566zm-1.107-.916c-.004-.624-.155-1.11-.451-1.457-.297-.347-.71-.52-1.236-.52-.51 0-.943.182-1.299.547-.356.364-.576.841-.66 1.43h3.646zm6.262-1.635c-.189-.145-.461-.217-.817-.217-.462 0-.847.217-1.157.652-.31.435-.465 1.029-.465 1.78v3.441h-1.08v-6.75h1.08v1.39h.027c.153-.474.389-.844.705-1.11.316-.266.67-.399 1.061-.399.282 0 .497.031.646.093v1.12zm6.757 5.656h-1.081v-1.147h-.027c-.5.87-1.274 1.305-2.32 1.305-.848 0-1.526-.302-2.033-.906-.508-.604-.762-1.427-.762-2.469 0-1.116.281-2.01.844-2.683.562-.672 1.312-1.008 2.248-1.008.927 0 1.602.365 2.023 1.094h.027v-4.18h1.08v9.994zm-1.081-3.052v-.995c0-.545-.18-1.007-.54-1.385-.361-.378-.818-.567-1.372-.567-.659 0-1.178.242-1.555.726-.378.483-.567 1.15-.567 2.003 0 .778.18 1.392.543 1.843.363.45.85.676 1.46.676.603 0 1.091-.218 1.467-.653.376-.435.564-.984.564-1.648zm8.101 3.052h-1.08v-1.055h-.027c-.47.809-1.163 1.213-2.077 1.213-.672 0-1.198-.178-1.578-.534-.38-.356-.57-.828-.57-1.417 0-1.261.742-1.995 2.227-2.202l2.024-.283c0-1.147-.464-1.72-1.39-1.72-.814 0-1.548.276-2.202.83v-1.107c.663-.422 1.428-.633 2.293-.633 1.587 0 2.38.84 2.38 2.518v4.39zm-1.08-3.415l-1.63.225c-.5.07-.878.194-1.133.372s-.382.493-.382.946c0 .33.117.599.352.807.236.21.549.314.94.314.536 0 .979-.188 1.328-.564.35-.376.524-.852.524-1.427v-.673zm12.701 3.415h-1.08v-3.876c0-.747-.116-1.288-.347-1.622-.23-.334-.618-.5-1.163-.5-.462 0-.854.21-1.177.632-.323.422-.484.928-.484 1.516v3.85h-1.081v-4.008c0-1.327-.512-1.99-1.536-1.99-.475 0-.866.198-1.174.596-.307.398-.46.915-.46 1.552v3.85H94.02v-6.75h1.081v1.068h.026c.48-.818 1.178-1.226 2.097-1.226a1.954 1.954 0 0 1 1.911 1.397c.501-.931 1.248-1.397 2.241-1.397 1.486 0 2.228.916 2.228 2.749v4.159zm3.033-1.503l-1.055 3.243h-.771l.771-3.243h1.055zm13.4 1.503h-1.357l-4.865-7.534a3.148 3.148 0 0 1-.303-.594h-.04c.036.202.053.635.053 1.299v6.829h-1.107v-9.453h1.437l4.733 7.416c.197.308.325.519.382.633h.026c-.044-.273-.066-.736-.066-1.39v-6.659h1.108v9.453zm7.384 0h-4.905v-9.453h1.108v8.451h3.797v1.002z"/>
                <g transform="translate(1.8 17.283)">
                    <mask id="e" fill="#fff">
                        <use xlink:href="#d"/>
                    </mask>
                    <path fill="#E64552" d="M0 0h18v4.5H0z" mask="url(#e)"/>
                    <path fill="#FBFBFB" d="M0 4.5h18V9H0z" mask="url(#e)"/>
                    <path fill="#316CBC" d="M0 9h18v4.5H0z" mask="url(#e)"/>
                </g>
                <ellipse cx="262.8" cy="23.58" fill="#49CB87" rx="3.6" ry="3.628"/>
            </g>
        </g>
        <g>
            <path d="M19 110.022h288V81H19z"/>
            <path fill="#26394D" d="M33.07 93.969v.95h-.923v7.553h.923v.95h-2.954v-.95h.923v-7.554h-.923v-.95h2.954zm8.589 0l-3.5 9.453h-1.22l-3.428-9.453h1.233l2.617 7.495c.083.241.147.52.191.837h.026c.035-.264.108-.547.218-.85l2.67-7.482h1.193zm2.465 5.88v3.573h-1.107v-9.453h2.597c1.01 0 1.794.246 2.35.738s.834 1.187.834 2.083c0 .897-.31 1.63-.927 2.202-.617.571-1.45.857-2.501.857h-1.246zm0-4.878v3.876h1.16c.765 0 1.348-.175 1.75-.524.402-.35.603-.843.603-1.48 0-1.248-.738-1.872-2.214-1.872h-1.299zm14.073 8.45H56.84l-4.865-7.534a3.148 3.148 0 0 1-.303-.593h-.04c.035.202.053.635.053 1.298v6.83h-1.108v-9.453h1.437l4.733 7.416c.198.307.325.518.383.632h.026c-.044-.272-.066-.736-.066-1.39v-6.658h1.107v9.453z"/>
            <path d="M263.8 110.022H307V81h-43.2z"/>
            <path fill="#26394D" d="M285.696 96.664l4.77-4.77.642.64-4.77 4.771 4.77 4.77-.641.642-4.77-4.77-4.771 4.77-.642-.641 4.77-4.77-4.77-4.771.642-.642 4.77 4.77z"/>
            <g>
                <path d="M220.6 110.022h43.2V81h-43.2z"/>
                <path fill="#26394D" d="M236.8 101.86h10.8v.906h-10.8z"/>
            </g>
        </g>
        <g>
            <g transform="translate(190 50)">
                <mask id="h" fill="#fff">
                    <use xlink:href="#f"/>
                </mask>
                <use fill="#000" filter="url(#g)" xlink:href="#f"/>
                <use fill="#FFF" xlink:href="#f"/>
                <rect width="320" height="530" fill="#F8FBFF" fill-opacity=".6" mask="url(#h)" rx="4"/>
                <g mask="url(#h)">
                    <use fill="#B4C1CC" xlink:href="#i"/>
                    <use fill="url(#j)" fill-opacity=".6" style="mix-blend-mode:overlay" xlink:href="#i"/>
                </g>
                <g mask="url(#h)">
                    <use fill="#FFF" fill-opacity=".6" xlink:href="#k"/>
                    <use fill="#000" filter="url(#l)" xlink:href="#k"/>
                </g>
                <g fill="#000" mask="url(#h)">
                    <use filter="url(#m)" xlink:href="#n"/>
                </g>
                <g mask="url(#h)">
                    <use fill="#000" filter="url(#o)" xlink:href="#p"/>
                    <use fill="url(#q)" xlink:href="#p"/>
                    <use fill="#000" filter="url(#r)" xlink:href="#p"/>
                </g>
                <g fill="#000" mask="url(#h)">
                    <use filter="url(#s)" xlink:href="#t"/>
                </g>
                <circle cx="160" cy="216.061" r="138.5" stroke="url(#u)" stroke-width="3" mask="url(#h)" opacity=".25"/>
                <circle cx="160" cy="216.061" r="179" stroke="url(#u)" stroke-width="2" mask="url(#h)" opacity=".25"/>
                <circle cx="160" cy="216.061" r="106" stroke="url(#u)" stroke-width="4" mask="url(#h)" opacity=".5"/>
            </g>
            <g transform="translate(264 180.061)">
                <use fill="#000" filter="url(#v)" xlink:href="#w"/>
                <use fill="url(#x)" xlink:href="#w"/>
                <use fill="url(#y)" xlink:href="#w"/>
                <use fill="#000" filter="url(#z)" xlink:href="#w"/>
                <use stroke="url(#A)" xlink:href="#w"/>
            </g>
            <path fill="#FFF" d="M299.111 274.483c-2.398 0-4.293-.795-5.683-2.385-1.39-1.59-2.086-3.752-2.086-6.486 0-2.75.693-4.918 2.08-6.504 1.387-1.586 3.28-2.379 5.678-2.379 1.921 0 3.55.564 4.886 1.693 1.336 1.13 2.094 2.576 2.274 4.342h-2.977c-.21-1.016-.695-1.826-1.453-2.432-.758-.605-1.668-.908-2.73-.908-1.438 0-2.575.553-3.41 1.658-.836 1.106-1.254 2.612-1.254 4.518 0 1.906.418 3.414 1.253 4.524.836 1.109 1.977 1.664 3.422 1.664 1.07 0 1.985-.28 2.743-.838.757-.559 1.238-1.31 1.44-2.256h2.977c-.203 1.734-.96 3.133-2.273 4.195-1.312 1.063-2.941 1.594-4.887 1.594zm12.383-3.703c.555.734 1.34 1.101 2.356 1.101 1.015 0 1.798-.369 2.35-1.107.55-.738.825-1.78.825-3.123 0-1.336-.277-2.375-.832-3.117-.554-.743-1.336-1.114-2.343-1.114-1.016 0-1.801.371-2.356 1.114-.555.742-.832 1.78-.832 3.117 0 1.344.277 2.387.832 3.129zm2.356 3.539c-1.922 0-3.43-.592-4.524-1.776-1.094-1.183-1.64-2.814-1.64-4.892 0-2.063.55-3.69 1.652-4.881 1.101-1.191 2.605-1.787 4.512-1.787 1.914 0 3.42.594 4.517 1.781 1.098 1.188 1.647 2.817 1.647 4.887 0 2.078-.55 3.709-1.647 4.892-1.097 1.184-2.603 1.776-4.517 1.776zm8.093-.258v-12.82h2.801v2.05h.2c.304-.718.814-1.283 1.529-1.693.715-.41 1.548-.615 2.502-.615 1.43 0 2.53.414 3.304 1.242.774.828 1.16 2.008 1.16 3.54v8.296h-2.894v-7.605c0-1.961-.883-2.942-2.649-2.942-.937 0-1.68.277-2.226.832-.547.555-.82 1.305-.82 2.25v7.465h-2.907zm13.942 0v-12.82h2.8v2.05h.2c.304-.718.814-1.283 1.53-1.693.714-.41 1.548-.615 2.501-.615 1.43 0 2.531.414 3.305 1.242.773.828 1.16 2.008 1.16 3.54v8.296h-2.895v-7.605c0-1.961-.882-2.942-2.648-2.942-.938 0-1.68.277-2.227.832-.547.555-.82 1.305-.82 2.25v7.465h-2.906zm19.32-10.77c-.867 0-1.582.286-2.144.856-.563.57-.875 1.324-.938 2.262h6.035c-.031-.953-.312-1.711-.844-2.274-.53-.562-1.234-.844-2.109-.844zm2.977 7.243h2.754c-.274 1.172-.916 2.095-1.928 2.771-1.012.676-2.268 1.014-3.768 1.014-1.883 0-3.361-.588-4.435-1.764-1.075-1.176-1.612-2.795-1.612-4.857 0-2.063.54-3.698 1.618-4.905 1.078-1.207 2.546-1.81 4.406-1.81 1.828 0 3.26.572 4.295 1.717 1.035 1.144 1.552 2.728 1.552 4.752v.937h-8.953v.152c.04 1.07.346 1.916.92 2.538.574.62 1.338.931 2.291.931 1.469 0 2.422-.492 2.86-1.476zm15.875-4.98h-2.766c-.14-.65-.453-1.167-.937-1.554-.485-.386-1.114-.58-1.887-.58-1 0-1.78.368-2.338 1.102-.559.734-.838 1.766-.838 3.094 0 1.343.281 2.39.844 3.14.562.75 1.34 1.125 2.332 1.125.758 0 1.38-.175 1.869-.527.488-.352.807-.86.955-1.523h2.766c-.164 1.367-.737 2.457-1.717 3.27-.98.812-2.268 1.218-3.861 1.218-1.93 0-3.434-.59-4.512-1.77-1.078-1.18-1.617-2.824-1.617-4.933 0-2.086.539-3.713 1.617-4.881 1.078-1.168 2.578-1.752 4.5-1.752 1.61 0 2.904.416 3.885 1.248.98.832 1.548 1.94 1.705 3.322zm2.867-7.372h2.894v3.14h2.813v2.321h-2.813v6.293c0 .633.141 1.096.422 1.389.281.293.727.44 1.336.44.266 0 .586-.02.961-.06v2.274c-.469.094-.969.14-1.5.14-1.469 0-2.521-.269-3.158-.808-.637-.54-.955-1.43-.955-2.672v-6.996h-2.086v-2.32h2.086v-3.14zm12.805 5.11c-.868 0-1.583.285-2.145.855-.563.57-.875 1.324-.938 2.262h6.036c-.032-.953-.313-1.711-.844-2.274-.531-.562-1.234-.844-2.11-.844zm2.976 7.242h2.754c-.273 1.172-.916 2.095-1.928 2.771-1.011.676-2.267 1.014-3.767 1.014-1.883 0-3.362-.588-4.436-1.764-1.074-1.176-1.611-2.795-1.611-4.857 0-2.063.539-3.698 1.617-4.905 1.078-1.207 2.547-1.81 4.406-1.81 1.828 0 3.26.572 4.295 1.717 1.035 1.144 1.553 2.728 1.553 4.752v.937h-8.953v.152c.039 1.07.345 1.916.92 2.538.574.62 1.338.931 2.29.931 1.47 0 2.423-.492 2.86-1.476zm9.441 3.738c-1.625 0-2.91-.596-3.855-1.787-.945-1.192-1.418-2.807-1.418-4.846 0-2.023.475-3.63 1.424-4.822.95-1.192 2.232-1.787 3.85-1.787.874 0 1.656.199 2.343.597.688.399 1.203.95 1.547 1.653h.2v-6.996h2.906v17.777h-2.813v-2.027h-.2a3.961 3.961 0 0 1-1.599 1.646c-.699.395-1.494.592-2.385.592zm3.258-9.656c-.578-.743-1.363-1.114-2.355-1.114s-1.774.37-2.344 1.108c-.57.738-.855 1.752-.855 3.04 0 1.298.283 2.313.85 3.048.566.734 1.349 1.101 2.349 1.101 1 0 1.787-.369 2.361-1.107.574-.738.861-1.752.861-3.041 0-1.281-.289-2.293-.867-3.035z"/>
            <g transform="translate(220 518.061)">
                <path fill="#26394D" d="M75.753 36l-.953-2.883H70.65L69.682 36h-2.039l4-11.273h2.266L77.917 36h-2.164zm-3.086-9.125l-1.547 4.648h3.21l-1.53-4.648h-.133zM79.194 36v-8.547h1.867v1.383h.133a2.28 2.28 0 0 1 .898-1.145c.417-.273.91-.41 1.477-.41.578 0 1.07.137 1.477.41.406.274.7.655.882 1.145h.133a2.51 2.51 0 0 1 1.016-1.133c.463-.281.99-.422 1.578-.422.854 0 1.525.253 2.012.758.487.505.73 1.2.73 2.086V36h-1.93v-5.383c0-1.099-.52-1.648-1.562-1.648-.5 0-.904.161-1.211.484-.307.323-.461.732-.461 1.227V36H84.35v-5.523c0-.47-.138-.838-.414-1.106-.276-.268-.653-.402-1.133-.402-.479 0-.877.174-1.195.523-.318.35-.477.787-.477 1.313V36h-1.937zm13.848-6.102c0-.77.317-1.4.953-1.886.635-.487 1.458-.73 2.468-.73 1.016 0 1.827.214 2.434.644.607.43.944 1.032 1.012 1.808h-1.82a1.137 1.137 0 0 0-.528-.722c-.279-.175-.642-.262-1.09-.262-.448 0-.818.096-1.11.29-.29.192-.437.442-.437.75 0 .239.103.437.309.593.206.156.525.284.957.383l1.508.343c.823.188 1.427.467 1.812.836.386.37.578.867.578 1.492 0 .818-.338 1.478-1.015 1.981-.677.503-1.552.754-2.625.754-1.068 0-1.92-.219-2.559-.656-.638-.438-.993-1.045-1.066-1.82h1.914c.094.322.29.57.59.745.3.175.688.262 1.168.262.49 0 .888-.098 1.195-.293.307-.195.46-.452.46-.77 0-.473-.392-.796-1.179-.968l-1.515-.352c-.823-.187-1.431-.478-1.825-.87-.393-.394-.59-.91-.59-1.552zm9.113-4.484h1.93v2.094h1.874v1.547h-1.875v4.195c0 .422.094.73.282.926.187.195.484.293.89.293.177 0 .39-.013.64-.04v1.516a5.095 5.095 0 0 1-1 .094c-.978 0-1.68-.18-2.105-.539-.424-.36-.636-.953-.636-1.781v-4.664h-1.39v-1.547h1.39v-2.094zm8.746 3.406c-.578 0-1.055.19-1.43.57-.375.38-.583.883-.625 1.508h4.023c-.02-.635-.208-1.14-.562-1.515-.354-.375-.823-.563-1.406-.563zm1.984 4.828h1.836a2.959 2.959 0 0 1-1.285 1.848c-.675.45-1.512.676-2.512.676-1.255 0-2.24-.392-2.957-1.176-.716-.784-1.074-1.863-1.074-3.238s.36-2.465 1.078-3.27c.719-.804 1.698-1.207 2.937-1.207 1.22 0 2.174.382 2.864 1.145s1.035 1.819 1.035 3.168v.625h-5.969v.101c.026.714.23 1.278.613 1.692.383.414.892.62 1.528.62.979 0 1.614-.327 1.906-.984zm3.41 2.352v-8.547h1.867v1.328h.133c.12-.427.388-.778.805-1.054a2.543 2.543 0 0 1 1.437-.415c.334 0 .6.03.797.086v1.797c-.198-.073-.526-.11-.984-.11-.625 0-1.134.182-1.528.544-.393.362-.59.84-.59 1.433V36h-1.937zm9.043.14c-1.083 0-1.94-.397-2.57-1.19-.63-.795-.946-1.872-.946-3.231 0-1.35.317-2.42.95-3.215.632-.794 1.488-1.192 2.566-1.192.583 0 1.104.133 1.562.399.459.266.803.633 1.032 1.102h.133v-4.665h1.937V36h-1.875v-1.352h-.133a2.64 2.64 0 0 1-1.066 1.098c-.466.263-.996.395-1.59.395zm2.172-6.437c-.386-.495-.909-.742-1.57-.742-.662 0-1.183.246-1.563.738-.38.492-.57 1.168-.57 2.028 0 .864.188 1.541.566 2.03.378.49.9.735 1.567.735.666 0 1.19-.246 1.574-.738.383-.492.574-1.168.574-2.027 0-.855-.193-1.53-.578-2.024zm7.402 4.914c.583 0 1.07-.168 1.461-.504.39-.336.586-.751.586-1.246v-.68l-1.93.126c-1.062.067-1.594.453-1.594 1.156 0 .354.137.634.41.84.274.205.63.308 1.067.308zm-.57 1.524c-.834 0-1.513-.235-2.04-.703-.525-.47-.788-1.089-.788-1.86 0-.77.28-1.375.84-1.812.56-.438 1.36-.688 2.402-.75l2.203-.133v-.719c0-.422-.138-.745-.414-.969-.276-.224-.675-.336-1.195-.336-.448 0-.818.077-1.11.23-.291.154-.482.375-.57.661h-1.828c.078-.755.444-1.355 1.097-1.8.654-.446 1.489-.669 2.504-.669 1.094 0 1.94.253 2.535.758.597.505.895 1.214.895 2.125V36h-1.867v-1.172h-.133c-.24.412-.582.733-1.027.965a3.208 3.208 0 0 1-1.504.348zm6.402-.141v-8.547h1.867v1.383h.133a2.28 2.28 0 0 1 .898-1.145c.417-.273.91-.41 1.477-.41.578 0 1.07.137 1.477.41.406.274.7.655.882 1.145h.133a2.51 2.51 0 0 1 1.016-1.133c.463-.281.99-.422 1.578-.422.854 0 1.525.253 2.012.758.487.505.73 1.2.73 2.086V36h-1.93v-5.383c0-1.099-.52-1.648-1.562-1.648-.5 0-.904.161-1.211.484-.307.323-.461.732-.461 1.227V36H145.9v-5.523c0-.47-.138-.838-.414-1.106-.276-.268-.653-.402-1.133-.402-.479 0-.877.174-1.195.523-.318.35-.477.787-.477 1.313V36h-1.937zm15.441 2.977H154.6l.664-4.782h2.008l-1.086 4.782zM165.662 36h-1.946V24.727h1.75l5.532 7.664h.132v-7.664h1.938V36h-1.742l-5.532-7.672h-.132V36zm16.925-1.766V36H175.4V24.727h2.015v9.507h5.172z"/>
                <circle cx="195.75" cy="30.644" r="4" fill="#21D074" stroke="#15BC65" stroke-width=".5"/>
                <path fill="#98A5B3" d="M98.052 14.954c-1.168 0-2.095-.394-2.78-1.18-.686-.788-1.03-1.851-1.03-3.191 0-1.328.347-2.388 1.038-3.179.691-.79 1.615-1.186 2.772-1.186.921 0 1.704.257 2.346.77.643.514 1.03 1.193 1.163 2.036h-1.066a2.304 2.304 0 0 0-.873-1.333c-.445-.334-.969-.5-1.57-.5-.825 0-1.485.308-1.981.925s-.744 1.44-.744 2.467c0 1.039.246 1.865.738 2.478.492.614 1.156.92 1.992.92.621 0 1.145-.142 1.57-.427.426-.286.716-.686.868-1.202h1.066c-.195.836-.595 1.479-1.2 1.928-.606.45-1.376.674-2.31.674zm9.517-.955c-.528.582-1.235.873-2.121.873-.887 0-1.594-.291-2.122-.873-.527-.582-.79-1.363-.79-2.344 0-.98.263-1.762.79-2.344.528-.582 1.235-.873 2.122-.873.886 0 1.593.291 2.12.873.528.582.792 1.364.792 2.344 0 .98-.264 1.762-.791 2.344zm-2.121-.035c.59 0 1.05-.204 1.38-.613.33-.408.495-.973.495-1.696 0-.726-.165-1.293-.496-1.699-.33-.406-.79-.61-1.38-.61-.59 0-1.05.205-1.38.613-.33.408-.494.974-.494 1.696 0 .723.166 1.288.498 1.696.332.409.79.613 1.377.613zm4.155.85V8.496h.961v1.025h.024c.402-.722 1.09-1.084 2.062-1.084.696 0 1.244.208 1.647.624.402.416.603.984.603 1.703v4.048h-1.02V10.94c0-.515-.131-.91-.395-1.183-.263-.274-.643-.41-1.14-.41-.519 0-.936.164-1.25.492-.315.328-.472.763-.472 1.306v3.668h-1.02zm6.822 0V8.496h.961v1.025h.024c.402-.722 1.09-1.084 2.062-1.084.695 0 1.244.208 1.647.624.402.416.603.984.603 1.703v4.048h-1.02V10.94c0-.515-.131-.91-.395-1.183-.264-.274-.644-.41-1.14-.41-.52 0-.936.164-1.25.492-.315.328-.472.763-.472 1.306v3.668h-1.02zm9.342-5.48c-.497 0-.908.165-1.234.493-.326.328-.507.76-.542 1.295h3.475c-.012-.535-.173-.967-.484-1.295-.31-.328-.715-.492-1.215-.492zm1.675 3.675h1.008c-.086.543-.375.989-.867 1.339s-1.076.524-1.752.524c-.887 0-1.59-.287-2.112-.861-.522-.575-.783-1.352-.783-2.332 0-.98.26-1.766.78-2.356.52-.59 1.209-.885 2.068-.885.844 0 1.512.279 2.004.835.492.557.738 1.312.738 2.265v.398h-4.535v.059c0 .602.17 1.082.51 1.441.34.36.79.54 1.353.54.395 0 .736-.087 1.023-.261.287-.174.475-.41.565-.706zm7.549-2.455h-1.002a1.402 1.402 0 0 0-.528-.87c-.285-.225-.656-.337-1.113-.337-.555 0-1.002.21-1.342.632-.34.422-.51.98-.51 1.676 0 .711.171 1.274.513 1.688.342.414.792.62 1.35.62.442 0 .805-.1 1.088-.301.283-.201.468-.491.553-.87h1.002a2.245 2.245 0 0 1-.852 1.506c-.483.383-1.081.574-1.796.574-.875 0-1.576-.29-2.104-.87-.527-.58-.79-1.362-.79-2.347 0-.969.263-1.747.79-2.335.528-.588 1.225-.882 2.092-.882.746 0 1.358.206 1.834.619.477.412.748.91.815 1.497zm1.495-3.48h1.02v1.423h1.23v.844h-1.23v3.79c0 .29.063.503.19.64.127.136.325.204.595.204.176 0 .322-.01.44-.029v.862a3.053 3.053 0 0 1-.657.052c-.57 0-.977-.13-1.221-.39-.245-.26-.367-.692-.367-1.297V9.34h-.879v-.844h.88V7.073zm5.896 2.26c-.496 0-.907.165-1.233.493-.326.328-.507.76-.542 1.295h3.475c-.012-.535-.173-.967-.484-1.295-.31-.328-.716-.492-1.216-.492zm1.676 3.675h1.008c-.086.543-.375.989-.867 1.339s-1.076.524-1.752.524c-.887 0-1.591-.287-2.112-.861-.522-.575-.783-1.352-.783-2.332 0-.98.26-1.766.78-2.356.52-.59 1.209-.885 2.068-.885.844 0 1.512.279 2.004.835.492.557.738 1.312.738 2.265v.398h-4.535v.059c0 .602.17 1.082.51 1.441.34.36.79.54 1.353.54.395 0 .736-.087 1.023-.261.287-.174.475-.41.565-.706zm4.724 1.863c-.797 0-1.447-.296-1.95-.888-.505-.592-.757-1.368-.757-2.329 0-.957.25-1.732.75-2.326.5-.594 1.145-.89 1.934-.89.45 0 .849.093 1.198.28.35.188.622.456.817.803h.024V5.99h1.02v8.824h-.973v-1.066h-.018a2.144 2.144 0 0 1-.835.835c-.35.193-.753.29-1.21.29zm.182-5.525c-.555 0-1.001.21-1.339.632-.338.422-.507.98-.507 1.676 0 .7.17 1.259.507 1.679.338.42.784.63 1.339.63.547 0 .99-.213 1.33-.639.34-.426.51-.982.51-1.67 0-.687-.17-1.244-.51-1.67a1.622 1.622 0 0 0-1.33-.638zm7.843-2.274h1.02v1.424h1.23v.844h-1.23v3.79c0 .29.063.503.19.64.127.136.325.204.594.204.176 0 .323-.01.44-.029v.862a3.053 3.053 0 0 1-.656.052c-.57 0-.978-.13-1.222-.39s-.366-.692-.366-1.297V9.34h-.88v-.844h.88V7.073zM164.906 14c-.527.582-1.234.873-2.121.873s-1.594-.291-2.121-.873c-.528-.582-.791-1.363-.791-2.344 0-.98.263-1.762.79-2.344.528-.582 1.235-.873 2.122-.873.887 0 1.594.291 2.121.873.527.582.791 1.364.791 2.344 0 .98-.264 1.762-.791 2.344zm-2.121-.035c.59 0 1.05-.204 1.38-.613.33-.408.495-.973.495-1.696 0-.726-.165-1.293-.495-1.699-.33-.406-.79-.61-1.38-.61-.59 0-1.05.205-1.38.613-.33.408-.495.974-.495 1.696 0 .723.166 1.288.498 1.696.332.409.79.613 1.377.613z"/>
            </g>
            <g transform="translate(206 532)">
                <mask id="D" fill="#fff">
                    <use xlink:href="#B"/>
                </mask>
                <use fill="#000" filter="url(#C)" xlink:href="#B"/>
                <path fill="#E64552" d="M0 0h20v5H0z" mask="url(#D)"/>
                <path fill="#FFF" d="M0 5h20v5H0z" mask="url(#D)"/>
                <path fill="#316CBC" d="M0 10h20v5H0z" mask="url(#D)"/>
                <use fill="#000" filter="url(#F)" xlink:href="#E"/>
                <rect width="19" height="14" x=".5" y=".5" stroke="#26394D" stroke-opacity=".1" rx="2"/>
            </g>
            <path stroke="#B4C1CC" stroke-width="2" d="M488 530.061l7 8-7 8"/>
            <path fill="#26394D" d="M231.188 483.057h1.722c.055.442.285.794.69 1.056.406.262.921.393 1.546.393.583 0 1.062-.133 1.438-.4.376-.266.564-.607.564-1.022 0-.355-.142-.645-.427-.868-.285-.223-.744-.408-1.377-.554l-1.279-.294c-.893-.2-1.555-.527-1.985-.98-.431-.454-.646-1.048-.646-1.781 0-.898.336-1.62 1.008-2.164.672-.544 1.56-.817 2.662-.817 1.035 0 1.892.27 2.57.807.68.538 1.04 1.23 1.08 2.078h-1.688a1.466 1.466 0 0 0-.622-1.032c-.355-.255-.804-.383-1.346-.383-.57 0-1.027.126-1.37.38a1.191 1.191 0 0 0-.517 1.008c0 .332.134.602.403.81.27.207.709.381 1.32.523l1.134.26c.998.223 1.722.555 2.17.998.45.442.674 1.039.674 1.79 0 .962-.347 1.722-1.042 2.28-.695.559-1.64.838-2.834.838-1.13 0-2.043-.265-2.738-.793-.695-.529-1.065-1.24-1.11-2.133zm9.15 2.68v-7.479h1.688v7.479h-1.689zm.84-8.696c-.305 0-.556-.087-.752-.263a.863.863 0 0 1-.294-.673c0-.274.098-.498.294-.674.196-.175.447-.263.752-.263.31 0 .562.088.755.263.194.176.291.4.291.674a.868.868 0 0 1-.29.673c-.194.176-.446.263-.756.263zm2.546 8.696v-7.479h1.634v1.196h.116c.178-.419.476-.748.893-.987.416-.24.903-.36 1.459-.36.834 0 1.477.242 1.928.725.45.483.676 1.172.676 2.065v4.84h-1.688V481.3c0-1.144-.515-1.716-1.545-1.716-.547 0-.98.162-1.299.486-.319.323-.478.76-.478 1.312v4.355h-1.696zm12.917-2.12c.337-.419.506-.986.506-1.702 0-.715-.169-1.284-.506-1.705-.337-.422-.8-.633-1.388-.633-.583 0-1.038.21-1.364.63-.325.419-.488.988-.488 1.708s.161 1.289.485 1.706c.324.417.78.625 1.367.625.588 0 1.05-.21 1.388-.629zm-1.388 4.963c-.952 0-1.726-.193-2.32-.58-.595-.388-.927-.905-.995-1.552h1.702c.055.26.227.464.516.615.29.15.664.225 1.124.225.58 0 1.03-.13 1.354-.39.324-.259.485-.624.485-1.093v-1.415h-.116a2.192 2.192 0 0 1-.912.92c-.395.211-.852.317-1.371.317-.939 0-1.684-.336-2.235-1.008-.552-.672-.828-1.573-.828-2.704 0-1.148.278-2.065.834-2.751.556-.686 1.308-1.029 2.256-1.029.51 0 .973.119 1.388.356.415.237.725.558.93.963h.116v-1.196h1.634v7.506c0 .866-.322 1.552-.964 2.058-.643.505-1.509.758-2.598.758zm5.308-2.843v-10.37h1.695v10.37h-1.695zm6.573-6.283c-.506 0-.923.167-1.251.5-.328.332-.51.772-.547 1.319h3.52c-.018-.556-.182-.998-.492-1.326-.31-.329-.72-.493-1.23-.493zm1.736 4.225h1.607a2.59 2.59 0 0 1-1.125 1.617c-.59.394-1.323.591-2.198.591-1.098 0-1.96-.343-2.587-1.029-.627-.686-.94-1.63-.94-2.833 0-1.203.314-2.157.943-2.861.63-.704 1.486-1.056 2.57-1.056 1.067 0 1.902.334 2.506 1.001.604.668.906 1.592.906 2.772v.547h-5.223v.089c.023.624.202 1.118.537 1.48.335.362.78.543 1.336.543.857 0 1.413-.287 1.668-.861zm7.55-1.121h-4.49v-1.593h4.49v1.593zm10.25 3.179h-1.756v-4.26h-4.799v4.26h-1.764v-9.865h1.764v4.081h4.799v-4.08h1.757v9.864zm3.71-1.914c.323.428.78.642 1.373.642s1.05-.215 1.37-.646c.322-.43.483-1.038.483-1.822 0-.779-.162-1.385-.486-1.818-.323-.433-.779-.65-1.367-.65-.592 0-1.05.217-1.374.65-.323.433-.485 1.04-.485 1.818 0 .784.162 1.393.485 1.826zm1.373 2.064c-1.121 0-2-.345-2.639-1.036-.638-.69-.957-1.641-.957-2.854 0-1.203.322-2.152.964-2.847.643-.695 1.52-1.042 2.632-1.042 1.117 0 1.995.346 2.635 1.039.64.692.96 1.643.96 2.85 0 1.213-.32 2.164-.96 2.854-.64.69-1.518 1.036-2.635 1.036zm8.979-7.752c.948 0 1.699.344 2.252 1.032.554.688.831 1.632.831 2.83 0 1.194-.275 2.137-.824 2.827-.549.69-1.295 1.036-2.238 1.036-.534 0-1-.11-1.398-.332a2.069 2.069 0 0 1-.886-.926h-.116v3.527h-1.695v-9.87h1.634v1.236h.116c.214-.423.527-.756.94-.998a2.688 2.688 0 0 1 1.384-.362zm-.533 6.282c.588 0 1.047-.214 1.377-.642.33-.429.496-1.021.496-1.778 0-.756-.165-1.349-.496-1.777-.33-.428-.787-.643-1.37-.643-.58 0-1.037.217-1.374.65-.338.433-.508 1.023-.513 1.77.005.748.174 1.338.51 1.77.334.434.791.65 1.37.65z"/>
            <path fill="#7A8A99" d="M401.677 485.737h-1.64v-9.865h2.064l2.967 7.185h.123l2.967-7.185h2.064v9.865h-1.64v-6.939h-.096l-2.728 6.556h-1.257l-2.728-6.556h-.096v6.939zm17.066-7.479v7.479h-1.634v-1.19h-.116a2.035 2.035 0 0 1-.878.991c-.403.233-.883.349-1.44.349-.829 0-1.48-.245-1.954-.735s-.711-1.174-.711-2.054v-4.84h1.695v4.437c0 1.134.52 1.702 1.559 1.702.547 0 .98-.16 1.302-.479.321-.319.482-.754.482-1.305v-4.355h1.695zm1.747 7.479v-10.37h1.695v10.37h-1.695zm3.975-9.263h1.688v1.832h1.64v1.353h-1.64v3.671c0 .37.082.64.246.81.164.171.424.257.78.257.155 0 .341-.012.56-.034v1.326a4.458 4.458 0 0 1-.875.082c-.857 0-1.47-.157-1.842-.472-.372-.314-.557-.834-.557-1.558v-4.082h-1.217v-1.353h1.217v-1.832zm4.604 9.263v-7.479h1.688v7.479h-1.688zm.84-8.696c-.305 0-.556-.087-.751-.263a.863.863 0 0 1-.294-.673c0-.274.098-.498.294-.674.195-.175.446-.263.751-.263.31 0 .562.088.756.263.194.176.29.4.29.674a.868.868 0 0 1-.29.673c-.194.176-.446.263-.756.263zm7.113 5.517h-4.491v-1.593h4.491v1.593zm10.25 3.179h-1.756v-4.26h-4.8v4.26h-1.763v-9.865h1.764v4.081h4.799v-4.08h1.757v9.864zm3.709-1.914c.324.428.782.642 1.374.642.592 0 1.05-.215 1.37-.646.322-.43.483-1.038.483-1.822 0-.779-.162-1.385-.486-1.818-.323-.433-.78-.65-1.367-.65-.592 0-1.05.217-1.374.65-.324.433-.485 1.04-.485 1.818 0 .784.161 1.393.485 1.826zm1.374 2.064c-1.121 0-2-.345-2.639-1.036-.638-.69-.957-1.641-.957-2.854 0-1.203.322-2.152.964-2.847.643-.695 1.52-1.042 2.632-1.042 1.117 0 1.995.346 2.635 1.039.64.692.96 1.643.96 2.85 0 1.213-.32 2.164-.96 2.854-.64.69-1.518 1.036-2.635 1.036zm8.979-7.752c.948 0 1.699.344 2.252 1.032.554.688.83 1.632.83 2.83 0 1.194-.274 2.137-.823 2.827-.549.69-1.295 1.036-2.239 1.036-.533 0-.999-.11-1.398-.332a2.069 2.069 0 0 1-.885-.926h-.116v3.527h-1.695v-9.87h1.633v1.236h.117c.214-.423.527-.756.94-.998a2.688 2.688 0 0 1 1.384-.362zm-.533 6.282c.588 0 1.047-.214 1.377-.642.33-.429.496-1.021.496-1.778 0-.756-.165-1.349-.496-1.777-.33-.428-.787-.643-1.37-.643-.58 0-1.037.217-1.375.65-.337.433-.508 1.023-.512 1.77.004.748.174 1.338.51 1.77.334.434.79.65 1.37.65z"/>
            <g>
                <g transform="translate(198 63)">
                    <use fill="#28CA42" xlink:href="#H"/>
                    <circle cx="46" cy="6" r="5.75" stroke="#1DAD2D" stroke-width=".5"/>
                </g>
                <g transform="translate(198 63)">
                    <use fill="#FFBD2E" xlink:href="#I"/>
                    <circle cx="26" cy="6" r="5.75" stroke="#E0A124" stroke-width=".5"/>
                </g>
                <g transform="translate(198 63)">
                    <use fill="#FF6059" xlink:href="#J"/>
                    <circle cx="6" cy="6" r="5.75" stroke="#E24640" stroke-width=".5"/>
                </g>
                <g>
                    <g transform="translate(433 61)">
                        <rect width="32" height="16" fill="#21D074" rx="8"/>
                        <use fill="#000" filter="url(#K)" xlink:href="#L"/>
                        <use fill="#FFF" xlink:href="#L"/>
                        <rect width="15" height="15" x="16.5" y=".5" stroke="#FFF" rx="7.5"/>
                    </g>
                    <path fill="#98A5B3" d="M386.875 73h-1.055v-8.455h5.133v.95h-4.078V68.4h3.744v.938h-3.744V73zm5.38 0v-6.316h1.02V73h-1.02zm.51-7.336a.62.62 0 0 1-.454-.19.62.62 0 0 1-.19-.454c0-.18.063-.332.19-.457a.625.625 0 0 1 .454-.188c.18 0 .332.062.457.188a.622.622 0 0 1 .188.457.625.625 0 0 1-.188.454.617.617 0 0 1-.457.19zM394.888 73v-6.316h.96v1.025h.024c.094-.332.28-.596.557-.791.277-.195.601-.293.972-.293.16 0 .291.014.393.041v1.008c-.11-.047-.285-.07-.527-.07-.41 0-.74.136-.988.41-.248.273-.372.632-.372 1.078V73h-1.02zm6.2-5.479c-.496 0-.907.165-1.233.493-.326.328-.507.76-.542 1.295h3.475c-.012-.536-.173-.967-.484-1.295-.31-.328-.715-.493-1.215-.493zm1.676 3.674h1.008c-.086.543-.375.99-.867 1.34-.492.349-1.076.524-1.752.524-.887 0-1.59-.288-2.112-.862-.522-.574-.783-1.351-.783-2.332 0-.98.26-1.765.78-2.355.52-.59 1.209-.885 2.068-.885.844 0 1.512.278 2.004.835.492.557.738 1.311.738 2.265v.398h-4.535v.059c0 .601.17 1.082.51 1.441.34.36.79.54 1.353.54.395 0 .736-.088 1.023-.262.287-.173.475-.409.565-.706zm10.32-4.511L411.314 73h-1.03l-1.442-4.91h-.023L407.377 73h-1.031l-1.77-6.316h1.008l1.283 5.162h.024l1.447-5.162h.984l1.448 5.162h.023l1.283-5.162h1.008zm2.984 5.49c.516 0 .942-.15 1.28-.448.338-.3.507-.675.507-1.128v-.51l-1.652.105c-.961.059-1.442.397-1.442 1.014 0 .293.119.527.355.703.236.176.554.264.952.264zm-.217.885c-.64 0-1.156-.17-1.547-.51-.39-.34-.586-.79-.586-1.348 0-.543.204-.97.61-1.28.406-.31.992-.49 1.758-.536l1.77-.106v-.527c0-.39-.126-.691-.376-.902-.25-.211-.607-.317-1.072-.317-.367 0-.677.088-.929.264-.252.176-.409.412-.471.709h-.979c.016-.531.252-.978.709-1.339.457-.361 1.018-.542 1.682-.542.746 0 1.341.185 1.787.554.445.369.668.864.668 1.485V73h-.967v-1.096h-.024a2.01 2.01 0 0 1-.82.841 2.41 2.41 0 0 1-1.213.314zm4.607-.059v-8.824h1.02V73h-1.02zm2.691 0v-8.824h1.02V73h-1.02z"/>
                    <path fill="url(#M)" fill-rule="nonzero" d="M111 11.469V8.53h-2.64a5.496 5.496 0 0 0-.53-1.284l1.866-1.866-2.077-2.077-1.867 1.866c-.4-.228-.83-.406-1.283-.53V2h-2.938v2.64a5.56 5.56 0 0 0-1.284.53l-1.866-1.866-2.077 2.077 1.866 1.866c-.228.4-.406.83-.53 1.284H95v2.938h2.64c.124.454.302.884.53 1.284l-1.866 1.866 2.077 2.076 1.866-1.865c.4.228.83.406 1.284.53V18h2.938v-2.64a5.56 5.56 0 0 0 1.284-.53l1.866 1.865 2.077-2.076-1.866-1.866c.229-.4.407-.83.53-1.284H111zm-8 1.436a2.905 2.905 0 1 1 0-5.81 2.905 2.905 0 0 1 0 5.81z" transform="translate(385 59)"/>
                </g>
            </g>
            <g fill="#B4C1CC">
                <path d="M279.964 63.06a.122.122 0 0 0-.104-.06h-3.16a.122.122 0 0 0-.107.066l-4.36 8.434-1.484-8.398a.122.122 0 0 0-.12-.102h-3.18a.12.12 0 0 0-.094.045.125.125 0 0 0-.026.101l2.356 12.63a.122.122 0 0 0 .126.1l3.672-.212a.121.121 0 0 0 .1-.066l6.385-12.418a.125.125 0 0 0-.004-.12M286.305 68.573a1.225 1.225 0 0 1-.199.479c-.083.121-.195.23-.334.322-.131.087-.312.131-.538.131h-2.532l.535-3.394h2.57c.22 0 .38.044.476.131.104.095.18.202.224.315.047.131.065.291.054.464l-.256 1.552zm3.499-2.849a3.292 3.292 0 0 0-.258-1.007 2.552 2.552 0 0 0-.488-.732 3.16 3.16 0 0 0-.6-.484c-.501-.291-1.098-.46-1.78-.501h-6.035a.12.12 0 0 0-.117.101l-1.949 11.92a.123.123 0 0 0 .03.1c.022.026.054.04.087.04h.007l3.034-.177a.12.12 0 0 0 .11-.101l.363-2.246h2.954a4.87 4.87 0 0 0 1.885-.497c.5-.249.99-.65 1.452-1.191.467-.546.793-1.324.967-2.311l.278-1.598c.08-.494.1-.936.06-1.316zM301.655 63h-3.07a.123.123 0 0 0-.119.107l-1.093 6.95L295 63.085a.121.121 0 0 0-.113-.084h-3.07a.123.123 0 0 0-.119.107l-1.873 11.906a.133.133 0 0 0 .029.106.117.117 0 0 0 .09.042l3.123-.189a.123.123 0 0 0 .112-.106l.783-5.025 1.655 4.885a.122.122 0 0 0 .12.084l4.162-.252a.123.123 0 0 0 .112-.106l1.762-11.304a.132.132 0 0 0-.027-.103.117.117 0 0 0-.092-.045z"/>
                <path d="M267.298 63.044a.123.123 0 0 0-.095-.044h-3.169a.124.124 0 0 0-.122.105l-2.207 13.34a.126.126 0 0 0 .03.105.123.123 0 0 0 .092.042h.007l3.22-.186a.125.125 0 0 0 .116-.104l2.156-13.156a.125.125 0 0 0-.028-.102"/>
                <path d="M264.515 63h-3.514s-.028.287.236.353 2.577.522 2.257 2.508c0-.007.993-1.015.993-1.015l.028-1.846"/>
            </g>
            <path fill="#7A8A99" d="M295.43 136.164c-1.364 0-2.445-.46-3.245-1.377-.8-.919-1.2-2.16-1.2-3.723 0-1.549.404-2.785 1.21-3.708.807-.923 1.885-1.384 3.234-1.384 1.076 0 1.988.3 2.738.899s1.202 1.39 1.357 2.375h-1.244a2.688 2.688 0 0 0-1.019-1.555c-.52-.39-1.13-.585-1.832-.585-.961 0-1.732.36-2.31 1.08-.58.72-.869 1.68-.869 2.878 0 1.213.287 2.177.862 2.892.574.716 1.349 1.073 2.324 1.073.725 0 1.335-.166 1.832-.499.497-.332.834-.8 1.012-1.401h1.244c-.228.975-.695 1.725-1.402 2.249-.706.524-1.604.786-2.693.786zm5.661-.164v-10.295h1.19V136h-1.19zm3.14 0v-7.37h1.189V136h-1.19zm.594-8.559a.723.723 0 0 1-.53-.222.723.723 0 0 1-.222-.53.72.72 0 0 1 .222-.533.729.729 0 0 1 .53-.219c.21 0 .388.073.533.22a.726.726 0 0 1 .22.532.729.729 0 0 1-.22.53.72.72 0 0 1-.533.222zm8.567 3.59h-1.169a1.635 1.635 0 0 0-.615-1.016c-.332-.262-.765-.393-1.299-.393-.647 0-1.169.246-1.565.738-.397.493-.595 1.144-.595 1.955 0 .83.2 1.486.598 1.97.4.482.924.724 1.576.724.515 0 .938-.118 1.268-.352.33-.235.546-.573.646-1.015h1.17a2.62 2.62 0 0 1-.996 1.756c-.562.447-1.26.67-2.095.67-1.02 0-1.839-.338-2.454-1.015-.615-.677-.923-1.59-.923-2.738 0-1.13.308-2.038.923-2.724.615-.686 1.429-1.028 2.44-1.028.871 0 1.584.24 2.14.72.556.481.873 1.064.95 1.747zm2.613.895l3.302-3.295h1.45l-3.22 3.185 3.315 4.184h-1.38l-2.77-3.452-.697.656V136h-1.189v-10.295h1.19v6.22zm9.896-4.956h1.189v1.66h1.436v.985h-1.436v4.423c0 .337.074.586.222.745.148.16.38.24.694.24a3.2 3.2 0 0 0 .513-.035v1.005c-.173.041-.429.062-.766.062-.665 0-1.14-.152-1.425-.455-.285-.303-.427-.808-.427-1.514v-4.47h-1.026v-.985h1.026v-1.661zm9.449 8.08c-.616.679-1.44 1.018-2.475 1.018-1.035 0-1.86-.34-2.475-1.018-.615-.68-.922-1.59-.922-2.735 0-1.143.307-2.055.922-2.734.616-.679 1.44-1.018 2.475-1.018 1.035 0 1.86.339 2.475 1.018.615.68.922 1.59.922 2.734s-.307 2.056-.922 2.735zm-2.475-.041c.688 0 1.225-.238 1.61-.715.385-.476.578-1.135.578-1.979 0-.847-.193-1.508-.578-1.982-.385-.474-.922-.71-1.61-.71-.688 0-1.225.237-1.61.713-.385.477-.578 1.136-.578 1.98 0 .843.194 1.502.582 1.978.387.477.922.715 1.606.715zm11.194 1.06c-.93 0-1.689-.346-2.276-1.036-.588-.69-.882-1.596-.882-2.718 0-1.116.291-2.02.875-2.713.583-.693 1.335-1.04 2.256-1.04.524 0 .99.11 1.398.329.407.218.725.53.953.936h.028v-4.122h1.189V136h-1.135v-1.244h-.02a2.502 2.502 0 0 1-.974.974c-.408.226-.879.338-1.412.338zm.212-6.447c-.647 0-1.168.246-1.562.738-.394.493-.591 1.144-.591 1.955 0 .816.197 1.469.59 1.959.395.49.916.735 1.563.735.638 0 1.155-.249 1.552-.745.396-.497.594-1.146.594-1.949 0-.802-.198-1.451-.594-1.948a1.892 1.892 0 0 0-1.552-.745zM349.56 136v-7.37h1.19V136h-1.19zm.595-8.559a.723.723 0 0 1-.53-.222.723.723 0 0 1-.222-.53.72.72 0 0 1 .222-.533.729.729 0 0 1 .53-.219c.21 0 .387.073.533.22a.726.726 0 0 1 .219.532.729.729 0 0 1-.22.53.72.72 0 0 1-.532.222zm2.353 3.247c0-.62.254-1.127.762-1.524.508-.396 1.163-.595 1.966-.595.747 0 1.375.2 1.883.598.508.4.773.902.796 1.508h-1.141a1.105 1.105 0 0 0-.479-.82c-.282-.201-.65-.301-1.1-.301-.456 0-.823.098-1.101.294-.278.196-.417.455-.417.779 0 .492.415.84 1.244 1.046l1.121.28c.743.187 1.266.427 1.569.721.303.294.455.71.455 1.248 0 .629-.273 1.144-.817 1.545-.545.4-1.243.601-2.095.601-.793 0-1.452-.197-1.976-.59-.524-.395-.816-.911-.875-1.55h1.196c.06.374.238.66.537.859.298.198.698.297 1.2.297.5 0 .898-.097 1.192-.29.294-.194.441-.457.441-.79 0-.26-.086-.466-.26-.619-.173-.152-.469-.283-.888-.393l-1.292-.335c-1.28-.332-1.921-.989-1.921-1.969zm13.14.342h-1.169a1.635 1.635 0 0 0-.615-1.015c-.332-.262-.765-.393-1.299-.393-.647 0-1.169.246-1.565.738-.396.493-.595 1.144-.595 1.955 0 .83.2 1.486.598 1.97.4.482.924.724 1.576.724.515 0 .938-.118 1.268-.352.33-.235.546-.573.646-1.015h1.17a2.62 2.62 0 0 1-.996 1.756c-.562.447-1.26.67-2.095.67-1.02 0-1.839-.338-2.454-1.015-.615-.677-.923-1.59-.923-2.738 0-1.13.308-2.038.923-2.724.615-.686 1.429-1.028 2.44-1.028.871 0 1.584.24 2.14.72.556.481.873 1.064.95 1.747zm6.865 4.02c-.615.679-1.44 1.018-2.474 1.018-1.035 0-1.86-.34-2.475-1.018-.615-.68-.923-1.59-.923-2.735 0-1.143.308-2.055.923-2.734.615-.679 1.44-1.019 2.475-1.019 1.034 0 1.86.34 2.474 1.02.616.678.923 1.59.923 2.733 0 1.144-.307 2.056-.923 2.735zm-2.474-.041c.688 0 1.225-.238 1.61-.715.385-.476.577-1.135.577-1.979 0-.847-.192-1.508-.577-1.982-.385-.474-.922-.71-1.61-.71-.688 0-1.225.237-1.61.713-.385.477-.578 1.136-.578 1.98 0 .843.194 1.502.581 1.978.388.477.923.715 1.607.715zm4.848.991v-7.37h1.121v1.197h.028c.47-.843 1.271-1.264 2.406-1.264.811 0 1.451.242 1.92.728.47.485.705 1.147.705 1.985V136h-1.19v-4.519c0-.601-.153-1.061-.46-1.38-.309-.32-.752-.479-1.33-.479-.607 0-1.093.191-1.46.574-.367.383-.55.891-.55 1.525V136h-1.19zm7.96 0v-7.37h1.12v1.197h.028c.469-.843 1.271-1.264 2.406-1.264.811 0 1.451.242 1.92.728.47.485.705 1.147.705 1.985V136h-1.19v-4.519c0-.601-.153-1.061-.461-1.38-.308-.32-.75-.479-1.33-.479-.606 0-1.092.191-1.46.574-.366.383-.55.891-.55 1.525V136h-1.189zm10.897-6.392c-.578 0-1.058.192-1.439.575-.38.382-.59.886-.632 1.51h4.054c-.014-.624-.202-1.128-.564-1.51-.363-.383-.835-.575-1.419-.575zm1.955 4.287h1.176c-.1.633-.437 1.154-1.012 1.562-.574.407-1.255.611-2.043.611-1.035 0-1.856-.335-2.465-1.005-.608-.67-.912-1.576-.912-2.72 0-1.144.303-2.06.909-2.748.606-.688 1.41-1.032 2.413-1.032.984 0 1.764.324 2.338.974.574.649.861 1.53.861 2.642v.465h-5.291v.068c0 .702.198 1.262.595 1.682.396.419.923.628 1.579.628.46 0 .858-.1 1.193-.304.335-.203.555-.477.66-.823zm8.807-2.865h-1.17a1.635 1.635 0 0 0-.614-1.015c-.333-.262-.766-.393-1.3-.393-.646 0-1.168.246-1.565.738-.396.493-.594 1.144-.594 1.955 0 .83.2 1.486.598 1.97.399.482.924.724 1.576.724.514 0 .937-.118 1.268-.352.33-.235.545-.573.646-1.015h1.169a2.62 2.62 0 0 1-.995 1.756c-.563.447-1.261.67-2.095.67-1.021 0-1.84-.338-2.454-1.015-.616-.677-.923-1.59-.923-2.738 0-1.13.307-2.038.923-2.724.615-.686 1.428-1.028 2.44-1.028.87 0 1.584.24 2.14.72.556.481.872 1.064.95 1.747zm1.745-4.06h1.19v1.66h1.435v.985h-1.436v4.423c0 .337.074.586.222.745.149.16.38.24.694.24a3.2 3.2 0 0 0 .513-.035v1.005c-.173.041-.428.062-.766.062-.665 0-1.14-.152-1.425-.455-.285-.303-.427-.808-.427-1.514v-4.47h-1.026v-.985h1.026v-1.661z"/>
        </g>
    </g>
</svg>
