<svg xmlns="http://www.w3.org/2000/svg" xmlns:xlink="http://www.w3.org/1999/xlink" width="609" height="453" viewBox="0 0 609 453">
    <defs>
        <linearGradient id="b" x1="82.222%" x2="29.879%" y1="0%" y2="92.149%">
            <stop offset="0%" stop-color="#F5D9C9"/>
            <stop offset="79.07%" stop-color="#F5D9C9"/>
            <stop offset="100%" stop-color="#F5F9FD"/>
        </linearGradient>
        <path id="a" d="M29.195 346.475L68.46 246.99c-10.36-5.175-15.807-18.644-16.342-40.406-.535-21.762-5.111-58.318-13.728-109.67 12.772-3.269 25.94 3.693 30.43 16.089l18.07 49.888c21.217-27.405 35.307-47.59 42.27-60.554 6.406-11.928 18.28-37.438 35.622-76.53 2.31-5.208 8.407-7.558 13.615-5.247.336.15.664.316.982.5a13.286 13.286 0 0 1 5.686 16.43l-34.255 85.741a1.5 1.5 0 0 0 2.73 1.236l49.75-97.95c3.129-6.159 10.657-8.616 16.816-5.488l.06.031c6.22 3.201 8.749 10.779 5.7 17.073l-45.35 93.64a1.5 1.5 0 0 0 2.647 1.406l47.922-82.622c2.897-4.995 9.295-6.695 14.29-3.798.242.14.479.29.709.45a12.402 12.402 0 0 1 3.724 16.311l-45.077 79.5a2.25 2.25 0 0 0 3.66 2.58l42.13-48.8a6.517 6.517 0 0 1 9.817-.056 10.551 10.551 0 0 1 1.314 12.115L171.985 270.07l-35.187 63.263-107.603 13.141z"/>
        <path id="e" d="M-62.25 328.27l60.14-83.15c-10.359-5.177-15.806-18.645-16.341-40.407-.535-21.762-5.111-58.318-13.729-109.67 12.773-3.269 25.94 3.693 30.43 16.088l18.071 49.889c21.217-27.405 35.307-47.59 42.27-60.554 6.314-11.758 17.942-36.711 34.882-74.862 2.898-6.527 10.539-9.469 17.066-6.57.114.05.226.102.338.155 6.709 3.213 9.675 11.156 6.716 17.98l-32.471 74.869a1.5 1.5 0 0 0 2.714 1.274l44.899-88.66c3.117-6.155 10.633-8.618 16.789-5.5l.073.037c6.219 3.201 8.749 10.779 5.7 17.073l-45.35 93.64a1.5 1.5 0 0 0 2.647 1.406l47.922-82.622c2.897-4.995 9.295-6.696 14.29-3.799.242.141.478.291.709.451a12.474 12.474 0 0 1 3.781 16.343l-43.998 78.65a2.25 2.25 0 0 0 3.738 2.482l34.349-44.056a10.587 10.587 0 0 1 13.518-2.729 9.106 9.106 0 0 1 3.51 12.378L101.416 268.2 66.23 331.463l-128.48-3.193z"/>
        <filter id="d" width="116.5%" height="113.4%" x="-8.3%" y="-3.8%" filterUnits="objectBoundingBox">
            <feOffset dy="9" in="SourceAlpha" result="shadowOffsetOuter1"/>
            <feGaussianBlur in="shadowOffsetOuter1" result="shadowBlurOuter1" stdDeviation="5.5"/>
            <feColorMatrix in="shadowBlurOuter1" values="0 0 0 0 0.2 0 0 0 0 0.301960784 0 0 0 0 0.4 0 0 0 0.1 0"/>
        </filter>
        <linearGradient id="g" x1="90.715%" x2="47.179%" y1="0%" y2="100%">
            <stop offset="0%" stop-color="#FAE2D4"/>
            <stop offset="87.237%" stop-color="#FAE2D4"/>
            <stop offset="100%" stop-color="#F5F9FD"/>
        </linearGradient>
        <path id="f" d="M0 310.52l60.14-83.15c-10.359-5.177-15.806-18.645-16.341-40.407-.535-21.762-5.111-58.318-13.729-109.67 12.773-3.269 25.94 3.693 30.43 16.088l18.071 49.889c21.217-27.405 35.307-47.59 42.27-60.554 6.314-11.758 17.942-36.711 34.882-74.862 2.898-6.527 10.539-9.469 17.066-6.57.114.05.226.102.338.155 6.709 3.213 9.675 11.156 6.716 17.98l-32.471 74.869a1.5 1.5 0 0 0 2.714 1.274l44.899-88.66c3.117-6.155 10.633-8.618 16.789-5.5l.073.037c6.219 3.201 8.749 10.779 5.7 17.073l-45.35 93.64a1.5 1.5 0 0 0 2.647 1.406l47.922-82.622c2.897-4.995 9.295-6.696 14.29-3.799.242.141.478.291.709.451a12.474 12.474 0 0 1 3.781 16.343l-43.998 78.65a2.25 2.25 0 0 0 3.738 2.482l34.349-44.056a10.587 10.587 0 0 1 13.518-2.729 9.106 9.106 0 0 1 3.51 12.378L163.666 250.45l-35.187 63.263L0 310.52z"/>
    </defs>
    <g fill="none" fill-rule="evenodd">
        <g transform="translate(193.75 83.75)">
            <mask id="c" fill="#fff">
                <use xlink:href="#a"/>
            </mask>
            <use fill="url(#b)" transform="scale(-1 1) rotate(11 0 -1334.113)" xlink:href="#a"/>
            <ellipse cx="235.75" cy="88.25" fill="#FEEDE3" mask="url(#c)" opacity=".5" rx="9.75" ry="16.5"/>
            <g mask="url(#c)">
                <use fill="#000" filter="url(#d)" xlink:href="#e"/>
                <use fill="#FAE2D4" xlink:href="#e"/>
            </g>
        </g>
        <g transform="translate(131.5 101.5)">
            <mask id="h" fill="#fff">
                <use xlink:href="#f"/>
            </mask>
            <use fill="url(#g)" xlink:href="#f"/>
            <ellipse cx="33" cy="88.5" fill="#FEEDE3" mask="url(#h)" rx="9.75" ry="16.5"/>
            <ellipse cx="169.359" cy="8.509" fill="#FEEDE3" mask="url(#h)" rx="9" ry="12.375" transform="rotate(25 169.36 8.509)"/>
            <ellipse cx="207.313" cy="9.72" fill="#FEEDE3" mask="url(#h)" rx="9.5" ry="12.375" transform="rotate(25 207.313 9.72)"/>
            <ellipse cx="232.359" cy="37.009" fill="#FEEDE3" mask="url(#h)" rx="9" ry="12.375" transform="rotate(25 232.36 37.009)"/>
            <ellipse cx="245.339" cy="82.964" fill="#FEEDE3" mask="url(#h)" rx="7" ry="10.5" transform="rotate(25 245.34 82.964)"/>
        </g>
        <path fill="#398FE6" d="M126.442 135.369c-2.323.791-4.849 3.321-5.638 5.638l-5.695 16.715c-.791 2.323-3.34 3.616-5.678 2.892l-16.875-5.22c-2.345-.724-5.877-.163-7.878 1.246l-14.433 10.171c-2.006 1.413-4.828.961-6.296-.999l-10.59-14.14c-1.47-1.965-4.659-3.587-7.107-3.623l-17.66-.258c-2.453-.036-4.472-2.06-4.508-4.509l-.258-17.66c-.036-2.453-1.663-5.639-3.623-7.107l-14.14-10.589c-1.965-1.471-2.409-4.295-1-6.296l10.172-14.433c1.413-2.006 1.969-5.538 1.245-7.878l-5.22-16.875c-.725-2.345.576-4.889 2.893-5.678l16.715-5.695c2.323-.791 4.849-3.321 5.638-5.638l5.695-16.715c.791-2.323 3.34-3.616 5.678-2.892l16.875 5.22c2.345.725 5.877.163 7.878-1.246l14.433-10.17c2.006-1.414 4.828-.962 6.296.998l10.59 14.14c1.47 1.965 4.659 3.587 7.107 3.623l17.66.259c2.453.035 4.472 2.06 4.507 4.508l.26 17.66c.035 2.453 1.662 5.639 3.622 7.107l14.14 10.589c1.965 1.471 2.409 4.295.999 6.296l-10.17 14.433c-1.414 2.006-1.97 5.539-1.246 7.878l5.22 16.875c.725 2.345-.576 4.889-2.893 5.678l-16.715 5.695z"/>
        <text fill="#FFF" font-family="AcuminPro-Medium, Acumin Pro" font-size="45" font-weight="400" letter-spacing="-.675" transform="rotate(-45 102.651 78.702)">
            <tspan x="32.397" y="76.69">50%</tspan>
        </text>
        <path fill="#FFF" d="M85.212 124.348c.458.458.957.85 1.497 1.176.54.326 1.1.545 1.68.657.58.112 1.163.084 1.749-.084.585-.168 1.148-.522 1.687-1.062.54-.54.894-1.102 1.062-1.688a3.709 3.709 0 0 0 .084-1.748 5.108 5.108 0 0 0-.657-1.68 7.85 7.85 0 0 0-1.176-1.497 8.44 8.44 0 0 0-1.55-1.23 5.206 5.206 0 0 0-1.71-.687 3.67 3.67 0 0 0-1.757.076c-.586.168-1.148.522-1.688 1.062s-.894 1.102-1.062 1.688a3.67 3.67 0 0 0-.076 1.756c.117.585.346 1.156.687 1.71a8.44 8.44 0 0 0 1.23 1.55zm-2.398 2.398c-.815-.815-1.448-1.693-1.902-2.635a7.705 7.705 0 0 1-.77-2.879 6.815 6.815 0 0 1 .465-2.91c.372-.962.975-1.86 1.81-2.695.845-.845 1.746-1.451 2.703-1.818a6.839 6.839 0 0 1 2.902-.458 7.705 7.705 0 0 1 2.88.771c.941.453 1.82 1.087 2.634 1.902a9.315 9.315 0 0 1 1.856 2.589c.443.931.69 1.88.74 2.848a6.85 6.85 0 0 1-.48 2.88c-.372.951-.98 1.85-1.826 2.695-.835.835-1.73 1.44-2.688 1.818-.957.376-1.92.54-2.887.488a7.506 7.506 0 0 1-2.848-.74 9.315 9.315 0 0 1-2.589-1.856zm6.858-17.855l10.905 10.905 2.398-2.398-4.506-4.505 4.567-4.567-1.863-1.863-4.567 4.566-2.52-2.52 5.27-5.27-2.017-2.015-7.667 7.667zm9.057-9.057l10.905 10.905 2.398-2.398-4.505-4.505 4.566-4.567-1.863-1.864-4.567 4.567-2.52-2.52 5.27-5.27-2.017-2.015-7.667 7.667z"/>
        <g>
            <path fill="#398FE6" d="M533.329 128.503c-.91-1.359-2.975-2.549-4.604-2.658l-11.746-.782a3.068 3.068 0 0 1-2.842-3.158l.45-11.767c.062-1.635-.909-3.813-2.162-4.858l-9.04-7.54a3.07 3.07 0 0 1-.443-4.226l7.278-9.259c1.012-1.286 1.506-3.62 1.107-5.202l-2.88-11.416a3.072 3.072 0 0 1 2.125-3.681l11.327-3.214c1.574-.447 3.345-2.044 3.952-3.56l4.379-10.932a3.07 3.07 0 0 1 3.882-1.73l11.049 4.06c1.535.563 3.906.312 5.288-.558l9.966-6.273a3.068 3.068 0 0 1 4.155.883l6.551 9.781c.91 1.36 2.976 2.55 4.604 2.658l11.746.783a3.068 3.068 0 0 1 2.843 3.158l-.45 11.767c-.062 1.635.908 3.813 2.162 4.858l9.04 7.54a3.07 3.07 0 0 1 .443 4.226l-7.279 9.259c-1.011 1.286-1.506 3.619-1.106 5.202l2.88 11.416a3.072 3.072 0 0 1-2.125 3.681l-11.327 3.214c-1.574.446-3.345 2.044-3.952 3.559l-4.38 10.933a3.07 3.07 0 0 1-3.881 1.73l-11.05-4.06c-1.535-.564-3.906-.312-5.287.557l-9.966 6.273a3.068 3.068 0 0 1-4.156-.882l-6.551-9.782z"/>
            <path fill="#FFF" d="M548.986 96.054l14.398-12.533 11.19 6.46.721.417s1.629 1.056 2.993.502c.487.235-1.31 2.042-2.744 3.304-1.346 1.184-2.443 1.671-3.84.865l-1.79-1.034-4.527-2.613-18.263 16.126-7.161-4.135 4.834-23.879-4.526-2.613-1.79-1.033c-1.397-.807-1.525-2.001-1.172-3.759.376-1.873 1.043-4.333 1.49-4.028.202 1.458 1.93 2.34 1.93 2.34l.722.417 11.19 6.46-3.655 18.736zM538.902 79.81s-1.728-.883-1.931-2.341c-.447-.305-1.114 2.155-1.49 4.028-.352 1.757-.225 2.951 1.172 3.758l4.974 2.872 1.242-6.028-3.967-2.29zm-1.828 9.367s-1.728-.882-1.93-2.34c-.448-.305-1.114 2.154-1.49 4.028-.353 1.757-.226 2.951 1.171 3.758l4.974 2.871 1.242-6.027-3.967-2.29zm31.022 7.488s1.63 1.055 2.993.502c.487.234-1.31 2.042-2.744 3.304-1.345 1.184-2.443 1.67-3.84.865l-4.974-2.872 4.599-4.09 3.966 2.291zm-7.199 6.267s1.63 1.055 2.993.501c.488.235-1.31 2.042-2.744 3.304-1.345 1.185-2.443 1.671-3.84.865l-4.974-2.872 4.6-4.089 3.965 2.29z"/>
        </g>
        <g fill="#398FE6">
            <path d="M59.611 272.543c-.724-.362-1.9-.36-2.622 0l-5.21 2.603a1.502 1.502 0 0 1-1.993-.658l-2.71-5.219c-.377-.725-1.329-1.427-2.122-1.566l-5.72-1.007c-.796-.14-1.347-.913-1.232-1.723l.825-5.841c.115-.812-.25-1.948-.81-2.534l-4.046-4.233a1.557 1.557 0 0 1 0-2.13l4.046-4.232c.562-.588.925-1.725.81-2.534l-.825-5.841c-.115-.812.438-1.584 1.231-1.723l5.721-1.007c.795-.14 1.746-.843 2.121-1.566l2.71-5.22a1.502 1.502 0 0 1 1.993-.657l5.211 2.603c.724.361 1.9.36 2.622 0l5.21-2.603a1.502 1.502 0 0 1 1.993.658l2.71 5.219c.377.725 1.329 1.426 2.122 1.566l5.72 1.007c.796.14 1.347.913 1.232 1.723l-.825 5.84c-.115.812.25 1.949.81 2.535l4.046 4.233c.562.588.56 1.543 0 2.13l-4.046 4.232c-.562.588-.925 1.724-.81 2.534l.825 5.841c.115.812-.438 1.583-1.231 1.723l-5.721 1.007c-.795.14-1.746.843-2.121 1.566l-2.71 5.219a1.502 1.502 0 0 1-1.993.658l-5.211-2.603zM433.561 103.743c-.724-.362-1.9-.361-2.622 0l-5.21 2.603a1.502 1.502 0 0 1-1.993-.658l-2.71-5.22c-.377-.724-1.329-1.426-2.122-1.566l-5.72-1.006c-.796-.14-1.347-.914-1.232-1.723l.825-5.841c.115-.812-.25-1.948-.81-2.535l-4.046-4.232a1.557 1.557 0 0 1 0-2.13l4.046-4.232c.562-.588.925-1.725.81-2.535l-.825-5.84c-.115-.812.438-1.584 1.231-1.724l5.721-1.006c.795-.14 1.746-.843 2.121-1.567l2.71-5.219a1.502 1.502 0 0 1 1.993-.658l5.211 2.603c.724.362 1.9.361 2.622 0l5.21-2.603a1.502 1.502 0 0 1 1.993.658l2.71 5.22c.377.724 1.329 1.426 2.122 1.566l5.72 1.006c.796.14 1.347.914 1.232 1.723l-.825 5.841c-.115.812.25 1.948.81 2.535l4.046 4.232c.562.588.56 1.543 0 2.13l-4.046 4.232c-.562.588-.925 1.725-.81 2.535l.825 5.84c.115.812-.438 1.584-1.231 1.724l-5.721 1.006c-.795.14-1.746.843-2.121 1.567l-2.71 5.219a1.502 1.502 0 0 1-1.993.658l-5.211-2.603z"/>
            <g opacity=".25" transform="translate(33 7.5)">
                <circle cx="86.5" cy="182.25" r="3.75"/>
                <circle cx="102.25" cy="315" r="3.75"/>
                <circle cx="112.25" cy="405" r="3.75"/>
                <circle cx="508" cy="250.5" r="3.75"/>
                <circle cx="487.75" cy="339" r="3.75"/>
                <circle cx="227.75" cy="429" r="3.75"/>
                <circle cx="3.75" cy="178.75" r="3.75"/>
                <circle cx="106.75" cy="3.75" r="3.75"/>
                <circle cx="74.125" cy="367.875" r="1.875"/>
                <circle cx="222.25" cy="41.25" r="3.75"/>
                <circle cx="179.5" cy="81" r="6"/>
                <circle cx="453.25" cy="227.25" r="6"/>
                <circle cx="433.25" cy="137.25" r="6"/>
                <circle cx="453.25" cy="387.25" r="6"/>
                <circle cx="96.25" cy="256.5" r="6"/>
                <circle cx="443.5" cy="10.5" r="3.75"/>
                <circle cx="363.625" cy="125.625" r="1.875"/>
                <circle cx="431.125" cy="193.125" r="1.875"/>
            </g>
            <g>
                <path d="M536.311 224.493c-.724-.362-1.9-.361-2.622 0l-5.21 2.603a1.502 1.502 0 0 1-1.993-.658l-2.71-5.22c-.377-.724-1.329-1.426-2.122-1.566l-5.72-1.006c-.796-.14-1.347-.914-1.232-1.723l.825-5.841c.115-.812-.25-1.948-.81-2.535l-4.046-4.232a1.557 1.557 0 0 1 0-2.13l4.046-4.232c.562-.588.925-1.725.81-2.535l-.825-5.84c-.115-.812.438-1.584 1.231-1.724l5.721-1.006c.795-.14 1.746-.843 2.121-1.567l2.71-5.219a1.502 1.502 0 0 1 1.993-.658l5.211 2.603c.724.362 1.9.361 2.622 0l5.21-2.603a1.502 1.502 0 0 1 1.993.658l2.71 5.22c.377.724 1.329 1.426 2.122 1.566l5.72 1.006c.796.14 1.347.914 1.232 1.723l-.825 5.841c-.115.812.25 1.948.81 2.535l4.046 4.232c.562.588.56 1.543 0 2.13l-4.046 4.232c-.562.588-.925 1.725-.81 2.535l.825 5.84c.115.812-.438 1.584-1.231 1.724l-5.721 1.006c-.795.14-1.746.843-2.121 1.567l-2.71 5.219a1.502 1.502 0 0 1-1.993.658l-5.211-2.603zM338.78 69.121c-.362-.18-.95-.18-1.31 0l-2.606 1.302a.751.751 0 0 1-.996-.33l-1.355-2.609c-.189-.362-.664-.713-1.06-.783l-2.861-.503a.768.768 0 0 1-.616-.862l.413-2.92c.057-.406-.125-.974-.405-1.267l-2.023-2.117a.778.778 0 0 1 0-1.064l2.023-2.117c.28-.294.462-.862.405-1.267l-.413-2.92a.768.768 0 0 1 .616-.862l2.86-.503c.398-.07.873-.422 1.06-.783l1.356-2.61a.751.751 0 0 1 .996-.329l2.605 1.302c.363.18.95.18 1.312 0l2.605-1.302a.751.751 0 0 1 .996.33l1.355 2.609c.189.362.664.713 1.06.783l2.861.503c.398.07.673.457.616.862l-.413 2.92c-.057.406.125.974.405 1.267l2.023 2.117a.778.778 0 0 1 0 1.064l-2.023 2.117c-.28.294-.462.862-.405 1.267l.413 2.92a.768.768 0 0 1-.616.862l-2.86.503c-.398.07-.873.422-1.06.783l-1.356 2.61a.751.751 0 0 1-.996.329l-2.605-1.302zM59.03 375.871c-.362-.18-.95-.18-1.31 0l-2.606 1.302a.751.751 0 0 1-.996-.33l-1.355-2.609c-.189-.362-.664-.713-1.06-.783l-2.861-.503a.768.768 0 0 1-.616-.862l.413-2.92c.057-.406-.125-.974-.405-1.267l-2.023-2.117a.778.778 0 0 1 0-1.064l2.023-2.117c.28-.294.462-.862.405-1.267l-.413-2.92a.768.768 0 0 1 .616-.862l2.86-.503c.398-.07.873-.422 1.06-.783l1.356-2.61a.751.751 0 0 1 .996-.329l2.605 1.302c.363.18.95.18 1.312 0l2.605-1.302a.751.751 0 0 1 .996.33l1.355 2.609c.189.362.664.713 1.06.783l2.861.503c.398.07.673.457.616.862l-.413 2.92c-.057.406.125.974.405 1.267l2.023 2.117a.778.778 0 0 1 0 1.064l-2.023 2.117c-.28.294-.462.862-.405 1.267l.413 2.92a.768.768 0 0 1-.616.862l-2.86.503c-.398.07-.873.422-1.06.783l-1.356 2.61a.751.751 0 0 1-.996.329l-2.605-1.302zM565.28 351.871c-.362-.18-.95-.18-1.31 0l-2.606 1.302a.751.751 0 0 1-.996-.33l-1.355-2.609c-.189-.362-.664-.713-1.06-.783l-2.861-.503a.768.768 0 0 1-.616-.862l.413-2.92c.057-.406-.125-.974-.405-1.267l-2.023-2.117a.778.778 0 0 1 0-1.064l2.023-2.117c.28-.294.462-.862.405-1.267l-.413-2.92a.768.768 0 0 1 .616-.862l2.86-.503c.398-.07.873-.422 1.06-.783l1.356-2.61a.751.751 0 0 1 .996-.329l2.605 1.302c.363.18.95.18 1.312 0l2.605-1.302a.751.751 0 0 1 .996.33l1.355 2.609c.189.362.664.713 1.06.783l2.861.503c.398.07.673.457.616.862l-.413 2.92c-.057.406.125.974.405 1.267l2.023 2.117a.778.778 0 0 1 0 1.064l-2.023 2.117c-.28.294-.462.862-.405 1.267l.413 2.92a.768.768 0 0 1-.616.862l-2.86.503c-.398.07-.873.422-1.06.783l-1.356 2.61a.751.751 0 0 1-.996.329l-2.605-1.302zM470.78 285.871c-.362-.18-.95-.18-1.31 0l-2.606 1.302a.751.751 0 0 1-.996-.33l-1.355-2.609c-.189-.362-.664-.713-1.06-.783l-2.861-.503a.768.768 0 0 1-.616-.862l.413-2.92c.057-.406-.125-.974-.405-1.267l-2.023-2.117a.778.778 0 0 1 0-1.064l2.023-2.117c.28-.294.462-.862.405-1.267l-.413-2.92a.768.768 0 0 1 .616-.862l2.86-.503c.398-.07.873-.422 1.06-.783l1.356-2.61a.751.751 0 0 1 .996-.329l2.605 1.302c.363.18.95.18 1.312 0l2.605-1.302a.751.751 0 0 1 .996.33l1.355 2.609c.189.362.664.713 1.06.783l2.861.503c.398.07.673.457.616.862l-.413 2.92c-.057.406.125.974.405 1.267l2.023 2.117a.778.778 0 0 1 0 1.064l-2.023 2.117c-.28.294-.462.862-.405 1.267l.413 2.92a.768.768 0 0 1-.616.862l-2.86.503c-.398.07-.873.422-1.06.783l-1.356 2.61a.751.751 0 0 1-.996.329l-2.605-1.302zM364.03 446.121c-.362-.18-.95-.18-1.31 0l-2.606 1.302a.751.751 0 0 1-.996-.33l-1.355-2.609c-.189-.362-.664-.713-1.06-.783l-2.861-.503a.768.768 0 0 1-.616-.862l.413-2.92c.057-.406-.125-.974-.405-1.267l-2.023-2.117a.778.778 0 0 1 0-1.064l2.023-2.117c.28-.294.462-.862.405-1.267l-.413-2.92a.768.768 0 0 1 .616-.862l2.86-.503c.398-.07.873-.422 1.06-.783l1.356-2.61a.751.751 0 0 1 .996-.329l2.605 1.302c.363.18.95.18 1.312 0l2.605-1.302a.751.751 0 0 1 .996.33l1.355 2.609c.189.362.664.713 1.06.783l2.861.503c.398.07.673.457.616.862l-.413 2.92c-.057.406.125.974.405 1.267l2.023 2.117a.778.778 0 0 1 0 1.064l-2.023 2.117c-.28.294-.462.862-.405 1.267l.413 2.92a.768.768 0 0 1-.616.862l-2.86.503c-.398.07-.873.422-1.06.783l-1.356 2.61a.751.751 0 0 1-.996.329l-2.605-1.302z"/>
            </g>
        </g>
    </g>
</svg>
