<svg width="24" height="25" viewBox="0 0 24 25" fill="none" xmlns="http://www.w3.org/2000/svg">
<path d="M21.4286 0.714355H2.57143C1.15125 0.714355 0 1.86561 0 3.28578V22.1429C0 23.5631 1.15125 24.7144 2.57143 24.7144H21.4286C22.8488 24.7144 24 23.5631 24 22.1429V3.28578C24 1.86561 22.8488 0.714355 21.4286 0.714355ZM9.54198 13.0414C4.6837 9.51545 4.7332 9.50655 3.42857 8.49116V7.14293C3.42857 6.43284 4.0042 5.85721 4.71429 5.85721H19.2857C19.9958 5.85721 20.5714 6.43284 20.5714 7.14293V8.49116C19.2658 9.50736 19.316 9.51566 14.458 13.0414C13.8955 13.4515 12.7763 14.4407 12 14.4286C11.2231 14.4403 10.1053 13.4521 9.54198 13.0414ZM20.5714 10.6666V18.2858C20.5714 18.9959 19.9958 19.5715 19.2857 19.5715H4.71429C4.0042 19.5715 3.42857 18.9959 3.42857 18.2858V10.6666C4.17632 11.2448 5.21405 12.0185 8.53409 14.4281C9.29277 14.982 10.5685 16.1501 11.9998 16.1429C13.4402 16.1501 14.734 14.9621 15.467 14.4272C18.7862 12.0184 19.8237 11.2448 20.5714 10.6666Z" fill="white"/>
</svg>
