<svg width="24" height="25" viewBox="0 0 24 25" fill="none" xmlns="http://www.w3.org/2000/svg">
<path d="M21.4286 0.714355H2.57143C1.15179 0.714355 0 1.86614 0 3.28578V22.1429C0 23.5626 1.15179 24.7144 2.57143 24.7144H21.4286C22.8482 24.7144 24 23.5626 24 22.1429V3.28578C24 1.86614 22.8482 0.714355 21.4286 0.714355ZM14.8554 21.2697C14.4054 21.3501 14.2393 21.0715 14.2393 20.8411C14.2393 20.5519 14.25 19.0733 14.25 17.8786C14.25 17.0429 13.9714 16.5126 13.6446 16.234C15.6268 16.0144 17.7161 15.7411 17.7161 12.3179C17.7161 11.3429 17.3679 10.8554 16.8 10.2286C16.8911 9.99829 17.1964 9.05007 16.7089 7.81793C15.9643 7.58757 14.2607 8.77686 14.2607 8.77686C13.5536 8.57864 12.7875 8.47686 12.0321 8.47686C11.2768 8.47686 10.5107 8.57864 9.80357 8.77686C9.80357 8.77686 8.1 7.58757 7.35536 7.81793C6.86786 9.04471 7.16786 9.99293 7.26429 10.2286C6.69643 10.8554 6.42857 11.3429 6.42857 12.3179C6.42857 15.7251 8.42679 16.0144 10.4089 16.234C10.1518 16.4644 9.92143 16.8608 9.84107 17.4286C9.33214 17.659 8.03036 18.0554 7.25357 16.684C6.76607 15.8376 5.8875 15.7679 5.8875 15.7679C5.01964 15.7572 5.82857 16.3144 5.82857 16.3144C6.40714 16.5822 6.81429 17.6108 6.81429 17.6108C7.33393 19.2019 9.81964 18.6661 9.81964 18.6661C9.81964 19.4108 9.83036 20.6215 9.83036 20.8411C9.83036 21.0715 9.66964 21.3501 9.21429 21.2697C5.67857 20.0858 3.20357 16.7215 3.20357 12.7894C3.20357 7.8715 6.96429 4.13757 11.8821 4.13757C16.8 4.13757 20.7857 7.8715 20.7857 12.7894C20.7911 16.7215 18.3911 20.0911 14.8554 21.2697ZM9.6 17.9965C9.49821 18.0179 9.40179 17.9751 9.39107 17.9054C9.38036 17.8251 9.45 17.7554 9.55179 17.734C9.65357 17.7233 9.75 17.7661 9.76071 17.8358C9.77679 17.9054 9.70714 17.9751 9.6 17.9965ZM9.09107 17.9483C9.09107 18.0179 9.01071 18.0769 8.90357 18.0769C8.78571 18.0876 8.70536 18.0286 8.70536 17.9483C8.70536 17.8786 8.78571 17.8197 8.89286 17.8197C8.99464 17.809 9.09107 17.8679 9.09107 17.9483ZM8.35714 17.8894C8.33571 17.959 8.22857 17.9911 8.1375 17.959C8.03571 17.9376 7.96607 17.8572 7.9875 17.7876C8.00893 17.7179 8.11607 17.6858 8.20714 17.7072C8.31429 17.7394 8.38393 17.8197 8.35714 17.8894ZM7.69821 17.6001C7.65 17.659 7.54821 17.6483 7.46786 17.5679C7.3875 17.4983 7.36607 17.3965 7.41964 17.3483C7.46786 17.2894 7.56964 17.3001 7.65 17.3804C7.71964 17.4501 7.74643 17.5572 7.69821 17.6001ZM7.21071 17.1126C7.1625 17.1447 7.07143 17.1126 7.0125 17.0322C6.95357 16.9519 6.95357 16.8608 7.0125 16.8233C7.07143 16.7751 7.1625 16.8126 7.21071 16.8929C7.26964 16.9733 7.26964 17.0697 7.21071 17.1126ZM6.8625 16.5929C6.81429 16.6411 6.73393 16.6144 6.675 16.5608C6.61607 16.4911 6.60536 16.4108 6.65357 16.3733C6.70179 16.3251 6.78214 16.3519 6.84107 16.4054C6.9 16.4751 6.91071 16.5554 6.8625 16.5929ZM6.50357 16.1965C6.48214 16.2447 6.4125 16.2554 6.35357 16.2179C6.28393 16.1858 6.25179 16.1269 6.27321 16.0786C6.29464 16.0465 6.35357 16.0304 6.42321 16.0572C6.49286 16.0947 6.525 16.1536 6.50357 16.1965Z" fill="white"/>
</svg>
