<svg width="25" height="25" viewBox="0 0 25 25" fill="none" xmlns="http://www.w3.org/2000/svg">
<path d="M12.5 0C5.59635 0 0 5.59635 0 12.5C0 19.4036 5.59635 25 12.5 25C19.4036 25 25 19.4036 25 12.5C25 5.59635 19.4036 0 12.5 0ZM9.4401 17.6797H6.90885V9.53646H9.4401V17.6797ZM8.15885 8.53646C7.35937 8.53646 6.84115 7.96875 6.84115 7.26823C6.84115 6.55208 7.3724 6.0026 8.1901 6.0026C9.00781 6.0026 9.50781 6.55208 9.52344 7.26823C9.52604 7.97135 9.00781 8.53646 8.15885 8.53646ZM18.6823 17.6797H16.151V13.1667C16.151 12.1172 15.7839 11.401 14.8672 11.401C14.1693 11.401 13.7526 11.8854 13.5677 12.349C13.5 12.513 13.4844 12.7474 13.4844 12.9818V17.6771H10.9505V12.1302C10.9505 11.1146 10.9193 10.263 10.8828 9.53125H13.0807L13.1979 10.6615H13.2474C13.5807 10.1302 14.3984 9.34635 15.763 9.34635C17.4271 9.34635 18.6771 10.4609 18.6771 12.8594V17.6797H18.6823Z" fill="black"/>
</svg>
