<svg width="25" height="25" viewBox="0 0 25 25" fill="none" xmlns="http://www.w3.org/2000/svg">
<path fill-rule="evenodd" clip-rule="evenodd" d="M12.4988 -6.8523e-07C5.59716 -6.8523e-07 0 5.73802 0 12.8167C0 18.4792 3.5813 23.2826 8.54845 24.9773C9.17386 25.0953 9.40176 24.6996 9.40176 24.3597C9.40176 24.0552 9.39102 23.2495 9.38488 22.1803C5.90795 22.9545 5.17435 20.4619 5.17435 20.4619C4.60573 18.9812 3.78619 18.587 3.78619 18.587C2.65125 17.7924 3.87213 17.8081 3.87213 17.8081C5.12677 17.8986 5.78671 19.1291 5.78671 19.1291C6.90169 21.0874 8.71267 20.5217 9.42479 20.1936C9.53836 19.3659 9.86142 18.801 10.2182 18.4808C7.44268 18.1574 4.52439 17.0575 4.52439 12.1464C4.52439 10.7475 5.01167 9.60271 5.81127 8.70735C5.68235 8.38319 5.25339 7.07949 5.93404 5.31552C5.93404 5.31552 6.98302 4.97091 9.37107 6.62945C10.3679 6.34464 11.4376 6.20301 12.5004 6.1975C13.5624 6.20301 14.6314 6.34464 15.6297 6.62945C18.0162 4.97091 19.0637 5.31552 19.0637 5.31552C19.7459 7.07949 19.3169 8.38319 19.1887 8.70735C19.9899 9.60271 20.4733 10.7475 20.4733 12.1464C20.4733 17.0701 17.5504 18.1535 14.7664 18.4706C15.2146 18.8663 15.6144 19.6484 15.6144 20.8435C15.6144 22.5571 15.599 23.9395 15.599 24.3597C15.599 24.7027 15.8246 25.1016 16.4585 24.9765C21.4218 23.2778 25 18.4776 25 12.8167C25 5.73802 19.4028 -6.8523e-07 12.4988 -6.8523e-07" fill="black"/>
</svg>
