<svg xmlns="http://www.w3.org/2000/svg" width="36" height="24" viewBox="0 0 36 24">
    <defs>
        <linearGradient id="a" x1="0%" x2="100.001%" y1="50%" y2="50%">
            <stop offset="0%" stop-color="#50B031"/>
            <stop offset="100%" stop-color="#55B330"/>
        </linearGradient>
        <linearGradient id="b" x1="0%" y1="50%" y2="50%">
            <stop offset="0%" stop-color="#016AB7"/>
            <stop offset="100%" stop-color="#006DBA"/>
        </linearGradient>
        <linearGradient id="c" x1="0%" y1="50%" y2="50%">
            <stop offset="0%" stop-color="#DF0237"/>
            <stop offset="100%" stop-color="#E30138"/>
        </linearGradient>
    </defs>
    <g fill="none" fill-rule="nonzero">
        <path fill="url(#a)" d="M14.061 7.188H15.406a.762.762 0 0 1 .11.01.632.632 0 0 1 .036.005l.01.002a.544.544 0 0 1 .177.074.604.604 0 0 1 .266.375.639.639 0 0 1-.11.519.6.6 0 0 1-.334.213l-.009.002a.283.283 0 0 1-.035.006.942.942 0 0 1-.111.009H14.06V7.188zm1.789-1.375a.604.604 0 0 1-.067.426.538.538 0 0 1-.377.253H15.4a.368.368 0 0 1-.039.006 1.23 1.23 0 0 1-.089.005H14.061V5.382H15.295a.948.948 0 0 1 .105.01h.006a.557.557 0 0 1 .244.107.554.554 0 0 1 .155.187.537.537 0 0 1 .045.127s-.006-.026 0 0zM18.604 0h.01v11.514a2.33 2.33 0 0 1-.298 1.133 2.247 2.247 0 0 1-.156.239l-.022.03a2.408 2.408 0 0 1-.067.082l-.022.026a2.393 2.393 0 0 1-.067.073l-.022.023-.022.023-.022.022-.023.021a2.358 2.358 0 0 1-.133.117l-.022.018-.022.017-.022.017-.023.017-.022.016-.022.015-.022.016-.023.015-.022.014-.022.014a2.132 2.132 0 0 1-.044.028l-.023.013-.022.013-.022.012-.022.012-.022.012-.023.012-.022.011-.022.011-.022.01-.023.011-.022.01-.022.01-.022.01c-.008.003-.015.005-.022.009l-.023.009-.022.008a2.125 2.125 0 0 1-.022.009l-.022.008-.022.008-.023.007-.022.008-.022.007-.022.007-.023.006-.022.007-.022.006-.022.006-.022.005-.023.006-.022.005-.022.005-.022.005-.022.004-.023.005c-.007 0-.014.002-.022.004l-.022.003-.022.004-.023.003-.022.004-.022.003-.022.002-.022.003-.023.002-.022.002-.022.002-.022.002-.022.001-.023.001-.022.001-.022.001h-.045l-.022.001H12.936V9.122H16.538l.023-.001h.022l.022-.001.022-.002h.022l.023-.002.022-.002.022-.002.022-.002.023-.003.022-.003.022-.002.022-.004c.008 0 .015-.002.022-.003l.023-.004.022-.004.022-.004.022-.005.022-.005.023-.005.022-.005a1.702 1.702 0 0 0 .089-.025l.022-.007a1.423 1.423 0 0 0 .067-.022L17.205 9l.022-.009.022-.009a1.413 1.413 0 0 0 .422-.278 1.094 1.094 0 0 0 .2-.283.984.984 0 0 0 .09-.302 1.114 1.114 0 0 0-.023-.404.944.944 0 0 0-.267-.452 1.094 1.094 0 0 0-.222-.17 1.303 1.303 0 0 0-.2-.1l-.022-.008a1.678 1.678 0 0 0-.022-.009l-.022-.008a1.967 1.967 0 0 0-.09-.03l-.021-.006-.023-.006a1.707 1.707 0 0 0-.133-.031l-.022-.005-.022-.004a1.693 1.693 0 0 0-.023-.003l-.022-.004a1.742 1.742 0 0 0-.022-.003l-.022-.003-.022-.003-.023-.002-.022-.003-.022-.002-.022-.002-.02-.001v-.027l.02-.003.022-.004.022-.004.022-.004.023-.004.022-.005a1.57 1.57 0 0 0 .022-.005l.022-.006a1.562 1.562 0 0 0 .311-.119 1.273 1.273 0 0 0 .222-.152 1.063 1.063 0 0 0 .222-.278.968.968 0 0 0 .117-.473 1.13 1.13 0 0 0-.05-.325.935.935 0 0 0-.444-.534 1.247 1.247 0 0 0-.267-.12 1.647 1.647 0 0 0-.044-.015l-.022-.006a1.635 1.635 0 0 0-.045-.012l-.022-.006a1.631 1.631 0 0 0-.044-.01l-.023-.005-.022-.005-.022-.004-.022-.004c-.008 0-.015-.002-.023-.003l-.022-.004-.022-.003-.022-.003-.022-.002-.023-.003-.022-.002-.022-.002-.022-.002-.022-.001-.023-.001-.008-.001h-.014l-.022-.002-.022-.001-.023-.002h-.022l-.022-.002h-.022l-.022-.001H12.936V2.302A2.314 2.314 0 0 1 13.34 1l.022-.032.022-.03.022-.03.022-.03.023-.027.022-.027.022-.026.022-.025.022-.025a2.467 2.467 0 0 1 .09-.092l.022-.022.022-.02.022-.02c.007-.008.015-.014.022-.02A2.463 2.463 0 0 1 13.806.5l.022-.018.022-.017a2.401 2.401 0 0 1 .045-.032l.022-.016L13.94.4l.023-.015.022-.014.022-.015.022-.014.022-.013.023-.013c.007-.005.014-.01.022-.013l.022-.013.022-.012.022-.012.023-.012.022-.011.022-.011.022-.01.023-.011.022-.01.022-.01.022-.01.022-.009.023-.01.022-.008.022-.008.022-.009.022-.007.023-.008.022-.008.022-.007.022-.007.023-.006.022-.007.022-.006.022-.006.022-.006.023-.005.022-.006.022-.005.022-.004.022-.005.023-.004.022-.005.022-.003.022-.004.023-.004.022-.003.022-.003.022-.002.022-.003.023-.002.022-.002.022-.002.022-.002.022-.001.023-.002h.022L15.16 0h.067L15.233 0H18.604z" transform="translate(9 5)"/>
        <path fill="url(#b)" d="M.048 8.013A7.487 7.487 0 0 1 0 7.99V2.303a2.314 2.314 0 0 1 .402-1.301L.425.97.447.94.469.91.491.88.513.854A2.211 2.211 0 0 1 .558.8L.58.775.602.75.624.726A2.209 2.209 0 0 1 .67.68L.69.658.713.637.735.616l.022-.02.022-.02.023-.02.022-.019A2.135 2.135 0 0 1 .934.45L.958.434a2.104 2.104 0 0 1 .089-.061l.022-.014.022-.014.022-.014.022-.013.022-.013.023-.013L1.2.28l.022-.012.022-.012.022-.01.022-.012.023-.01.022-.011.022-.01.022-.01.022-.01.022-.009.023-.009.022-.009.022-.008.022-.009.022-.007.023-.008.022-.008L1.6.11l.022-.007.022-.007.022-.006.023-.006.022-.006.022-.006.022-.006.022-.005L1.8.055 1.822.05l.022-.004.022-.005.022-.004.022-.004.023-.003.022-.004.022-.003.022-.003.022-.003.022-.003.023-.002.022-.002.022-.002.022-.002.022-.001.022-.002H2.2L2.22.001 2.243 0h.044L2.297 0H5.677v11.514a2.327 2.327 0 0 1-.263 1.069 2.273 2.273 0 0 1-.266.4l-.022.025a2.249 2.249 0 0 1-.022.026l-.023.025-.022.024-.022.024a2.347 2.347 0 0 1-.067.066l-.022.021-.022.02c-.007.008-.015.014-.022.02l-.022.02-.022.02-.023.018-.022.018-.022.018c-.007.005-.015.01-.022.017l-.022.016-.022.017-.023.016-.022.015-.022.015-.022.015-.022.015-.023.013-.022.014c-.007.005-.014.01-.022.013l-.022.014-.022.012a2.005 2.005 0 0 1-.045.025l-.022.011-.022.012-.022.01-.022.012-.022.01-.023.01-.022.01-.022.01-.022.01-.022.009-.022.009-.023.008-.022.008-.022.008-.022.008-.022.008-.023.007-.022.007-.022.007-.022.006-.022.007-.022.006-.023.006-.022.005-.022.006-.022.005-.022.005-.022.004-.023.005-.022.004-.022.004-.022.004c-.008 0-.015.002-.022.003l-.023.003-.022.003-.022.003-.022.003-.022.003c-.008 0-.015 0-.022.002l-.023.002-.022.002-.022.001-.022.001-.022.002h-.022l-.023.001h-.044l-.02.001H0V8.963l.048.013.022.005.022.006.022.005.022.005.023.005.022.006.022.005.022.004.022.005.022.005.023.005.022.005.022.004.022.005.022.004.022.005.023.004.022.004.022.005.022.004.022.004.022.004.023.004.022.004.022.004.022.004.022.004.023.004.022.003.022.004.022.004.022.003.022.004.023.003.022.004.022.003.022.004.022.003.022.003.023.003.022.003.022.004.022.003.022.003.023.003.022.002.022.003.022.003.022.003.022.003.023.002.022.003.022.003.022.002.022.003.022.002.023.002.022.003.022.002.022.002.022.002.022.003.023.002.022.002.022.002.022.002.022.002.023.001.022.002.022.002.022.002.022.001.022.002.023.002.022.001.022.002.022.001.022.001.022.002.023.001.022.001.022.001.022.001.022.002h.023l.022.002h.022l.022.001.022.001.022.001h.023l.022.001.022.001h.022l.022.001H2.2l.022.001h.044l.022.001H2.487l.022-.001h.044l.023-.001.022-.001h.022l.022-.001.022-.001.022-.001.023-.001.022-.001.022-.001.022-.001.022-.002h.022l.023-.002.022-.002.022-.001.022-.002.022-.001.023-.002.022-.002.022-.002.022-.002.022-.002.022-.002.023-.003.022-.002.022-.002.022-.003.022-.002.022-.003.023-.003.022-.003.022-.003.022-.003.022-.003.023-.004.022-.003.022-.003.022-.004.022-.004.022-.004.023-.004.022-.004.022-.004.022-.004.022-.005.022-.005.023-.004.022-.005.022-.005.022-.005.022-.006.022-.005.023-.006.022-.005.022-.006.022-.006.022-.007.023-.006.022-.006.022-.007.022-.007.022-.007.022-.008.023-.007.022-.008.022-.008.022-.008L4.061 9l.022-.009.023-.008.022-.01.022-.009.022-.009.022-.01.023-.01.022-.01.022-.01.022-.012.022-.011.022-.011.023-.012a2.098 2.098 0 0 0 .066-.038l.022-.013.022-.014.023-.014.022-.015.022-.015.022-.016.022-.016.022-.017a1.641 1.641 0 0 0 .067-.053l.022-.02.022-.02.023-.02a1.455 1.455 0 0 0 .044-.044l.022-.023.022-.025a1.434 1.434 0 0 0 .289-.495 1.604 1.604 0 0 0 .066-.256 1.99 1.99 0 0 0 .033-.388V4.694H3.224v2.672a1.406 1.406 0 0 1-.05.362 1.134 1.134 0 0 1-.133.29 1.011 1.011 0 0 1-.51.398 1.31 1.31 0 0 1-.11.036l-.023.006a1.345 1.345 0 0 1-.133.027l-.022.004a1.648 1.648 0 0 1-.044.006l-.023.002-.022.002-.022.002a1.697 1.697 0 0 1-.044.003l-.022.001h-.023l-.022.001H1.91l-.022-.001h-.022l-.022-.002h-.022L1.799 8.5 1.777 8.5l-.022-.002-.022-.001-.022-.002-.022-.002-.023-.002-.022-.002-.022-.002-.022-.003-.022-.002-.022-.003-.023-.003-.022-.003-.022-.003-.022-.003-.022-.003-.023-.004-.022-.003-.022-.004-.022-.004-.022-.004-.022-.004-.023-.004-.022-.005-.022-.004-.022-.005L1.2 8.42l-.022-.005-.023-.005-.022-.005-.022-.006-.022-.005-.022-.006-.022-.005-.023-.006-.022-.006-.022-.006-.022-.006-.022-.006-.023-.006-.022-.007-.022-.006-.022-.007-.022-.007-.022-.007-.023-.007-.022-.007-.022-.007-.022-.008-.022-.007-.022-.008-.023-.007-.022-.008-.022-.008-.022-.008-.022-.008-.023-.009-.022-.008-.022-.008-.022-.009-.022-.009-.022-.008-.023-.01L.38 8.16l-.022-.01-.022-.009-.022-.009-.022-.01-.023-.009-.022-.01-.022-.01-.022-.009-.022-.01-.022-.01-.023-.01-.022-.01-.022-.01-.022-.01-.022-.011z" transform="translate(9 5)"/>
        <path fill="url(#c)" d="M6.468 5.318V2.303a2.314 2.314 0 0 1 .403-1.301L6.893.97l.022-.03.022-.03.022-.029.022-.028A2.239 2.239 0 0 1 7.026.8l.022-.025L7.07.75a2.26 2.26 0 0 1 .044-.047L7.137.68l.022-.022.022-.021.022-.02.022-.021.022-.02.023-.02.022-.018a2.674 2.674 0 0 1 .222-.165L7.536.36l.022-.014L7.58.33l.022-.013.022-.013.023-.013.022-.012.022-.012.022-.011.022-.012.023-.01.022-.012.022-.01.022-.01.022-.01.022-.01.023-.009.022-.009.022-.009.022-.008.022-.009.022-.007.023-.008.022-.008.022-.007.022-.007.022-.007.023-.006.022-.006.022-.006L8.2.07l.022-.006.022-.005.023-.005L8.29.05l.022-.004.022-.005.022-.004.022-.004.023-.003.022-.004.022-.003.022-.003.022-.003.023-.003.022-.002.022-.002.022-.002L8.6.006l.022-.001.023-.002h.022l.022-.001L8.71 0h.044L8.778 0H12.145v11.514a2.325 2.325 0 0 1-.263 1.069 2.278 2.278 0 0 1-.11.188l-.023.034a2.41 2.41 0 0 1-.11.15l-.023.027-.022.026a2.245 2.245 0 0 1-.022.026l-.022.025-.023.024-.022.024-.022.022a2.294 2.294 0 0 1-.044.044l-.022.021-.023.02-.022.02-.022.02-.022.02c-.008.005-.015.012-.022.018l-.022.018-.023.017-.022.017-.022.017-.022.016-.022.017-.023.015-.022.015-.022.015-.022.014-.022.014-.022.014-.023.013c-.007.005-.014.01-.022.013a2.38 2.38 0 0 1-.022.013l-.022.012-.022.013-.022.011-.023.012-.022.01-.022.012-.022.01-.022.01-.023.01-.022.01-.022.01-.022.008-.022.01-.022.008-.023.008-.022.008-.022.008-.022.008-.022.007-.022.007-.023.007-.022.006-.022.007a1.879 1.879 0 0 1-.022.006l-.022.006-.023.005-.022.006-.022.005-.022.004-.022.005-.022.005-.023.004-.022.004-.022.004-.022.003-.022.003-.022.003-.023.003-.022.003-.022.002-.022.003-.022.002-.022.002h-.023l-.022.002-.022.002h-.022l-.022.001h-.045l-.02.001H6.468V8.5a2.135 2.135 0 0 0 .092.074l.022.017.022.016a2.276 2.276 0 0 0 .045.032l.022.015.022.015.022.014.022.014.023.014.022.014.022.013.022.013.022.012.023.013.022.012.022.011.022.012.022.011.022.011.023.01.022.012.022.01.022.01.022.01.022.01.023.009.022.01.022.008.022.01.022.008.022.008.023.009.022.008.022.008.022.008.022.007.023.008.022.007.022.007.022.007.022.007.022.007.023.007.022.006.022.006.022.007.022.006.022.005.023.006.022.006.022.006.022.005.022.005.023.005.022.005.022.005.022.005.022.005.022.005.023.004.022.005.022.004.022.004.022.004.022.004.023.004.022.004.022.004.022.003.022.004.023.003.022.004.022.003.022.003.022.003.022.003.023.003.022.003.022.002.022.003.022.003.022.002.023.003.022.002.022.002.022.002.022.003.023.002.022.002.022.001.022.002.022.002.022.002.023.001.022.002.022.001.022.002.022.001.022.001.023.002H8.8l.022.002.022.001h.022l.023.002h.022l.022.001.022.001h.022L9 9.247l.023.001h.022l.022.001h.066l.023.001H9.399l.022-.001h.022l.022-.001h.022l.022-.001.023-.001h.022l.022-.001.022-.001.022-.001h.023l.022-.002h.022l.022-.002h.022l.022-.002.023-.001.022-.002.022-.001.022-.001.022-.002.022-.002.023-.001.022-.002.022-.002.022-.002.022-.002.023-.002.022-.002.022-.002.022-.002.022-.002.022-.003.023-.002.022-.003.022-.002.022-.003.022-.002.022-.003.023-.003.022-.002.022-.003.022-.003.022-.003.022-.003.023-.003.022-.003.022-.003.022-.004.022-.003.023-.003.022-.003.022-.004.022-.003.022-.004.022-.003.023-.004.022-.003.022-.004.022-.004.022-.004.022-.003.023-.004.022-.004.022-.004.022-.004.022-.004.023-.004.022-.004.022-.004.022-.005.022-.004.022-.004.023-.004.022-.005.022-.004.022-.005.022-.004.022-.005.023-.004.022-.005.022-.005.022-.004.022-.005.023-.005.022-.005.022-.005L11.35 9l.022-.005.022-.005.023-.005.022-.005.022-.005.022-.006.022-.005V7.99l-.022.01-.022.012-.022.01-.022.011-.023.011-.022.01-.022.011-.022.01-.022.01-.022.01-.023.01-.022.01-.022.01-.022.01-.022.01-.023.009-.022.01-.022.009-.022.009-.022.009-.022.008-.023.01-.022.008-.022.008-.022.009-.022.008-.022.008-.023.008-.022.008-.022.007-.022.008-.022.007-.023.008-.022.007-.022.007-.022.007-.022.007-.022.007-.023.006-.022.007-.022.006-.022.006-.022.006-.022.006-.023.006-.022.006-.022.005-.022.006-.022.005-.023.005-.022.005-.022.005-.022.005-.022.005-.022.004-.023.005-.022.004-.022.004-.022.004-.022.004-.022.004-.023.004-.022.003-.022.004-.022.003-.022.003-.022.004-.023.003-.022.002-.022.003-.022.003-.022.002-.023.003-.022.002-.022.002-.022.002-.022.002-.022.002-.023.002-.022.001-.022.002h-.022l-.022.002-.022.001H9.62l-.022.001h-.022l-.022.001H9.443l-.022-.001h-.022l-.023-.002-.022-.001-.022-.001L9.31 8.5l-.022-.002c-.008 0-.015 0-.022-.002l-.023-.002-.022-.002-.022-.003-.022-.002-.022-.003-.023-.003-.022-.004-.022-.003-.022-.004-.022-.004-.022-.004-.023-.005-.022-.005-.022-.005-.022-.005-.022-.005-.022-.006-.023-.006a1.632 1.632 0 0 1-.088-.028l-.023-.007-.022-.008-.022-.008-.022-.01-.022-.008-.022-.01-.023-.009-.022-.01-.022-.01a1.655 1.655 0 0 1-.044-.023l-.022-.012-.023-.012-.022-.013a1.644 1.644 0 0 1-.044-.027L8.4 8.215 8.378 8.2a1.369 1.369 0 0 1-.044-.032l-.022-.017a1.483 1.483 0 0 1-.022-.018l-.022-.018a1.32 1.32 0 0 1-.067-.061l-.022-.022A1.268 1.268 0 0 1 8 7.805a1.363 1.363 0 0 1-.155-.348 1.638 1.638 0 0 1-.066-.35 2.161 2.161 0 0 1 .044-.666 1.645 1.645 0 0 1 .133-.352 1.381 1.381 0 0 1 .266-.348l.022-.02.023-.02.022-.018a1.484 1.484 0 0 1 .044-.035l.022-.016.022-.016.023-.015.022-.014a1.36 1.36 0 0 1 .044-.028l.022-.012.023-.013.022-.012A1.671 1.671 0 0 1 8.6 5.49l.022-.01.023-.01.022-.009.022-.009.022-.008.022-.009.022-.008.023-.007a1.956 1.956 0 0 1 .066-.021l.022-.006.023-.007.022-.005.022-.006.022-.005.022-.005L9 5.359l.023-.005.022-.004.022-.004.022-.004.022-.003.022-.004.023-.003.022-.003.022-.002.022-.003.022-.002.023-.002.022-.002.022-.002.022-.001.022-.002.022-.001H9.4l.022-.002h.044l.022-.001H9.598l.022.001.023.001.022.001.022.001.022.002.022.001.022.001.023.002.022.002.022.002.022.002.022.002.022.002.023.003.022.002.022.003.022.002.022.003.023.003.022.003.022.003.022.004.022.003.022.004.023.003.022.004.022.004.022.004.022.004.022.005.023.004.022.005.022.004.022.005.022.005.022.005.023.005.022.005.022.006.022.005.022.006.023.006.022.006.022.006.022.006.022.006.022.007.023.006.022.007.022.007.022.007.022.007.022.007.023.007.022.008.022.007.022.008.022.008.023.008.022.008.022.008.022.009.022.008.022.009.023.009.022.009.022.009.022.009.022.009.022.01.023.009.022.01.022.01.022.01.022.009.023.01.022.01.022.01.022.011.022.01.022.011.023.011.022.01.022.012.022.011.022.011v-.975l-.022-.005-.022-.006-.022-.005-.022-.005-.023-.005-.022-.005-.022-.005-.022-.005-.022-.005-.022-.005-.023-.005-.022-.005-.022-.004-.022-.005-.022-.005-.023-.004-.022-.005-.022-.004-.022-.005-.022-.004-.022-.004-.023-.005-.022-.004-.022-.004-.022-.004-.022-.005-.022-.004-.023-.004-.022-.004-.022-.004-.022-.004-.022-.004-.023-.003-.022-.004-.022-.004-.022-.004-.022-.003-.022-.004-.023-.003-.022-.004-.022-.003-.022-.004-.022-.003-.022-.004-.023-.003-.022-.003-.022-.003-.022-.003-.022-.004-.023-.003-.022-.003-.022-.003-.022-.002-.022-.003-.022-.003-.023-.003-.022-.002-.022-.003-.022-.003-.022-.002-.022-.002-.023-.003-.022-.002-.022-.002-.022-.003-.022-.002-.022-.002-.023-.002-.022-.002-.022-.002-.022-.001-.022-.002-.023-.002-.022-.001-.022-.002-.022-.001-.022-.002-.022-.001-.023-.001-.022-.002H9.71l-.022-.002h-.022l-.022-.001-.023-.001-.022-.001h-.022l-.022-.002h-.045l-.022-.002h-.044l-.022-.001h-.045l-.022-.001h-.288l-.022.001h-.022l-.023.001h-.022l-.022.001-.022.001H8.91l-.022.002h-.023l-.022.002h-.022l-.022.002h-.022l-.023.002-.022.002h-.022l-.022.002-.022.002-.022.001-.023.002-.022.002-.022.001-.022.002-.022.002-.022.002-.023.002-.022.002-.022.002-.022.003-.022.002-.023.003-.022.002-.022.003-.022.002-.022.003-.022.003-.023.003-.022.003-.022.003-.022.003-.022.003-.022.004-.023.003-.022.004-.022.003-.022.004-.022.004L8 4.666l-.022.004-.022.004-.022.004-.022.004-.022.005-.023.004-.022.005-.022.005-.022.004-.022.005-.022.005-.023.006-.022.005-.022.005-.022.006-.022.006-.023.005-.022.006-.022.006-.022.007-.022.006-.022.006-.023.007-.022.007-.022.006-.022.008-.022.007-.022.007-.023.008-.022.007-.022.008-.022.008-.022.008-.023.009-.022.008-.022.009-.022.009-.022.009-.022.009-.023.01-.022.01-.022.009-.022.01-.022.01-.022.011-.023.01-.022.012-.022.011-.022.012-.022.011-.022.012-.023.013a2.322 2.322 0 0 0-.022.012l-.022.013-.022.013a2.15 2.15 0 0 0-.022.014l-.023.014-.022.014-.022.014-.022.015-.022.015a2.614 2.614 0 0 0-.045.032l-.022.016a2.338 2.338 0 0 0-.114.092z" transform="translate(9 5)"/>
    </g>
</svg>
