<svg width="24" height="24" viewBox="0 0 24 24" fill="none" xmlns="http://www.w3.org/2000/svg">
<rect width="24" height="24" rx="3" fill="white"/>
<g clip-path="url(#clip0)">
<path d="M19.6594 13.7908C19.4242 15.0606 17.5529 16.4502 15.4037 16.7195C14.2829 16.8598 13.1795 16.9888 12.0029 16.9322C10.0786 16.8396 8.56022 16.4502 8.56022 16.4502C8.56022 16.6467 8.57177 16.8339 8.59488 17.009C8.84504 19.0018 10.4779 19.1212 12.0247 19.1768C13.5859 19.2329 14.976 18.7729 14.976 18.7729L15.0401 20.254C15.0401 20.254 13.9481 20.8693 12.0029 20.9825C10.9302 21.0443 9.59832 20.9541 8.04704 20.5233C4.68257 19.5888 4.10396 15.8253 4.01542 12.0067C3.98844 10.8729 4.00507 9.80383 4.00507 8.90969C4.00507 5.00494 6.44308 3.86039 6.44308 3.86039C7.67239 3.26795 9.78177 3.01881 11.9747 3H12.0286C14.2215 3.01881 16.3323 3.26795 17.5615 3.86039C17.5615 3.86039 19.9994 5.00494 19.9994 8.90969C19.9994 8.90969 20.03 11.7906 19.6594 13.7908Z" fill="#222226"/>
<path d="M17.1238 9.21238V13.9404H15.3388V9.35135C15.3388 8.38399 14.951 7.89299 14.1751 7.89299C13.3173 7.89299 12.8874 8.47544 12.8874 9.62716V12.139H11.113V9.62716C11.113 8.47544 10.683 7.89299 9.82516 7.89299C9.04933 7.89299 8.66147 8.38399 8.66147 9.35135V13.9404H6.87646V9.21238C6.87646 8.24609 7.11092 7.47821 7.58187 6.91011C8.06751 6.34201 8.70352 6.05078 9.49302 6.05078C10.4065 6.05078 11.0982 6.4192 11.5555 7.15614L12.0002 7.93828L12.4449 7.15614C12.9021 6.4192 13.5939 6.05078 14.5074 6.05078C15.2968 6.05078 15.9328 6.34201 16.4185 6.91011C16.8894 7.47821 17.1238 8.24609 17.1238 9.21238Z" fill="white"/>
</g>
<defs>
<clipPath id="clip0">
<rect width="16" height="18" fill="white" transform="translate(4 3)"/>
</clipPath>
</defs>
</svg>
