<svg width="3422" height="667" viewBox="0 0 3422 667" fill="none" xmlns="http://www.w3.org/2000/svg">
<path d="M3183.66 666.866C3049.05 666.866 2962.98 602.768 2927.27 508.451L3053.63 435.196C3076.52 488.306 3115.9 524.018 3188.24 524.018C3257.83 524.018 3275.23 496.548 3275.23 471.824C3275.23 432.449 3238.6 416.882 3142.45 390.327C3047.22 363.772 2953.82 317.988 2953.82 195.286C2953.82 71.6674 3058.21 0.243576 3169.01 0.243576C3274.31 0.243576 3356.72 50.6065 3403.42 144.923L3279.81 217.262C3257.83 171.478 3227.61 143.091 3169.01 143.091C3123.22 143.091 3100.33 165.983 3100.33 191.623C3100.33 220.925 3115.9 241.07 3215.71 271.288C3312.77 300.59 3421.74 334.47 3421.74 469.992C3421.74 593.611 3322.84 666.866 3183.66 666.866Z" fill="#009F95"/>
<path d="M2714.02 13.0632H2860.53V654.046H2750.65L2503.41 306.084V654.046H2356.9V13.0632H2466.79L2714.02 361.025V13.0632Z" fill="#009F95"/>
<path d="M2005.57 13.0632C2182.3 13.0632 2316.9 152.248 2316.9 333.555C2316.9 514.861 2182.3 654.046 2005.57 654.046H1813.56V13.0632L2005.57 13.0632ZM2005.57 513.03C2106.29 513.03 2175.89 443.437 2175.89 333.555C2175.89 223.672 2106.29 154.079 2005.57 154.079H1960.07V513.03H2005.57Z" fill="#009F95"/>
<path d="M1598.33 13.0632H1735.68V654.046H1598.33V611.009C1568.11 645.805 1523.24 666.866 1461.89 666.866C1341.94 666.866 1243.04 561.561 1243.04 425.124C1243.04 288.686 1341.94 183.382 1461.89 183.382C1523.24 183.382 1568.11 204.442 1598.33 239.239V13.0632ZM1489.36 536.838C1552.55 536.838 1598.33 493.8 1598.33 425.124C1598.33 356.447 1552.55 313.41 1489.36 313.41C1426.18 313.41 1380.4 356.447 1380.4 425.124C1380.4 493.8 1426.18 536.838 1489.36 536.838Z" fill="#0f172a"/>
<path d="M835.704 133.019V23.1358H1110.41V133.019H835.704ZM973.057 666.866C838.451 666.866 730.399 561.561 730.399 425.124C730.399 288.686 838.451 183.382 973.057 183.382C1107.66 183.382 1215.72 288.686 1215.72 425.124C1215.72 561.561 1107.66 666.866 973.057 666.866ZM973.057 533.175C1032.58 533.175 1078.36 490.138 1078.36 425.124C1078.36 360.11 1032.58 317.072 973.057 317.072C913.537 317.072 867.753 360.11 867.753 425.124C867.753 490.138 913.537 533.175 973.057 533.175Z" fill="#0f172a"/>
<path d="M512.888 183.382C618.192 183.382 686.869 258.468 686.869 372.929V654.046H549.515V384.833C549.515 339.049 527.539 309.747 483.585 309.747C437.801 309.747 412.162 341.796 412.162 395.822V654.046H274.808V384.833C274.808 339.049 252.832 309.747 208.879 309.747C163.094 309.747 137.455 341.796 137.455 395.822V654.046H0.101318V196.201H137.455V238.323C158.516 207.189 198.806 183.382 260.157 183.382C314.183 183.382 354.473 205.358 380.113 243.817C405.752 207.189 447.874 183.382 512.888 183.382Z" fill="#0f172a"/>
</svg>
