<svg width="56" height="72" viewBox="0 0 56 72" fill="none" xmlns="http://www.w3.org/2000/svg">
<path fill-rule="evenodd" clip-rule="evenodd" d="M17.8438 0.133789H55.17V22.0925H17.8438V0.133789Z" fill="#F0EDEA"/>
<path fill-rule="evenodd" clip-rule="evenodd" d="M0.5 24.9697H55.1213L55.1704 46.9746H0.5V24.9697Z" fill="#F0EDEA"/>
<path fill-rule="evenodd" clip-rule="evenodd" d="M0.707031 49.7754H47.5138L47.5635 71.7803H0.707031V49.7754Z" fill="#F0EDEA"/>
<path fill-rule="evenodd" clip-rule="evenodd" d="M29.8405 0.124023V9.47602H28.6604V0.124912H25.6641V22.0902H28.6698V12.08H29.8508V22.0934H32.8324V0.124023H29.8405Z" fill="#3C3E5C"/>
<path fill-rule="evenodd" clip-rule="evenodd" d="M12.1155 36.1962C12.9101 36.2786 13.2088 36.0335 13.2581 35.2826C13.2647 35.1825 13.2638 35.0819 13.2638 34.9816C13.2642 33.9108 13.2642 32.84 13.264 31.7692C13.2639 30.6817 13.2725 29.5941 13.26 28.5066C13.2508 27.7098 12.9024 27.4223 12.1155 27.5421V36.1962ZM16.5533 46.9377H13.496C13.4611 46.4694 13.4241 45.9981 13.3912 45.5266C13.2359 43.299 13.0808 41.0715 12.9293 38.8436C12.919 38.6914 12.8746 38.6139 12.7048 38.6244C12.506 38.6365 12.306 38.6272 12.0771 38.6272V46.9367H9.07671C9.07257 46.8479 9.0647 46.7597 9.0647 46.6714C9.0641 39.527 9.06511 32.3826 9.05966 25.2381C9.05946 25.0148 9.10949 24.9335 9.34925 24.9367C10.7186 24.9555 12.0892 24.9304 13.4576 24.9766C14.3521 25.0069 15.1449 25.3293 15.7163 26.0685C16.1233 26.5951 16.2984 27.2082 16.3029 27.8506C16.3203 30.3435 16.3196 32.8367 16.3028 35.3296C16.2984 35.9834 16.1031 36.5973 15.6872 37.1278C15.6236 37.2088 15.5899 37.3426 15.5999 37.4464C15.7722 39.2275 15.9533 41.0079 16.133 42.7883C16.2715 44.1607 16.411 45.533 16.5533 46.9377ZM37.2457 49.7975H40.2404C40.2458 49.8881 40.2555 49.976 40.2555 50.0638C40.2564 56.3399 40.2612 62.616 40.2535 68.892C40.2511 70.7729 39.0962 71.729 37.3925 71.8967C36.7888 71.9561 36.1626 71.9347 35.5618 71.8472C33.9874 71.6179 33.0763 70.5267 33.0702 68.9353C33.0649 67.4709 33.0694 66.0065 33.0694 64.5421C33.0695 59.7304 33.0694 54.9188 33.0695 50.1072C33.0695 49.7815 33.0698 49.781 33.3966 49.781C34.2777 49.781 35.159 49.781 36.0801 49.781V50.1142C36.08 56.3066 36.08 62.499 36.0802 68.6914C36.0802 68.775 36.0754 68.8597 36.086 68.9421C36.1284 69.2729 36.3004 69.4452 36.5976 69.4624C36.942 69.4823 37.1398 69.3442 37.2199 69.0089C37.2466 68.897 37.2447 68.7768 37.2448 68.6605C37.2458 62.4848 37.2457 56.3092 37.2457 50.1335V49.7975ZM45.914 34.8142H42.9336V34.5004C42.9337 32.3583 42.9344 30.2162 42.9322 28.0742C42.9321 27.9501 42.9217 27.8221 42.8904 27.7025C42.8157 27.4166 42.6463 27.2855 42.3716 27.2778C42.0864 27.2697 41.8862 27.3988 41.7964 27.6721C41.758 27.789 41.7391 27.9176 41.7391 28.041C41.7362 33.3208 41.7362 38.6008 41.7367 43.8806C41.7368 44.4038 41.9856 44.6615 42.4317 44.6191C42.6492 44.5984 42.8003 44.4946 42.8583 44.289C42.9008 44.1384 42.9304 43.9786 42.9307 43.8228C42.9351 41.3794 42.9363 38.9362 42.9291 36.493C42.9285 36.2713 42.9774 36.1892 43.2182 36.1938C44.0249 36.209 44.8318 36.1991 45.6388 36.2002C45.7207 36.2003 45.8026 36.208 45.9008 36.2131C45.9058 36.3089 45.9135 36.3902 45.9135 36.4715C45.9142 38.9231 45.9201 41.3748 45.9078 43.8265C45.9059 44.1905 45.8461 44.5604 45.7649 44.9167C45.5153 46.0118 44.8034 46.676 43.7283 46.9477C42.8775 47.1626 42.0111 47.1683 41.1544 46.9787C39.8394 46.6879 39.0733 45.8489 38.8174 44.5482C38.7419 44.1649 38.6978 43.7688 38.6972 43.3786C38.6894 38.425 38.689 33.4715 38.6976 28.5179C38.6983 28.1112 38.7431 27.6974 38.8263 27.2992C39.1132 25.9273 39.9733 25.1206 41.3541 24.8808C42.13 24.746 42.9113 24.7555 43.6813 24.9383C44.9269 25.2344 45.6816 26.0889 45.8588 27.3989C45.8934 27.6549 45.9113 27.9152 45.9118 28.1737C45.9159 30.2823 45.9141 32.3909 45.914 34.4996V34.8142ZM31.4661 57.6543H28.5079C28.5079 57.5475 28.5078 57.4506 28.5079 57.3537C28.508 55.8226 28.5095 54.2916 28.5074 52.7606C28.5067 52.2394 28.2042 51.9949 27.7119 52.1081C27.4379 52.1711 27.3118 52.3598 27.3116 52.7174C27.311 54.2986 27.3115 55.8798 27.3115 57.4611C27.3115 57.4778 27.3114 57.4946 27.3117 57.5112C27.3237 58.0707 27.6276 58.5061 28.152 58.7067C28.5124 58.8447 28.876 58.9748 29.2365 59.1125C29.4089 59.1784 29.5787 59.2511 29.7479 59.3249C31.006 59.8729 31.6323 60.8274 31.6292 62.1982C31.6242 64.3734 31.646 66.5488 31.6223 68.7237C31.6024 70.5464 30.3625 71.7991 28.5386 71.92C27.8288 71.9671 27.1263 71.953 26.44 71.7569C25.1046 71.3757 24.3671 70.4342 24.3564 69.0523C24.3408 67.0697 24.3524 65.0868 24.3536 63.1039C24.3536 63.0391 24.3657 62.9742 24.3736 62.8954H27.3421V63.1872C27.3419 65.0529 27.3411 66.9185 27.3416 68.7842C27.3417 69.2381 27.5306 69.4539 27.9309 69.4642C28.3569 69.4754 28.571 69.2712 28.5716 68.8426C28.5731 67.4956 28.5719 66.1487 28.5717 64.8017C28.5717 64.2161 28.5723 63.6304 28.5716 63.0449C28.5708 62.3689 28.2649 61.9221 27.63 61.6792C27.1676 61.5022 26.6996 61.3393 26.2394 61.1572C25.4423 60.8417 24.7824 60.3546 24.5213 59.5093C24.378 59.045 24.303 58.543 24.2957 58.0566C24.2694 56.3168 24.2849 54.5764 24.2856 52.8362C24.2863 51.1882 25.1883 50.0645 26.8095 49.7498C27.7682 49.5637 28.7327 49.5743 29.6675 49.9058C30.7675 50.296 31.4565 51.187 31.4774 52.3496C31.5084 54.0808 31.4868 55.813 31.4866 57.5449C31.4866 57.5766 31.475 57.6082 31.4661 57.6543ZM15.6704 62.8891H18.6305V63.184C18.6304 65.0495 18.6298 66.9151 18.6306 68.7807C18.6308 69.2759 18.8672 69.4986 19.3456 69.4602C19.65 69.4357 19.8224 69.2741 19.8554 68.9709C19.8671 68.8634 19.8612 68.7538 19.8613 68.6451C19.8616 66.7879 19.8617 64.9307 19.8616 63.0735C19.8616 62.349 19.5632 61.9207 18.8782 61.663C18.5247 61.5301 18.1713 61.3973 17.8169 61.2667C16.2271 60.6799 15.5982 59.8243 15.5802 58.1358C15.561 56.3373 15.5624 54.5384 15.5797 52.7399C15.5948 51.16 16.5089 50.0669 18.0732 49.7566C19.058 49.5612 20.0492 49.5647 21.0028 49.9229C22.0931 50.3325 22.7246 51.14 22.7569 52.2952C22.8057 54.0423 22.7726 55.7917 22.7735 57.54C22.7735 57.5719 22.7629 57.6037 22.7544 57.6521H19.7959V57.3588C19.796 55.8195 19.7973 54.2802 19.7956 52.7407C19.7952 52.2361 19.4962 51.998 19.0096 52.107C18.7412 52.1671 18.6128 52.3388 18.6111 52.6631C18.6078 53.299 18.6111 53.9347 18.6112 54.5706C18.6114 55.5242 18.6103 56.4779 18.6115 57.4317C18.6123 58.0964 18.892 58.4974 19.512 58.7322C19.9749 58.9076 20.445 59.0672 20.897 59.2669C21.2095 59.4049 21.5089 59.5815 21.7933 59.7716C22.5917 60.3056 22.8977 61.1095 22.906 62.0186C22.927 64.3023 22.9429 66.5867 22.9039 68.87C22.8751 70.5688 21.5924 71.8103 19.8862 71.9173C19.0745 71.9683 18.2733 71.9547 17.4974 71.6824C16.3516 71.2802 15.6683 70.3676 15.658 69.1581C15.6407 67.1254 15.6522 65.0923 15.6525 63.0593C15.6525 63.0107 15.6625 62.962 15.6704 62.8891ZM34.4338 39.3728C34.4338 39.2671 34.4365 39.1852 34.4334 39.1034C34.343 36.7963 34.2578 34.489 34.1589 32.1824C34.1009 30.8287 34.023 29.4756 33.9461 28.1228C33.9416 28.0428 33.8677 27.9666 33.8262 27.8887C33.7871 27.9575 33.7169 28.025 33.7138 28.0953C33.5511 31.7976 33.3939 35.5001 33.2376 39.2028C33.2353 39.2573 33.2488 39.3124 33.2555 39.3728H34.4338ZM37.8395 46.9392H34.7687C34.7565 46.7746 34.7402 46.619 34.7341 46.4628C34.6772 45.0334 34.618 43.604 34.5709 42.1741C34.564 41.9633 34.5136 41.8734 34.2844 41.8883C33.983 41.9078 33.679 41.904 33.3771 41.8893C33.1752 41.8794 33.1054 41.9364 33.0975 42.1499C33.0404 43.7051 32.9687 45.2595 32.9011 46.8142C32.8997 46.8469 32.8925 46.8792 32.8853 46.931H29.8293C29.8525 46.5724 29.8731 46.2102 29.8999 45.8484C30.028 44.1133 30.1575 42.3785 30.2871 40.6435C30.431 38.7167 30.5762 36.79 30.7198 34.8632C30.8441 33.1949 30.9668 31.5266 31.0905 29.8583C31.2076 28.2819 31.327 26.7054 31.4394 25.1286C31.4495 24.9885 31.4972 24.9401 31.6357 24.9405C33.1149 24.9434 34.5941 24.9436 36.0733 24.9401C36.2224 24.9397 36.2742 24.9908 36.2848 25.1418C36.4501 27.5115 36.6203 29.8811 36.7918 32.2505C36.985 34.9203 37.1814 37.5898 37.3753 40.2596C37.5309 42.4038 37.685 44.5479 37.8388 46.6923C37.8441 46.7662 37.8395 46.8407 37.8395 46.9392ZM29.749 24.9697C29.2057 32.2923 28.6631 39.6038 28.1193 46.9324H23.5555C23.0124 39.6146 22.4696 32.3026 21.9251 24.9665C22.0123 24.9572 22.0842 24.9431 22.1561 24.9429C23.0301 24.9414 23.9041 24.9473 24.7781 24.9378C24.9787 24.9357 25.0294 25.0043 25.037 25.1962C25.2205 29.8189 25.409 34.4412 25.5994 39.0635C25.6446 40.1584 25.7001 41.2528 25.751 42.3476C25.7542 42.4145 25.7462 42.4855 25.7666 42.5469C25.7936 42.6294 25.8432 42.7046 25.8832 42.7829C25.9223 42.7067 25.9908 42.6324 25.9959 42.5539C26.0329 41.9864 26.0617 41.4182 26.0845 40.8499C26.1745 38.6014 26.2654 36.3529 26.348 34.1042C26.4569 31.1363 26.5587 28.1682 26.6624 25.2003C26.6672 25.0595 26.6631 24.9378 26.8688 24.9394C27.7764 24.9467 28.684 24.9429 29.5917 24.9443C29.6315 24.9444 29.6713 24.9567 29.749 24.9697ZM3.49971 37.5231C4.30454 37.6485 4.70004 37.3473 4.70045 36.6299C4.70196 33.8953 4.70267 31.1607 4.70014 28.4261C4.69954 27.712 4.19823 27.3524 3.49971 27.5614V37.5231ZM3.48983 40.0824V46.9343H0.5V24.9698C0.55931 24.9609 0.622656 24.9434 0.6859 24.9434C2.04742 24.9488 3.40934 24.9365 4.77025 24.9684C6.40038 25.0065 7.56883 26.1091 7.73436 27.7239C7.75998 27.973 7.77218 28.2246 7.77248 28.4751C7.77521 31.1946 7.77864 33.9142 7.77188 36.6339C7.76956 37.5251 7.57115 38.3603 6.95979 39.054C6.41813 39.6686 5.73364 40.015 4.92054 40.0761C4.45534 40.1111 3.98519 40.0824 3.48983 40.0824ZM52.4711 46.9398H49.4518V46.6376C49.4518 45.1398 49.4893 43.6407 49.4374 42.1447C49.4076 41.2808 49.2536 40.4189 49.1211 39.5611C48.7196 36.9585 48.3008 34.3583 47.8896 31.7571C47.5435 29.5687 47.1986 27.3802 46.8535 25.1916C46.8431 25.1264 46.837 25.0603 46.8255 24.9676H50.1008C50.1316 25.3032 50.1659 25.6415 50.1931 25.9803C50.3741 28.2233 50.557 30.466 50.7315 32.7094C50.7859 33.4099 50.815 34.1123 50.8585 34.8137C50.8645 34.9129 50.8262 35.067 51.0006 35.0373C51.055 35.0279 51.1215 34.9015 51.1271 34.8247C51.2279 33.423 51.3152 32.0204 51.4159 30.6186C51.5472 28.7915 51.6861 26.9649 51.8306 25.1388C51.8361 25.0699 51.9339 24.9523 51.9898 24.9518C52.9898 24.9417 53.9899 24.9458 54.99 24.9484C55.0127 24.9484 55.0355 24.966 55.0785 24.9837C54.977 25.6407 54.8767 26.2999 54.7733 26.9585C54.3605 29.5852 53.9462 32.2118 53.5337 34.8385C53.1874 37.044 52.8423 39.2497 52.4988 41.4557C52.4796 41.5789 52.4725 41.7051 52.4722 41.83C52.4705 43.4281 52.4711 45.0264 52.4711 46.6246V46.9398ZM47.5187 49.7811V52.3538H44.9255V59.1638H47.361V61.6666H44.9223V69.2166H47.5618V71.7798H41.894V71.4995C41.894 64.3634 41.8957 57.2273 41.8879 50.0913C41.8876 49.8309 41.9605 49.7737 42.2111 49.7752C43.8833 49.7864 45.5556 49.7811 47.2278 49.7811H47.5187ZM39.9489 11.9905H37.5188C37.5129 12.1055 37.5043 12.1941 37.5043 12.2827C37.5035 14.6083 37.5076 16.9339 37.4977 19.2595C37.4966 19.5037 37.581 19.5488 37.8002 19.5449C38.4891 19.5331 39.1782 19.5406 39.8672 19.5406H40.1586V22.0841H34.5044V21.7845C34.5044 14.6655 34.5044 7.54655 34.5045 0.427584C34.5045 0.105743 34.5052 0.105341 34.8358 0.105341C36.508 0.105141 38.1802 0.109057 39.8523 0.100604C40.0682 0.0995171 40.1438 0.14832 40.1395 0.37627C40.1251 1.1281 40.134 1.88034 40.134 2.66722H37.5171C37.5115 2.79063 37.5042 2.8803 37.5042 2.96998C37.5035 5.04462 37.5078 7.11927 37.4981 9.19391C37.4969 9.43893 37.568 9.50501 37.809 9.49918C38.464 9.48332 39.1197 9.49497 39.7751 9.49296C39.8953 9.49256 39.9894 9.49868 39.9882 9.65995C39.9826 10.4044 39.9836 11.1488 39.9809 11.8932C39.9808 11.9166 39.9661 11.9399 39.9489 11.9905ZM22.7159 22.0942H19.7017V2.69771C19.3202 2.69771 18.9702 2.70243 18.6204 2.69621C18.3717 2.69169 18.0281 2.76449 17.9009 2.63425C17.7712 2.5016 17.848 2.16288 17.8457 1.91425C17.8412 1.42069 17.8444 0.927136 17.8444 0.433679V0.134232H24.534V2.66809H22.7159V22.0942ZM14.0268 49.7811V71.7781H11.0306V71.5005C11.0306 64.3646 11.0322 57.2284 11.0246 50.0925C11.0243 49.8337 11.0947 49.7698 11.3477 49.775C12.1456 49.7914 12.9442 49.7811 13.7425 49.7811H14.0268ZM20.8611 46.9507H18.2157H17.8871C17.8821 46.8478 17.874 46.7596 17.874 46.6715C17.8734 39.5282 17.8747 32.385 17.8683 25.2418C17.8681 24.9989 17.936 24.9318 18.1776 24.936C18.9755 24.951 19.7739 24.9418 20.572 24.9418H20.8611V46.9507Z" fill="#3C3E5C"/>
</svg>
