<svg width="24px" height="25px" viewBox="0 0 24 25" version="1.1" xmlns="http://www.w3.org/2000/svg">
    <rect fill="#1B1B20" x="2" y="3" width="20" height="20"></rect>
    <path d="M15.1714,17.509 C15.3161,17.6536 15.3161,17.8733 15.1714,18.0019 C13.8589,19.3144 10.1464,19.3197 8.82857,18.0019 C8.68393,17.8733 8.68393,17.6536 8.82857,17.509 C8.95714,17.3804 9.17679,17.3804 9.30536,17.509 C10.3071,18.5376 13.6446,18.559 14.6893,17.509 C14.8179,17.3858 15.0429,17.3858 15.1714,17.509 Z M10.2804,14.6269 C10.2804,13.8286 9.64286,13.1911 8.86071,13.1911 C8.0625,13.1911 7.425,13.8286 7.425,14.6269 C7.425,15.409 8.0625,16.0465 8.86071,16.0465 C9.64286,16.0465 10.2804,15.409 10.2804,14.6269 Z M15.1393,13.1911 C14.3571,13.1911 13.7196,13.8286 13.7196,14.6269 C13.7196,15.409 14.3571,16.0465 15.1393,16.0465 C15.9375,16.0465 16.575,15.409 16.575,14.6269 C16.575,13.8286 15.9375,13.1911 15.1393,13.1911 Z M24,3.28578 L24,22.1429 C24,23.5626 22.8482,24.7144 21.4286,24.7144 L2.57143,24.7144 C1.15179,24.7144 0,23.5626 0,22.1429 L0,3.28578 C0,1.86614 1.15179,0.714355 2.57143,0.714355 L21.4286,0.714355 C22.8482,0.714355 24,1.86614 24,3.28578 Z M18.6589,10.8179 C18.1179,10.8179 17.6411,11.0429 17.2875,11.3911 C15.9964,10.4965 14.2607,9.92328 12.3321,9.859 L13.3339,5.34828 L16.5214,6.06614 C16.5214,6.84828 17.1589,7.48578 17.9411,7.48578 C18.7393,7.48578 19.3768,6.83221 19.3768,6.05007 C19.3768,5.26793 18.7393,4.61436 17.9411,4.61436 C17.3839,4.61436 16.9071,4.9465 16.6661,5.41257 L13.1464,4.63043 C12.9696,4.58221 12.7982,4.71078 12.75,4.88757 L11.6518,9.859 C9.73929,9.93936 8.01964,10.5126 6.72857,11.4072 C6.38036,11.0429 5.88214,10.8179 5.34107,10.8179 C3.33214,10.8179 2.67321,13.5179 4.51071,14.434 C4.44643,14.7233 4.41429,15.0233 4.41429,15.3286 C4.41429,18.3554 7.82679,20.809 12.0161,20.809 C16.2214,20.809 19.6339,18.3554 19.6339,15.3286 C19.6339,15.0233 19.6018,14.7072 19.5214,14.4179 C21.3214,13.4965 20.6571,10.8179 18.6589,10.8179 Z" id="Shape" fill="#FFFFFF"></path>
</svg>