<svg width="24" height="25" viewBox="0 0 24 25" fill="#000" xmlns="http://www.w3.org/2000/svg">
    <rect fill="#1B1B20" x="2" y="3" width="20" height="20"></rect>
    <path d="M21.4286 0.714355H2.57143C1.15179 0.714355 0 1.86614 0 3.28578V22.1429C0 23.5626 1.15179 24.7144 2.57143 24.7144H21.4286C22.8482 24.7144 24 23.5626 24 22.1429V3.28578C24 1.86614 22.8482 0.714355 21.4286 0.714355ZM18.8089 9.2215C18.8196 9.3715 18.8196 9.52686 18.8196 9.67686C18.8196 14.3215 15.2839 19.6733 8.82321 19.6733C6.83036 19.6733 4.98214 19.0947 3.42857 18.0983C3.7125 18.1304 3.98571 18.1411 4.275 18.1411C5.91964 18.1411 7.43036 17.584 8.63571 16.6411C7.09286 16.609 5.79643 15.5965 5.35179 14.2036C5.89286 14.284 6.38036 14.284 6.9375 14.1394C5.33036 13.8126 4.125 12.3983 4.125 10.6894V10.6465C4.59107 10.909 5.1375 11.0697 5.71071 11.0911C5.2288 10.7706 4.83374 10.3357 4.56079 9.82533C4.28784 9.31495 4.14548 8.74493 4.14643 8.16614C4.14643 7.51257 4.31786 6.91257 4.62321 6.39293C6.35357 8.52507 8.95179 9.91793 11.8661 10.0679C11.3679 7.684 13.1518 5.75007 15.2946 5.75007C16.3071 5.75007 17.2179 6.17328 17.8607 6.859C18.6536 6.709 19.4143 6.41436 20.0893 6.01257C19.8268 6.82686 19.275 7.51257 18.5464 7.9465C19.2536 7.8715 19.9393 7.67328 20.5714 7.40007C20.0946 8.10186 19.4946 8.72328 18.8089 9.2215Z" fill="white"/>
</svg>