<svg width="24" height="24" viewBox="0 0 24 24" fill="none" xmlns="http://www.w3.org/2000/svg">
<path d="M23.625 12C23.625 18.4203 18.4203 23.625 12 23.625C5.57967 23.625 0.375 18.4203 0.375 12C0.375 5.57967 5.57967 0.375 12 0.375C18.4203 0.375 23.625 5.57967 23.625 12ZM16.9851 10.3439C17.2165 8.79708 16.0387 7.96552 14.4281 7.4108L14.9505 5.31539L13.6749 4.99753L13.1663 7.03772C12.831 6.95414 12.4865 6.87534 12.1443 6.79725L12.6566 4.74366L11.3817 4.4258L10.8589 6.52045C10.5813 6.45722 10.3088 6.39473 10.0443 6.32902L10.0458 6.32245L8.28656 5.88323L7.94723 7.24552C7.94723 7.24552 8.89369 7.46241 8.87372 7.47581C9.39038 7.60477 9.48375 7.94663 9.46809 8.21761L8.87297 10.6047C8.90859 10.6138 8.95472 10.6269 9.00558 10.6472C8.96306 10.6367 8.91764 10.6251 8.87077 10.6138L8.03658 13.9578C7.97334 14.1147 7.81313 14.3501 7.452 14.2608C7.4647 14.2793 6.52481 14.0294 6.52481 14.0294L5.89153 15.4894L7.55156 15.9031C7.86038 15.9805 8.16305 16.0615 8.46094 16.1378L7.93303 18.2572L9.20719 18.575L9.72998 16.4782C10.0679 16.5697 10.4068 16.6577 10.7466 16.7419L10.2255 18.8289L11.5012 19.1468L12.0291 17.0314C14.2042 17.443 15.84 17.277 16.5284 15.3098C17.0832 13.7259 16.5008 12.8123 15.3563 12.2165C16.1898 12.0244 16.8176 11.4763 16.9851 10.3439ZM14.0706 14.4304C13.6763 16.0143 11.0093 15.1581 10.1445 14.9434L10.845 12.1356C11.7097 12.3514 14.4825 12.7786 14.0706 14.4304ZM14.4651 10.321C14.1054 11.7618 11.8855 11.0298 11.1654 10.8503L11.8005 8.30377C12.5206 8.4832 14.8397 8.81813 14.4651 10.321Z" fill="white"/>
</svg>
