<svg width="30" height="24" viewBox="0 0 30 24" fill="none" xmlns="http://www.w3.org/2000/svg">
<path d="M28.5 3H1.5C0.671719 3 0 3.67172 0 4.5V19.5C0 20.3283 0.671719 21 1.5 21H28.5C29.3283 21 30 20.3283 30 19.5V4.5C30 3.67172 29.3283 3 28.5 3ZM2.25 18.75V15.75C3.90703 15.75 5.25 17.093 5.25 18.75H2.25ZM2.25 8.25V5.25H5.25C5.25 6.90703 3.90703 8.25 2.25 8.25ZM15 16.5C12.9286 16.5 11.25 14.4848 11.25 12C11.25 9.51469 12.9291 7.5 15 7.5C17.0709 7.5 18.75 9.51469 18.75 12C18.75 14.4858 17.0705 16.5 15 16.5ZM27.75 18.75H24.75C24.75 17.093 26.093 15.75 27.75 15.75V18.75ZM27.75 8.25C26.093 8.25 24.75 6.90703 24.75 5.25H27.75V8.25Z" fill="white"/>
</svg>
