<svg width="27" height="24" viewBox="0 0 27 24" fill="none" xmlns="http://www.w3.org/2000/svg">
<path d="M0 20.25C0 21.4922 1.00781 22.5 2.25 22.5H24.75C25.9922 22.5 27 21.4922 27 20.25V12H0V20.25ZM9 17.0625C9 16.7531 9.25313 16.5 9.5625 16.5H15.9375C16.2469 16.5 16.5 16.7531 16.5 17.0625V18.9375C16.5 19.2469 16.2469 19.5 15.9375 19.5H9.5625C9.25313 19.5 9 19.2469 9 18.9375V17.0625ZM3 17.0625C3 16.7531 3.25312 16.5 3.5625 16.5H6.9375C7.24687 16.5 7.5 16.7531 7.5 17.0625V18.9375C7.5 19.2469 7.24687 19.5 6.9375 19.5H3.5625C3.25312 19.5 3 19.2469 3 18.9375V17.0625ZM27 3.75V6H0V3.75C0 2.50781 1.00781 1.5 2.25 1.5H24.75C25.9922 1.5 27 2.50781 27 3.75Z" fill="white"/>
</svg>
