<?xml version="1.0" encoding="UTF-8"?>
<svg width="436px" height="440px" viewBox="0 0 436 440" version="1.1" xmlns="http://www.w3.org/2000/svg" xmlns:xlink="http://www.w3.org/1999/xlink">
    <g stroke="none" stroke-width="1" fill="none" fill-rule="evenodd">
        <g fill="#FFFFFF" fill-rule="nonzero">
            <path d="M218.253,248.215 C170.61,200.105 123.614,152.974 76.287,104.831 C76.287,166.769 76.287,227.954 76.287,289.504 C74.556,289.504 73.237,289.838 72.226,289.838 C53.133,289.838 34.055,289.838 14.674,289.838 C11.945,289.838 10.581,289.17 9.925,286.371 C2.081,259.893 -1.359,233.109 0.696,205.259 C4.127,158.461 20.113,116.525 50.075,80.432 C83.103,40.183 124.972,14.421 176.057,4.426 C243.42,-8.612 304.734,7.181 357.841,51.537 C398.35,85.255 422.827,128.92 432.38,181.182 C438.866,216.587 436.148,251.345 425.926,285.707 C424.881,288.438 423.885,289.504 420.82,289.504 C401.756,289.504 382.697,289.504 363.286,289.504 C362.229,289.504 360.913,289.504 359.519,289.504 C359.519,227.956 359.519,166.699 359.519,105.174 C312.557,153.307 265.571,200.44 218.253,248.215 L218.253,248.215 Z"></path>
            <path d="M32.049,334.179 C62.353,334.179 92.653,334.179 123.278,334.179 C123.278,295.678 123.278,257.163 123.278,217.987 C154.917,249.946 186.268,281.596 217.566,313.218 C249.246,281.221 280.55,249.949 312.25,217.987 C312.25,256.835 312.25,295.348 312.25,333.838 C342.854,333.838 372.838,333.838 404.133,333.838 C386.088,363.094 363.637,386.8 335.369,405.022 C307.462,423.26 276.82,434.61 243.805,438.386 C143.37,450.437 65.397,392.981 32.049,334.179 L32.049,334.179 Z"></path>
        </g>
    </g>
</svg>