<svg xmlns="http://www.w3.org/2000/svg" width="36" height="24" viewBox="0 0 36 24">
    <g fill="none" fill-rule="nonzero">
        <path fill="#FF5F00" d="M15 8h5v9h-5z"/>
        <path fill="#EB001B" d="M15.875 12.5A5.468 5.468 0 0 1 18 8.177c-2.28-1.772-5.556-1.514-7.524.593a5.454 5.454 0 0 0 0 7.462c1.968 2.107 5.243 2.365 7.524.593a5.468 5.468 0 0 1-2.125-4.323z"/>
        <path fill="#F79E1B" d="M27 12.5a5.494 5.494 0 0 1-3.132 4.947A5.614 5.614 0 0 1 18 16.824a5.477 5.477 0 0 0 2.125-4.324A5.477 5.477 0 0 0 18 8.176a5.614 5.614 0 0 1 5.868-.623A5.494 5.494 0 0 1 27 12.499v.002z"/>
    </g>
</svg>
