<svg width="138" height="18" viewBox="0 0 138 18" fill="none" xmlns="http://www.w3.org/2000/svg">
<path d="M128.029 0.740749C128.319 0.740749 128.537 0.709113 128.537 0.667005C128.537 0.622317 128.852 0.593262 129.336 0.593262C129.82 0.593262 130.135 0.622317 130.135 0.667005C130.135 0.709113 130.352 0.740749 130.643 0.740749C130.933 0.740749 131.151 0.772385 131.151 0.814493C131.151 0.855052 131.249 0.888236 131.369 0.888236C131.489 0.888236 131.587 0.921421 131.587 0.96198C131.587 1.00254 131.718 1.03572 131.877 1.03572C132.037 1.03572 132.168 1.06891 132.168 1.10947C132.168 1.15003 132.233 1.18321 132.313 1.18321C132.393 1.18321 132.458 1.2164 132.458 1.25695C132.458 1.29751 132.557 1.3307 132.676 1.3307C132.796 1.3307 132.894 1.36388 132.894 1.40444C132.894 1.445 132.952 1.47819 133.023 1.47819C133.094 1.47819 133.2 1.54456 133.257 1.62567C133.315 1.70679 133.42 1.77316 133.491 1.77316C133.562 1.77316 133.62 1.80635 133.62 1.8469C133.62 1.88746 133.679 1.92065 133.75 1.92065C133.821 1.92065 133.926 1.98702 133.984 2.06814C134.041 2.14925 134.132 2.21562 134.186 2.21562C134.239 2.21562 134.443 2.38155 134.637 2.58434C134.832 2.78714 135.018 2.95306 135.052 2.95306C135.086 2.95306 135.161 3.02444 135.22 3.11176C135.279 3.19907 135.499 3.44722 135.708 3.66321C135.918 3.87928 136.09 4.09918 136.09 4.15198C136.09 4.20471 136.155 4.29571 136.235 4.35419C136.315 4.41267 136.38 4.51952 136.38 4.59172C136.38 4.66384 136.413 4.72291 136.453 4.72291C136.493 4.72291 136.525 4.78198 136.525 4.8541C136.525 4.92629 136.591 5.03315 136.67 5.09163C136.75 5.1501 136.816 5.25696 136.816 5.32915C136.816 5.40128 136.848 5.46034 136.888 5.46034C136.928 5.46034 136.961 5.5599 136.961 5.68157C136.961 5.80325 136.994 5.90281 137.034 5.90281C137.074 5.90281 137.106 5.96918 137.106 6.05029C137.106 6.13141 137.139 6.19778 137.179 6.19778C137.219 6.19778 137.251 6.29733 137.251 6.41901C137.251 6.54069 137.284 6.64024 137.324 6.64024C137.364 6.64024 137.397 6.77298 137.397 6.93522C137.397 7.09745 137.429 7.23019 137.469 7.23019C137.511 7.23019 137.542 7.45142 137.542 7.7464C137.542 8.04137 137.573 8.2626 137.615 8.2626C137.659 8.2626 137.687 8.60676 137.687 9.14753C137.687 9.68829 137.659 10.0325 137.615 10.0325C137.574 10.0325 137.542 10.2291 137.542 10.4749C137.542 10.7207 137.51 10.9174 137.469 10.9174C137.429 10.9174 137.397 11.0501 137.397 11.2124C137.397 11.3746 137.364 11.5073 137.324 11.5073C137.284 11.5073 137.251 11.6069 137.251 11.7286C137.251 11.8502 137.219 11.9498 137.179 11.9498C137.139 11.9498 137.106 12.0493 137.106 12.171C137.106 12.2927 137.074 12.3922 137.034 12.3922C136.994 12.3922 136.961 12.4586 136.961 12.5397C136.961 12.6209 136.928 12.6872 136.888 12.6872C136.848 12.6872 136.816 12.7536 136.816 12.8347C136.816 12.9158 136.783 12.9822 136.743 12.9822C136.703 12.9822 136.67 13.0413 136.67 13.1134C136.67 13.1856 136.605 13.2924 136.525 13.3509C136.445 13.4094 136.38 13.5162 136.38 13.5884C136.38 13.6606 136.353 13.7196 136.32 13.7196C136.286 13.7196 136.213 13.8109 136.156 13.9224C136.1 14.0339 135.963 14.2132 135.853 14.3207C135.744 14.4282 135.654 14.5535 135.654 14.5989C135.654 14.7037 134.884 15.4895 134.781 15.4895C134.739 15.4895 134.593 15.6029 134.457 15.7415C134.32 15.88 134.142 16.015 134.06 16.0414C133.978 16.0678 133.911 16.1203 133.911 16.1581C133.911 16.1959 133.853 16.2269 133.782 16.2269C133.711 16.2269 133.605 16.2933 133.548 16.3744C133.49 16.4555 133.385 16.5219 133.314 16.5219C133.243 16.5219 133.185 16.5551 133.185 16.5956C133.185 16.6362 133.119 16.6694 133.039 16.6694C132.96 16.6694 132.894 16.7026 132.894 16.7431C132.894 16.7837 132.829 16.8169 132.749 16.8169C132.669 16.8169 132.604 16.8501 132.604 16.8906C132.604 16.9312 132.506 16.9644 132.386 16.9644C132.266 16.9644 132.168 16.9975 132.168 17.0381C132.168 17.0787 132.07 17.1118 131.95 17.1118C131.83 17.1118 131.732 17.145 131.732 17.1856C131.732 17.2261 131.602 17.2593 131.442 17.2593C131.282 17.2593 131.151 17.2925 131.151 17.3331C131.151 17.3741 130.958 17.4068 130.716 17.4068C130.474 17.4068 130.28 17.4396 130.28 17.4806C130.28 17.5259 129.917 17.5543 129.336 17.5543C128.755 17.5543 128.392 17.5259 128.392 17.4806C128.392 17.4396 128.198 17.4068 127.956 17.4068C127.714 17.4068 127.52 17.3741 127.52 17.3331C127.52 17.2925 127.39 17.2593 127.23 17.2593C127.07 17.2593 126.939 17.2261 126.939 17.1856C126.939 17.145 126.841 17.1118 126.721 17.1118C126.602 17.1118 126.504 17.0787 126.504 17.0381C126.504 16.9975 126.406 16.9644 126.286 16.9644C126.166 16.9644 126.068 16.9312 126.068 16.8906C126.068 16.8501 126.002 16.8169 125.923 16.8169C125.843 16.8169 125.777 16.7837 125.777 16.7431C125.777 16.7026 125.712 16.6694 125.632 16.6694C125.552 16.6694 125.487 16.6362 125.487 16.5956C125.487 16.5551 125.429 16.5219 125.358 16.5219C125.287 16.5219 125.181 16.4555 125.124 16.3744C125.066 16.2933 124.961 16.2269 124.89 16.2269C124.819 16.2269 124.761 16.1959 124.761 16.1581C124.761 16.1203 124.694 16.0678 124.612 16.0414C124.53 16.015 124.351 15.88 124.215 15.7415C124.078 15.6029 123.932 15.4895 123.89 15.4895C123.787 15.4895 123.018 14.7037 123.018 14.5989C123.018 14.5535 122.92 14.4232 122.8 14.3096C122.68 14.1959 122.582 14.0665 122.582 14.0219C122.582 13.9773 122.549 13.9409 122.509 13.9409C122.469 13.9409 122.437 13.8911 122.437 13.8303C122.437 13.7694 122.404 13.7196 122.364 13.7196C122.324 13.7196 122.292 13.6606 122.292 13.5884C122.292 13.5162 122.226 13.4094 122.146 13.3509C122.066 13.2924 122.001 13.1856 122.001 13.1134C122.001 13.0413 121.968 12.9822 121.928 12.9822C121.889 12.9822 121.856 12.9158 121.856 12.8347C121.856 12.7536 121.823 12.6872 121.783 12.6872C121.743 12.6872 121.711 12.6209 121.711 12.5397C121.711 12.4586 121.678 12.3922 121.638 12.3922C121.598 12.3922 121.565 12.2927 121.565 12.171C121.565 12.0493 121.533 11.9498 121.493 11.9498C121.453 11.9498 121.42 11.8502 121.42 11.7286C121.42 11.6069 121.387 11.5073 121.347 11.5073C121.308 11.5073 121.275 11.3746 121.275 11.2124C121.275 11.0501 121.242 10.9174 121.202 10.9174C121.162 10.9174 121.13 10.7207 121.13 10.4749C121.13 10.2291 121.097 10.0325 121.057 10.0325C121.013 10.0325 120.984 9.68829 120.984 9.14753C120.984 8.60676 121.013 8.2626 121.057 8.2626C121.098 8.2626 121.13 8.04137 121.13 7.7464C121.13 7.45142 121.161 7.23019 121.202 7.23019C121.242 7.23019 121.275 7.09745 121.275 6.93522C121.275 6.77298 121.308 6.64024 121.347 6.64024C121.387 6.64024 121.42 6.54069 121.42 6.41901C121.42 6.29733 121.453 6.19778 121.493 6.19778C121.533 6.19778 121.565 6.13141 121.565 6.05029C121.565 5.96918 121.598 5.90281 121.638 5.90281C121.678 5.90281 121.711 5.80325 121.711 5.68157C121.711 5.5599 121.743 5.46034 121.783 5.46034C121.823 5.46034 121.856 5.40128 121.856 5.32915C121.856 5.25696 121.921 5.1501 122.001 5.09163C122.081 5.03315 122.146 4.92629 122.146 4.8541C122.146 4.78198 122.179 4.72291 122.219 4.72291C122.259 4.72291 122.292 4.66384 122.292 4.59172C122.292 4.51952 122.357 4.41267 122.437 4.35419C122.517 4.29571 122.582 4.20331 122.582 4.14874C122.582 4.09424 122.745 3.88806 122.945 3.6905C123.145 3.49294 123.308 3.29361 123.308 3.24752C123.308 3.13934 123.492 2.95306 123.598 2.95306C123.644 2.95306 123.84 2.78714 124.034 2.58434C124.229 2.38155 124.432 2.21562 124.486 2.21562C124.539 2.21562 124.63 2.14925 124.688 2.06814C124.746 1.98702 124.851 1.92065 124.922 1.92065C124.993 1.92065 125.051 1.88746 125.051 1.8469C125.051 1.80635 125.109 1.77316 125.18 1.77316C125.251 1.77316 125.357 1.70679 125.414 1.62567C125.472 1.54456 125.577 1.47819 125.648 1.47819C125.719 1.47819 125.777 1.445 125.777 1.40444C125.777 1.36388 125.875 1.3307 125.995 1.3307C126.115 1.3307 126.213 1.29751 126.213 1.25695C126.213 1.2164 126.278 1.18321 126.358 1.18321C126.438 1.18321 126.504 1.15003 126.504 1.10947C126.504 1.06891 126.634 1.03572 126.794 1.03572C126.954 1.03572 127.085 1.00254 127.085 0.96198C127.085 0.921421 127.183 0.888236 127.302 0.888236C127.422 0.888236 127.52 0.855052 127.52 0.814493C127.52 0.772385 127.738 0.740749 128.029 0.740749Z" fill="#F44333"/>
<path d="M128.372 5.46048C128.301 5.46048 128.243 5.42729 128.243 5.38673C128.243 5.34138 127.88 5.31299 127.299 5.31299C126.718 5.31299 126.355 5.34138 126.355 5.38673C126.355 5.42729 126.297 5.46048 126.226 5.46048C126.154 5.46048 126.049 5.52684 125.992 5.60796C125.934 5.68908 125.843 5.75545 125.789 5.75545C125.662 5.75545 125.483 5.93738 125.483 6.06576C125.483 6.12056 125.418 6.21318 125.338 6.27166C125.258 6.33013 125.193 6.43699 125.193 6.50918C125.193 6.58131 125.16 6.64037 125.12 6.64037C125.08 6.64037 125.048 6.73993 125.048 6.86161C125.048 6.98328 125.015 7.08284 124.975 7.08284C124.93 7.08284 124.902 7.45156 124.902 8.0415C124.902 8.63145 124.93 9.00017 124.975 9.00017C125.015 9.00017 125.048 9.09973 125.048 9.2214C125.048 9.34308 125.08 9.44264 125.12 9.44264C125.16 9.44264 125.193 9.53489 125.193 9.64757C125.193 9.76792 125.253 9.89638 125.338 9.95884C125.418 10.0173 125.483 10.1242 125.483 10.1964C125.483 10.2685 125.516 10.3276 125.556 10.3276C125.596 10.3276 125.629 10.3806 125.629 10.4455C125.629 10.5103 125.727 10.6564 125.846 10.77C125.966 10.8837 126.064 11.0135 126.064 11.0585C126.064 11.1644 127.708 12.8348 127.812 12.8348C127.856 12.8348 128.017 12.9676 128.17 13.1298C128.324 13.2921 128.494 13.4248 128.548 13.4248C128.602 13.4248 128.694 13.4912 128.751 13.5723C128.809 13.6534 128.902 13.7198 128.958 13.7198C129.015 13.7198 129.126 13.7944 129.206 13.8857C129.305 13.9982 129.362 14.022 129.384 13.9594C129.402 13.9088 129.472 13.8673 129.54 13.8673C129.608 13.8673 129.71 13.8009 129.768 13.7198C129.826 13.6387 129.917 13.5723 129.971 13.5723C130.025 13.5723 130.195 13.4395 130.349 13.2773C130.502 13.1151 130.663 12.9823 130.707 12.9823C130.819 12.9823 132.891 10.8648 132.891 10.75C132.891 10.6978 132.956 10.6073 133.036 10.5488C133.116 10.4903 133.181 10.3835 133.181 10.3113C133.181 10.2391 133.214 10.1801 133.254 10.1801C133.294 10.1801 133.326 10.1137 133.326 10.0326C133.326 9.95147 133.359 9.8851 133.399 9.8851C133.439 9.8851 133.472 9.81873 133.472 9.73761C133.472 9.65649 133.504 9.59012 133.544 9.59012C133.584 9.59012 133.617 9.52375 133.617 9.44264C133.617 9.36152 133.65 9.29515 133.689 9.29515C133.729 9.29515 133.762 9.16241 133.762 9.00017C133.762 8.83794 133.795 8.7052 133.835 8.7052C133.878 8.7052 133.907 8.43478 133.907 8.0415C133.907 7.64823 133.878 7.37781 133.835 7.37781C133.795 7.37781 133.762 7.27826 133.762 7.15658C133.762 7.0349 133.729 6.93535 133.689 6.93535C133.65 6.93535 133.617 6.8431 133.617 6.73042C133.617 6.61007 133.557 6.4816 133.472 6.41914C133.392 6.36066 133.326 6.2693 133.326 6.21605C133.326 6.08162 132.847 5.60796 132.711 5.60796C132.65 5.60796 132.6 5.57478 132.6 5.53422C132.6 5.49366 132.535 5.46048 132.455 5.46048C132.375 5.46048 132.31 5.42729 132.31 5.38673C132.31 5.34167 131.971 5.31299 131.438 5.31299C130.906 5.31299 130.567 5.34167 130.567 5.38673C130.567 5.42729 130.501 5.46048 130.422 5.46048C130.342 5.46048 130.276 5.49366 130.276 5.53422C130.276 5.57478 130.225 5.60796 130.163 5.60796C130.1 5.60796 129.89 5.77389 129.695 5.97668C129.314 6.37475 129.26 6.40624 129.26 6.23147C129.26 6.09209 128.939 5.75545 128.807 5.75545C128.754 5.75545 128.664 5.68908 128.606 5.60796C128.548 5.52684 128.443 5.46048 128.372 5.46048Z" fill="white"/>
<path fill-rule="evenodd" clip-rule="evenodd" d="M14.81 0.372084C14.81 0.413085 14.6164 0.445827 14.3743 0.445827C14.1323 0.445827 13.9386 0.478569 13.9386 0.519571C13.9386 0.56013 13.8405 0.593315 13.7207 0.593315C13.6009 0.593315 13.5029 0.626499 13.5029 0.667058C13.5029 0.707617 13.4375 0.740802 13.3576 0.740802C13.2777 0.740802 13.2124 0.773987 13.2124 0.814546C13.2124 0.855105 13.1626 0.888289 13.1018 0.888289C12.9673 0.888289 12.1957 1.65795 12.1957 1.79224C12.1957 1.84497 12.1303 1.93597 12.0504 1.99444C11.9706 2.05292 11.9052 2.15978 11.9052 2.23197C11.9052 2.30409 11.8725 2.36316 11.8326 2.36316C11.7926 2.36316 11.76 2.46272 11.76 2.58439C11.76 2.70607 11.7273 2.80562 11.6873 2.80562C11.6474 2.80562 11.6147 2.93836 11.6147 3.1006C11.6147 3.26284 11.582 3.39557 11.5421 3.39557C11.4943 3.39557 11.4695 5.28835 11.4695 8.92635C11.4695 12.5643 11.4943 14.4571 11.5421 14.4571C11.582 14.4571 11.6147 14.5567 11.6147 14.6784C11.6147 14.8 11.6474 14.8996 11.6873 14.8996C11.7273 14.8996 11.76 14.9991 11.76 15.1208C11.76 15.2425 11.7926 15.342 11.8326 15.342C11.8725 15.342 11.9052 15.4416 11.9052 15.5633C11.9052 15.685 11.9379 15.7845 11.9778 15.7845C12.0178 15.7845 12.0504 15.8348 12.0504 15.8963C12.0504 16.042 13.104 17.1119 13.2475 17.1119C13.3081 17.1119 13.3576 17.1451 13.3576 17.1856C13.3576 17.2262 13.423 17.2594 13.5029 17.2594C13.5827 17.2594 13.6481 17.2926 13.6481 17.3331C13.6481 17.3737 13.7788 17.4069 13.9386 17.4069C14.0983 17.4069 14.2291 17.4401 14.2291 17.4806C14.2291 17.5265 14.6406 17.5544 15.3184 17.5544C15.9961 17.5544 16.4077 17.5265 16.4077 17.4806C16.4077 17.4401 16.5384 17.4069 16.6982 17.4069C16.8579 17.4069 16.9887 17.3737 16.9887 17.3331C16.9887 17.2926 17.054 17.2594 17.1339 17.2594C17.2138 17.2594 17.2791 17.2262 17.2791 17.1856C17.2791 17.1451 17.3445 17.1119 17.4244 17.1119C17.5043 17.1119 17.5696 17.0787 17.5696 17.0382C17.5696 16.9976 17.6195 16.9644 17.6804 16.9644C17.8246 16.9644 18.4411 16.3384 18.4411 16.192C18.4411 16.1301 18.4738 16.0795 18.5137 16.0795C18.5536 16.0795 18.5863 16.0204 18.5863 15.9483C18.5863 15.8761 18.6517 15.7692 18.7316 15.7108C18.8168 15.6483 18.8768 15.5198 18.8768 15.3995C18.8768 15.2868 18.9095 15.1946 18.9494 15.1946C18.9894 15.1946 19.022 15.0618 19.022 14.8996C19.022 14.7374 19.0547 14.6046 19.0947 14.6046C19.1361 14.6046 19.1673 14.3834 19.1673 14.0884C19.1673 13.7934 19.1984 13.5722 19.2399 13.5722C19.2868 13.5722 19.3125 12.7118 19.3125 11.1387C19.3125 9.56549 19.2868 8.70512 19.2399 8.70512C19.1995 8.70512 19.1673 8.50844 19.1673 8.26266V7.82019H17.4555C16.0688 7.82019 15.724 7.84018 15.64 7.92557C15.559 8.0078 15.5362 8.28235 15.5362 9.17922C15.5362 9.89556 15.5635 10.3275 15.6089 10.3275C15.6488 10.3275 15.6815 10.3938 15.6815 10.475C15.6815 10.6048 15.7299 10.6225 16.0861 10.6225C16.7054 10.6225 16.6982 10.6031 16.6982 12.2765C16.6982 13.1895 16.6715 13.7197 16.6256 13.7197C16.5856 13.7197 16.5529 13.8192 16.5529 13.9409C16.5529 14.0626 16.5203 14.1622 16.4803 14.1622C16.4404 14.1622 16.4077 14.2134 16.4077 14.2761C16.4077 14.3388 16.3274 14.4715 16.2294 14.5711C16.068 14.7351 15.9927 14.7521 15.4306 14.7521C15.0653 14.7521 14.81 14.7218 14.81 14.6784C14.81 14.6378 14.7587 14.6046 14.6959 14.6046C14.5492 14.6046 14.3743 14.427 14.3743 14.278C14.3743 14.2143 14.3416 14.1622 14.3017 14.1622C14.254 14.1622 14.2291 12.3923 14.2291 9.00009C14.2291 5.60788 14.254 3.83804 14.3017 3.83804C14.3416 3.83804 14.3743 3.78678 14.3743 3.7241C14.3743 3.57654 14.6978 3.24809 14.8431 3.24809C14.9048 3.24809 14.9553 3.2149 14.9553 3.17434C14.9553 3.13334 15.149 3.1006 15.391 3.1006C15.633 3.1006 15.8267 3.13334 15.8267 3.17434C15.8267 3.2149 15.8768 3.24809 15.9381 3.24809C16.1211 3.24809 16.5529 3.73848 16.5529 3.94622C16.5529 4.04894 16.5856 4.13301 16.6256 4.13301C16.6705 4.13301 16.6982 4.52629 16.6982 5.16542C16.6982 5.80456 16.7258 6.19783 16.7708 6.19783C16.8107 6.19783 16.8434 6.2642 16.8434 6.34532C16.8434 6.48602 16.8919 6.49281 17.9016 6.49281C18.9978 6.49281 19.1673 6.44908 19.1673 6.1662C19.1673 6.10248 19.2 6.05035 19.2399 6.05035C19.2835 6.05035 19.3125 5.75537 19.3125 5.31291C19.3125 4.87045 19.2835 4.57547 19.2399 4.57547C19.1968 4.57547 19.1673 4.30505 19.1673 3.91178C19.1673 3.5185 19.1377 3.24809 19.0947 3.24809C19.0547 3.24809 19.022 3.11535 19.022 2.95311C19.022 2.79088 18.9894 2.65814 18.9494 2.65814C18.9095 2.65814 18.8768 2.59177 18.8768 2.51065C18.8768 2.42953 18.8441 2.36316 18.8042 2.36316C18.7642 2.36316 18.7316 2.29679 18.7316 2.21568C18.7316 2.13456 18.6989 2.06819 18.6589 2.06819C18.619 2.06819 18.5863 2.01782 18.5863 1.95617C18.5863 1.81038 17.6783 0.888289 17.5347 0.888289C17.474 0.888289 17.4244 0.855105 17.4244 0.814546C17.4244 0.773987 17.359 0.740802 17.2791 0.740802C17.1993 0.740802 17.1339 0.707617 17.1339 0.667058C17.1339 0.626499 17.0359 0.593315 16.916 0.593315C16.7962 0.593315 16.6982 0.56013 16.6982 0.519571C16.6982 0.479012 16.5348 0.445827 16.3351 0.445827C16.1354 0.445827 15.972 0.412643 15.972 0.372084C15.972 0.329091 15.7299 0.29834 15.391 0.29834C15.0521 0.29834 14.81 0.329091 14.81 0.372084ZM0.285867 0.740802C0.285867 0.82192 0.253187 0.888289 0.213246 0.888289C0.165243 0.888289 0.140625 3.64136 0.140625 9.00009C0.140625 17.0627 0.141496 17.1119 0.285867 17.1119C0.38267 17.1119 0.431108 17.1611 0.431108 17.2594C0.431108 17.4003 0.479546 17.4069 1.52042 17.4069C2.5613 17.4069 2.60973 17.4003 2.60973 17.2594C2.60973 17.1611 2.65817 17.1119 2.75497 17.1119C2.89804 17.1119 2.90022 17.0627 2.90022 13.8672V10.6225H4.42525C5.90185 10.6225 5.95029 10.6178 5.95029 10.475C5.95029 10.3767 5.99873 10.3275 6.09553 10.3275C6.23388 10.3275 6.24077 10.2783 6.24077 9.29507C6.24077 8.65593 6.21311 8.26266 6.16815 8.26266C6.12821 8.26266 6.09553 8.1631 6.09553 8.04143V7.82019H4.49787H2.90022V5.63952C2.90022 3.84784 2.91874 3.43997 3.00399 3.35347C3.08838 3.2677 3.44771 3.24809 4.93171 3.24809H6.75573L6.93394 3.06705C7.10794 2.89043 7.11222 2.8585 7.11222 1.73966V0.593315H3.69905C0.334305 0.593315 0.285867 0.595379 0.285867 0.740802ZM7.83843 0.740802C7.83843 0.82192 7.80575 0.888289 7.76581 0.888289C7.71781 0.888289 7.69319 3.64136 7.69319 9.00009C7.69319 17.0627 7.69406 17.1119 7.83843 17.1119C7.93524 17.1119 7.98368 17.1611 7.98368 17.2594C7.98368 17.4003 8.03211 17.4069 9.07299 17.4069C10.1139 17.4069 10.1623 17.4003 10.1623 17.2594C10.1623 17.1611 10.2107 17.1119 10.3075 17.1119C10.4519 17.1119 10.4528 17.0627 10.4528 8.85261V0.593315H9.14561C7.88687 0.593315 7.83843 0.598772 7.83843 0.740802ZM20.184 8.85261C20.184 17.0627 20.1848 17.1119 20.3292 17.1119C20.426 17.1119 20.4745 17.1611 20.4745 17.2594C20.4745 17.4003 20.5229 17.4069 21.5638 17.4069C22.6046 17.4069 22.6531 17.4003 22.6531 17.2594C22.6531 17.1611 22.7015 17.1119 22.7983 17.1119C22.9415 17.1119 22.9436 17.0627 22.9436 13.7197V10.3275H24.2196C25.2287 10.3275 25.5174 10.3495 25.5994 10.4329C25.6862 10.5209 25.7032 11.0703 25.7032 13.7915V17.0449L25.8814 17.2258C26.0544 17.4015 26.0913 17.4069 27.116 17.4069C28.1238 17.4069 28.1723 17.4001 28.1723 17.2594C28.1723 17.1611 28.2207 17.1119 28.3175 17.1119C28.4619 17.1119 28.4627 17.0627 28.4627 9.00009C28.4627 3.64136 28.4381 0.888289 28.3901 0.888289C28.3502 0.888289 28.3175 0.82192 28.3175 0.740802C28.3175 0.598772 28.2691 0.593315 27.0103 0.593315H25.7032V4.05927V7.52522H24.3234H22.9436V4.16465C22.9436 1.35044 22.9267 0.786892 22.8398 0.698694C22.7578 0.615364 22.4691 0.593315 21.46 0.593315H20.184V8.85261ZM29.0437 0.740802C29.0437 0.82192 29.011 0.888289 28.9711 0.888289C28.9263 0.888289 28.8985 1.27043 28.8985 1.88715C28.8985 2.84943 28.905 2.89272 29.0768 3.06705C29.2502 3.24329 29.284 3.24809 30.3528 3.24809C31.2074 3.24809 31.4735 3.27139 31.5543 3.35347C31.6427 3.44321 31.6581 4.46729 31.6581 10.2854C31.6581 14.7872 31.6828 17.1119 31.7307 17.1119C31.7706 17.1119 31.8033 17.1783 31.8033 17.2594C31.8033 17.4008 31.8517 17.4069 32.9652 17.4069C34.0787 17.4069 34.1272 17.4008 34.1272 17.2594C34.1272 17.1783 34.1599 17.1119 34.1998 17.1119C34.2477 17.1119 34.2724 14.7767 34.2724 10.2537C34.2724 3.44476 34.2734 3.39557 34.4177 3.39557C34.4975 3.39557 34.5629 3.36239 34.5629 3.32183C34.5629 3.27604 34.9634 3.24809 35.6192 3.24809C36.6438 3.24809 36.6808 3.2427 36.8537 3.06705C37.0255 2.89272 37.032 2.84943 37.032 1.88715C37.032 1.27043 37.0042 0.888289 36.9594 0.888289C36.9194 0.888289 36.8868 0.82192 36.8868 0.740802C36.8868 0.595158 36.8383 0.593315 32.9652 0.593315C29.0922 0.593315 29.0437 0.595158 29.0437 0.740802ZM39.2106 0.814546C39.2106 0.936223 39.178 1.03578 39.138 1.03578C39.09 1.03578 39.0654 3.81348 39.0654 9.22132C39.0654 17.0192 39.0715 17.4069 39.1946 17.4069C39.2657 17.4069 39.3709 17.4732 39.4285 17.5544C39.5666 17.749 39.6876 17.7404 39.9038 17.5208L40.0821 17.3398V13.4965C40.0821 10.264 40.0986 9.6365 40.1859 9.54793C40.2626 9.46991 40.4888 9.44256 41.0573 9.44256C41.5207 9.44256 41.825 9.41335 41.825 9.36881C41.825 9.32825 41.8763 9.29507 41.9391 9.29507C42.0019 9.29507 42.0999 9.24765 42.1569 9.18969C42.276 9.0689 42.2959 8.85261 42.1881 8.85261C42.1481 8.85261 42.1155 8.75305 42.1155 8.63137V8.41014H41.0988H40.0821V5.12331C40.0821 2.37297 40.099 1.81923 40.1859 1.73111C40.2633 1.65242 40.4941 1.62573 41.0969 1.62573C41.8572 1.62573 41.9146 1.61518 42.0824 1.44469C42.2195 1.3056 42.2607 1.18607 42.2607 0.928479V0.593315H40.7357H39.2106V0.814546ZM44.2941 0.667058C44.2941 0.707617 44.1961 0.740802 44.0762 0.740802C43.9564 0.740802 43.8584 0.773987 43.8584 0.814546C43.8584 0.855105 43.8079 0.888289 43.7462 0.888289C43.6009 0.888289 43.2774 1.21674 43.2774 1.3643C43.2774 1.42699 43.2447 1.47824 43.2048 1.47824C43.1648 1.47824 43.1322 1.57779 43.1322 1.69947C43.1322 1.82115 43.0995 1.9207 43.0595 1.9207C43.0116 1.9207 42.9869 4.35424 42.9869 9.07384C42.9869 13.7934 43.0116 16.227 43.0595 16.227C43.0995 16.227 43.1322 16.3265 43.1322 16.4482C43.1322 16.5699 43.1648 16.6694 43.2048 16.6694C43.2447 16.6694 43.2774 16.7201 43.2774 16.782C43.2774 16.9283 43.8939 17.5544 44.038 17.5544C44.099 17.5544 44.1488 17.5875 44.1488 17.6281C44.1488 17.6732 44.4878 17.7018 45.0203 17.7018C45.5528 17.7018 45.8918 17.6732 45.8918 17.6281C45.8918 17.5875 45.9571 17.5544 46.037 17.5544C46.1169 17.5544 46.1822 17.5212 46.1822 17.4806C46.1822 17.4401 46.2327 17.4069 46.2944 17.4069C46.4397 17.4069 46.7632 17.0784 46.7632 16.9309C46.7632 16.8682 46.7959 16.8169 46.8358 16.8169C46.8758 16.8169 46.9084 16.7506 46.9084 16.6694C46.9084 16.5883 46.9411 16.5219 46.9811 16.5219C47.029 16.5219 47.0537 14.0147 47.0537 9.14758C47.0537 4.2805 47.029 1.77321 46.9811 1.77321C46.9411 1.77321 46.9084 1.68937 46.9084 1.58694C46.9084 1.33289 46.3254 0.740802 46.0752 0.740802C45.9743 0.740802 45.8918 0.707617 45.8918 0.667058C45.8918 0.62237 45.5771 0.593315 45.0929 0.593315C44.6088 0.593315 44.2941 0.62237 44.2941 0.667058ZM48.1611 0.703635C48.0897 0.78608 48.0704 2.56647 48.0704 9.07406V17.3398L48.2487 17.5208C48.4748 17.7505 48.6826 17.7505 48.9088 17.5208L49.0871 17.3398V13.3912V9.44256H49.7407C50.1279 9.44256 50.3942 9.47257 50.3942 9.5163C50.3942 9.55686 50.4447 9.59004 50.5064 9.59004C50.6829 9.59004 50.9752 9.9328 50.9752 10.1398C50.9752 10.243 51.0079 10.3275 51.0478 10.3275C51.0952 10.3275 51.1204 11.5454 51.1204 13.8336V17.3398L51.2987 17.5208C51.5215 17.747 51.5909 17.747 51.8136 17.5208L51.9919 17.3398V13.4649C51.9919 10.9309 51.9668 9.59004 51.9193 9.59004C51.8793 9.59004 51.8467 9.53702 51.8467 9.47213C51.8467 9.40731 51.7486 9.26122 51.6288 9.14758C51.3769 8.90865 51.3435 8.70512 51.5562 8.70512C51.653 8.70512 51.7014 8.65593 51.7014 8.55763C51.7014 8.47651 51.7341 8.41014 51.774 8.41014C51.814 8.41014 51.8467 8.34377 51.8467 8.26266C51.8467 8.18154 51.8793 8.11517 51.9193 8.11517C51.9666 8.11517 51.9919 6.97148 51.9919 4.83166V1.54807L51.667 1.21822C51.4883 1.03674 51.2923 0.888289 51.2313 0.888289C51.1703 0.888289 51.1204 0.855105 51.1204 0.814546C51.1204 0.773987 50.9897 0.740802 50.83 0.740802C50.6702 0.740802 50.5395 0.707617 50.5395 0.667058C50.5395 0.620895 50.1117 0.594347 49.3957 0.596117C48.5014 0.598329 48.2321 0.621779 48.1611 0.703635ZM54.461 0.740802C54.461 0.82192 54.4283 0.888289 54.3884 0.888289C54.2781 0.888289 54.3016 1.25317 54.4195 1.37286C54.4765 1.43082 54.5746 1.47824 54.6374 1.47824C54.7001 1.47824 54.7515 1.51142 54.7515 1.55198C54.7515 1.59497 54.9935 1.62573 55.3325 1.62573H55.9134V9.5163C55.9134 17.0314 55.9196 17.4069 56.0426 17.4069C56.1137 17.4069 56.2189 17.4732 56.2765 17.5544C56.4147 17.749 56.5356 17.7404 56.7518 17.5208L56.9301 17.3398V9.58813C56.9301 2.9683 56.9453 1.82107 57.0339 1.73111C57.1043 1.6595 57.3033 1.62573 57.6544 1.62573C58.1064 1.62573 58.1936 1.60301 58.3495 1.44469C58.4865 1.3056 58.5278 1.18607 58.5278 0.928479V0.593315H56.4944C54.5094 0.593315 54.461 0.596854 54.461 0.740802ZM59.1087 1.03578C59.1087 1.28156 59.0765 1.47824 59.0361 1.47824C58.9882 1.47824 58.9635 4.14614 58.9635 9.33437V17.1906L59.2153 17.4462C59.5148 17.7504 59.5691 17.7573 59.8019 17.5208L59.9802 17.3398V13.4965C59.9802 10.264 59.9967 9.6365 60.084 9.54793C60.1628 9.46778 60.4063 9.44256 61.1007 9.44256C61.9651 9.44256 62.0136 9.45037 62.0136 9.59004C62.0136 9.67116 62.0463 9.73753 62.0862 9.73753C62.1337 9.73753 62.1588 11.0537 62.1588 13.5386V17.3398L62.3371 17.5208C62.5699 17.7573 62.6242 17.7504 62.9237 17.4462L63.1755 17.1906V9.26063C63.1755 4.02321 63.1508 1.33075 63.1029 1.33075C63.0629 1.33075 63.0303 1.21225 63.0303 1.06741C63.0303 0.742646 62.893 0.593315 62.5945 0.593315C62.1416 0.593315 62.1588 0.434618 62.1588 4.60711V8.41014H61.0695H59.9802V4.60711C59.9802 1.40944 59.9637 0.78726 59.8764 0.698694C59.8168 0.638077 59.6316 0.593315 59.4407 0.593315H59.1087V1.03578ZM64.283 0.703635C64.2115 0.78608 64.1922 2.56647 64.1922 9.07406V17.3398L64.3705 17.5208C64.5466 17.6997 64.5645 17.7018 65.8625 17.7018C67.1605 17.7018 67.1784 17.6997 67.3545 17.5208C67.562 17.3102 67.5925 16.9408 67.4172 16.7628C67.3188 16.6629 67.2911 16.661 67.2301 16.7497C67.1752 16.8295 67.15 16.8323 67.1218 16.7616C67.095 16.6946 66.8293 16.6694 66.1469 16.6694H65.2089V13.056V9.44256H66.0473C66.8407 9.44256 66.8954 9.43282 67.064 9.26151C67.201 9.12243 67.2423 9.0029 67.2423 8.74531V8.41014H66.2256H65.2089V5.01793V1.62573H66.1199C66.9904 1.62573 67.0389 1.61769 67.2092 1.44469C67.3463 1.3056 67.3875 1.18607 67.3875 0.928479V0.593315L65.8806 0.596117C64.6727 0.598403 64.3557 0.619715 64.283 0.703635ZM69.5661 0.740802C69.5661 0.82192 69.5335 0.888289 69.4935 0.888289C69.4455 0.888289 69.4209 3.61135 69.4209 8.91005C69.4209 16.8472 69.4224 16.933 69.5661 17.0382C69.646 17.0966 69.7114 17.2035 69.7114 17.2757C69.7114 17.3954 69.8035 17.4069 70.7676 17.4069C71.7923 17.4069 71.8293 17.4015 72.0022 17.2258L72.1805 17.0449V13.939C72.1805 11.3456 72.1976 10.8157 72.2843 10.7278C72.3671 10.6437 72.6743 10.6225 73.8093 10.6225C75.1821 10.6225 75.2306 10.6174 75.2306 10.475C75.2306 10.3767 75.279 10.3275 75.3758 10.3275C75.5148 10.3275 75.521 10.2783 75.521 9.17922C75.521 8.28235 75.4983 8.0078 75.4173 7.92557C75.3338 7.84077 75.0078 7.82019 73.747 7.82019H72.1805V5.63952C72.1805 3.84784 72.199 3.43997 72.2843 3.35347C72.3687 3.2677 72.728 3.24809 74.212 3.24809H76.036L76.2142 3.06705C76.3882 2.89043 76.3925 2.8585 76.3925 1.73966V0.593315H72.9793C69.6146 0.593315 69.5661 0.595379 69.5661 0.740802ZM76.8282 7.52522C76.8282 12.0973 76.8529 14.4571 76.9008 14.4571C76.9408 14.4571 76.9735 14.5899 76.9735 14.7521C76.9735 14.9143 77.0061 15.0471 77.0461 15.0471C77.086 15.0471 77.1187 15.1466 77.1187 15.2683C77.1187 15.39 77.1514 15.4895 77.1913 15.4895C77.2313 15.4895 77.2639 15.5559 77.2639 15.637C77.2639 15.7181 77.2966 15.7845 77.3366 15.7845C77.3765 15.7845 77.4092 15.8436 77.4092 15.9157C77.4092 15.9879 77.4745 16.0948 77.5544 16.1532C77.6343 16.2117 77.6997 16.3035 77.6997 16.3572C77.6997 16.4838 78.0277 16.8169 78.1524 16.8169C78.2053 16.8169 78.2957 16.8833 78.3533 16.9644C78.4109 17.0455 78.5161 17.1119 78.5872 17.1119C78.6582 17.1119 78.7164 17.1451 78.7164 17.1856C78.7164 17.2262 78.7817 17.2594 78.8616 17.2594C78.9415 17.2594 79.0069 17.2926 79.0069 17.3331C79.0069 17.3737 79.1049 17.4069 79.2247 17.4069C79.3445 17.4069 79.4426 17.4401 79.4426 17.4806C79.4426 17.5269 79.9025 17.5544 80.6771 17.5544C81.4518 17.5544 81.9117 17.5269 81.9117 17.4806C81.9117 17.4401 82.0097 17.4069 82.1295 17.4069C82.2494 17.4069 82.3474 17.3737 82.3474 17.3331C82.3474 17.2926 82.4383 17.2594 82.5492 17.2594C82.6677 17.2594 82.7942 17.1985 82.8558 17.1119C82.9133 17.0308 83.0031 16.9644 83.0552 16.9644C83.1875 16.9644 83.7998 16.3293 83.7998 16.192C83.7998 16.1301 83.8325 16.0795 83.8724 16.0795C83.9124 16.0795 83.9451 16.0204 83.9451 15.9483C83.9451 15.8761 84.0104 15.7692 84.0903 15.7108C84.1756 15.6483 84.2355 15.5198 84.2355 15.3995C84.2355 15.2868 84.2682 15.1946 84.3082 15.1946C84.3481 15.1946 84.3808 15.095 84.3808 14.9733C84.3808 14.8517 84.4135 14.7521 84.4534 14.7521C84.5013 14.7521 84.526 12.3431 84.526 7.67271V0.593315H83.2915H82.0569V7.00901C82.0569 11.237 82.0322 13.4247 81.9843 13.4247C81.9444 13.4247 81.9117 13.6083 81.9117 13.8327C81.9117 14.2001 81.8866 14.2663 81.6599 14.4964C81.4097 14.7506 81.4044 14.7521 80.7489 14.7521C80.1457 14.7521 80.0744 14.7367 79.9113 14.5711C79.8133 14.4715 79.7331 14.3388 79.7331 14.2761C79.7331 14.2134 79.7004 14.1622 79.6604 14.1622C79.6126 14.1622 79.5878 11.9498 79.5878 7.67271C79.5878 3.39557 79.563 1.18326 79.5152 1.18326C79.4753 1.18326 79.4426 1.05053 79.4426 0.888289V0.593315H78.1354H76.8282V7.52522ZM85.107 0.740802C85.107 0.82192 85.0743 0.888289 85.0344 0.888289C84.9896 0.888289 84.9618 1.27043 84.9618 1.88715C84.9618 2.84943 84.9683 2.89272 85.14 3.06705C85.3124 3.24211 85.352 3.24809 86.3416 3.24809C87.3312 3.24809 87.3707 3.25406 87.5431 3.42913L87.7213 3.61009V10.361C87.7213 14.8124 87.7461 17.1119 87.794 17.1119C87.8339 17.1119 87.8666 17.1783 87.8666 17.2594C87.8666 17.4008 87.915 17.4069 89.0285 17.4069C90.142 17.4069 90.1905 17.4008 90.1905 17.2594C90.1905 17.1783 90.2231 17.1119 90.2631 17.1119C90.3109 17.1119 90.3357 14.8124 90.3357 10.361V3.61009L90.514 3.42913C90.6863 3.25406 90.7259 3.24809 91.7155 3.24809C92.7051 3.24809 92.7447 3.24211 92.917 3.06705C93.0888 2.89272 93.0953 2.84943 93.0953 1.88715C93.0953 1.27043 93.0675 0.888289 93.0227 0.888289C92.9827 0.888289 92.9501 0.82192 92.9501 0.740802C92.9501 0.595158 92.9016 0.593315 89.0285 0.593315C85.1554 0.593315 85.107 0.595158 85.107 0.740802ZM93.531 0.814546C93.531 0.936223 93.4983 1.03578 93.4584 1.03578C93.4105 1.03578 93.3858 3.24809 93.3858 7.52522C93.3858 11.8024 93.4105 14.0147 93.4584 14.0147C93.4983 14.0147 93.531 14.1806 93.531 14.3834C93.531 14.5862 93.5637 14.7521 93.6036 14.7521C93.6436 14.7521 93.6763 14.8848 93.6763 15.0471C93.6763 15.2093 93.7089 15.342 93.7489 15.342C93.7888 15.342 93.8215 15.4084 93.8215 15.4895C93.8215 15.5707 93.8542 15.637 93.8941 15.637C93.9341 15.637 93.9667 15.7034 93.9667 15.7845C93.9667 15.8656 93.9994 15.932 94.0394 15.932C94.0793 15.932 94.112 15.9824 94.112 16.044C94.112 16.1898 95.02 17.1119 95.1636 17.1119C95.2243 17.1119 95.2739 17.1451 95.2739 17.1856C95.2739 17.2262 95.3393 17.2594 95.4192 17.2594C95.499 17.2594 95.5644 17.2926 95.5644 17.3331C95.5644 17.3737 95.6624 17.4069 95.7823 17.4069C95.9021 17.4069 96.0001 17.4401 96.0001 17.4806C96.0001 17.5271 96.4843 17.5544 97.3073 17.5544C98.1303 17.5544 98.6145 17.5271 98.6145 17.4806C98.6145 17.4401 98.7125 17.4069 98.8323 17.4069C98.9522 17.4069 99.0502 17.3737 99.0502 17.3331C99.0502 17.2926 99.1156 17.2594 99.1954 17.2594C99.2753 17.2594 99.3407 17.2262 99.3407 17.1856C99.3407 17.1451 99.3903 17.1119 99.451 17.1119C99.5946 17.1119 100.503 16.1898 100.503 16.044C100.503 15.9824 100.535 15.932 100.575 15.932C100.615 15.932 100.648 15.8656 100.648 15.7845C100.648 15.7034 100.681 15.637 100.72 15.637C100.76 15.637 100.793 15.5707 100.793 15.4895C100.793 15.4084 100.826 15.342 100.866 15.342C100.906 15.342 100.938 15.2425 100.938 15.1208C100.938 14.9991 100.971 14.8996 101.011 14.8996C101.051 14.8996 101.084 14.7668 101.084 14.6046C101.084 14.4424 101.116 14.3096 101.156 14.3096C101.204 14.3096 101.229 11.9744 101.229 7.45148V0.593315H100.025C99.0792 0.593315 98.7998 0.615806 98.7182 0.698694C98.6299 0.788367 98.6145 1.78302 98.6145 7.40937C98.6145 11.7637 98.5897 14.0147 98.5419 14.0147C98.5019 14.0147 98.4692 14.081 98.4692 14.1622C98.4692 14.2433 98.4366 14.3096 98.3966 14.3096C98.3567 14.3096 98.324 14.376 98.324 14.4571C98.324 14.5554 98.2756 14.6046 98.1787 14.6046C98.0989 14.6046 98.0335 14.6378 98.0335 14.6784C98.0335 14.7189 97.9709 14.7521 97.8943 14.7521C97.8177 14.7521 97.7361 14.7935 97.7127 14.8443C97.6789 14.918 97.6619 14.918 97.6281 14.8443C97.6011 14.7858 97.4287 14.7521 97.156 14.7521C96.918 14.7521 96.7263 14.7192 96.7263 14.6784C96.7263 14.6378 96.661 14.6046 96.5811 14.6046C96.4843 14.6046 96.4358 14.5554 96.4358 14.4571C96.4358 14.376 96.4032 14.3096 96.3632 14.3096C96.3233 14.3096 96.2906 14.2101 96.2906 14.0884C96.2906 13.9667 96.2579 13.8672 96.218 13.8672C96.1701 13.8672 96.1454 11.6057 96.1454 7.23025V0.593315H94.8382H93.531V0.814546ZM102.246 8.81905V17.0449L102.424 17.2258C102.597 17.4015 102.634 17.4069 103.658 17.4069C104.623 17.4069 104.715 17.3954 104.715 17.2757C104.715 17.2035 104.78 17.0966 104.86 17.0382C105.001 16.9348 105.005 16.8472 105.005 13.8509V10.7699H105.731C106.167 10.7699 106.458 10.7994 106.458 10.8437C106.458 10.8842 106.508 10.9174 106.569 10.9174C106.713 10.9174 107.184 11.395 107.184 11.5418C107.184 11.604 107.216 11.6549 107.256 11.6549C107.303 11.6549 107.329 12.4906 107.329 14.0147C107.329 15.5387 107.355 16.3745 107.402 16.3745C107.442 16.3745 107.474 16.5072 107.474 16.6694C107.474 16.8317 107.507 16.9644 107.547 16.9644C107.587 16.9644 107.619 17.0165 107.619 17.0803C107.619 17.3665 107.785 17.4069 108.958 17.4069C110.04 17.4069 110.089 17.4005 110.089 17.2594C110.089 17.1783 110.121 17.1119 110.161 17.1119C110.201 17.1119 110.234 16.946 110.234 16.7432C110.234 16.5404 110.201 16.3745 110.161 16.3745C110.114 16.3745 110.089 15.5141 110.089 13.9409C110.089 12.3677 110.063 11.5074 110.016 11.5074C109.976 11.5074 109.943 11.3415 109.943 11.1387C109.943 10.9359 109.911 10.7699 109.871 10.7699C109.831 10.7699 109.798 10.6704 109.798 10.5487C109.798 10.427 109.765 10.3275 109.725 10.3275C109.686 10.3275 109.653 10.2684 109.653 10.1963C109.653 10.1241 109.587 10.0172 109.508 9.95876C109.428 9.90028 109.362 9.80744 109.362 9.75235C109.362 9.69727 109.229 9.52235 109.066 9.36358L108.771 9.07487L109.139 8.71043C109.342 8.50999 109.508 8.29407 109.508 8.23058C109.508 8.16708 109.54 8.11517 109.58 8.11517C109.62 8.11517 109.653 8.0488 109.653 7.96768C109.653 7.88656 109.686 7.82019 109.725 7.82019C109.765 7.82019 109.798 7.72064 109.798 7.59896C109.798 7.47729 109.831 7.37773 109.871 7.37773C109.911 7.37773 109.943 7.21181 109.943 7.00901C109.943 6.80622 109.976 6.6403 110.016 6.6403C110.062 6.6403 110.089 6.0749 110.089 5.09168C110.089 4.10845 110.062 3.54306 110.016 3.54306C109.976 3.54306 109.943 3.37714 109.943 3.17434C109.943 2.97155 109.911 2.80562 109.871 2.80562C109.831 2.80562 109.798 2.70607 109.798 2.58439C109.798 2.46272 109.765 2.36316 109.725 2.36316C109.686 2.36316 109.653 2.31014 109.653 2.24525C109.653 2.18043 109.555 2.03434 109.435 1.9207C109.315 1.80706 109.217 1.67609 109.217 1.62963C109.217 1.50552 108.879 1.18326 108.748 1.18326C108.687 1.18326 108.636 1.15008 108.636 1.10952C108.636 1.06896 108.571 1.03578 108.491 1.03578C108.411 1.03578 108.346 1.00259 108.346 0.962033C108.346 0.921474 108.28 0.888289 108.2 0.888289C108.121 0.888289 108.055 0.855105 108.055 0.814546C108.055 0.773987 107.957 0.740802 107.837 0.740802C107.717 0.740802 107.619 0.707617 107.619 0.667058C107.619 0.619199 106.675 0.593315 104.932 0.593315H102.246V8.81905ZM111.25 0.888289C111.25 1.05053 111.218 1.18326 111.178 1.18326C111.13 1.18326 111.105 3.86259 111.105 9.07384C111.105 14.2851 111.13 16.9644 111.178 16.9644C111.218 16.9644 111.25 17.0165 111.25 17.0803C111.25 17.404 111.281 17.4069 114.736 17.4069C117.481 17.4069 118.032 17.3897 118.118 17.3015C118.269 17.1482 118.269 14.8633 118.118 14.71C118.033 14.6236 117.641 14.6046 115.94 14.6046H113.865V12.466V10.3275H115.39C116.358 10.3275 116.915 10.3006 116.915 10.2537C116.915 10.2132 116.966 10.18 117.029 10.18C117.314 10.18 117.351 10.0158 117.351 8.74723V7.52522H115.712C114.388 7.52522 114.052 7.50494 113.969 7.41984C113.884 7.33385 113.865 6.95496 113.865 5.35502C113.865 3.44476 113.868 3.39557 114.01 3.39557C114.09 3.39557 114.155 3.36239 114.155 3.32183C114.155 3.27449 114.847 3.24809 116.085 3.24809C117.661 3.24809 118.034 3.22877 118.118 3.14271C118.2 3.05989 118.222 2.77613 118.222 1.81532V0.593315H114.736H111.25V0.888289ZM45.3108 1.55198C45.3108 1.59254 45.3939 1.62573 45.4956 1.62573C45.5973 1.62573 45.7607 1.70721 45.8587 1.80677C46.0051 1.95536 46.037 2.06081 46.037 2.39672C46.037 2.62163 46.0697 2.80562 46.1096 2.80562C46.1575 2.80562 46.1822 4.99338 46.1822 9.22132C46.1822 13.4493 46.1575 15.637 46.1096 15.637C46.0697 15.637 46.037 15.7698 46.037 15.932C46.037 16.0942 46.0043 16.227 45.9644 16.227C45.9244 16.227 45.8918 16.2791 45.8918 16.3428C45.8918 16.4919 45.7169 16.6694 45.5701 16.6694C45.5074 16.6694 45.456 16.7026 45.456 16.7432C45.456 16.7837 45.2752 16.8169 45.0542 16.8169C44.6925 16.8169 44.6272 16.7914 44.4006 16.5613C44.2621 16.4207 44.1488 16.2548 44.1488 16.1925C44.1488 16.1304 44.1162 16.0795 44.0762 16.0795C44.0283 16.0795 44.0036 13.7197 44.0036 9.14758C44.0036 4.57547 44.0283 2.21568 44.0762 2.21568C44.1162 2.21568 44.1488 2.14931 44.1488 2.06819C44.1488 1.98707 44.1815 1.9207 44.2215 1.9207C44.2614 1.9207 44.2941 1.85433 44.2941 1.77321C44.2941 1.65847 44.3425 1.62573 44.512 1.62573C44.6318 1.62573 44.7298 1.59254 44.7298 1.55198C44.7298 1.51142 44.8605 1.47824 45.0203 1.47824C45.1801 1.47824 45.3108 1.51142 45.3108 1.55198ZM50.5395 1.69947C50.5395 1.74003 50.5908 1.77321 50.6536 1.77321C50.825 1.77321 50.9752 1.96015 50.9752 2.17357C50.9752 2.27784 51.0079 2.36316 51.0478 2.36316C51.0949 2.36316 51.1204 3.29727 51.1204 5.01793C51.1204 6.7386 51.0949 7.67271 51.0478 7.67271C51.0079 7.67271 50.9752 7.72359 50.9752 7.78576C50.9752 7.848 50.8619 8.01392 50.7234 8.15447L50.4717 8.41014H49.7794H49.0871V5.01793V1.62573H49.8133C50.249 1.62573 50.5395 1.65522 50.5395 1.69947ZM106.167 3.32183C106.167 3.36239 106.291 3.39557 106.441 3.39557C106.633 3.39557 106.748 3.44034 106.821 3.54306C106.878 3.62418 106.983 3.69055 107.055 3.69055C107.15 3.69055 107.184 3.74888 107.184 3.91178C107.184 4.03346 107.216 4.13301 107.256 4.13301C107.302 4.13301 107.329 4.67377 107.329 5.60788C107.329 6.542 107.302 7.08276 107.256 7.08276C107.216 7.08276 107.184 7.13364 107.184 7.19581C107.184 7.38164 106.701 7.82019 106.496 7.82019C106.395 7.82019 106.312 7.85338 106.312 7.89394C106.312 7.93737 106.056 7.96768 105.69 7.96768C105.205 7.96768 105.04 7.9404 104.946 7.84453C104.858 7.755 104.849 7.71312 104.915 7.69092C104.984 7.66754 105.005 7.14514 105.005 5.45428V3.24809H105.586C105.925 3.24809 106.167 3.27884 106.167 3.32183Z" fill="black"/>
</svg>
