<svg width="138" height="32" viewBox="0 0 138 32" fill="none" xmlns="http://www.w3.org/2000/svg">
<path d="M128.029 7.74075C128.319 7.74075 128.537 7.70911 128.537 7.66701C128.537 7.62232 128.852 7.59326 129.336 7.59326C129.82 7.59326 130.135 7.62232 130.135 7.66701C130.135 7.70911 130.352 7.74075 130.643 7.74075C130.933 7.74075 131.151 7.77239 131.151 7.81449C131.151 7.85505 131.249 7.88824 131.369 7.88824C131.489 7.88824 131.587 7.92142 131.587 7.96198C131.587 8.00254 131.718 8.03572 131.877 8.03572C132.037 8.03572 132.168 8.06891 132.168 8.10947C132.168 8.15003 132.233 8.18321 132.313 8.18321C132.393 8.18321 132.458 8.2164 132.458 8.25695C132.458 8.29751 132.557 8.3307 132.676 8.3307C132.796 8.3307 132.894 8.36388 132.894 8.40444C132.894 8.445 132.952 8.47819 133.023 8.47819C133.094 8.47819 133.2 8.54456 133.257 8.62567C133.315 8.70679 133.42 8.77316 133.491 8.77316C133.562 8.77316 133.62 8.80635 133.62 8.8469C133.62 8.88746 133.679 8.92065 133.75 8.92065C133.821 8.92065 133.926 8.98702 133.984 9.06814C134.041 9.14925 134.132 9.21562 134.186 9.21562C134.239 9.21562 134.443 9.38155 134.637 9.58434C134.832 9.78714 135.018 9.95306 135.052 9.95306C135.086 9.95306 135.161 10.0244 135.22 10.1118C135.279 10.1991 135.499 10.4472 135.708 10.6632C135.918 10.8793 136.09 11.0992 136.09 11.152C136.09 11.2047 136.155 11.2957 136.235 11.3542C136.315 11.4127 136.38 11.5195 136.38 11.5917C136.38 11.6638 136.413 11.7229 136.453 11.7229C136.493 11.7229 136.525 11.782 136.525 11.8541C136.525 11.9263 136.591 12.0331 136.67 12.0916C136.75 12.1501 136.816 12.257 136.816 12.3292C136.816 12.4013 136.848 12.4603 136.888 12.4603C136.928 12.4603 136.961 12.5599 136.961 12.6816C136.961 12.8033 136.994 12.9028 137.034 12.9028C137.074 12.9028 137.106 12.9692 137.106 13.0503C137.106 13.1314 137.139 13.1978 137.179 13.1978C137.219 13.1978 137.251 13.2973 137.251 13.419C137.251 13.5407 137.284 13.6402 137.324 13.6402C137.364 13.6402 137.397 13.773 137.397 13.9352C137.397 14.0975 137.429 14.2302 137.469 14.2302C137.511 14.2302 137.542 14.4514 137.542 14.7464C137.542 15.0414 137.573 15.2626 137.615 15.2626C137.659 15.2626 137.687 15.6068 137.687 16.1475C137.687 16.6883 137.659 17.0325 137.615 17.0325C137.574 17.0325 137.542 17.2291 137.542 17.4749C137.542 17.7207 137.51 17.9174 137.469 17.9174C137.429 17.9174 137.397 18.0501 137.397 18.2124C137.397 18.3746 137.364 18.5073 137.324 18.5073C137.284 18.5073 137.251 18.6069 137.251 18.7286C137.251 18.8502 137.219 18.9498 137.179 18.9498C137.139 18.9498 137.106 19.0493 137.106 19.171C137.106 19.2927 137.074 19.3922 137.034 19.3922C136.994 19.3922 136.961 19.4586 136.961 19.5397C136.961 19.6209 136.928 19.6872 136.888 19.6872C136.848 19.6872 136.816 19.7536 136.816 19.8347C136.816 19.9158 136.783 19.9822 136.743 19.9822C136.703 19.9822 136.67 20.0413 136.67 20.1134C136.67 20.1856 136.605 20.2924 136.525 20.3509C136.445 20.4094 136.38 20.5162 136.38 20.5884C136.38 20.6606 136.353 20.7196 136.32 20.7196C136.286 20.7196 136.213 20.8109 136.156 20.9224C136.1 21.0339 135.963 21.2132 135.853 21.3207C135.744 21.4282 135.654 21.5535 135.654 21.5989C135.654 21.7037 134.884 22.4895 134.781 22.4895C134.739 22.4895 134.593 22.6029 134.457 22.7415C134.32 22.88 134.142 23.015 134.06 23.0414C133.978 23.0678 133.911 23.1203 133.911 23.1581C133.911 23.1959 133.853 23.2269 133.782 23.2269C133.711 23.2269 133.605 23.2933 133.548 23.3744C133.49 23.4555 133.385 23.5219 133.314 23.5219C133.243 23.5219 133.185 23.5551 133.185 23.5956C133.185 23.6362 133.119 23.6694 133.039 23.6694C132.96 23.6694 132.894 23.7026 132.894 23.7431C132.894 23.7837 132.829 23.8169 132.749 23.8169C132.669 23.8169 132.604 23.8501 132.604 23.8906C132.604 23.9312 132.506 23.9644 132.386 23.9644C132.266 23.9644 132.168 23.9975 132.168 24.0381C132.168 24.0787 132.07 24.1118 131.95 24.1118C131.83 24.1118 131.732 24.145 131.732 24.1856C131.732 24.2261 131.602 24.2593 131.442 24.2593C131.282 24.2593 131.151 24.2925 131.151 24.3331C131.151 24.3741 130.958 24.4068 130.716 24.4068C130.474 24.4068 130.28 24.4396 130.28 24.4806C130.28 24.5259 129.917 24.5543 129.336 24.5543C128.755 24.5543 128.392 24.5259 128.392 24.4806C128.392 24.4396 128.198 24.4068 127.956 24.4068C127.714 24.4068 127.52 24.3741 127.52 24.3331C127.52 24.2925 127.39 24.2593 127.23 24.2593C127.07 24.2593 126.939 24.2261 126.939 24.1856C126.939 24.145 126.841 24.1118 126.721 24.1118C126.602 24.1118 126.504 24.0787 126.504 24.0381C126.504 23.9975 126.406 23.9644 126.286 23.9644C126.166 23.9644 126.068 23.9312 126.068 23.8906C126.068 23.8501 126.002 23.8169 125.923 23.8169C125.843 23.8169 125.777 23.7837 125.777 23.7431C125.777 23.7026 125.712 23.6694 125.632 23.6694C125.552 23.6694 125.487 23.6362 125.487 23.5956C125.487 23.5551 125.429 23.5219 125.358 23.5219C125.287 23.5219 125.181 23.4555 125.124 23.3744C125.066 23.2933 124.961 23.2269 124.89 23.2269C124.819 23.2269 124.761 23.1959 124.761 23.1581C124.761 23.1203 124.694 23.0678 124.612 23.0414C124.53 23.015 124.351 22.88 124.215 22.7415C124.078 22.6029 123.932 22.4895 123.89 22.4895C123.787 22.4895 123.018 21.7037 123.018 21.5989C123.018 21.5535 122.92 21.4232 122.8 21.3096C122.68 21.1959 122.582 21.0665 122.582 21.0219C122.582 20.9773 122.549 20.9409 122.509 20.9409C122.469 20.9409 122.437 20.8911 122.437 20.8303C122.437 20.7694 122.404 20.7196 122.364 20.7196C122.324 20.7196 122.292 20.6606 122.292 20.5884C122.292 20.5162 122.226 20.4094 122.146 20.3509C122.066 20.2924 122.001 20.1856 122.001 20.1134C122.001 20.0413 121.968 19.9822 121.928 19.9822C121.889 19.9822 121.856 19.9158 121.856 19.8347C121.856 19.7536 121.823 19.6872 121.783 19.6872C121.743 19.6872 121.711 19.6209 121.711 19.5397C121.711 19.4586 121.678 19.3922 121.638 19.3922C121.598 19.3922 121.565 19.2927 121.565 19.171C121.565 19.0493 121.533 18.9498 121.493 18.9498C121.453 18.9498 121.42 18.8502 121.42 18.7286C121.42 18.6069 121.387 18.5073 121.347 18.5073C121.308 18.5073 121.275 18.3746 121.275 18.2124C121.275 18.0501 121.242 17.9174 121.202 17.9174C121.162 17.9174 121.13 17.7207 121.13 17.4749C121.13 17.2291 121.097 17.0325 121.057 17.0325C121.013 17.0325 120.984 16.6883 120.984 16.1475C120.984 15.6068 121.013 15.2626 121.057 15.2626C121.098 15.2626 121.13 15.0414 121.13 14.7464C121.13 14.4514 121.161 14.2302 121.202 14.2302C121.242 14.2302 121.275 14.0975 121.275 13.9352C121.275 13.773 121.308 13.6402 121.347 13.6402C121.387 13.6402 121.42 13.5407 121.42 13.419C121.42 13.2973 121.453 13.1978 121.493 13.1978C121.533 13.1978 121.565 13.1314 121.565 13.0503C121.565 12.9692 121.598 12.9028 121.638 12.9028C121.678 12.9028 121.711 12.8033 121.711 12.6816C121.711 12.5599 121.743 12.4603 121.783 12.4603C121.823 12.4603 121.856 12.4013 121.856 12.3292C121.856 12.257 121.921 12.1501 122.001 12.0916C122.081 12.0331 122.146 11.9263 122.146 11.8541C122.146 11.782 122.179 11.7229 122.219 11.7229C122.259 11.7229 122.292 11.6638 122.292 11.5917C122.292 11.5195 122.357 11.4127 122.437 11.3542C122.517 11.2957 122.582 11.2033 122.582 11.1487C122.582 11.0942 122.745 10.8881 122.945 10.6905C123.145 10.4929 123.308 10.2936 123.308 10.2475C123.308 10.1393 123.492 9.95306 123.598 9.95306C123.644 9.95306 123.84 9.78714 124.034 9.58434C124.229 9.38155 124.432 9.21562 124.486 9.21562C124.539 9.21562 124.63 9.14925 124.688 9.06814C124.746 8.98702 124.851 8.92065 124.922 8.92065C124.993 8.92065 125.051 8.88746 125.051 8.8469C125.051 8.80635 125.109 8.77316 125.18 8.77316C125.251 8.77316 125.357 8.70679 125.414 8.62567C125.472 8.54456 125.577 8.47819 125.648 8.47819C125.719 8.47819 125.777 8.445 125.777 8.40444C125.777 8.36388 125.875 8.3307 125.995 8.3307C126.115 8.3307 126.213 8.29751 126.213 8.25695C126.213 8.2164 126.278 8.18321 126.358 8.18321C126.438 8.18321 126.504 8.15003 126.504 8.10947C126.504 8.06891 126.634 8.03572 126.794 8.03572C126.954 8.03572 127.085 8.00254 127.085 7.96198C127.085 7.92142 127.183 7.88824 127.302 7.88824C127.422 7.88824 127.52 7.85505 127.52 7.81449C127.52 7.77239 127.738 7.74075 128.029 7.74075Z" fill="#F44333"/>
<path d="M128.372 12.4605C128.301 12.4605 128.243 12.4273 128.243 12.3867C128.243 12.3414 127.88 12.313 127.299 12.313C126.718 12.313 126.355 12.3414 126.355 12.3867C126.355 12.4273 126.297 12.4605 126.226 12.4605C126.154 12.4605 126.049 12.5268 125.992 12.608C125.934 12.6891 125.843 12.7555 125.789 12.7555C125.662 12.7555 125.483 12.9374 125.483 13.0658C125.483 13.1206 125.418 13.2132 125.338 13.2717C125.258 13.3301 125.193 13.437 125.193 13.5092C125.193 13.5813 125.16 13.6404 125.12 13.6404C125.08 13.6404 125.048 13.7399 125.048 13.8616C125.048 13.9833 125.015 14.0828 124.975 14.0828C124.93 14.0828 124.902 14.4516 124.902 15.0415C124.902 15.6315 124.93 16.0002 124.975 16.0002C125.015 16.0002 125.048 16.0997 125.048 16.2214C125.048 16.3431 125.08 16.4426 125.12 16.4426C125.16 16.4426 125.193 16.5349 125.193 16.6476C125.193 16.7679 125.253 16.8964 125.338 16.9588C125.418 17.0173 125.483 17.1242 125.483 17.1964C125.483 17.2685 125.516 17.3276 125.556 17.3276C125.596 17.3276 125.629 17.3806 125.629 17.4455C125.629 17.5103 125.727 17.6564 125.846 17.77C125.966 17.8837 126.064 18.0135 126.064 18.0585C126.064 18.1644 127.708 19.8348 127.812 19.8348C127.856 19.8348 128.017 19.9676 128.17 20.1298C128.324 20.2921 128.494 20.4248 128.548 20.4248C128.602 20.4248 128.694 20.4912 128.751 20.5723C128.809 20.6534 128.902 20.7198 128.958 20.7198C129.015 20.7198 129.126 20.7944 129.206 20.8857C129.305 20.9982 129.362 21.022 129.384 20.9594C129.402 20.9088 129.472 20.8673 129.54 20.8673C129.608 20.8673 129.71 20.8009 129.768 20.7198C129.826 20.6387 129.917 20.5723 129.971 20.5723C130.025 20.5723 130.195 20.4395 130.349 20.2773C130.502 20.1151 130.663 19.9823 130.707 19.9823C130.819 19.9823 132.891 17.8648 132.891 17.75C132.891 17.6978 132.956 17.6073 133.036 17.5488C133.116 17.4903 133.181 17.3835 133.181 17.3113C133.181 17.2391 133.214 17.1801 133.254 17.1801C133.294 17.1801 133.326 17.1137 133.326 17.0326C133.326 16.9515 133.359 16.8851 133.399 16.8851C133.439 16.8851 133.472 16.8187 133.472 16.7376C133.472 16.6565 133.504 16.5901 133.544 16.5901C133.584 16.5901 133.617 16.5238 133.617 16.4426C133.617 16.3615 133.65 16.2951 133.689 16.2951C133.729 16.2951 133.762 16.1624 133.762 16.0002C133.762 15.8379 133.795 15.7052 133.835 15.7052C133.878 15.7052 133.907 15.4348 133.907 15.0415C133.907 14.6482 133.878 14.3778 133.835 14.3778C133.795 14.3778 133.762 14.2783 133.762 14.1566C133.762 14.0349 133.729 13.9353 133.689 13.9353C133.65 13.9353 133.617 13.8431 133.617 13.7304C133.617 13.6101 133.557 13.4816 133.472 13.4191C133.392 13.3607 133.326 13.2693 133.326 13.2161C133.326 13.0816 132.847 12.608 132.711 12.608C132.65 12.608 132.6 12.5748 132.6 12.5342C132.6 12.4937 132.535 12.4605 132.455 12.4605C132.375 12.4605 132.31 12.4273 132.31 12.3867C132.31 12.3417 131.971 12.313 131.438 12.313C130.906 12.313 130.567 12.3417 130.567 12.3867C130.567 12.4273 130.501 12.4605 130.422 12.4605C130.342 12.4605 130.276 12.4937 130.276 12.5342C130.276 12.5748 130.225 12.608 130.163 12.608C130.1 12.608 129.89 12.7739 129.695 12.9767C129.314 13.3748 129.26 13.4062 129.26 13.2315C129.26 13.0921 128.939 12.7555 128.807 12.7555C128.754 12.7555 128.664 12.6891 128.606 12.608C128.548 12.5268 128.443 12.4605 128.372 12.4605Z" fill="#29292E"/>
<path fill-rule="evenodd" clip-rule="evenodd" d="M14.81 7.37208C14.81 7.41308 14.6164 7.44583 14.3743 7.44583C14.1323 7.44583 13.9386 7.47857 13.9386 7.51957C13.9386 7.56013 13.8405 7.59331 13.7207 7.59331C13.6009 7.59331 13.5029 7.6265 13.5029 7.66706C13.5029 7.70762 13.4375 7.7408 13.3576 7.7408C13.2777 7.7408 13.2124 7.77399 13.2124 7.81455C13.2124 7.8551 13.1626 7.88829 13.1018 7.88829C12.9673 7.88829 12.1957 8.65795 12.1957 8.79224C12.1957 8.84497 12.1303 8.93597 12.0504 8.99444C11.9706 9.05292 11.9052 9.15978 11.9052 9.23197C11.9052 9.30409 11.8725 9.36316 11.8326 9.36316C11.7926 9.36316 11.76 9.46272 11.76 9.58439C11.76 9.70607 11.7273 9.80562 11.6873 9.80562C11.6474 9.80562 11.6147 9.93836 11.6147 10.1006C11.6147 10.2628 11.582 10.3956 11.5421 10.3956C11.4943 10.3956 11.4695 12.2884 11.4695 15.9263C11.4695 19.5643 11.4943 21.4571 11.5421 21.4571C11.582 21.4571 11.6147 21.5567 11.6147 21.6784C11.6147 21.8 11.6474 21.8996 11.6873 21.8996C11.7273 21.8996 11.76 21.9991 11.76 22.1208C11.76 22.2425 11.7926 22.342 11.8326 22.342C11.8725 22.342 11.9052 22.4416 11.9052 22.5633C11.9052 22.685 11.9379 22.7845 11.9778 22.7845C12.0178 22.7845 12.0504 22.8348 12.0504 22.8963C12.0504 23.042 13.104 24.1119 13.2475 24.1119C13.3081 24.1119 13.3576 24.1451 13.3576 24.1856C13.3576 24.2262 13.423 24.2594 13.5029 24.2594C13.5827 24.2594 13.6481 24.2926 13.6481 24.3331C13.6481 24.3737 13.7788 24.4069 13.9386 24.4069C14.0983 24.4069 14.2291 24.4401 14.2291 24.4806C14.2291 24.5265 14.6406 24.5544 15.3184 24.5544C15.9961 24.5544 16.4077 24.5265 16.4077 24.4806C16.4077 24.4401 16.5384 24.4069 16.6982 24.4069C16.8579 24.4069 16.9887 24.3737 16.9887 24.3331C16.9887 24.2926 17.054 24.2594 17.1339 24.2594C17.2138 24.2594 17.2791 24.2262 17.2791 24.1856C17.2791 24.1451 17.3445 24.1119 17.4244 24.1119C17.5043 24.1119 17.5696 24.0787 17.5696 24.0382C17.5696 23.9976 17.6195 23.9644 17.6804 23.9644C17.8246 23.9644 18.4411 23.3384 18.4411 23.192C18.4411 23.1301 18.4738 23.0795 18.5137 23.0795C18.5536 23.0795 18.5863 23.0204 18.5863 22.9483C18.5863 22.8761 18.6517 22.7692 18.7316 22.7108C18.8168 22.6483 18.8768 22.5198 18.8768 22.3995C18.8768 22.2868 18.9095 22.1946 18.9494 22.1946C18.9894 22.1946 19.022 22.0618 19.022 21.8996C19.022 21.7374 19.0547 21.6046 19.0947 21.6046C19.1361 21.6046 19.1673 21.3834 19.1673 21.0884C19.1673 20.7934 19.1984 20.5722 19.2399 20.5722C19.2868 20.5722 19.3125 19.7118 19.3125 18.1387C19.3125 16.5655 19.2868 15.7051 19.2399 15.7051C19.1995 15.7051 19.1673 15.5084 19.1673 15.2627V14.8202H17.4555C16.0688 14.8202 15.724 14.8402 15.64 14.9256C15.559 15.0078 15.5362 15.2823 15.5362 16.1792C15.5362 16.8956 15.5635 17.3275 15.6089 17.3275C15.6488 17.3275 15.6815 17.3938 15.6815 17.475C15.6815 17.6048 15.7299 17.6225 16.0861 17.6225C16.7054 17.6225 16.6982 17.6031 16.6982 19.2765C16.6982 20.1895 16.6715 20.7197 16.6256 20.7197C16.5856 20.7197 16.5529 20.8192 16.5529 20.9409C16.5529 21.0626 16.5203 21.1622 16.4803 21.1622C16.4404 21.1622 16.4077 21.2134 16.4077 21.2761C16.4077 21.3388 16.3274 21.4715 16.2294 21.5711C16.068 21.7351 15.9927 21.7521 15.4306 21.7521C15.0653 21.7521 14.81 21.7218 14.81 21.6784C14.81 21.6378 14.7587 21.6046 14.6959 21.6046C14.5492 21.6046 14.3743 21.427 14.3743 21.278C14.3743 21.2143 14.3416 21.1622 14.3017 21.1622C14.254 21.1622 14.2291 19.3923 14.2291 16.0001C14.2291 12.6079 14.254 10.838 14.3017 10.838C14.3416 10.838 14.3743 10.7868 14.3743 10.7241C14.3743 10.5765 14.6978 10.2481 14.8431 10.2481C14.9048 10.2481 14.9553 10.2149 14.9553 10.1743C14.9553 10.1333 15.149 10.1006 15.391 10.1006C15.633 10.1006 15.8267 10.1333 15.8267 10.1743C15.8267 10.2149 15.8768 10.2481 15.9381 10.2481C16.1211 10.2481 16.5529 10.7385 16.5529 10.9462C16.5529 11.0489 16.5856 11.133 16.6256 11.133C16.6705 11.133 16.6982 11.5263 16.6982 12.1654C16.6982 12.8046 16.7258 13.1978 16.7708 13.1978C16.8107 13.1978 16.8434 13.2642 16.8434 13.3453C16.8434 13.486 16.8919 13.4928 17.9016 13.4928C18.9978 13.4928 19.1673 13.4491 19.1673 13.1662C19.1673 13.1025 19.2 13.0503 19.2399 13.0503C19.2835 13.0503 19.3125 12.7554 19.3125 12.3129C19.3125 11.8704 19.2835 11.5755 19.2399 11.5755C19.1968 11.5755 19.1673 11.3051 19.1673 10.9118C19.1673 10.5185 19.1377 10.2481 19.0947 10.2481C19.0547 10.2481 19.022 10.1153 19.022 9.95311C19.022 9.79088 18.9894 9.65814 18.9494 9.65814C18.9095 9.65814 18.8768 9.59177 18.8768 9.51065C18.8768 9.42953 18.8441 9.36316 18.8042 9.36316C18.7642 9.36316 18.7316 9.29679 18.7316 9.21568C18.7316 9.13456 18.6989 9.06819 18.6589 9.06819C18.619 9.06819 18.5863 9.01782 18.5863 8.95617C18.5863 8.81038 17.6783 7.88829 17.5347 7.88829C17.474 7.88829 17.4244 7.8551 17.4244 7.81455C17.4244 7.77399 17.359 7.7408 17.2791 7.7408C17.1993 7.7408 17.1339 7.70762 17.1339 7.66706C17.1339 7.6265 17.0359 7.59331 16.916 7.59331C16.7962 7.59331 16.6982 7.56013 16.6982 7.51957C16.6982 7.47901 16.5348 7.44583 16.3351 7.44583C16.1354 7.44583 15.972 7.41264 15.972 7.37208C15.972 7.32909 15.7299 7.29834 15.391 7.29834C15.0521 7.29834 14.81 7.32909 14.81 7.37208ZM0.285867 7.7408C0.285867 7.82192 0.253187 7.88829 0.213246 7.88829C0.165243 7.88829 0.140625 10.6414 0.140625 16.0001C0.140625 24.0627 0.141496 24.1119 0.285867 24.1119C0.38267 24.1119 0.431108 24.1611 0.431108 24.2594C0.431108 24.4003 0.479546 24.4069 1.52042 24.4069C2.5613 24.4069 2.60973 24.4003 2.60973 24.2594C2.60973 24.1611 2.65817 24.1119 2.75497 24.1119C2.89804 24.1119 2.90022 24.0627 2.90022 20.8672V17.6225H4.42525C5.90185 17.6225 5.95029 17.6178 5.95029 17.475C5.95029 17.3767 5.99873 17.3275 6.09553 17.3275C6.23388 17.3275 6.24077 17.2783 6.24077 16.2951C6.24077 15.6559 6.21311 15.2627 6.16815 15.2627C6.12821 15.2627 6.09553 15.1631 6.09553 15.0414V14.8202H4.49787H2.90022V12.6395C2.90022 10.8478 2.91874 10.44 3.00399 10.3535C3.08838 10.2677 3.44771 10.2481 4.93171 10.2481H6.75573L6.93394 10.067C7.10794 9.89043 7.11222 9.8585 7.11222 8.73966V7.59331H3.69905C0.334305 7.59331 0.285867 7.59538 0.285867 7.7408ZM7.83843 7.7408C7.83843 7.82192 7.80575 7.88829 7.76581 7.88829C7.71781 7.88829 7.69319 10.6414 7.69319 16.0001C7.69319 24.0627 7.69406 24.1119 7.83843 24.1119C7.93524 24.1119 7.98368 24.1611 7.98368 24.2594C7.98368 24.4003 8.03211 24.4069 9.07299 24.4069C10.1139 24.4069 10.1623 24.4003 10.1623 24.2594C10.1623 24.1611 10.2107 24.1119 10.3075 24.1119C10.4519 24.1119 10.4528 24.0627 10.4528 15.8526V7.59331H9.14561C7.88687 7.59331 7.83843 7.59877 7.83843 7.7408ZM20.184 15.8526C20.184 24.0627 20.1848 24.1119 20.3292 24.1119C20.426 24.1119 20.4745 24.1611 20.4745 24.2594C20.4745 24.4003 20.5229 24.4069 21.5638 24.4069C22.6046 24.4069 22.6531 24.4003 22.6531 24.2594C22.6531 24.1611 22.7015 24.1119 22.7983 24.1119C22.9415 24.1119 22.9436 24.0627 22.9436 20.7197V17.3275H24.2196C25.2287 17.3275 25.5174 17.3495 25.5994 17.4329C25.6862 17.5209 25.7032 18.0703 25.7032 20.7915V24.0449L25.8814 24.2258C26.0544 24.4015 26.0913 24.4069 27.116 24.4069C28.1238 24.4069 28.1723 24.4001 28.1723 24.2594C28.1723 24.1611 28.2207 24.1119 28.3175 24.1119C28.4619 24.1119 28.4627 24.0627 28.4627 16.0001C28.4627 10.6414 28.4381 7.88829 28.3901 7.88829C28.3502 7.88829 28.3175 7.82192 28.3175 7.7408C28.3175 7.59877 28.2691 7.59331 27.0103 7.59331H25.7032V11.0593V14.5252H24.3234H22.9436V11.1646C22.9436 8.35044 22.9267 7.78689 22.8398 7.69869C22.7578 7.61536 22.4691 7.59331 21.46 7.59331H20.184V15.8526ZM29.0437 7.7408C29.0437 7.82192 29.011 7.88829 28.9711 7.88829C28.9263 7.88829 28.8985 8.27043 28.8985 8.88715C28.8985 9.84943 28.905 9.89272 29.0768 10.067C29.2502 10.2433 29.284 10.2481 30.3528 10.2481C31.2074 10.2481 31.4735 10.2714 31.5543 10.3535C31.6427 10.4432 31.6581 11.4673 31.6581 17.2854C31.6581 21.7872 31.6828 24.1119 31.7307 24.1119C31.7706 24.1119 31.8033 24.1783 31.8033 24.2594C31.8033 24.4008 31.8517 24.4069 32.9652 24.4069C34.0787 24.4069 34.1272 24.4008 34.1272 24.2594C34.1272 24.1783 34.1599 24.1119 34.1998 24.1119C34.2477 24.1119 34.2724 21.7767 34.2724 17.2537C34.2724 10.4448 34.2734 10.3956 34.4177 10.3956C34.4975 10.3956 34.5629 10.3624 34.5629 10.3218C34.5629 10.276 34.9634 10.2481 35.6192 10.2481C36.6438 10.2481 36.6808 10.2427 36.8537 10.067C37.0255 9.89272 37.032 9.84943 37.032 8.88715C37.032 8.27043 37.0042 7.88829 36.9594 7.88829C36.9194 7.88829 36.8868 7.82192 36.8868 7.7408C36.8868 7.59516 36.8383 7.59331 32.9652 7.59331C29.0922 7.59331 29.0437 7.59516 29.0437 7.7408ZM39.2106 7.81455C39.2106 7.93622 39.178 8.03578 39.138 8.03578C39.09 8.03578 39.0654 10.8135 39.0654 16.2213C39.0654 24.0192 39.0715 24.4069 39.1946 24.4069C39.2657 24.4069 39.3709 24.4732 39.4285 24.5544C39.5666 24.749 39.6876 24.7404 39.9038 24.5208L40.0821 24.3398V20.4965C40.0821 17.264 40.0986 16.6365 40.1859 16.5479C40.2626 16.4699 40.4888 16.4426 41.0573 16.4426C41.5207 16.4426 41.825 16.4134 41.825 16.3688C41.825 16.3283 41.8763 16.2951 41.9391 16.2951C42.0019 16.2951 42.0999 16.2477 42.1569 16.1897C42.276 16.0689 42.2959 15.8526 42.1881 15.8526C42.1481 15.8526 42.1155 15.7531 42.1155 15.6314V15.4101H41.0988H40.0821V12.1233C40.0821 9.37297 40.099 8.81923 40.1859 8.73111C40.2633 8.65242 40.4941 8.62573 41.0969 8.62573C41.8572 8.62573 41.9146 8.61518 42.0824 8.44469C42.2195 8.3056 42.2607 8.18607 42.2607 7.92848V7.59331H40.7357H39.2106V7.81455ZM44.2941 7.66706C44.2941 7.70762 44.1961 7.7408 44.0762 7.7408C43.9564 7.7408 43.8584 7.77399 43.8584 7.81455C43.8584 7.8551 43.8079 7.88829 43.7462 7.88829C43.6009 7.88829 43.2774 8.21674 43.2774 8.3643C43.2774 8.42699 43.2447 8.47824 43.2048 8.47824C43.1648 8.47824 43.1322 8.57779 43.1322 8.69947C43.1322 8.82115 43.0995 8.9207 43.0595 8.9207C43.0116 8.9207 42.9869 11.3542 42.9869 16.0738C42.9869 20.7934 43.0116 23.227 43.0595 23.227C43.0995 23.227 43.1322 23.3265 43.1322 23.4482C43.1322 23.5699 43.1648 23.6694 43.2048 23.6694C43.2447 23.6694 43.2774 23.7201 43.2774 23.782C43.2774 23.9283 43.8939 24.5544 44.038 24.5544C44.099 24.5544 44.1488 24.5875 44.1488 24.6281C44.1488 24.6732 44.4878 24.7018 45.0203 24.7018C45.5528 24.7018 45.8918 24.6732 45.8918 24.6281C45.8918 24.5875 45.9571 24.5544 46.037 24.5544C46.1169 24.5544 46.1822 24.5212 46.1822 24.4806C46.1822 24.4401 46.2327 24.4069 46.2944 24.4069C46.4397 24.4069 46.7632 24.0784 46.7632 23.9309C46.7632 23.8682 46.7959 23.8169 46.8358 23.8169C46.8758 23.8169 46.9084 23.7506 46.9084 23.6694C46.9084 23.5883 46.9411 23.5219 46.9811 23.5219C47.029 23.5219 47.0537 21.0147 47.0537 16.1476C47.0537 11.2805 47.029 8.77321 46.9811 8.77321C46.9411 8.77321 46.9084 8.68937 46.9084 8.58694C46.9084 8.33289 46.3254 7.7408 46.0752 7.7408C45.9743 7.7408 45.8918 7.70762 45.8918 7.66706C45.8918 7.62237 45.5771 7.59331 45.0929 7.59331C44.6088 7.59331 44.2941 7.62237 44.2941 7.66706ZM48.1611 7.70363C48.0897 7.78608 48.0704 9.56647 48.0704 16.0741V24.3398L48.2487 24.5208C48.4748 24.7505 48.6826 24.7505 48.9088 24.5208L49.0871 24.3398V20.3912V16.4426H49.7407C50.1279 16.4426 50.3942 16.4726 50.3942 16.5163C50.3942 16.5569 50.4447 16.59 50.5064 16.59C50.6829 16.59 50.9752 16.9328 50.9752 17.1398C50.9752 17.243 51.0079 17.3275 51.0478 17.3275C51.0952 17.3275 51.1204 18.5454 51.1204 20.8336V24.3398L51.2987 24.5208C51.5215 24.747 51.5909 24.747 51.8136 24.5208L51.9919 24.3398V20.4649C51.9919 17.9309 51.9668 16.59 51.9193 16.59C51.8793 16.59 51.8467 16.537 51.8467 16.4721C51.8467 16.4073 51.7486 16.2612 51.6288 16.1476C51.3769 15.9087 51.3435 15.7051 51.5562 15.7051C51.653 15.7051 51.7014 15.6559 51.7014 15.5576C51.7014 15.4765 51.7341 15.4101 51.774 15.4101C51.814 15.4101 51.8467 15.3438 51.8467 15.2627C51.8467 15.1815 51.8793 15.1152 51.9193 15.1152C51.9666 15.1152 51.9919 13.9715 51.9919 11.8317V8.54807L51.667 8.21822C51.4883 8.03674 51.2923 7.88829 51.2313 7.88829C51.1703 7.88829 51.1204 7.8551 51.1204 7.81455C51.1204 7.77399 50.9897 7.7408 50.83 7.7408C50.6702 7.7408 50.5395 7.70762 50.5395 7.66706C50.5395 7.62089 50.1117 7.59435 49.3957 7.59612C48.5014 7.59833 48.2321 7.62178 48.1611 7.70363ZM54.461 7.7408C54.461 7.82192 54.4283 7.88829 54.3884 7.88829C54.2781 7.88829 54.3016 8.25317 54.4195 8.37286C54.4765 8.43082 54.5746 8.47824 54.6374 8.47824C54.7001 8.47824 54.7515 8.51142 54.7515 8.55198C54.7515 8.59497 54.9935 8.62573 55.3325 8.62573H55.9134V16.5163C55.9134 24.0314 55.9196 24.4069 56.0426 24.4069C56.1137 24.4069 56.2189 24.4732 56.2765 24.5544C56.4147 24.749 56.5356 24.7404 56.7518 24.5208L56.9301 24.3398V16.5881C56.9301 9.9683 56.9453 8.82107 57.0339 8.73111C57.1043 8.6595 57.3033 8.62573 57.6544 8.62573C58.1064 8.62573 58.1936 8.60301 58.3495 8.44469C58.4865 8.3056 58.5278 8.18607 58.5278 7.92848V7.59331H56.4944C54.5094 7.59331 54.461 7.59685 54.461 7.7408ZM59.1087 8.03578C59.1087 8.28156 59.0765 8.47824 59.0361 8.47824C58.9882 8.47824 58.9635 11.1461 58.9635 16.3344V24.1906L59.2153 24.4462C59.5148 24.7504 59.5691 24.7573 59.8019 24.5208L59.9802 24.3398V20.4965C59.9802 17.264 59.9967 16.6365 60.084 16.5479C60.1628 16.4678 60.4063 16.4426 61.1007 16.4426C61.9651 16.4426 62.0136 16.4504 62.0136 16.59C62.0136 16.6712 62.0463 16.7375 62.0862 16.7375C62.1337 16.7375 62.1588 18.0537 62.1588 20.5386V24.3398L62.3371 24.5208C62.5699 24.7573 62.6242 24.7504 62.9237 24.4462L63.1755 24.1906V16.2606C63.1755 11.0232 63.1508 8.33075 63.1029 8.33075C63.0629 8.33075 63.0303 8.21225 63.0303 8.06741C63.0303 7.74265 62.893 7.59331 62.5945 7.59331C62.1416 7.59331 62.1588 7.43462 62.1588 11.6071V15.4101H61.0695H59.9802V11.6071C59.9802 8.40944 59.9637 7.78726 59.8764 7.69869C59.8168 7.63808 59.6316 7.59331 59.4407 7.59331H59.1087V8.03578ZM64.283 7.70363C64.2115 7.78608 64.1922 9.56647 64.1922 16.0741V24.3398L64.3705 24.5208C64.5466 24.6997 64.5645 24.7018 65.8625 24.7018C67.1605 24.7018 67.1784 24.6997 67.3545 24.5208C67.562 24.3102 67.5925 23.9408 67.4172 23.7628C67.3188 23.6629 67.2911 23.661 67.2301 23.7497C67.1752 23.8295 67.15 23.8323 67.1218 23.7616C67.095 23.6946 66.8293 23.6694 66.1469 23.6694H65.2089V20.056V16.4426H66.0473C66.8407 16.4426 66.8954 16.4328 67.064 16.2615C67.201 16.1224 67.2423 16.0029 67.2423 15.7453V15.4101H66.2256H65.2089V12.0179V8.62573H66.1199C66.9904 8.62573 67.0389 8.61769 67.2092 8.44469C67.3463 8.3056 67.3875 8.18607 67.3875 7.92848V7.59331L65.8806 7.59612C64.6727 7.5984 64.3557 7.61971 64.283 7.70363ZM69.5661 7.7408C69.5661 7.82192 69.5335 7.88829 69.4935 7.88829C69.4455 7.88829 69.4209 10.6113 69.4209 15.9101C69.4209 23.8472 69.4224 23.933 69.5661 24.0382C69.646 24.0966 69.7114 24.2035 69.7114 24.2757C69.7114 24.3954 69.8035 24.4069 70.7676 24.4069C71.7923 24.4069 71.8293 24.4015 72.0022 24.2258L72.1805 24.0449V20.939C72.1805 18.3456 72.1976 17.8157 72.2843 17.7278C72.3671 17.6437 72.6743 17.6225 73.8093 17.6225C75.1821 17.6225 75.2306 17.6174 75.2306 17.475C75.2306 17.3767 75.279 17.3275 75.3758 17.3275C75.5148 17.3275 75.521 17.2783 75.521 16.1792C75.521 15.2823 75.4983 15.0078 75.4173 14.9256C75.3338 14.8408 75.0078 14.8202 73.747 14.8202H72.1805V12.6395C72.1805 10.8478 72.199 10.44 72.2843 10.3535C72.3687 10.2677 72.728 10.2481 74.212 10.2481H76.036L76.2142 10.067C76.3882 9.89043 76.3925 9.8585 76.3925 8.73966V7.59331H72.9793C69.6146 7.59331 69.5661 7.59538 69.5661 7.7408ZM76.8282 14.5252C76.8282 19.0973 76.8529 21.4571 76.9008 21.4571C76.9408 21.4571 76.9735 21.5899 76.9735 21.7521C76.9735 21.9143 77.0061 22.0471 77.0461 22.0471C77.086 22.0471 77.1187 22.1466 77.1187 22.2683C77.1187 22.39 77.1514 22.4895 77.1913 22.4895C77.2313 22.4895 77.2639 22.5559 77.2639 22.637C77.2639 22.7181 77.2966 22.7845 77.3366 22.7845C77.3765 22.7845 77.4092 22.8436 77.4092 22.9157C77.4092 22.9879 77.4745 23.0948 77.5544 23.1532C77.6343 23.2117 77.6997 23.3035 77.6997 23.3572C77.6997 23.4838 78.0277 23.8169 78.1524 23.8169C78.2053 23.8169 78.2957 23.8833 78.3533 23.9644C78.4109 24.0455 78.5161 24.1119 78.5872 24.1119C78.6582 24.1119 78.7164 24.1451 78.7164 24.1856C78.7164 24.2262 78.7817 24.2594 78.8616 24.2594C78.9415 24.2594 79.0069 24.2926 79.0069 24.3331C79.0069 24.3737 79.1049 24.4069 79.2247 24.4069C79.3445 24.4069 79.4426 24.4401 79.4426 24.4806C79.4426 24.5269 79.9025 24.5544 80.6771 24.5544C81.4518 24.5544 81.9117 24.5269 81.9117 24.4806C81.9117 24.4401 82.0097 24.4069 82.1295 24.4069C82.2494 24.4069 82.3474 24.3737 82.3474 24.3331C82.3474 24.2926 82.4383 24.2594 82.5492 24.2594C82.6677 24.2594 82.7942 24.1985 82.8558 24.1119C82.9133 24.0308 83.0031 23.9644 83.0552 23.9644C83.1875 23.9644 83.7998 23.3293 83.7998 23.192C83.7998 23.1301 83.8325 23.0795 83.8724 23.0795C83.9124 23.0795 83.9451 23.0204 83.9451 22.9483C83.9451 22.8761 84.0104 22.7692 84.0903 22.7108C84.1756 22.6483 84.2355 22.5198 84.2355 22.3995C84.2355 22.2868 84.2682 22.1946 84.3082 22.1946C84.3481 22.1946 84.3808 22.095 84.3808 21.9733C84.3808 21.8517 84.4135 21.7521 84.4534 21.7521C84.5013 21.7521 84.526 19.3431 84.526 14.6727V7.59331H83.2915H82.0569V14.009C82.0569 18.237 82.0322 20.4247 81.9843 20.4247C81.9444 20.4247 81.9117 20.6083 81.9117 20.8327C81.9117 21.2001 81.8866 21.2663 81.6599 21.4964C81.4097 21.7506 81.4044 21.7521 80.7489 21.7521C80.1457 21.7521 80.0744 21.7367 79.9113 21.5711C79.8133 21.4715 79.7331 21.3388 79.7331 21.2761C79.7331 21.2134 79.7004 21.1622 79.6604 21.1622C79.6126 21.1622 79.5878 18.9498 79.5878 14.6727C79.5878 10.3956 79.563 8.18326 79.5152 8.18326C79.4753 8.18326 79.4426 8.05053 79.4426 7.88829V7.59331H78.1354H76.8282V14.5252ZM85.107 7.7408C85.107 7.82192 85.0743 7.88829 85.0344 7.88829C84.9896 7.88829 84.9618 8.27043 84.9618 8.88715C84.9618 9.84943 84.9683 9.89272 85.14 10.067C85.3124 10.2421 85.352 10.2481 86.3416 10.2481C87.3312 10.2481 87.3707 10.2541 87.5431 10.4291L87.7213 10.6101V17.361C87.7213 21.8124 87.7461 24.1119 87.794 24.1119C87.8339 24.1119 87.8666 24.1783 87.8666 24.2594C87.8666 24.4008 87.915 24.4069 89.0285 24.4069C90.142 24.4069 90.1905 24.4008 90.1905 24.2594C90.1905 24.1783 90.2231 24.1119 90.2631 24.1119C90.3109 24.1119 90.3357 21.8124 90.3357 17.361V10.6101L90.514 10.4291C90.6863 10.2541 90.7259 10.2481 91.7155 10.2481C92.7051 10.2481 92.7447 10.2421 92.917 10.067C93.0888 9.89272 93.0953 9.84943 93.0953 8.88715C93.0953 8.27043 93.0675 7.88829 93.0227 7.88829C92.9827 7.88829 92.9501 7.82192 92.9501 7.7408C92.9501 7.59516 92.9016 7.59331 89.0285 7.59331C85.1554 7.59331 85.107 7.59516 85.107 7.7408ZM93.531 7.81455C93.531 7.93622 93.4983 8.03578 93.4584 8.03578C93.4105 8.03578 93.3858 10.2481 93.3858 14.5252C93.3858 18.8024 93.4105 21.0147 93.4584 21.0147C93.4983 21.0147 93.531 21.1806 93.531 21.3834C93.531 21.5862 93.5637 21.7521 93.6036 21.7521C93.6436 21.7521 93.6763 21.8848 93.6763 22.0471C93.6763 22.2093 93.7089 22.342 93.7489 22.342C93.7888 22.342 93.8215 22.4084 93.8215 22.4895C93.8215 22.5707 93.8542 22.637 93.8941 22.637C93.9341 22.637 93.9667 22.7034 93.9667 22.7845C93.9667 22.8656 93.9994 22.932 94.0394 22.932C94.0793 22.932 94.112 22.9824 94.112 23.044C94.112 23.1898 95.02 24.1119 95.1636 24.1119C95.2243 24.1119 95.2739 24.1451 95.2739 24.1856C95.2739 24.2262 95.3393 24.2594 95.4192 24.2594C95.499 24.2594 95.5644 24.2926 95.5644 24.3331C95.5644 24.3737 95.6624 24.4069 95.7823 24.4069C95.9021 24.4069 96.0001 24.4401 96.0001 24.4806C96.0001 24.5271 96.4843 24.5544 97.3073 24.5544C98.1303 24.5544 98.6145 24.5271 98.6145 24.4806C98.6145 24.4401 98.7125 24.4069 98.8323 24.4069C98.9522 24.4069 99.0502 24.3737 99.0502 24.3331C99.0502 24.2926 99.1156 24.2594 99.1954 24.2594C99.2753 24.2594 99.3407 24.2262 99.3407 24.1856C99.3407 24.1451 99.3903 24.1119 99.451 24.1119C99.5946 24.1119 100.503 23.1898 100.503 23.044C100.503 22.9824 100.535 22.932 100.575 22.932C100.615 22.932 100.648 22.8656 100.648 22.7845C100.648 22.7034 100.681 22.637 100.72 22.637C100.76 22.637 100.793 22.5707 100.793 22.4895C100.793 22.4084 100.826 22.342 100.866 22.342C100.906 22.342 100.938 22.2425 100.938 22.1208C100.938 21.9991 100.971 21.8996 101.011 21.8996C101.051 21.8996 101.084 21.7668 101.084 21.6046C101.084 21.4424 101.116 21.3096 101.156 21.3096C101.204 21.3096 101.229 18.9744 101.229 14.4515V7.59331H100.025C99.0792 7.59331 98.7998 7.61581 98.7182 7.69869C98.6299 7.78837 98.6145 8.78302 98.6145 14.4094C98.6145 18.7637 98.5897 21.0147 98.5419 21.0147C98.5019 21.0147 98.4692 21.081 98.4692 21.1622C98.4692 21.2433 98.4366 21.3096 98.3966 21.3096C98.3567 21.3096 98.324 21.376 98.324 21.4571C98.324 21.5554 98.2756 21.6046 98.1787 21.6046C98.0989 21.6046 98.0335 21.6378 98.0335 21.6784C98.0335 21.7189 97.9709 21.7521 97.8943 21.7521C97.8177 21.7521 97.7361 21.7935 97.7127 21.8443C97.6789 21.918 97.6619 21.918 97.6281 21.8443C97.6011 21.7858 97.4287 21.7521 97.156 21.7521C96.918 21.7521 96.7263 21.7192 96.7263 21.6784C96.7263 21.6378 96.661 21.6046 96.5811 21.6046C96.4843 21.6046 96.4358 21.5554 96.4358 21.4571C96.4358 21.376 96.4032 21.3096 96.3632 21.3096C96.3233 21.3096 96.2906 21.2101 96.2906 21.0884C96.2906 20.9667 96.2579 20.8672 96.218 20.8672C96.1701 20.8672 96.1454 18.6057 96.1454 14.2302V7.59331H94.8382H93.531V7.81455ZM102.246 15.8191V24.0449L102.424 24.2258C102.597 24.4015 102.634 24.4069 103.658 24.4069C104.623 24.4069 104.715 24.3954 104.715 24.2757C104.715 24.2035 104.78 24.0966 104.86 24.0382C105.001 23.9348 105.005 23.8472 105.005 20.8509V17.7699H105.731C106.167 17.7699 106.458 17.7994 106.458 17.8437C106.458 17.8842 106.508 17.9174 106.569 17.9174C106.713 17.9174 107.184 18.395 107.184 18.5418C107.184 18.604 107.216 18.6549 107.256 18.6549C107.303 18.6549 107.329 19.4906 107.329 21.0147C107.329 22.5387 107.355 23.3745 107.402 23.3745C107.442 23.3745 107.474 23.5072 107.474 23.6694C107.474 23.8317 107.507 23.9644 107.547 23.9644C107.587 23.9644 107.619 24.0165 107.619 24.0803C107.619 24.3665 107.785 24.4069 108.958 24.4069C110.04 24.4069 110.089 24.4005 110.089 24.2594C110.089 24.1783 110.121 24.1119 110.161 24.1119C110.201 24.1119 110.234 23.946 110.234 23.7432C110.234 23.5404 110.201 23.3745 110.161 23.3745C110.114 23.3745 110.089 22.5141 110.089 20.9409C110.089 19.3677 110.063 18.5074 110.016 18.5074C109.976 18.5074 109.943 18.3415 109.943 18.1387C109.943 17.9359 109.911 17.7699 109.871 17.7699C109.831 17.7699 109.798 17.6704 109.798 17.5487C109.798 17.427 109.765 17.3275 109.725 17.3275C109.686 17.3275 109.653 17.2684 109.653 17.1963C109.653 17.1241 109.587 17.0172 109.508 16.9588C109.428 16.9003 109.362 16.8074 109.362 16.7524C109.362 16.6973 109.229 16.5223 109.066 16.3636L108.771 16.0749L109.139 15.7104C109.342 15.51 109.508 15.2941 109.508 15.2306C109.508 15.1671 109.54 15.1152 109.58 15.1152C109.62 15.1152 109.653 15.0488 109.653 14.9677C109.653 14.8866 109.686 14.8202 109.725 14.8202C109.765 14.8202 109.798 14.7206 109.798 14.599C109.798 14.4773 109.831 14.3777 109.871 14.3777C109.911 14.3777 109.943 14.2118 109.943 14.009C109.943 13.8062 109.976 13.6403 110.016 13.6403C110.062 13.6403 110.089 13.0749 110.089 12.0917C110.089 11.1085 110.062 10.5431 110.016 10.5431C109.976 10.5431 109.943 10.3771 109.943 10.1743C109.943 9.97155 109.911 9.80562 109.871 9.80562C109.831 9.80562 109.798 9.70607 109.798 9.58439C109.798 9.46272 109.765 9.36316 109.725 9.36316C109.686 9.36316 109.653 9.31014 109.653 9.24525C109.653 9.18043 109.555 9.03434 109.435 8.9207C109.315 8.80706 109.217 8.67609 109.217 8.62963C109.217 8.50552 108.879 8.18326 108.748 8.18326C108.687 8.18326 108.636 8.15008 108.636 8.10952C108.636 8.06896 108.571 8.03578 108.491 8.03578C108.411 8.03578 108.346 8.00259 108.346 7.96203C108.346 7.92147 108.28 7.88829 108.2 7.88829C108.121 7.88829 108.055 7.8551 108.055 7.81455C108.055 7.77399 107.957 7.7408 107.837 7.7408C107.717 7.7408 107.619 7.70762 107.619 7.66706C107.619 7.6192 106.675 7.59331 104.932 7.59331H102.246V15.8191ZM111.25 7.88829C111.25 8.05053 111.218 8.18326 111.178 8.18326C111.13 8.18326 111.105 10.8626 111.105 16.0738C111.105 21.2851 111.13 23.9644 111.178 23.9644C111.218 23.9644 111.25 24.0165 111.25 24.0803C111.25 24.404 111.281 24.4069 114.736 24.4069C117.481 24.4069 118.032 24.3897 118.118 24.3015C118.269 24.1482 118.269 21.8633 118.118 21.71C118.033 21.6236 117.641 21.6046 115.94 21.6046H113.865V19.466V17.3275H115.39C116.358 17.3275 116.915 17.3006 116.915 17.2537C116.915 17.2132 116.966 17.18 117.029 17.18C117.314 17.18 117.351 17.0158 117.351 15.7472V14.5252H115.712C114.388 14.5252 114.052 14.5049 113.969 14.4198C113.884 14.3339 113.865 13.955 113.865 12.355C113.865 10.4448 113.868 10.3956 114.01 10.3956C114.09 10.3956 114.155 10.3624 114.155 10.3218C114.155 10.2745 114.847 10.2481 116.085 10.2481C117.661 10.2481 118.034 10.2288 118.118 10.1427C118.2 10.0599 118.222 9.77613 118.222 8.81532V7.59331H114.736H111.25V7.88829ZM45.3108 8.55198C45.3108 8.59254 45.3939 8.62573 45.4956 8.62573C45.5973 8.62573 45.7607 8.70721 45.8587 8.80677C46.0051 8.95536 46.037 9.06081 46.037 9.39672C46.037 9.62163 46.0697 9.80562 46.1096 9.80562C46.1575 9.80562 46.1822 11.9934 46.1822 16.2213C46.1822 20.4493 46.1575 22.637 46.1096 22.637C46.0697 22.637 46.037 22.7698 46.037 22.932C46.037 23.0942 46.0043 23.227 45.9644 23.227C45.9244 23.227 45.8918 23.2791 45.8918 23.3428C45.8918 23.4919 45.7169 23.6694 45.5701 23.6694C45.5074 23.6694 45.456 23.7026 45.456 23.7432C45.456 23.7837 45.2752 23.8169 45.0542 23.8169C44.6925 23.8169 44.6272 23.7914 44.4006 23.5613C44.2621 23.4207 44.1488 23.2548 44.1488 23.1925C44.1488 23.1304 44.1162 23.0795 44.0762 23.0795C44.0283 23.0795 44.0036 20.7197 44.0036 16.1476C44.0036 11.5755 44.0283 9.21568 44.0762 9.21568C44.1162 9.21568 44.1488 9.14931 44.1488 9.06819C44.1488 8.98707 44.1815 8.9207 44.2215 8.9207C44.2614 8.9207 44.2941 8.85433 44.2941 8.77321C44.2941 8.65847 44.3425 8.62573 44.512 8.62573C44.6318 8.62573 44.7298 8.59254 44.7298 8.55198C44.7298 8.51142 44.8605 8.47824 45.0203 8.47824C45.1801 8.47824 45.3108 8.51142 45.3108 8.55198ZM50.5395 8.69947C50.5395 8.74003 50.5908 8.77321 50.6536 8.77321C50.825 8.77321 50.9752 8.96015 50.9752 9.17357C50.9752 9.27784 51.0079 9.36316 51.0478 9.36316C51.0949 9.36316 51.1204 10.2973 51.1204 12.0179C51.1204 13.7386 51.0949 14.6727 51.0478 14.6727C51.0079 14.6727 50.9752 14.7236 50.9752 14.7858C50.9752 14.848 50.8619 15.0139 50.7234 15.1545L50.4717 15.4101H49.7794H49.0871V12.0179V8.62573H49.8133C50.249 8.62573 50.5395 8.65522 50.5395 8.69947ZM106.167 10.3218C106.167 10.3624 106.291 10.3956 106.441 10.3956C106.633 10.3956 106.748 10.4403 106.821 10.5431C106.878 10.6242 106.983 10.6905 107.055 10.6905C107.15 10.6905 107.184 10.7489 107.184 10.9118C107.184 11.0335 107.216 11.133 107.256 11.133C107.302 11.133 107.329 11.6738 107.329 12.6079C107.329 13.542 107.302 14.0828 107.256 14.0828C107.216 14.0828 107.184 14.1336 107.184 14.1958C107.184 14.3816 106.701 14.8202 106.496 14.8202C106.395 14.8202 106.312 14.8534 106.312 14.8939C106.312 14.9374 106.056 14.9677 105.69 14.9677C105.205 14.9677 105.04 14.9404 104.946 14.8445C104.858 14.755 104.849 14.7131 104.915 14.6909C104.984 14.6675 105.005 14.1451 105.005 12.4543V10.2481H105.586C105.925 10.2481 106.167 10.2788 106.167 10.3218Z" fill="white"/>
</svg>
