<svg width="21" height="24" viewBox="0 0 21 24" fill="none" xmlns="http://www.w3.org/2000/svg">
<g clip-path="url(#clip0)">
<path d="M10.3497 5.7797C10.3965 5.80314 10.434 5.85939 10.4903 5.85939C10.5419 5.85939 10.6215 5.84064 10.6262 5.78908C10.6356 5.72345 10.5372 5.68126 10.4762 5.65314C10.3965 5.62033 10.2934 5.60626 10.2184 5.64845C10.1997 5.65783 10.1809 5.68126 10.1903 5.70001C10.2043 5.76095 10.2981 5.75158 10.3497 5.7797ZM9.3231 5.85939C9.37935 5.85939 9.41685 5.80314 9.46372 5.7797C9.51529 5.75158 9.60904 5.76095 9.62779 5.7047C9.63716 5.68595 9.61841 5.66251 9.59966 5.65314C9.52466 5.61095 9.42154 5.62501 9.34185 5.65783C9.28091 5.68595 9.18248 5.72814 9.19185 5.79376C9.19654 5.84064 9.27622 5.86408 9.3231 5.85939ZM19.6872 18.9281C19.5184 18.7406 19.4387 18.3844 19.3497 18.0047C19.2653 17.625 19.1668 17.2172 18.8575 16.9547C18.7965 16.9031 18.7356 16.8563 18.67 16.8188C18.609 16.7813 18.5434 16.7484 18.4778 16.725C18.909 15.4453 18.7403 14.1703 18.3043 13.0172C17.77 11.6063 16.8372 10.3735 16.1247 9.5297C15.3231 8.52189 14.545 7.56564 14.559 6.1547C14.5825 4.00314 14.7981 0.00470106 11.0059 1.35551e-05C6.20591 -0.00936144 7.40591 4.84689 7.35435 6.33751C7.27466 7.43439 7.05435 8.29689 6.29966 9.37033C5.41372 10.425 4.16685 12.1266 3.57623 13.9031C3.29498 14.7422 3.16373 15.5953 3.2856 16.4016C2.98091 16.6735 2.75123 17.0906 2.50748 17.3484C2.3106 17.55 2.02466 17.625 1.7106 17.7375C1.39654 17.85 1.05435 18.0188 0.843413 18.4172C0.744975 18.6 0.712163 18.7969 0.712163 18.9984C0.712163 19.1813 0.740288 19.3688 0.768413 19.5516C0.824663 19.9313 0.8856 20.2875 0.805913 20.5266C0.562163 21.2016 0.52935 21.6703 0.702788 22.0125C0.880913 22.3547 1.23716 22.5047 1.64498 22.5891C2.45591 22.7578 3.55748 22.7156 4.42466 23.175C5.35279 23.6625 6.29498 23.8359 7.04497 23.6625C7.58873 23.5406 8.03404 23.2125 8.25904 22.7156C8.84497 22.711 9.49185 22.4625 10.5231 22.4063C11.2215 22.35 12.0981 22.6547 13.1059 22.5984C13.134 22.7063 13.1715 22.8141 13.2231 22.9125V22.9172C13.6122 23.7 14.3387 24.0563 15.1122 23.9953C15.8903 23.9344 16.7106 23.4797 17.3762 22.6875C18.0137 21.9188 19.0637 21.6 19.7622 21.1781C20.109 20.9672 20.3903 20.7047 20.4137 20.3203C20.4325 19.936 20.2075 19.5094 19.6872 18.9281ZM10.4856 4.0922C10.945 3.05158 12.0887 3.07033 12.5481 4.07345C12.8528 4.73908 12.7168 5.52189 12.3465 5.9672C12.2715 5.9297 12.07 5.84533 11.7559 5.73751C11.8075 5.68126 11.9012 5.61095 11.9387 5.52189C12.1637 4.96876 11.9293 4.25626 11.5122 4.2422C11.17 4.21876 10.8606 4.74845 10.959 5.32033C10.7668 5.22658 10.5184 5.15626 10.3497 5.11408C10.3028 4.79064 10.3356 4.4297 10.4856 4.0922ZM8.57779 3.55314C9.05122 3.55314 9.55279 4.21876 9.4731 5.12345C9.30904 5.17033 9.14029 5.24064 8.99497 5.33908C9.05122 4.92189 8.84029 4.39689 8.54497 4.42033C8.15123 4.45314 8.0856 5.41408 8.4606 5.73751C8.50747 5.77501 8.54966 5.72814 8.18404 5.99533C7.45279 5.31095 7.69185 3.55314 8.57779 3.55314ZM7.94029 6.39845C8.23091 6.18283 8.57779 5.9297 8.60122 5.90626C8.82154 5.70001 9.23404 5.24064 9.90904 5.24064C10.2418 5.24064 10.6403 5.34845 11.1231 5.65783C11.4184 5.85001 11.6528 5.86408 12.1825 6.09376C12.5762 6.25783 12.8247 6.54845 12.6747 6.94689C12.5528 7.2797 12.159 7.62189 11.6106 7.79533C11.0903 7.96408 10.6825 8.54533 9.81997 8.49376C9.63716 8.48439 9.49185 8.44689 9.36997 8.39533C8.99497 8.23126 8.7981 7.90783 8.43247 7.6922C8.02935 7.4672 7.81372 7.2047 7.74341 6.97501C7.67779 6.74533 7.74341 6.55314 7.94029 6.39845ZM8.09497 22.0547C7.96841 23.7 6.03716 23.6672 4.56529 22.8985C3.16373 22.1578 1.34966 22.5938 0.97935 21.8719C0.86685 21.6516 0.86685 21.2766 1.10123 20.6344V20.625C1.21373 20.2688 1.12935 19.875 1.0731 19.5047C1.01685 19.1391 0.988725 18.8016 1.11529 18.5672C1.27935 18.2531 1.51373 18.1406 1.80904 18.0375C2.29185 17.8641 2.36216 17.8781 2.72779 17.5735C2.9856 17.3063 3.1731 16.9688 3.3981 16.7297C3.63716 16.4719 3.86685 16.35 4.22779 16.4063C4.60747 16.4625 4.9356 16.725 5.25435 17.1563L6.1731 18.825C6.61841 19.7578 8.19341 21.0938 8.09497 22.0547ZM8.02935 20.8406C7.83716 20.5313 7.57935 20.2031 7.35435 19.9219C7.68716 19.9219 8.01998 19.8188 8.13716 19.5047C8.24498 19.2141 8.13716 18.8063 7.79029 18.3375C7.15747 17.4844 5.99498 16.8141 5.99498 16.8141C5.36216 16.4203 5.00591 15.9375 4.84185 15.4125C4.67779 14.8875 4.70123 14.3203 4.82779 13.7625C5.07154 12.6891 5.69966 11.6438 6.10279 10.9875C6.2106 10.9078 6.14029 11.1375 5.69497 11.9625C5.29654 12.7172 4.55123 14.461 5.5731 15.825C5.60122 14.8547 5.83091 13.8656 6.21997 12.9422C6.78247 11.6578 7.96841 9.43126 8.06216 7.65939C8.11372 7.69689 8.27779 7.80939 8.35279 7.85158C8.56841 7.97814 8.73248 8.16564 8.94341 8.33439C9.52466 8.80314 10.2793 8.76564 10.9309 8.39064C11.2215 8.22658 11.4559 8.03908 11.6762 7.96876C12.1403 7.82345 12.5106 7.56564 12.7215 7.26564C13.0825 8.69064 13.9262 10.7485 14.4653 11.7516C14.7512 12.286 15.3231 13.4156 15.5715 14.7797C15.7262 14.775 15.8997 14.7985 16.0825 14.8453C16.7293 13.1719 15.534 11.3672 14.9903 10.8656C14.77 10.65 14.7606 10.5563 14.8684 10.561C15.459 11.086 16.2372 12.1406 16.5184 13.3266C16.6497 13.8703 16.6731 14.4375 16.5372 15C17.3059 15.3188 18.22 15.8391 17.9762 16.6313C17.8731 16.6266 17.8262 16.6313 17.7793 16.6313C17.9293 16.1578 17.5965 15.8063 16.7106 15.4078C15.7918 15.0047 15.0231 15.0047 14.9153 15.9938C14.3481 16.1906 14.0575 16.6828 13.9122 17.2735C13.7809 17.7985 13.7434 18.4313 13.7059 19.1438C13.6825 19.5047 13.5372 19.9875 13.3872 20.5031C11.8825 21.5766 9.79185 22.0453 8.02935 20.8406ZM20.095 20.3016C20.0528 21.0891 18.1637 21.2344 17.1325 22.4813C16.5137 23.2172 15.7543 23.625 15.0887 23.6766C14.4231 23.7281 13.8465 23.4516 13.509 22.7719C13.2887 22.2516 13.3965 21.6891 13.5606 21.0703C13.734 20.4047 13.9918 19.7203 14.0247 19.1672C14.0622 18.4547 14.1043 17.8313 14.2215 17.3531C14.3434 16.8703 14.5309 16.5469 14.8637 16.3641C14.8778 16.3547 14.8965 16.35 14.9106 16.3406C14.9481 16.9594 15.2528 17.5875 15.7918 17.7234C16.3825 17.8781 17.2309 17.3719 17.5918 16.9594C18.0137 16.9453 18.3278 16.9172 18.6512 17.1985C19.1153 17.5969 18.984 18.6188 19.4528 19.1485C19.9497 19.6922 20.109 20.0625 20.095 20.3016ZM8.1231 6.97033C8.21685 7.05939 8.34341 7.18126 8.4981 7.30314C8.80748 7.54689 9.23872 7.80001 9.77779 7.80001C10.3215 7.80001 10.8325 7.52345 11.2684 7.29376C11.4981 7.17189 11.7793 6.96564 11.9622 6.80626C12.145 6.64689 12.2387 6.51095 12.1075 6.49689C11.9762 6.48283 11.9856 6.61876 11.8262 6.73595C11.62 6.88595 11.3715 7.08283 11.1747 7.19533C10.8278 7.3922 10.2606 7.67345 9.7731 7.67345C9.2856 7.67345 8.89654 7.44845 8.60591 7.21876C8.4606 7.10158 8.33872 6.98439 8.24497 6.89533C8.17466 6.8297 8.15591 6.6797 8.04341 6.66564C7.97779 6.66095 7.95904 6.83908 8.1231 6.97033Z" fill="#222226"/>
</g>
<defs>
<clipPath id="clip0">
<rect width="21" height="24" fill="white"/>
</clipPath>
</defs>
</svg>
