<?xml version="1.0" encoding="UTF-8"?>
<svg width="34px" height="32px" viewBox="0 0 34 32" version="1.1" xmlns="http://www.w3.org/2000/svg" xmlns:xlink="http://www.w3.org/1999/xlink">
    <!-- Generator: sketchtool 42 (36781) - http://www.bohemiancoding.com/sketch -->
    <title>68BA7375-8C7B-413C-9751-E79AA3AE8C2A</title>
    <desc>Created with sketchtool.</desc>
    <defs></defs>
    <g id="Page-1" stroke="none" stroke-width="1" fill="none" fill-rule="evenodd">
        <g id="_Assets" transform="translate(-815.000000, -1246.000000)">
            <g id="icon-dislike" transform="translate(815.000000, 1246.000000)">
                <path d="M14.5404053,31.9519905 L27.1428571,31.9519905 C27.1428571,31.9519905 30.2857143,31.9519905 30.2857143,28.1331131 C30.2857143,27.749598 30.0787746,27.5339262 30,27.369471 C31.2428884,26.7676758 32.2857143,25.5738777 32.2857143,24.3853654 C32.2857143,23.9255623 32.2650828,23.5106476 32,23.2322122 C33.0886735,22.5024234 33.7142857,21.4377387 33.7142857,20.3493293 C33.7142857,19.3325666 33.3341669,18.4775925 32.5714286,17.7547347 C33.1441075,17.283855 33.4054392,16.5740652 33.4285714,15.7367167 C33.4133583,14.9609065 33.056997,14.1301298 32.2857143,13.4304104 C31.7582397,12.9519905 30.2857143,12.9519905 30.2857143,12.9519905 L21.4285714,12.9519905 C21.4285714,12.9519905 22.0177139,8.52440336 22,8.24122123 C22.1285818,3.20904549 18.8875717,0.867920772 16.387207,2.5298714 C15.9183175,3.09311818 16.0858195,7.73415605 16.0858195,7.73415605 C16.0944756,8.04425354 15.9831663,8.52694341 15.844926,8.79717752 L13,14.3584792 L13,30.5119271 C13,31.7279915 14.5404053,31.9519905 14.5404053,31.9519905 Z" id="Combined-Shape" fill="#334D66" transform="translate(23.357143, 16.975995) scale(1, -1) translate(-23.357143, -16.975995) "></path>
                <rect id="Rectangle" fill="#96A7BB" transform="translate(5.500000, 10.500000) scale(1, -1) translate(-5.500000, -10.500000) " x="0" y="0" width="11" height="21" rx="1.33333333"></rect>
            </g>
        </g>
    </g>
</svg>