<svg width="21" height="24" viewBox="0 0 21 24" fill="none" xmlns="http://www.w3.org/2000/svg">
<path d="M4.2 9.58584V15.014C4.2 15.7358 3.63281 16.3124 2.91094 16.3124C2.19375 16.3124 1.5 15.7312 1.5 15.014V9.58584C1.5 8.87803 2.19375 8.29677 2.91094 8.29677C3.61875 8.29677 4.2 8.87803 4.2 9.58584ZM4.70625 16.9452C4.70625 17.714 5.325 18.3327 6.09375 18.3327H7.02656L7.04062 21.1968C7.04062 22.9265 9.62812 22.9124 9.62812 21.1968V18.3327H11.3719V21.1968C11.3719 22.9171 13.9734 22.9218 13.9734 21.1968V18.3327H14.9203C15.6797 18.3327 16.2984 17.714 16.2984 16.9452V8.53584H4.70625V16.9452ZM16.3312 8.08115H4.65469C4.65469 6.0749 5.85469 4.33115 7.63594 3.42178L6.74063 1.76709C6.60938 1.5374 6.94219 1.39209 7.05469 1.58896L7.96406 3.25771C9.6 2.53115 11.4797 2.56865 13.0406 3.25771L13.9453 1.59365C14.0625 1.39209 14.3906 1.54209 14.2594 1.77178L13.3641 3.42178C15.1313 4.33115 16.3312 6.0749 16.3312 8.08115ZM8.32969 5.47959C8.32969 5.2124 8.11406 4.9874 7.8375 4.9874C7.57031 4.9874 7.35938 5.2124 7.35938 5.47959C7.35938 5.74678 7.575 5.97178 7.8375 5.97178C8.11406 5.97178 8.32969 5.74678 8.32969 5.47959ZM13.6453 5.47959C13.6453 5.2124 13.4297 4.9874 13.1672 4.9874C12.8906 4.9874 12.675 5.2124 12.675 5.47959C12.675 5.74678 12.8906 5.97178 13.1672 5.97178C13.4297 5.97178 13.6453 5.74678 13.6453 5.47959ZM18.0891 8.29677C17.3812 8.29677 16.8 8.86396 16.8 9.58584V15.014C16.8 15.7358 17.3812 16.3124 18.0891 16.3124C18.8109 16.3124 19.5 15.7312 19.5 15.014V9.58584C19.5 8.86396 18.8062 8.29677 18.0891 8.29677Z" fill="#222226"/>
</svg>
