<?xml version="1.0" encoding="UTF-8"?>
<svg width="34px" height="32px" viewBox="0 0 34 32" version="1.1" xmlns="http://www.w3.org/2000/svg" xmlns:xlink="http://www.w3.org/1999/xlink">
    <!-- Generator: sketchtool 42 (36781) - http://www.bohemiancoding.com/sketch -->
    <title>CE5382D5-E3B6-495B-9AEE-0AF3F03837A9</title>
    <desc>Created with sketchtool.</desc>
    <defs></defs>
    <g id="Page-1" stroke="none" stroke-width="1" fill="none" fill-rule="evenodd">
        <g id="_Assets" transform="translate(-720.000000, -1246.000000)">
            <g id="icon-like" transform="translate(720.000000, 1246.000000)">
                <path d="M14.5404053,30 L27.1428571,30 C27.1428571,30 30.2857143,30 30.2857143,26.1811226 C30.2857143,25.7976074 30.0787746,25.5819357 30,25.4174805 C31.2428884,24.8156853 32.2857143,23.6218872 32.2857143,22.4333748 C32.2857143,21.9735718 32.2650828,21.558657 32,21.2802217 C33.0886735,20.5504328 33.7142857,19.4857481 33.7142857,18.3973388 C33.7142857,17.380576 33.3341669,16.5256019 32.5714286,15.8027442 C33.1441075,15.3318645 33.4054392,14.6220747 33.4285714,13.7847262 C33.4133583,13.008916 33.056997,12.1781393 32.2857143,11.4784199 C31.7582397,11 30.2857143,11 30.2857143,11 L21.4285714,11 C21.4285714,11 22.0177139,6.57241283 22,6.28923069 C22.1285818,1.25705495 18.8875717,-1.08406977 16.387207,0.577880859 C15.9183175,1.14112764 16.0858195,5.78216551 16.0858195,5.78216551 C16.0944756,6.092263 15.9831663,6.57495287 15.844926,6.84518699 L13,12.4064886 L13,28.5599365 C13,29.776001 14.5404053,30 14.5404053,30 Z" id="Combined-Shape" fill="#398FE6"></path>
                <rect id="Rectangle" fill="#B0D2F5" x="0" y="11" width="11" height="21" rx="1.33333333"></rect>
            </g>
        </g>
    </g>
</svg>