<?xml version="1.0" encoding="UTF-8" standalone="no"?>
<svg
   xmlns:dc="http://purl.org/dc/elements/1.1/"
   xmlns:cc="http://creativecommons.org/ns#"
   xmlns:rdf="http://www.w3.org/1999/02/22-rdf-syntax-ns#"
   xmlns:svg="http://www.w3.org/2000/svg"
   xmlns="http://www.w3.org/2000/svg"
   id="svg8"
   version="1.1"
   viewBox="0 0 495.96179 88.142677"
   width="160">
  <defs
     id="defs2" />
  <metadata
     id="metadata5">
    <rdf:RDF>
      <cc:Work
         rdf:about="">
        <dc:format>image/svg+xml</dc:format>
        <dc:type
           rdf:resource="http://purl.org/dc/dcmitype/StillImage" />
        <dc:title></dc:title>
      </cc:Work>
    </rdf:RDF>
  </metadata>
  <g
     transform="translate(158.77852,-78.303659)"
     id="layer1">
    <path
       class="a"
       d="M -52.232069,145.10301 -69.486867,92.188992 h 6.47065 l 13.132858,40.835788 13.46835,-40.835788 h 5.89545 l 13.42046,40.740538 13.18074,-40.740538 h 6.27883 l -17.20691,52.914018 h -4.79293 l -13.94751,-42.6085 -13.80384,42.6085 h -4.84082 z m 53.41144,0 v -41.02893 h 6.51854 v 41.02893 z m 21.62969,-17.87789 v 17.87789 h -6.4225 v -40.83579 h 28.18342 q 6.27856,0 9.82557,3.01969 3.54647,3.01969 3.54674,8.38782 a 11.052704,11.052704 0 0 1 -2.80406,7.54883 q -2.80379,3.18823 -7.30911,3.90631 l 11.35935,17.97367 h -6.94981 l -11.59907,-17.87789 h -17.83 z m 0,-5.99123 h 21.76013 q 3.30729,0 5.05671,-1.4379 1.74893,-1.43791 1.74938,-4.12195 0,-2.68367 -1.74938,-4.09786 -1.75027,-1.4133 -5.05671,-1.41399 h -21.76013 v 11.07175 z m 41.18769,23.86912 v -40.93104 h 38.391039 v 5.99123 H 70.418181 v 10.20894 h 20.99337 v 5.89545 h -20.99337 v 12.94104 H 104.1605 v 5.89544 H 63.994101 Z m 85.322839,-14.32983 v -7.76473 h -14.42693 v -6.087 h 20.99336 v 15.91283 q -3.83514,6.61432 -9.99331,10.13698 -6.1595,3.52293 -13.97159,3.52293 -11.88746,0 -19.62732,-7.83669 -7.74093,-7.83643 -7.74066,-19.86677 0,-12.07823 7.76474,-19.914923 7.76472,-7.836429 19.60324,-7.836429 7.33319,0 13.37257,3.211248 a 25.960652,25.960652 0 0 1 9.82557,9.154584 l -5.51207,3.93012 a 18.092737,18.092737 0 0 0 -7.18952,-7.429236 20.782756,20.782756 0 0 0 -10.49655,-2.684198 q -8.91487,0 -14.76243,6.111084 -5.84835,6.11081 -5.84755,15.45722 0,9.34641 5.84755,15.43341 5.84703,6.08753 14.76243,6.087 5.55942,0 9.89753,-2.39649 4.33732,-2.39619 7.50121,-7.14163 z m 13.73188,-26.50517 h 6.42249 v 26.21757 q 0,5.89544 2.77998,7.95628 2.77918,2.06132 11.02386,2.061 8.29152,0 11.07176,-2.061 2.77918,-2.06015 2.77997,-7.95628 v -26.21757 h 6.37461 v 27.89503 q 0,7.52527 -4.76911,10.88019 -4.76965,3.35412 -15.55327,3.35518 -10.73706,0 -15.43341,-3.30729 -4.69794,-3.30729 -4.69715,-10.92808 v -27.89503 z m 39.44937,40.835 20.80154,-40.93104 h 4.02617 l 20.99336,40.93104 h -6.85403 l -5.32024,-10.40077 h -21.61646 l -5.27235,10.40077 z m 14.81032,-15.81679 h 16.00861 l -7.95628,-15.67312 z m 38.13281,-2.0611 v 17.87789 h -6.4225 v -40.83579 h 28.18342 q 6.27856,0 9.82556,3.01969 3.54648,3.01969 3.54674,8.38782 a 11.052704,11.052704 0 0 1 -2.80405,7.54883 q -2.80379,3.18823 -7.30912,3.90631 l 11.35936,17.97367 h -6.94981 L 273.2745,127.22565 h -17.83001 z m 0,-5.99123 h 21.76012 q 3.30729,0 5.05672,-1.4379 1.74892,-1.43791 1.74937,-4.12195 0,-2.68367 -1.74937,-4.09786 -1.75027,-1.4133 -5.05672,-1.41399 h -21.76012 v 11.07175 z m 59.45187,-17.06165 q 10.01713,0 16.15228,5.72743 6.13463,5.72823 6.13516,14.88228 0,9.2509 -6.0153,14.78651 -6.01557,5.53561 -16.27214,5.53588 h -18.1655 v -40.93105 h 18.1655 z m 0.0959,5.89544 h -11.83878 v 29.14121 h 11.83878 q 7.28504,0 11.45513,-3.90631 4.16984,-3.90578 4.16984,-10.6164 0,-6.47065 -4.31377,-10.54471 -4.31377,-4.07326 -11.31147,-4.07405 z"
       id="path6"
       style="fill:#88171a;fill-opacity:1;stroke-width:0.26458332" />
    <path
       style="stroke-width:0.26458332"
       class="b"
       d="m -53.031109,158.90368 v 4.92495 h -1.67923 v -10.70186 h 9.88748 v 1.56644 h -8.20817 v 2.66911 h 5.30093 v 1.54139 h -5.30093 z m 6.7654,4.9239 5.43877,-10.70187 h 1.05265 l 5.48878,10.70187 h -1.79202 l -1.39102,-2.71939 h -5.65177 l -1.37848,2.71939 h -1.76694 z m 3.87218,-4.13544 h 4.18544 l -2.08023,-4.09787 z m 9.29878,2.77019 0.81454,-1.40354 a 9.3958833,9.3958833 0 0 0 2.40607,1.1529 8.2401833,8.2401833 0 0 0 2.49378,0.41354 4.1023646,4.1023646 0 0 0 2.30579,-0.58267 1.7416727,1.7416727 0 0 0 0.8772,-1.49759 1.4567694,1.4567694 0 0 0 -0.80201,-1.35962 q -0.80208,-0.44473 -2.53137,-0.49506 -2.91994,-0.0376 -4.01003,-0.6767 -1.09024,-0.6391 -1.09024,-2.11783 a 2.5889744,2.5889744 0 0 1 1.19671,-2.21808 q 1.19663,-0.83947 3.21443,-0.8396 a 9.2765562,9.2765562 0 0 1 2.67546,0.38846 10.002044,10.002044 0 0 1 2.5001,1.1529 l -0.8396,1.39099 a 8.4420604,8.4420604 0 0 0 -2.15543,-1.04632 7.2225958,7.2225958 0 0 0 -2.20554,-0.36976 3.8989,3.8989 0 0 0 -1.95492,0.42609 1.2656344,1.2656344 0 0 0 -0.73936,1.1153 1.0420085,1.0420085 0 0 0 0.74571,1.01504 q 0.7453,0.30076 2.5877,0.30076 2.55643,0 3.85974,0.86468 1.30321,0.86469 1.30329,2.56897 a 3.0450896,3.0450896 0 0 1 -1.32215,2.51884 q -1.32221,1.00245 -3.42742,1.00253 a 11.05535,11.05535 0 0 1 -3.08901,-0.44482 10.78521,10.78521 0 0 1 -2.81331,-1.25947 z m 16.67933,1.36525 v -9.21068 h -4.51141 v -1.49124 h 10.70187 v 1.49124 h -4.52385 v 9.21068 h -1.66669 z m 9.64671,2.18016 a 10.158412,10.158412 0 0 0 0.65164,-1.09024 7.1770875,7.1770875 0 0 0 0.45114,-1.09024 h -0.10025 a 0.7947025,0.7947025 0 0 1 -0.64543,-0.31962 1.2483042,1.2483042 0 0 1 -0.25683,-0.80822 1.2780433,1.2780433 0 0 1 0.30697,-0.88342 0.98893312,0.98893312 0 0 1 0.77076,-0.34467 1.0017654,1.0017654 0 0 1 0.85214,0.45733 2.0901025,2.0901025 0 0 1 0.32581,1.23441 3.0554083,3.0554083 0 0 1 -0.4762,1.51011 9.1667542,9.1667542 0 0 1 -1.41605,1.77316 z m 16.83014,-2.18016 v -10.70187 h 1.391 l 4.386,6.26586 4.38599,-6.26586 h 1.391 v 10.70187 h -1.66669 v -7.69435 l -4.1103,5.95259 -4.09787,-5.95259 v 7.69435 h -1.67921 z m 21.35188,0.33866 q -2.85724,0 -4.69927,-1.61658 a 5.3948542,5.3948542 0 0 1 -0.006,-8.11424 q 1.83573,-1.59758 4.70562,-1.59771 2.8948,0 4.73075,1.59149 a 5.4086125,5.4086125 0 0 1 -0.006,8.12668 q -1.84213,1.61057 -4.7244,1.61036 z m 0,-1.56644 q 2.14289,0 3.4962,-1.15911 a 3.8817021,3.8817021 0 0 0 -0.006,-5.89624 q -1.3598,-1.16544 -3.48985,-1.16544 -2.13048,0 -3.47769,1.15912 a 3.9063083,3.9063083 0 0 0 0,5.90259 q 1.34702,1.15924 3.47769,1.15911 z m 14.5759,-9.47462 q 2.61903,0 4.22301,1.49759 1.60398,1.4976 1.60404,3.89097 0,2.41866 -1.57263,3.86582 -1.57298,1.44759 -4.2545,1.44746 h -4.74954 v -10.70187 h 4.74954 z m 0.025,1.54138 h -3.09536 v 7.61921 h 3.09536 q 1.90474,0 2.99508,-1.02127 1.09025,-1.02126 1.09025,-2.77574 a 3.6210875,3.6210875 0 0 0 -1.12784,-2.75696 q -1.12782,-1.06505 -2.95752,-1.06518 z m 8.95755,9.16102 v -10.70187 h 10.03776 v 1.56644 h -8.35845 v 2.66911 h 5.48878 v 1.54139 h -5.48878 v 3.38349 h 8.82227 v 1.54138 h -10.50132 z m 15.09977,-4.67519 v 4.67413 h -1.6792 v -10.677 h 7.36864 q 1.64158,0 2.56897,0.78949 a 2.7254729,2.7254729 0 0 1 0.92734,2.19303 2.8908375,2.8908375 0 0 1 -0.73303,1.97379 3.1104417,3.1104417 0 0 1 -1.91111,1.02126 l 2.96995,4.69927 h -1.81708 l -3.03265,-4.67413 h -4.6617 z m 0,-1.56644 h 5.68934 a 2.0353602,2.0353602 0 0 0 1.32201,-0.37595 1.315429,1.315429 0 0 0 0.45747,-1.0777 1.2977283,1.2977283 0 0 0 -0.45747,-1.07151 2.0611306,2.0611306 0 0 0 -1.32201,-0.36962 h -5.68934 v 2.8948 z m 12.74498,6.24163 v -10.70187 h 0.8772 l 6.80455,7.51893 v -7.51893 h 1.64164 v 10.70187 h -0.8772 l -6.79212,-7.4938 v 7.4938 h -1.65418 z m 14.78756,2.18016 a 10.158412,10.158412 0 0 0 0.65164,-1.09024 7.1770875,7.1770875 0 0 0 0.45115,-1.09024 h -0.10026 a 0.7947025,0.7947025 0 0 1 -0.64542,-0.31962 1.2483042,1.2483042 0 0 1 -0.25683,-0.80822 1.2780433,1.2780433 0 0 1 0.30697,-0.88342 0.98893312,0.98893312 0 0 1 0.77075,-0.3447 1.0017654,1.0017654 0 0 1 0.85215,0.45733 2.0901025,2.0901025 0 0 1 0.3258,1.23442 3.0554083,3.0554083 0 0 1 -0.47619,1.51011 9.1667542,9.1667542 0 0 1 -1.41605,1.77316 z m 15.917349,-3.54541 0.81454,-1.40354 a 9.3958833,9.3958833 0 0 0 2.40607,1.1529 8.2401833,8.2401833 0 0 0 2.49378,0.41354 4.1023646,4.1023646 0 0 0 2.30579,-0.58267 1.7416727,1.7416727 0 0 0 0.8772,-1.49759 1.4567694,1.4567694 0 0 0 -0.80201,-1.35962 q -0.80208,-0.44473 -2.53137,-0.49506 -2.91994,-0.0376 -4.01003,-0.6767 -1.09024,-0.6391 -1.09024,-2.11783 a 2.5889744,2.5889744 0 0 1 1.19671,-2.21808 q 1.19663,-0.83947 3.21442,-0.8396 a 9.2765562,9.2765562 0 0 1 2.67547,0.38849 10.002044,10.002044 0 0 1 2.5001,1.15289 l -0.8396,1.391 a 8.4420604,8.4420604 0 0 0 -2.15543,-1.04632 7.2225958,7.2225958 0 0 0 -2.20554,-0.36976 3.8989,3.8989 0 0 0 -1.95493,0.42609 1.2656344,1.2656344 0 0 0 -0.73935,1.11529 1.0420085,1.0420085 0 0 0 0.7457,1.01505 q 0.74531,0.30075 2.58771,0.30075 2.55643,0 3.85974,0.86469 1.30321,0.86468 1.30328,2.56897 a 3.0450896,3.0450896 0 0 1 -1.32214,2.51883 q -1.32221,1.00246 -3.42742,1.00254 a 11.05535,11.05535 0 0 1 -3.08901,-0.44482 10.78521,10.78521 0 0 1 -2.81331,-1.25947 z m 14.12875,1.36525 v -10.70187 h 10.03776 v 1.56644 h -8.35845 v 2.66911 h 5.48878 v 1.54139 h -5.48878 v 3.38349 h 8.82226 v 1.54138 h -10.50126 z m 24.73854,-2.61938 a 6.0711292,6.0711292 0 0 1 -2.39972,2.19922 7.3236667,7.3236667 0 0 1 -3.37741,0.75821 q -2.81966,0 -4.64291,-1.59771 a 5.4321604,5.4321604 0 0 1 0,-8.12033 q 1.82314,-1.61017 4.64291,-1.61036 a 7.5184,7.5184 0 0 1 3.18294,0.65797 5.7917292,5.7917292 0 0 1 2.30579,1.86087 l -1.32834,0.92733 a 4.3476333,4.3476333 0 0 0 -1.74821,-1.40972 5.7411937,5.7411937 0 0 0 -2.41226,-0.49506 4.99745,4.99745 0 0 0 -3.40227,1.17176 3.8727062,3.8727062 0 0 0 0.006,5.87719 5.0022125,5.0022125 0 0 0 3.39592,1.17176 5.4064958,5.4064958 0 0 0 2.51884,-0.56394 5.3467,5.3467 0 0 0 1.91733,-1.75442 z m 3.33375,-8.05656 h 1.67923 v 6.85482 q 0,1.54139 0.72684,2.08024 0.7267,0.53893 2.88237,0.53885 2.16789,0 2.8948,-0.53885 0.72671,-0.53872 0.72684,-2.08024 v -6.85482 h 1.66669 v 7.29324 q 0,1.96752 -1.24682,2.84453 -1.24722,0.87707 -4.06665,0.8772 -2.80723,0 -4.03516,-0.86468 -1.22822,-0.86469 -1.22809,-2.85724 v -7.29324 z m 16.45708,6.00075 v 4.67413 h -1.67923 v -10.677 h 7.36865 q 1.64155,0 2.56897,0.78949 a 2.7254729,2.7254729 0 0 1 0.92734,2.19303 2.8908375,2.8908375 0 0 1 -0.73303,1.97379 3.1104417,3.1104417 0 0 1 -1.91111,1.02126 l 2.96994,4.69927 h -1.81708 l -3.03265,-4.67413 h -4.66169 z m 0,-1.56644 h 5.68934 a 2.0353602,2.0353602 0 0 0 1.32201,-0.37595 1.315429,1.315429 0 0 0 0.45747,-1.0777 1.2977283,1.2977283 0 0 0 -0.45747,-1.07151 2.0611306,2.0611306 0 0 0 -1.32201,-0.36962 h -5.68934 v 2.8948 z m 12.72646,6.24163 v -10.70187 h 10.03776 v 1.56644 h -8.35845 v 2.66911 h 5.48878 v 1.54139 h -5.48878 v 3.38349 h 8.82227 v 1.54138 h -10.50132 z m 27.11979,0 h -0.86468 l -5.37602,-10.70187 h 1.77948 l 4.02272,8.00761 3.96002,-8.00761 h 1.84214 z m 9.68375,-4.67519 v 4.67413 h -1.67923 v -10.70187 h 7.78219 q 1.65417,0 2.57529,0.78317 a 2.7305,2.7305 0 0 1 0.92102,2.19935 2.8625271,2.8625271 0 0 1 -0.9148,2.19302 3.3879896,3.3879896 0 0 1 -2.40607,0.85214 h -6.27829 z m 0,-1.56644 h 6.10288 a 2.0133998,2.0133998 0 0 0 1.30948,-0.37595 1.5053469,1.5053469 0 0 0 0.0188,-2.14288 1.8711598,1.8711598 0 0 0 -1.25315,-0.37595 h -6.17802 v 2.8948 z m 12.48833,6.24163 v -10.70187 h 0.8772 l 6.80456,7.51893 v -7.51893 h 1.64163 v 10.70187 h -0.8772 l -6.79212,-7.4938 v 7.4938 h -1.65417 z m 25.0825,0 v -9.21068 h -4.51141 v -1.49124 h 10.70187 v 1.49124 h -4.52385 v 9.21068 h -1.66669 z m 8.3873,-10.67594 h 1.67923 v 6.85482 q 0,1.54139 0.72683,2.08024 0.72671,0.53893 2.88237,0.53885 2.16789,0 2.89481,-0.53885 0.72671,-0.53872 0.72684,-2.08024 v -6.85482 h 1.66669 v 7.29324 q 0,1.96752 -1.24683,2.84453 -1.24721,0.87707 -4.06664,0.8772 -2.80723,0 -4.03516,-0.86468 -1.22822,-0.86469 -1.22809,-2.85724 v -7.29324 z m 14.7902,10.67594 v -10.70187 h 0.8772 l 6.80456,7.51893 v -7.51893 h 1.64163 v 10.70187 h -0.8772 l -6.79212,-7.4938 v 7.4938 h -1.65417 z m 13.52021,0 v -10.70187 h 0.8772 l 6.80456,7.51893 v -7.51893 h 1.64163 v 10.70187 h -0.8772 l -6.79212,-7.4938 v 7.4938 h -1.65417 z m 13.49375,0 v -10.70187 h 10.03776 v 1.56644 h -8.35845 v 2.66911 h 5.48878 v 1.54139 h -5.48878 v 3.38349 h 8.82227 v 1.54138 H 309.4721 Z m 13.41438,0 v -10.70187 h 1.67923 v 9.16067 h 7.94491 v 1.54138 h -9.62422 z"
       id="path8" />
    <path
       class="a"
       d="m -79.470919,116.81641 c 0,0 1.836103,-38.512751 -40.491831,-38.512751 -37.43325,0 -38.60271,36.943771 -38.60271,36.943771 0,0 -5.50624,42.43123 39.46525,42.43123 43.132374,0 39.629291,-40.86225 39.629291,-40.86225 z m -52.334581,-13.4575 c 7.942,-4.858811 18.0885,-1.88916 21.8903,5.4176 0.72054,1.38478 0.81211,3.51658 0.35578,4.96941 -1.57548,5.01544 -5.29537,7.82823 -10.4013,9.02308 1.50527,-1.2887 2.70352,-2.75007 3.08478,-4.76911 a 6.9855292,6.9855292 0 0 0 -1.20187,-5.54461 7.08025,7.08025 0 0 0 -8.15208,-2.48422 c -3.14351,1.19356 -4.86542,4.06241 -4.55506,7.58904 0.28834,3.27581 2.77389,5.39882 7.42447,6.20527 -0.69506,0.36788 -1.23039,0.63881 -1.75416,0.93059 a 16.911637,16.911637 0 0 0 -5.4356,4.72758 c -0.47199,0.63722 -0.7965,0.68855 -1.51527,0.24901 -9.34984,-5.71764 -9.95071,-20.06705 0.25989,-26.3136 z m -6.99797,35.32981 c -1.50201,0.38126 -2.95751,0.94567 -4.49289,1.44925 0.75102,-5.06703 6.6847,-9.73349 11.70252,-9.20115 a 12.933098,12.933098 0 0 0 -2.44528,6.85086 c -1.6674,0.30708 -3.23876,0.51366 -4.76435,0.90091 z m 31.95902,-49.471792 c 1.48429,0.05454 2.97127,0.03199 4.45665,0.06715 a 7.686675,7.686675 0 0 1 1.10262,0.153641 10.743935,10.743935 0 0 1 -1.1207,1.437534 c -0.53101,0.494797 -1.13096,0.978588 -1.89603,0.226483 -0.18401,-0.180901 -0.61875,-0.13938 -0.93892,-0.143595 -1.47699,-0.01941 -2.95593,-0.06661 -4.43072,-0.01093 a 27.52725,27.52725 0 0 0 -3.81661,0.389731 c -0.23645,0.04246 -0.58999,0.828543 -0.4813,1.118394 0.25646,0.684027 0.63058,1.438354 1.18477,1.875843 2.04796,1.616604 4.22593,3.068108 6.28333,4.6736 1.99919,1.560141 3.86,3.269721 4.99401,5.623191 1.47751,3.06652 1.52056,6.282 0.88339,9.51177 -1.0637,5.39168 -3.79227,9.85864 -8.21055,13.10322 -1.78033,1.30731 -3.98463,2.04923 -6.02377,2.98847 -1.79334,0.82616 -3.63934,1.53763 -5.43692,2.35501 -3.24088,1.47359 -5.06227,4.99136 -4.52649,8.6487 0.49172,3.35624 3.43614,6.15711 6.80905,6.73523 4.04601,0.69363 8.22087,-1.93577 9.21067,-6.04838 1.11303,-4.62438 -1.39959,-8.75321 -6.10261,-10.00469 -0.20709,-0.0551 -0.41497,-0.10729 -0.84699,-0.21878 1.25807,-0.56211 2.34458,-0.96258 3.34778,-1.51458 q 2.62501,-1.44447 5.15435,-3.05911 c 0.49588,-0.31724 0.76379,-0.3174 1.1867,0.0482 3.23454,2.79664 5.16414,6.27539 5.70522,10.54073 0.895478,7.06014 -2.44663,13.54614 -8.7503,16.87037 -9.75255,5.14323 -21.68658,-0.71078 -23.84055,-11.52314 -1.84515,-9.26121 4.69106,-17.66199 12.55765,-19.28389 3.38323,-0.69755 6.477,-2.10598 8.88207,-4.71143 1.55183,-1.68119 2.30409,-3.12368 2.56042,-3.77455 a 10.46824,10.46824 0 0 0 0.71996,-3.82826 8.9606437,8.9606437 0 0 0 -0.7846,-3.2803 c -0.82126,-1.87193 -3.96742,-4.84982 -4.74636,-5.47794 l -7.40833,-5.799931 c -0.2613,-0.21499 -0.55547,-0.199406 -1.19271,-0.156224 -0.757,0.05131 -2.69214,0.158454 -3.52717,-0.06036 0.67549,-0.511202 2.51704,-1.255475 3.30783,-1.853936 -2.40067,-1.621816 -5.14086,-1.036055 -7.65731,-1.520322 0.58187,-1.083707 3.46101,-2.749021 5.09852,-2.934494 a 24.218106,24.218106 0 0 0 -0.44651,-2.720185 c -0.1,-0.368221 -0.51096,-0.72517 -0.86953,-0.935435 -0.86942,-0.509772 -1.79107,-0.93046 -2.79109,-1.437402 a 5.8039,5.8039 0 0 1 2.99826,-0.927496 11.196108,11.196108 0 0 1 3.00249,0.292523 c 1.78388,0.40759 3.20781,0.141528 4.62704,-1.071033 -1.11707,-0.449845 -2.23401,-0.860822 -3.31735,-1.346915 a 32.554333,32.554333 0 0 1 -3.11653,-1.629383 c 2.81041,0.390392 5.52874,1.444228 8.40238,1.059233 q 0.0367,-0.195919 0.0734,-0.391822 c -2.14826,-0.500036 -4.29657,-1.000072 -6.67517,-1.553739 3.97933,-0.364305 7.68403,-0.424392 11.19214,1.284314 0.98716,0.480827 2.02004,0.878813 2.96624,1.428009 0.46151,0.267864 0.77221,0.795814 1.15083,1.206341 0.30073,0.326099 0.54227,0.762979 0.91176,0.959485 1.40229,0.745702 2.94587,0.774991 4.51855,0.737632 0.0117,-0.179107 0.0228,-0.346974 0.0346,-0.527394 1.58276,0.494586 3.364178,2.31984 3.361267,3.652838 -2.564107,0 -5.126037,-0.0098 -7.687737,0.01426 -0.27379,0.0026 -0.54573,0.202572 -0.81851,0.310991 0.25925,0.15099 0.51403,0.423174 0.77848,0.432911 z"
       id="path10"
       style="fill:#88171a;fill-opacity:1;stroke-width:0.26458332" />
    <path
       style="stroke-width:0.26458332"
       class="a"
       d="m -110.152,85.422538 a 0.39174208,0.39174208 0 0 0 -0.0501,0.626692 0.59070875,0.59070875 0 0 0 0.8129,0.217461 c 0.24681,-0.124492 0.4889,-0.257008 0.78714,-0.41447 -0.24021,-0.205052 -0.43291,-0.374332 -0.63122,-0.537739 -0.34872,-0.287338 -0.63791,-0.106855 -0.91873,0.108037 z"
       id="path12" />
  </g>
</svg>
