<?xml version="1.0" encoding="UTF-8"?>
<svg width="72px" height="48px" viewBox="0 0 72 48" version="1.1" xmlns="http://www.w3.org/2000/svg" xmlns:xlink="http://www.w3.org/1999/xlink">
    <!-- Generator: sketchtool 42 (36781) - http://www.bohemiancoding.com/sketch -->
    <title>EC176A32-ABE3-489B-8C06-A0F4DF6444B1</title>
    <desc>Created with sketchtool.</desc>
    <defs></defs>
    <g id="Designs" stroke="none" stroke-width="1" fill="none" fill-rule="evenodd">
        <g id="_Assets" transform="translate(-464.000000, -1586.000000)">
            <g id="logo-eff" transform="translate(464.000000, 1586.000000)">
                <g id="-g-eff" transform="translate(0.160156, 0.000000)">
                    <path d="M23.0748618,23.9748736 C23.0748618,10.741083 33.7696039,0.018368231 46.9604019,0.018368231 C60.1522365,0.018368231 70.8447328,10.741083 70.8447328,23.9748736 C70.8447328,37.2086643 60.1522365,47.9308592 46.9604019,47.9308592 C33.7696039,47.9308592 23.0748618,37.2086643 23.0748618,23.9748736" id="Fill-3" fill="#D9222A"></path>
                    <polygon id="Fill-5" fill="#FFFFFF" points="45.1906708 8.0055509 45.1906708 22.1996881 47.8428922 22.1996881 47.8428922 16.8734209 49.6151282 16.8734209 49.6151282 14.214013 47.8428922 14.214013 47.8428922 10.662013 50.4956319 10.662013 50.4956319 8.0055509"></polygon>
                    <polygon id="Fill-7" fill="#FFFFFF" points="45.1906708 25.7505444 45.1906708 39.9457213 47.8428922 39.9457213 47.8428922 34.6225733 49.6151282 34.6225733 49.6151282 31.9595264 47.8428922 31.9595264 47.8428922 28.4096058 50.4956319 28.4096058 50.4956319 25.7505444"></polygon>
                    <polygon id="Fill-9" fill="#0B0D03" points="0.0749041363 8.0055509 39.8834467 8.0055509 39.8834467 13.3260996 14.2277436 13.3260996 14.2277436 20.4269805 38.9958603 20.4269805 38.9958603 25.7504751 14.2277436 25.7504751 14.2277436 34.6226773 39.8834467 34.6226773 39.8834467 39.945652 0.0749041363 39.945652"></polygon>
                </g>
            </g>
        </g>
    </g>
</svg>