<?xml version="1.0" encoding="UTF-8"?>
<svg width="112px" height="48px" viewBox="0 0 112 48" version="1.1" xmlns="http://www.w3.org/2000/svg" xmlns:xlink="http://www.w3.org/1999/xlink">
    <!-- Generator: sketchtool 42 (36781) - http://www.bohemiancoding.com/sketch -->
    <title>52345E7E-5F6C-48B3-9A51-D158D33B1FF9</title>
    <desc>Created with sketchtool.</desc>
    <defs></defs>
    <g id="Designs" stroke="none" stroke-width="1" fill="none" fill-rule="evenodd">
        <g id="_Assets" transform="translate(-584.000000, -1586.000000)" fill-rule="nonzero">
            <g id="logo-org" transform="translate(584.000000, 1586.000000)">
                <g id="-g-org" transform="translate(0.000000, 8.000000)">
                    <polygon id="Shape" fill="#0B0B09" points="58 40 0 40 0 0 58 0"></polygon>
                    <g id="Group-12" transform="translate(4.500000, 7.000000)">
                        <path d="M5.22148458,2.98103704 C6.41922994,2.98103704 6.90620607,4.39022222 6.90620607,7.26607407 C6.90620607,10.1238519 6.43819546,11.5517037 5.22148458,11.5517037 C4.00448193,11.5517037 3.51779758,10.1416296 3.51779758,7.26607407 C3.51779758,4.37125926 3.98580819,2.98103704 5.22148458,2.98103704 M10.2753573,7.3997037 C10.2753573,2.77125926 8.36684267,0.219555556 5.22148458,0.219555556 C2.13302304,0.219555556 0.148646386,2.81007407 0.148646386,7.26607407 C0.148646386,9.44444444 0.621617208,11.1703704 1.46018485,12.3751111 L1.44121933,14.616 L4.30530421,14.616 L4.30530421,25.0145185 L7.6373997,25.0145185 L7.6373997,13.6752593 C9.29556946,12.6539259 10.2753573,10.4740741 10.2753573,7.3997037" id="Shape" fill="#777776"></path>
                        <path d="M17.8107949,22.7045926 C16.5937923,22.7045926 16.1071079,21.2965926 16.1071079,18.4207407 C16.1071079,15.5256296 16.5751185,14.1351111 17.8107949,14.1351111 C19.0085403,14.1351111 19.4955164,15.5451852 19.4955164,18.4207407 C19.4955164,21.2773333 19.0275058,22.7045926 17.8107949,22.7045926 M19.4759673,11.6536296 L19.4759673,0.535407407 L13.3031291,0.535407407 L13.2800787,3.62074074 L16.1438719,3.62074074 L16.1438719,11.6648889 C14.0276119,12.4524444 12.7379567,14.829037 12.7379567,18.4207407 C12.7379567,22.8965926 14.7217498,25.4865185 17.8107949,25.4865185 C20.8989647,25.4865185 22.8643758,22.9155556 22.8643758,18.5534815 C22.8643758,14.8124444 21.6155695,12.4296296 19.4759673,11.6536296" id="Shape" fill="#D9272A"></path>
                        <path d="M30.0785668,2.98103704 C31.2766039,2.98103704 31.7629965,4.39022222 31.7629965,7.26607407 C31.7629965,10.1238519 31.2946941,11.5517037 30.0785668,11.5517037 C28.8612724,11.5517037 28.3742963,10.1416296 28.3742963,7.26607407 C28.3742963,4.37125926 28.8431822,2.98103704 30.0785668,2.98103704 M35.1324395,7.3997037 C35.1324395,2.77125926 33.2239249,0.219555556 30.0785668,0.219555556 C26.9898135,0.219555556 25.0060204,2.81007407 25.0060204,7.26607407 C25.0060204,9.44444444 25.4784077,11.1703704 26.3166835,12.3751111 L26.2985933,14.616 L29.1620947,14.616 L29.1620947,25.0145185 L32.4938984,25.0145185 L32.4938984,13.6752593 C34.1526517,12.6539259 35.1324395,10.4740741 35.1324395,7.3997037" id="Shape" fill="#777776"></path>
                        <path d="M42.6675854,22.7045926 C41.4508745,22.7045926 40.9638984,21.2965926 40.9638984,18.4207407 C40.9638984,15.5256296 41.431909,14.1351111 42.6675854,14.1351111 C43.8656225,14.1351111 44.3517233,15.5451852 44.3517233,18.4207407 C44.3517233,21.2773333 43.8842963,22.7045926 42.6675854,22.7045926 M44.3330496,11.6536296 L44.3330496,0.535407407 L38.1599196,0.535407407 L38.1362856,3.62074074 L41.0009541,3.62074074 L41.0009541,11.6648889 C38.8849859,12.4524444 37.595039,14.829037 37.595039,18.4207407 C37.595039,22.8965926 39.5785403,25.4865185 42.6675854,25.4865185 C45.7566305,25.4865185 47.7220416,22.9155556 47.7220416,18.5534815 C47.7220416,14.8124444 46.4726517,12.4296296 44.3330496,11.6536296" id="Shape" fill="#777776"></path>
                    </g>
                    <polygon id="Shape" fill="#D9272A" points="109 40 58 40 58 0 109 0"></polygon>
                    <g id="Group-13" transform="translate(62.000000, 6.000000)" fill="#FFFFFE">
                        <g id="OPEN" transform="translate(0.307506, 0.518519)">
                            <path d="M3.50015915,1.55022222 C3.31400531,1.34696296 3.02543767,1.21422222 2.67122016,1.21422222 C2.31671088,1.21422222 2.01880637,1.34696296 1.83236074,1.55022222 C1.58084881,1.81481481 1.51549072,2.10637037 1.51549072,3.31585185 C1.51549072,4.52474074 1.58084881,4.8157037 1.83236074,5.08088889 C2.01880637,5.28414815 2.31671088,5.4162963 2.67122016,5.4162963 C3.02543767,5.4162963 3.31400531,5.28414815 3.50015915,5.08088889 C3.75254642,4.8157037 3.82665782,4.52474074 3.82665782,3.31585185 C3.82665782,2.10637037 3.75254642,1.81481481 3.50015915,1.55022222 M4.46068966,5.82222222 C3.99442971,6.264 3.42575597,6.51081481 2.67122016,6.51081481 C1.91639257,6.51081481 1.33838196,6.264 0.87270557,5.82222222 C0.201618037,5.18696296 0.220291777,4.40118519 0.220291777,3.31585185 C0.220291777,2.22992593 0.201618037,1.44414815 0.87270557,0.808888889 C1.33838196,0.367703704 1.91639257,0.120296296 2.67122016,0.120296296 C3.42575597,0.120296296 3.99442971,0.367703704 4.46068966,0.808888889 C5.13119363,1.44414815 5.12214854,2.22992593 5.12214854,3.31585185 C5.12214854,4.40118519 5.13119363,5.18696296 4.46068966,5.82222222" id="Shape"></path>
                            <path d="M8.95201592,1.26785185 L7.74055703,1.26785185 L7.74055703,2.98933333 L8.95201592,2.98933333 C9.53907162,2.98933333 9.91225464,2.64474074 9.91225464,2.13274074 C9.91225464,1.62103704 9.53907162,1.26785185 8.95201592,1.26785185 M9.01708223,4.09244444 L7.74055703,4.09244444 L7.74055703,6.45837037 L6.44535809,6.45837037 L6.44535809,0.173925926 L9.01708223,0.173925926 C10.3869761,0.173925926 11.2074536,1.06459259 11.2074536,2.13274074 C11.2074536,3.20088889 10.3869761,4.09244444 9.01708223,4.09244444" id="Shape"></path>
                            <polygon id="Shape" points="12.2978249 6.45837037 12.2978249 0.173333333 16.6683554 0.173333333 16.6683554 1.26785185 13.5930239 1.26785185 13.5930239 2.74133333 16.2117241 2.74133333 16.2117241 3.83614815 13.5930239 3.83614815 13.5930239 5.36355556 16.6683554 5.36355556 16.6683554 6.45837037"></polygon>
                            <polygon id="Shape" points="21.8587798 6.45837037 19.2310345 2.6002963 19.2310345 6.45837037 17.9358355 6.45837037 17.9358355 0.173333333 19.0912732 0.173333333 21.7190186 4.02222222 21.7190186 0.173333333 23.013634 0.173333333 23.013634 6.45837037"></polygon>
                        </g>
                        <g id="RIGHTS" transform="translate(0.307506, 10.296296)">
                            <path d="M2.73628647,1.42251852 L1.51549072,1.42251852 L1.51549072,3.08177778 L2.73628647,3.08177778 C3.30496021,3.08177778 3.6772679,2.73777778 3.6772679,2.25185185 C3.6772679,1.76651852 3.30496021,1.42251852 2.73628647,1.42251852 L2.73628647,1.42251852 Z M3.74262599,6.61244444 L2.44742706,4.10548148 L1.51549072,4.10548148 L1.51549072,6.61244444 L0.220291777,6.61244444 L0.220291777,0.328 L2.8203183,0.328 C4.17153846,0.328 4.97275862,1.20148148 4.97275862,2.25185185 C4.97275862,3.13481481 4.40437666,3.68207407 3.76159151,3.90311111 L5.2429443,6.61244444 L3.74262599,6.61244444 Z" id="Shape"></path>
                            <polygon id="Shape" points="6.31464191 0.328 7.60984085 0.328 7.60984085 6.61244444 6.31464191 6.61244444"></polygon>
                            <path d="M13.2478515,5.95081481 C12.716817,6.47111111 12.0830769,6.66548148 11.3749337,6.66548148 C10.6481167,6.66548148 10.0517241,6.41807407 9.58575597,5.97718519 C8.91496021,5.34133333 8.9330504,4.55585185 8.9330504,3.46992593 C8.9330504,2.38459259 8.91496021,1.59851852 9.58575597,0.963555556 C10.0517241,0.521777778 10.629443,0.274962963 11.3749337,0.274962963 C12.9128912,0.274962963 13.6954377,1.22874074 13.8725464,2.28740741 L12.5674271,2.28740741 C12.4186207,1.6957037 12.0366844,1.36948148 11.3749337,1.36948148 C11.0207162,1.36948148 10.731565,1.50192593 10.5454111,1.70488889 C10.2938992,1.97007407 10.2285411,2.26162963 10.2285411,3.46992593 C10.2285411,4.6797037 10.2938992,4.97925926 10.5454111,5.24414815 C10.731565,5.44740741 11.0207162,5.57096296 11.3749337,5.57096296 C11.7662069,5.57096296 12.0830769,5.43822222 12.2972414,5.21777778 C12.5119894,4.98844444 12.5960212,4.70548148 12.5960212,4.37925926 L12.5960212,4.14103704 L11.3749337,4.14103704 L11.3749337,3.11733333 L13.8815915,3.11733333 L13.8815915,4.03555556 C13.8815915,4.94459259 13.7141114,5.49185185 13.2478515,5.95081481" id="Shape"></path>
                            <polygon id="Shape" points="18.7370557 6.61244444 18.7370557 3.98192593 16.4909549 3.98192593 16.4909549 6.61244444 15.195756 6.61244444 15.195756 0.328 16.4909549 0.328 16.4909549 2.896 18.7370557 2.896 18.7370557 0.328 20.0328382 0.328 20.0328382 6.61244444"></polygon>
                            <polygon id="Shape" points="24.113634 1.42251852 24.113634 6.61244444 22.8178515 6.61244444 22.8178515 1.42251852 21.0852785 1.42251852 21.0852785 0.328 25.847374 0.328 25.847374 1.42251852"></polygon>
                            <path d="M28.7272149,6.66548148 C27.7202918,6.66548148 26.9564191,6.46251852 26.3040053,5.83555556 L27.1425729,5.04148148 C27.5624403,5.43822222 28.1302387,5.57096296 28.745305,5.57096296 C29.5097613,5.57096296 29.9197082,5.29777778 29.9197082,4.79407407 C29.9197082,4.57362963 29.8543501,4.38844444 29.7145889,4.2642963 C29.5844562,4.14992593 29.4347745,4.0877037 29.1275332,4.04385185 L28.3260212,3.93837037 C27.7570557,3.85866667 27.3386472,3.69066667 27.0404509,3.41718519 C26.7229973,3.11733333 26.5651459,2.71081481 26.5651459,2.18162963 C26.5651459,1.06074074 27.4407692,0.274962963 28.8757294,0.274962963 C29.7895756,0.274962963 30.4510345,0.486814815 31.0197082,1.0077037 L30.1995225,1.7757037 C29.7793634,1.39585185 29.2769231,1.34311111 28.8389655,1.34311111 C28.1489125,1.34311111 27.8139523,1.70488889 27.8139523,2.13748148 C27.8139523,2.2962963 27.8696817,2.464 28.0091512,2.58785185 C28.1398674,2.70222222 28.3540318,2.79940741 28.6242175,2.83437037 L29.4073475,2.94074074 C30.0122016,3.02014815 30.3944297,3.17896296 30.6748276,3.42577778 C31.0287533,3.7442963 31.1871883,4.20266667 31.1871883,4.75881481 C31.1871883,5.97718519 30.1149072,6.66548148 28.7272149,6.66548148" id="Shape"></path>
                        </g>
                        <g id="GROUP" transform="translate(0.307506, 20.666667)">
                            <path d="M4.53509284,5.68681481 C4.00405836,6.20681481 3.3703183,6.40118519 2.66217507,6.40118519 C1.93506631,6.40118519 1.33896552,6.15377778 0.87270557,5.71288889 C0.201909814,5.07703704 0.220291777,4.29155556 0.220291777,3.20562963 C0.220291777,2.1202963 0.201909814,1.33481481 0.87270557,0.698962963 C1.33896552,0.257481481 1.91639257,0.0106666667 2.66217507,0.0106666667 C4.19984085,0.0106666667 4.98238727,0.963851852 5.15949602,2.02311111 L3.85466844,2.02311111 C3.70586207,1.432 3.32363395,1.10577778 2.66217507,1.10577778 C2.30766578,1.10577778 2.01909814,1.23762963 1.83236074,1.44059259 C1.58084881,1.70518519 1.51549072,1.99614815 1.51549072,3.20562963 C1.51549072,4.4157037 1.58084881,4.71525926 1.83236074,4.97985185 C2.01909814,5.18281481 2.30766578,5.30666667 2.66217507,5.30666667 C3.05344828,5.30666667 3.3703183,5.17422222 3.58419098,4.95348148 C3.79893899,4.72385185 3.88297082,4.44148148 3.88297082,4.11496296 L3.88297082,3.87674074 L2.66217507,3.87674074 L2.66217507,2.85244444 L5.16883289,2.85244444 L5.16883289,3.77096296 C5.16883289,4.6802963 5.00106101,5.22785185 4.53509284,5.68681481" id="Shape"></path>
                            <path d="M8.99899204,1.15792593 L7.77819629,1.15792593 L7.77819629,2.81748148 L8.99899204,2.81748148 C9.56737401,2.81748148 9.93997347,2.47348148 9.93997347,1.98755556 C9.93997347,1.50251852 9.56737401,1.15792593 8.99899204,1.15792593 L8.99899204,1.15792593 Z M10.0053316,6.34814815 L8.70984085,3.84118519 L7.77819629,3.84118519 L7.77819629,6.34814815 L6.48270557,6.34814815 L6.48270557,0.0637037037 L9.08302387,0.0637037037 C10.4339523,0.0637037037 11.2354642,0.937185185 11.2354642,1.98755556 C11.2354642,2.87081481 10.6667905,3.41777778 10.0240053,3.63881481 L11.5056499,6.34814815 L10.0053316,6.34814815 Z" id="Shape"></path>
                            <path d="M15.6340053,1.44059259 C15.4478515,1.23762963 15.1587003,1.10518519 14.8044828,1.10518519 C14.450557,1.10518519 14.1526525,1.23762963 13.9656233,1.44059259 C13.7141114,1.70488889 13.6487533,1.99614815 13.6487533,3.20622222 C13.6487533,4.41511111 13.7141114,4.70666667 13.9656233,4.97185185 C14.1526525,5.17422222 14.450557,5.30607407 14.8044828,5.30607407 C15.1587003,5.30607407 15.4478515,5.17422222 15.6340053,4.97185185 C15.885809,4.70666667 15.9602122,4.41511111 15.9602122,3.20622222 C15.9602122,1.99614815 15.885809,1.70488889 15.6340053,1.44059259 M16.5939523,5.71259259 C16.1282759,6.15437037 15.5596021,6.40118519 14.8044828,6.40118519 C14.0496552,6.40118519 13.4722281,6.15437037 13.0059682,5.71259259 C12.3351724,5.07703704 12.3535544,4.29155556 12.3535544,3.20622222 C12.3535544,2.1202963 12.3351724,1.33481481 13.0059682,0.698962963 C13.4722281,0.257481481 14.0496552,0.0106666667 14.8044828,0.0106666667 C15.5596021,0.0106666667 16.1282759,0.257481481 16.5939523,0.698962963 C17.2650398,1.33481481 17.2554111,2.1202963 17.2554111,3.20622222 C17.2554111,4.29155556 17.2650398,5.07703704 16.5939523,5.71259259" id="Shape"></path>
                            <path d="M20.9177984,6.40118519 C19.5575332,6.40118519 18.4762069,5.52740741 18.4762069,4.19437037 L18.4762069,0.0637037037 L19.7716976,0.0637037037 L19.7716976,4.15051852 C19.7716976,4.87466667 20.2192838,5.30666667 20.9177984,5.30666667 C21.6166048,5.30666667 22.0732361,4.87466667 22.0732361,4.15051852 L22.0732361,0.0637037037 L23.3593899,0.0637037037 L23.3593899,4.19437037 C23.3593899,5.52740741 22.2783554,6.40118519 20.9177984,6.40118519" id="Shape"></path>
                            <path d="M27.3109284,1.15792593 L26.0988859,1.15792593 L26.0988859,2.87940741 L27.3109284,2.87940741 C27.8979841,2.87940741 28.2705836,2.53511111 28.2705836,2.02311111 C28.2705836,1.51111111 27.8979841,1.15792593 27.3109284,1.15792593 M27.3759947,3.98251852 L26.0988859,3.98251852 L26.0988859,6.34814815 L24.8042706,6.34814815 L24.8042706,0.0637037037 L27.3759947,0.0637037037 C28.7458886,0.0637037037 29.5657825,0.954962963 29.5657825,2.02311111 C29.5657825,3.09066667 28.7458886,3.98251852 27.3759947,3.98251852" id="Shape"></path>
                        </g>
                    </g>
                </g>
            </g>
        </g>
    </g>
</svg>