<svg width="53" height="32" viewBox="0 0 53 32" fill="none" xmlns="http://www.w3.org/2000/svg">
<g clip-path="url(#clip0)">
<path d="M28.9905 5.56723L28.9756 5.62407L28.9905 5.56723ZM30.3396 5.4356C30.3426 5.43261 30.3486 5.4386 30.3486 5.44458L30.3396 5.4356ZM28.9905 5.56723C28.9935 5.43261 29.3278 4.15824 29.3726 3.98772C29.4412 3.7155 29.5039 3.45524 29.5666 3.20395C29.6084 3.03643 29.7546 2.55779 29.7576 2.4142C29.6681 2.48001 29.4173 3.03344 29.3487 3.14412C29.0114 3.70652 28.1786 5.68091 27.9786 6.41083C27.7995 7.06298 27.307 8.73223 27.3548 9.27967L27.8234 9.62369L27.9189 9.66558L27.904 9.68951C28.0742 9.68651 27.9398 9.68053 27.9936 9.7284V30.6718L28.0234 30.6629C27.9757 30.5671 28.0025 15.0293 28.0025 12.325C28.0025 11.4814 27.9637 10.5361 28.0055 9.70446L28.1995 9.77327C28.2891 9.74036 28.7875 9.83609 28.9308 9.85105C29.7964 8.50787 30.4322 7.65828 31.3515 6.47964L32.0082 5.68091C32.0529 5.62108 32.0768 5.60911 32.1216 5.55526L34.0946 3.39541L35.9511 1.62444C36.0287 1.5676 36.0467 1.57658 36.0705 1.48085L35.2079 1.80991C34.6826 2.01932 34.2856 2.19881 33.8021 2.47103C32.9544 2.94668 32.232 3.40438 31.5246 4.11336C31.1814 4.45739 30.9575 4.6638 30.656 5.04671C30.5934 5.12748 30.4411 5.33389 30.3814 5.37877C30.4113 5.24415 30.6829 4.78346 30.7695 4.6279C31.1068 4.02063 31.5067 3.4672 31.9007 2.89583C32.1753 2.49796 32.5932 1.97445 32.8947 1.58555C32.9753 1.48085 33.0618 1.36418 33.1544 1.26247C33.1991 1.21162 34.1722 0.0718576 34.1931 -0.00292969C34.0617 0.0838236 33.9394 0.173568 33.808 0.272288L31.9724 1.79496C31.8619 1.90265 31.7545 2.03129 31.641 2.12402C31.3634 2.34539 30.6172 3.20096 30.3486 3.53301C29.7278 4.30183 29.5278 4.67277 29.0711 5.45954C29.0472 5.49843 29.0741 5.45954 29.0412 5.5074C29.0203 5.53432 29.0054 5.54928 28.9905 5.56723Z" fill="#ABCD03"/>
<path d="M29.7578 2.41126H29.7847L29.7638 2.38135L29.7578 2.41126Z" fill="#ABCD03"/>
<path d="M28.0281 30.6659C28.5654 29.6338 28.7057 27.9137 28.7146 26.6184C28.7296 24.8594 28.1087 23.223 28.1565 22.4572C28.5057 23.947 29.0669 25.1047 29.1176 26.8038C29.1385 27.5248 29.0251 28.5658 28.9206 29.2808C28.7982 30.1124 28.4639 30.606 28.0699 31.0667L28.0669 31.0966C28.2789 30.977 28.4908 30.7706 28.6341 30.612C29.1803 30.0077 29.4817 29.3077 29.6638 28.4641C29.8847 27.4261 30.1235 25.6671 30.013 24.5842C29.9563 24.0247 29.7832 23.3636 29.637 22.8491C29.1266 21.0781 28.5564 21.129 28.3445 19.9025C28.246 19.3251 28.2699 18.4785 28.2878 17.8742C28.3624 18.4516 28.3983 19.1127 28.5027 19.6871C28.6102 20.2794 28.9087 20.6234 29.1564 21.0751C30.3593 23.2888 30.616 25.2393 30.1712 27.7821C30.0727 28.3534 29.9534 28.8979 29.7623 29.4094C29.437 30.271 29.3355 30.2261 29.0669 30.7287C29.3982 30.4415 29.8757 29.5351 30.0757 28.9816C30.4458 27.9615 30.8398 25.4427 30.9115 24.3149C30.9742 23.3307 30.8816 22.6905 30.7175 21.7692C30.416 20.0999 29.8817 19.0678 29.2161 17.7546C28.8311 16.9947 28.6042 16.7764 28.452 15.7622C28.3415 15.0204 28.2341 13.9494 28.249 13.1955C28.2818 13.2643 28.2759 13.2703 28.2818 13.3661L28.3893 14.3981C28.4341 14.775 28.4848 15.1609 28.5505 15.5289C28.7326 16.54 28.849 16.537 29.2937 17.3836C29.8459 18.4366 30.5712 19.6901 30.8816 20.9884C31.2249 22.4273 31.3532 24.2371 31.1353 25.7478C31.0249 26.5077 30.5354 28.6107 30.216 29.3885C30.1563 29.5351 30.0638 29.6936 30.019 29.8312C30.1951 29.6847 30.4906 29.1791 30.6249 28.9248C30.8279 28.5479 30.9115 28.2966 31.016 27.8299C31.5801 25.2752 31.798 22.2687 31.4368 19.6841C30.7951 15.0742 28.7624 14.8558 28.6161 12.1216C28.5893 11.637 28.6609 10.8532 28.646 10.6767L28.64 9.99464L28.2013 9.77925L28.0072 9.71045C27.9625 10.5421 28.0043 11.4874 28.0043 12.331C28.0102 15.0323 27.9804 30.5701 28.0281 30.6659ZM27.9028 22.867C27.7625 23.1602 27.8281 23.3337 27.4879 23.8632C26.9058 24.7696 26.285 25.359 26.2193 26.7739C26.1775 27.6804 26.4342 28.3175 26.7387 29.0325C26.9894 29.6188 27.4312 30.4056 27.9058 30.6359L27.9028 22.867Z" fill="#FEFBDA"/>
<path d="M41.1331 19.0078V30.9917C41.1331 31.4315 41.6405 31.8144 42.139 31.8144H48.1445C48.5176 31.8144 48.7653 31.6529 48.9444 31.4494C49.1742 31.1922 49.1504 30.9289 49.1504 30.4622V21.0241C49.1504 20.5275 49.1623 20.366 49.3056 20.013C49.4041 19.7677 49.61 19.4835 49.813 19.3279C50.5204 18.7805 51.2188 18.7087 52.1143 18.6937C52.4784 18.6877 52.7411 18.5232 52.7501 18.1373C52.7531 17.9279 52.7769 17.7873 52.7769 17.5539V11.8252C52.7769 11.2628 52.6038 10.844 52.1531 10.6227C52.0158 10.5568 51.8337 10.5 51.6397 10.5C49.6011 10.5 48.3086 10.4252 46.455 11.2419C45.2163 11.7864 44.4671 12.3757 43.5777 13.2641C43.0464 13.7966 42.321 14.8107 42.0106 15.5108C41.7181 16.1719 41.6345 16.3843 41.4256 17.0992C41.2823 17.5629 41.1331 18.4125 41.1331 19.0078ZM28.6505 10.6735C28.7102 11.0175 28.6415 11.3586 28.8147 12.1872C29.0206 13.1684 29.3161 13.7667 29.8564 14.5385C30.0862 14.8646 30.2951 15.2296 30.5041 15.5885C30.922 16.3065 31.2772 17.0663 31.5159 17.9668C31.7488 18.8343 31.9905 19.8394 32.1189 20.7548C32.4024 22.7771 32.3786 25.0746 31.9786 27.046C31.6771 28.5417 31.3339 29.484 30.4504 30.6028C30.0564 31.1024 29.7101 31.3118 29.5937 31.4494C30.6294 31.3627 32.3845 30.7345 33.1994 30.3097C33.7695 30.0135 34.2113 29.7772 34.6769 29.4302C34.7963 29.3434 34.9067 29.2537 35.0172 29.1609L35.6171 28.5985C35.7067 28.5148 35.7872 28.4041 35.8887 28.2874C37.5513 26.4207 38.1691 23.51 37.5513 21.0031C36.7663 17.8202 34.6679 16.3005 32.0801 14.6642C31.8353 14.5086 31.5995 14.374 31.3339 14.2184C30.6683 13.8265 30.0205 13.1146 29.6713 12.3577C29.3519 11.6607 29.2922 11.212 29.4295 10.3893L28.6445 9.99146L28.6505 10.6735Z" fill="#7D4597"/>
<path d="M0 4.29572V10.1291C0 10.6018 0.411908 11.0655 0.74024 11.215C1.14618 11.4035 1.91328 11.3467 2.43264 11.3467H5.18466C5.63239 11.3467 6.21443 11.3108 6.46217 11.8941C6.59052 12.1933 6.53381 14.1676 6.53381 14.5805V29.2926C6.53381 29.7533 6.48008 30.7196 6.5756 31.0786C6.69499 31.5153 7.10093 31.8653 7.64417 31.8653H13.9661C14.5242 31.8653 14.9272 31.5452 15.0734 31.1474C15.1928 30.8213 15.1301 29.8072 15.1301 29.3465V12.7796C15.1301 12.4625 15.1361 12.1633 15.2316 11.9539C15.5689 11.2031 16.5658 11.3497 17.3777 11.3497H20.1566C20.479 11.3497 20.7028 11.3048 20.9118 11.1791C21.0401 11.1044 21.064 11.0804 21.1715 10.9907C21.4281 10.7723 21.6102 10.3954 21.6102 10.0244V4.42735C21.6102 3.68247 21.0103 3.0752 20.3148 3.0752H1.26856C0.599952 3.0752 0 3.69743 0 4.29572Z" fill="#7C4698"/>
<path d="M27.9071 9.68942L27.922 9.66548L27.8265 9.6236L26.0088 8.8877C26.2147 9.2736 26.5998 10.0663 26.7102 10.527C26.8535 11.1074 26.8863 12.0527 26.6415 12.5732C26.2058 13.5006 25.1014 14.3262 24.2477 14.8408C23.2657 15.4301 23.018 15.6305 22.2061 16.2946L20.9524 17.3656C20.5555 17.7635 20.4719 17.8053 20.1018 18.266C20.0182 18.3677 19.9346 18.4754 19.851 18.5981C19.7137 18.7895 19.5257 19.0797 19.4093 19.322C18.3019 21.6225 18.281 24.6678 19.6361 26.8726C20.4808 28.2486 21.7613 29.6158 23.212 30.2888C23.6298 30.4833 24.4149 30.8692 24.8954 30.941C24.4895 30.582 24.1791 30.8542 22.8836 29.2657C22.3643 28.6315 21.8777 27.8777 21.436 27.058C20.9942 26.2354 20.6659 25.4127 20.442 24.3956C20.1764 23.19 20.4958 22.4033 20.9405 21.44C21.4002 20.4468 21.833 20.025 22.4926 19.3101C22.9195 18.8494 24.5641 17.7036 25.1312 17.3686C26.3789 16.6267 26.5639 16.3545 27.0803 14.76L27.5012 13.351C27.2922 14.4399 27.1699 15.466 26.6684 16.3874C26.3819 16.9109 26.1192 17.0395 25.6804 17.3596C24.3134 18.3588 22.9851 19.0199 21.9136 20.4528C21.4957 21.0122 21.1465 21.6703 20.9077 22.3614C20.6928 22.9806 20.5913 23.3097 20.6957 24.0306C20.9733 25.9452 22.1494 27.8358 23.3105 29.2598L24.1194 30.1722C24.385 30.4653 25.0775 30.7854 25.558 30.929C25.9431 31.0457 26.7072 31.291 27.0773 31.3239C26.8803 31.291 26.2744 31.0098 26.0714 30.9171C25.1581 30.5012 24.3014 29.7922 23.7015 29.0264C22.9463 28.0632 22.2837 26.2324 22.6359 24.6259C22.9612 23.1392 24.1104 22.0293 25.1342 21.428C25.4566 21.2396 25.7491 21.096 26.0237 20.8896C26.8833 20.2434 27.2624 19.2981 27.6027 18.2421C27.5907 18.5143 27.4027 19.1156 27.3131 19.3729C26.7132 21.081 25.7043 21.1139 24.4716 22.2268C23.8119 22.8221 23.0597 23.9409 22.8747 24.8922C22.5971 26.3131 23.5731 27.9974 24.3402 29.0204C25.1909 30.1572 25.9849 30.6359 27.3639 31.0008C27.4594 31.0247 27.8116 31.1444 27.9011 31.0965C27.8594 31.0218 27.8802 31.0547 27.7817 31.0038C27.1579 30.6688 26.743 29.9957 26.4714 29.3465C26.0804 28.4132 25.8744 27.9136 25.964 26.7499C26.155 24.2759 27.2684 24.264 27.7937 23.0135C27.9161 22.7204 27.8982 22.6994 27.8982 22.3494C27.8982 20.2374 27.8982 18.1254 27.8982 16.0134C27.9071 13.9194 27.8594 11.7775 27.9071 9.68942Z" fill="#FFFCDB"/>
<path d="M28.9287 30.884C28.9734 30.8092 28.9406 30.8271 29.0391 30.7673L28.9287 30.884ZM28.8869 31.9998H28.3556C27.9049 31.9938 27.4542 31.9789 27.1139 31.9729L25.908 31.8532C25.511 31.7964 25.1648 31.7276 24.8006 31.6378C23.6574 31.3506 22.568 30.86 21.6248 30.2079C21.2069 29.9177 20.5264 29.3643 20.1861 28.9963C19.5354 28.2903 19.2727 27.9074 18.8041 27.0937C17.7355 25.245 17.5475 22.5018 18.0967 20.4975C18.4877 19.0616 19.0339 18.3436 19.8488 17.2966C20.0219 17.0752 20.4547 16.6564 20.6517 16.456C21.2009 15.9056 22.2426 15.1756 22.8844 14.7449C23.156 14.5624 23.4067 14.3949 23.6783 14.2154C23.8156 14.1226 23.935 14.0419 24.0753 13.9491C24.6574 13.5602 25.5648 13.0846 25.8871 12.4773C26.8124 10.7393 25.4095 8.67213 25.3409 8.37598C25.3767 8.32512 25.4245 8.2982 25.4842 8.25632C25.5528 8.20546 25.5737 8.17854 25.6304 8.13965C25.7797 8.21743 25.917 8.32213 26.0632 8.42085L26.9199 8.99222C27.0661 9.09094 27.2064 9.19265 27.3557 9.27941L27.8243 9.62343L26.0065 8.88752C26.2125 9.27342 26.5975 10.0662 26.708 10.5269C26.8512 11.1072 26.8841 12.0525 26.6393 12.573C26.2035 13.5004 25.0991 14.3261 24.2455 14.8406C23.2634 15.4299 23.0157 15.6303 22.2038 16.2945L20.9532 17.3654C20.5562 17.7633 20.4726 17.8052 20.1025 18.2659C20.0189 18.3676 19.9354 18.4753 19.8518 18.5979C19.7145 18.7894 19.5264 19.0795 19.41 19.3219C18.3026 21.6223 18.2818 24.6676 19.6369 26.8724C20.4816 28.2485 21.7621 29.6156 23.2127 30.2887C23.6306 30.4831 24.4156 30.869 24.8962 30.9408C24.4902 30.5818 24.1798 30.8541 22.8844 29.2656C22.365 28.6314 21.8785 27.8775 21.4367 27.0579C20.995 26.2352 20.6666 25.4125 20.4428 24.3954C20.1771 23.1899 20.4965 22.4031 20.9412 21.4398C21.4009 20.4467 21.8337 20.0249 22.4934 19.3099C22.9202 18.8492 24.5648 17.7035 25.132 17.3684C26.3796 16.6265 26.5647 16.3543 27.0811 14.7598L27.5019 13.3508C27.293 14.4397 27.1706 15.4658 26.6691 16.3872C26.3826 16.9107 26.1199 17.0393 25.6812 17.3594C24.3141 18.3586 22.9859 19.0197 21.9143 20.4526C21.4964 21.012 21.1472 21.6702 20.9084 22.3612C20.6935 22.9804 20.592 23.3095 20.6965 24.0305C20.9741 25.945 22.1501 27.8356 23.3112 29.2596L24.1201 30.172C24.3857 30.4652 25.0782 30.7853 25.5588 30.9288C25.9438 31.0455 26.708 31.2908 27.0781 31.3237C26.8811 31.2908 26.2751 31.0096 26.0722 30.9169C25.1588 30.5011 24.3022 29.7921 23.7022 29.0263C22.9471 28.063 22.2844 26.2322 22.6366 24.6258C22.962 23.139 24.1111 22.0292 25.1349 21.4279C25.4573 21.2394 25.7498 21.0958 26.0244 20.8894C26.8841 20.2432 27.2631 19.2979 27.6034 18.2419C27.5915 18.5141 27.4034 19.1154 27.3139 19.3727C26.7139 21.0808 25.705 21.1138 24.4723 22.2266C23.8127 22.8219 23.0605 23.9407 22.8754 24.892C22.5978 26.313 23.5739 27.9972 24.341 29.0203C25.1917 30.157 25.9856 30.6357 27.3646 31.0006C27.4601 31.0246 27.8123 31.1442 27.9019 31.0964C27.8601 31.0216 27.881 31.0545 27.7825 31.0036C27.1587 30.6686 26.7438 29.9955 26.4721 29.3463C26.0811 28.413 25.8752 27.9134 25.9647 26.7497C26.1558 24.2758 27.2691 24.2638 27.7944 23.0134C27.9168 22.7202 27.8989 22.6992 27.8989 22.3492C27.8989 20.2372 27.8989 18.1253 27.8989 16.0133C27.8989 13.9192 27.8541 11.7773 27.9019 9.69223C28.072 9.68924 27.9377 9.68326 27.9914 9.73112V30.6746L28.0213 30.6656C28.5585 29.6335 28.6988 27.9134 28.7078 26.6181C28.7227 24.8591 28.1019 23.2228 28.1496 22.4569C28.4989 23.9467 29.06 25.1044 29.1107 26.8036C29.1316 27.5245 29.0182 28.5656 28.9137 29.2805C28.7914 30.1122 28.4571 30.6058 28.0631 31.0665C27.9974 31.0994 28.0093 31.0724 27.9825 31.1472C28.0631 31.1233 28.0392 31.1173 28.0601 31.0964C28.272 30.9767 28.4839 30.7703 28.6272 30.6117C29.1734 30.0075 29.4749 29.3075 29.657 28.4639C29.8778 27.4258 30.1166 25.6668 30.0062 24.5839C29.9495 24.0245 29.7764 23.3634 29.6301 22.8488C29.1197 21.0779 28.5496 21.1287 28.3377 19.9022C28.2392 19.3248 28.2631 18.4782 28.281 17.874C28.3556 18.4513 28.3914 19.1124 28.4959 19.6868C28.6033 20.2791 28.9018 20.6231 29.1495 21.0749C30.3524 23.2886 30.6091 25.239 30.1644 27.7818C30.0659 28.3532 29.9465 28.8976 29.7555 29.4092C29.4301 30.2707 29.3286 30.2258 29.06 30.7284C29.3913 30.4412 29.8689 29.5348 30.0689 28.9814C30.439 27.9613 30.833 25.4424 30.9046 24.3147C30.9673 23.3304 30.8748 22.6903 30.7106 21.7689C30.4092 20.0996 29.8749 19.0676 29.2092 17.7543C28.8242 16.9945 28.5974 16.7761 28.4451 15.762C28.3347 15.0201 28.2272 13.9491 28.2422 13.1953C28.275 13.2641 28.269 13.2701 28.275 13.3658L28.3824 14.3979C28.4272 14.7748 28.478 15.1607 28.5436 15.5286C28.7257 16.5398 28.8421 16.5368 29.2869 17.3834C29.839 18.4364 30.5644 19.6898 30.8748 20.9881C31.218 22.427 31.3464 24.2369 31.1285 25.7476C31.0181 26.5074 30.5285 28.6104 30.2092 29.3882C30.1495 29.5348 30.0569 29.6934 30.0122 29.831C30.1883 29.6844 30.4838 29.1788 30.6181 28.9245C30.8211 28.5476 30.9046 28.2963 31.0091 27.8297C31.5732 25.2749 31.7911 22.2685 31.43 19.6838C30.7882 15.0739 28.7556 14.8556 28.6093 12.1213C28.5824 11.6367 28.6541 10.8529 28.6391 10.6764C28.6988 11.0205 28.6302 11.3615 28.8033 12.1901C29.0093 13.1713 29.3048 13.7696 29.845 14.5414C30.0748 14.8675 30.2838 15.2325 30.4927 15.5915C30.9106 16.3094 31.2658 17.0693 31.5046 17.9697C31.7374 18.8372 31.9792 19.8424 32.1075 20.7578C32.3911 22.78 32.3672 25.0775 31.9672 27.0489C31.6658 28.5446 31.3225 29.4869 30.439 30.6058C30.045 31.1053 29.6988 31.3147 29.5823 31.4524C30.6181 31.3656 32.3732 30.7374 33.188 30.3126C33.7581 30.0164 34.1999 29.7801 34.6655 29.4331C34.7849 29.3463 34.8954 29.2566 35.0058 29.1639L35.6058 28.6015C35.6953 28.5177 35.7759 28.407 35.8774 28.2903C37.5399 26.4237 38.1578 23.5129 37.5399 21.0061C36.7549 17.8231 34.6566 16.3034 32.0687 14.6671C31.824 14.5115 31.5882 14.3769 31.3225 14.2214C30.6569 13.8295 30.0092 13.1175 29.66 12.3606C29.3406 11.6636 29.2809 11.2149 29.4182 10.3922L28.6451 9.99138L28.2063 9.77599C28.2959 9.74309 28.7944 9.83882 28.9376 9.85377L30.233 10.0213C30.233 10.1469 30.2032 10.2128 30.1823 10.3145C29.9763 11.2837 30.3853 12.3427 31.033 12.9829C31.6837 13.629 31.7344 13.641 32.5433 14.0957C33.5552 14.6611 34.2208 15.1009 35.1401 15.7889L36.0087 16.5637C36.1311 16.6863 36.2057 16.7881 36.3251 16.9077C36.3997 16.9795 36.4176 17.0184 36.4833 17.0932C37.2773 17.9876 37.8563 19.1334 38.2324 20.2702C38.7279 21.7629 38.7727 23.4411 38.4443 24.9309C38.3608 25.3048 38.2652 25.6399 38.1459 25.957C38.0265 26.2801 37.913 26.5732 37.7638 26.8724C37.6414 27.1147 37.3131 27.713 37.1519 27.9314C36.7758 28.4489 36.5669 28.7391 36.1102 29.1938C35.761 29.5438 35.7699 29.5169 35.4356 29.816C34.5999 30.5669 32.9672 31.3088 31.9195 31.566C31.3315 31.7126 30.8628 31.8233 30.2569 31.8891L29.657 31.9489C29.445 31.9818 29.1764 31.9938 28.8869 31.9998ZM27.9019 22.8668L27.9079 30.6357C27.4333 30.4053 26.9885 29.6186 26.7408 29.0322C26.4363 28.3203 26.1796 27.6801 26.2214 26.7737C26.2871 25.3557 26.9079 24.7694 27.49 23.8629C27.8273 23.3334 27.7616 23.1599 27.9019 22.8668Z" fill="black"/>
<path d="M28.0698 31.0934L28.0728 31.0635C28.0071 31.0964 28.019 31.0695 27.9922 31.1442C28.0698 31.1233 28.0489 31.1173 28.0698 31.0934Z" fill="#69685A"/>
<path d="M29.0401 30.7676C28.9416 30.8274 28.9745 30.8095 28.9297 30.8842L29.0401 30.7676Z" fill="#8C8A78"/>
</g>
<defs>
<clipPath id="clip0">
<rect width="52.7719" height="32" fill="white"/>
</clipPath>
</defs>
</svg>
