<svg width="151" height="16" viewBox="0 0 151 16" fill="none" xmlns="http://www.w3.org/2000/svg">
<path fill-rule="evenodd" clip-rule="evenodd" d="M2.33845 0.457714C2.26957 0.486237 2.06293 0.657955 1.87925 0.839375L1.54529 1.16921V1.89348V2.61775L1.91114 2.98117L2.27708 3.3445H3.00637H3.73566L4.1016 2.98117L4.46746 2.61775V1.89348V1.16921L4.10169 0.80596C3.73892 0.445692 3.73066 0.442541 3.0998 0.424299C2.74997 0.414184 2.40733 0.429191 2.33845 0.457714ZM6.346 0.457714C6.27712 0.486237 6.07048 0.657955 5.8868 0.839375L5.55284 1.16921V1.89348V2.61775L5.91869 2.98117L6.28463 3.3445H7.01393H7.74322L8.10916 2.98117L8.47501 2.61775V1.89348V1.16921L8.10924 0.80596C7.74647 0.445692 7.73821 0.442541 7.10735 0.424299C6.75753 0.414184 6.41488 0.429191 6.346 0.457714ZM10.3536 0.457714C10.2847 0.486237 10.078 0.657955 9.89435 0.839375L9.56039 1.16921V1.89348V2.61775L9.92625 2.98117L10.2922 3.3445H11.0215H11.7508L12.1167 2.98117L12.4826 2.61775V1.89348V1.16921L12.1168 0.80596C11.754 0.445692 11.7458 0.442541 11.1149 0.424299C10.7651 0.414184 10.4224 0.429191 10.3536 0.457714ZM19.3705 4.83532V5.95303L21.1447 5.97541L22.9189 5.9978L22.9404 10.6618L22.9621 15.3258H24.5059H26.0498V10.6411V5.95634H27.8448H29.6399V4.83698V3.71762H24.5052H19.3705V4.83532ZM0.403803 3.97765C0.267713 4.02715 0.145566 4.15882 0.0907125 4.3152C-0.0303489 4.65996 -0.0301817 8.57987 0.0908797 8.92472C0.157338 9.11402 0.261618 9.2073 0.48746 9.27952C1.02631 9.45181 1.0026 9.33416 1.0026 11.8369C1.0026 13.5113 1.02965 14.1587 1.10279 14.2313C1.24305 14.3706 3.76781 14.3706 3.90807 14.2313C3.97987 14.16 4.00826 13.618 4.00826 12.3171V10.5025L3.52819 10.0588L3.04812 9.61524L3.0229 6.85631C3.00646 5.05339 2.9668 4.06031 2.90835 3.99041C2.7999 3.86065 0.754213 3.8502 0.403803 3.97765ZM4.41135 3.9759C4.27618 4.02607 4.15278 4.15989 4.09826 4.3152C3.9772 4.65996 3.97737 8.57987 4.09843 8.92472C4.16489 9.11402 4.26917 9.2073 4.49501 9.27952C5.03386 9.45181 5.01015 9.33416 5.01015 11.8369C5.01015 13.5113 5.0372 14.1587 5.11034 14.2313C5.25227 14.3723 8.77558 14.3723 8.91751 14.2313C8.99065 14.1587 9.0177 13.5113 9.0177 11.8369C9.0177 9.38159 9.01052 9.42329 9.45035 9.31359C9.573 9.28308 9.74182 9.18284 9.82556 9.09096C9.96524 8.93765 9.97784 8.73302 9.97784 6.61328C9.97784 4.31976 9.97642 4.30127 9.78782 4.11379C9.5993 3.92649 9.57709 3.92475 7.11612 3.90891C5.62381 3.89937 4.54552 3.92599 4.41135 3.9759ZM11.1258 3.97773C11.0465 4.05733 11.0215 4.75357 11.0215 6.88234V9.68215L10.5695 10.0211C10.3208 10.2075 10.0954 10.417 10.0685 10.4866C9.96874 10.7448 10.0151 14.1273 10.1198 14.2313C10.26 14.3706 12.7848 14.3706 12.9251 14.2313C12.9982 14.1587 13.0253 13.5113 13.0253 11.8369C13.0253 9.38159 13.0181 9.42329 13.4579 9.31359C13.5806 9.28308 13.7494 9.18284 13.8331 9.09096C13.9728 8.93765 13.9854 8.73302 13.9854 6.61328C13.9854 3.70834 14.117 3.9361 12.4179 3.89896C11.5427 3.87981 11.2027 3.90053 11.1258 3.97773ZM144.941 5.29302V6.53675H144.356H143.772V7.53174V8.52672H144.352H144.932L144.957 11.0764C144.982 13.5538 144.988 13.6383 145.18 14.0607C145.429 14.6072 145.865 15.0019 146.495 15.2513C146.941 15.4279 147.112 15.4455 148.364 15.4443C149.213 15.4435 149.877 15.4033 150.096 15.3397L150.451 15.2365V14.2447C150.451 13.1518 150.466 13.1755 149.908 13.3749C149.725 13.4406 149.321 13.496 149.012 13.498C148.512 13.5012 148.421 13.476 148.19 13.2713C147.832 12.9538 147.787 12.6365 147.783 10.4151L147.779 8.53095L149.094 8.50807L150.409 8.48527L150.433 7.51101L150.456 6.53675H149.118H147.779V5.29302V4.04928H146.36H144.941V5.29302ZM34.0232 6.42573C32.8007 6.68542 31.6632 7.53074 31.1541 8.55782C30.4547 9.96863 30.4693 12.0171 31.1887 13.427C31.4656 13.9697 32.211 14.7119 32.7854 15.017C34.12 15.7258 36.6039 15.7716 37.9374 15.1121C39.3848 14.3964 40.1801 13.1139 40.2999 11.3028C40.4665 8.7826 39.1259 6.89113 36.8355 6.41495C36.0757 6.25699 34.7941 6.26189 34.0232 6.42573ZM53.0262 6.37847C51.8316 6.56113 50.9987 6.96219 50.3498 7.66731C49.7009 8.37242 49.5442 9.07695 49.8188 10.0552C49.9339 10.465 50.046 10.6439 50.4247 11.0214C50.9668 11.5618 51.4558 11.7749 52.7251 12.0239C54.3419 12.3411 54.702 12.4507 54.8711 12.6771C55.0917 12.9724 54.9593 13.3006 54.5512 13.47C53.5645 13.8794 51.6981 13.5773 50.3931 12.7968C50.1262 12.6373 49.8561 12.5067 49.7928 12.5067C49.7003 12.5067 49.6777 12.7408 49.6777 13.6977V14.8887L50.0325 15.0177C51.1921 15.4393 52.4287 15.6151 53.7687 15.5489C55.3093 15.4729 56.4487 15.0732 57.1714 14.3554C57.7208 13.8098 57.8969 13.3588 57.893 12.5067C57.8894 11.6943 57.7449 11.3348 57.2198 10.8319C56.7442 10.3766 56.0862 10.1199 54.7109 9.85346C53.1383 9.54874 52.8391 9.44468 52.695 9.15249C52.5945 8.94852 52.5997 8.89819 52.7405 8.71088C52.966 8.41089 53.4554 8.26247 54.2279 8.25999C55.0516 8.25725 55.7816 8.44124 56.6304 8.86552C56.9875 9.04403 57.335 9.19005 57.4027 9.19005C57.5051 9.19005 57.5258 9.00109 57.5258 8.06646V6.94287L57.2127 6.81245C56.3148 6.4385 54.1211 6.21106 53.0262 6.37847ZM62.6694 6.42407C62.3529 6.49148 61.8457 6.66477 61.5423 6.80913C60.8343 7.1461 59.8997 8.05187 59.599 8.69256C58.9374 10.1021 58.9632 12.0592 59.6601 13.3308C59.9692 13.8948 60.7925 14.6524 61.4138 14.9446C62.3631 15.391 63.0286 15.5158 64.4972 15.5231C65.9349 15.5302 66.7583 15.4086 67.7407 15.0439L68.2543 14.8533L68.2775 13.6799C68.2968 12.6995 68.2808 12.5067 68.1795 12.5067C68.1129 12.5067 67.7832 12.6528 67.4467 12.8312C66.5238 13.3209 65.8347 13.5017 64.8905 13.5017C63.8088 13.5017 63.2269 13.3326 62.705 12.8666C62.3315 12.533 62.0343 11.9812 62.0343 11.6213C62.0343 11.5323 62.6417 11.5117 65.2605 11.5117H68.4868L68.4428 10.4131C68.4102 9.59476 68.3532 9.18051 68.2192 8.78965C67.7751 7.4936 66.9217 6.74081 65.5262 6.41404C64.8576 6.25757 63.428 6.26255 62.6694 6.42407ZM91.6133 6.44729C89.8277 6.88309 88.5584 8.15327 88.2567 9.80644C88.1396 10.4474 88.1419 11.6362 88.2612 12.1917C88.6473 13.9897 90.0198 15.1233 92.2161 15.4586C93.6363 15.6755 95.2798 15.5397 96.5994 15.0967L97.3091 14.8585V13.7045C97.3091 12.3545 97.3034 12.3474 96.5739 12.7837C96.3134 12.9394 95.783 13.1694 95.3951 13.2947C94.7478 13.5039 94.6094 13.5195 93.7036 13.4854C92.8463 13.4532 92.6546 13.4187 92.2405 13.2219C91.7322 12.9804 91.3464 12.5702 91.1855 12.1005C90.9682 11.4658 90.7119 11.5162 94.2825 11.492L97.4761 11.4702L97.5004 10.7767C97.5838 8.40882 96.5331 6.86443 94.5374 6.42142C93.742 6.24481 92.3942 6.25675 91.6133 6.44729ZM109.958 6.42797C109.131 6.57299 108.228 6.96683 107.728 7.39999C107.525 7.57626 107.265 7.9294 107.112 8.23868C106.867 8.73244 106.85 8.82174 106.885 9.41989C106.915 9.92999 106.974 10.16 107.163 10.506C107.635 11.3667 108.344 11.7364 110.214 12.0958C111.762 12.3936 112.077 12.5259 112.113 12.8956C112.13 13.0732 112.085 13.2134 111.975 13.3222C111.792 13.5042 111.136 13.6675 110.587 13.6675C109.691 13.6675 108.28 13.2521 107.444 12.7417C106.784 12.3387 106.785 12.3365 106.785 13.6992V14.8917L107.502 15.1184C108.894 15.5586 110.507 15.6833 111.878 15.4566C113.076 15.2586 113.82 14.9018 114.428 14.2329C115.366 13.2027 115.276 11.5379 114.237 10.6869C113.806 10.3344 113.213 10.1296 111.795 9.84417C110.271 9.53755 110.066 9.47055 109.904 9.22471C109.545 8.68004 110.184 8.24614 111.339 8.25062C112.219 8.25402 112.756 8.3856 113.691 8.82704C114.114 9.0267 114.519 9.19005 114.591 9.19005C114.704 9.19005 114.718 9.03856 114.698 8.05004L114.675 6.91012L114.091 6.72381C113.399 6.50334 111.917 6.28485 111.187 6.29572C110.901 6.29994 110.348 6.35948 109.958 6.42797ZM127.597 6.41586C127.099 6.54902 126.444 6.86203 125.926 7.21525L125.571 7.45678V6.99677V6.53675H124.151H122.732V10.9313V15.3258H124.151H125.571V12.2278V9.12977L126.086 8.89993C126.467 8.73037 126.746 8.6676 127.151 8.66063C127.834 8.64878 128.187 8.79172 128.429 9.1791C128.614 9.47453 128.619 9.53556 128.645 12.403L128.671 15.3258H130.127H131.582L131.581 12.2787C131.581 9.03185 131.529 8.41255 131.204 7.77642C130.598 6.58808 129.085 6.01762 127.597 6.41586ZM136.949 6.44729C135.163 6.88309 133.894 8.15327 133.592 9.80644C133.476 10.4438 133.477 11.6358 133.595 12.1811C133.985 13.9892 135.354 15.1232 137.552 15.4586C138.972 15.6755 140.615 15.5397 141.935 15.0967L142.645 14.8585V13.7045C142.645 12.3545 142.639 12.3474 141.909 12.7837C141.649 12.9394 141.118 13.1694 140.731 13.2947C140.083 13.5039 139.945 13.5195 139.039 13.4854C138.182 13.4532 137.99 13.4187 137.576 13.2219C137.068 12.9804 136.682 12.5702 136.521 12.1005C136.304 11.4658 136.047 11.5162 139.618 11.492L142.811 11.4702L142.836 10.7767C142.919 8.40882 141.869 6.86443 139.873 6.42142C139.077 6.24481 137.73 6.25675 136.949 6.44729ZM42.247 10.9313V15.3258H43.7081H45.1692V12.3913V9.45662L45.7598 9.31293C46.2256 9.19958 46.596 9.17695 47.5131 9.20605L48.6758 9.24287V7.88156V6.52025L47.9452 6.55483C47.0648 6.59653 46.4707 6.80672 45.7554 7.32959C45.4787 7.53199 45.2335 7.69757 45.2107 7.69757C45.1879 7.69757 45.1692 7.43639 45.1692 7.11716V6.53675H43.7081H42.247V10.9313ZM70.3833 10.9293V15.3258H71.8444H73.3055V12.3931V9.46035L73.7021 9.34593C73.967 9.26948 74.5491 9.23151 75.4554 9.23151H76.8122L76.8121 7.88413V6.53675H76.199C75.3264 6.53675 74.5548 6.81278 73.7751 7.4038C73.562 7.5654 73.3708 7.69757 73.3503 7.69757C73.3299 7.69757 73.302 7.44576 73.2885 7.13789L73.2638 6.57821L71.8235 6.55549L70.3833 6.53285V10.9293ZM77.3474 6.74421C77.3951 6.93317 78.6287 10.1586 80.0586 13.8333L80.6232 15.2843L82.2535 15.3068L83.8839 15.3292L84.3087 14.2289C85.8112 10.3375 86.9406 7.43639 87.0831 7.10182C87.174 6.88815 87.2485 6.67273 87.2485 6.62315C87.2485 6.56071 86.793 6.5399 85.7687 6.55557L84.2889 6.57821L83.3478 9.39734C82.8301 10.9479 82.3842 12.2724 82.3568 12.3408C82.3062 12.4674 82.213 12.2102 80.9811 8.54745L80.3049 6.53675H78.7999H77.2949L77.3474 6.74421ZM99.4381 10.9313V15.3258H100.856H102.275L102.297 12.4113L102.319 9.49692L102.652 9.36691C102.909 9.26716 103.322 9.23632 104.427 9.23424L105.867 9.23151V7.87426V6.51693L105.095 6.55068C104.442 6.57912 104.234 6.62555 103.748 6.85117C103.433 6.99793 102.996 7.24842 102.777 7.40778C102.559 7.56714 102.357 7.69757 102.328 7.69757C102.3 7.69757 102.277 7.43639 102.277 7.11716V6.53675H100.857H99.4381V10.9313ZM64.7926 8.29871C65.1997 8.50251 65.4807 8.91858 65.5767 9.45953L65.632 9.77046H63.8331H62.0343L62.0361 9.5839C62.0388 9.31276 62.313 8.76428 62.558 8.54041C63.0534 8.08752 64.137 7.97036 64.7926 8.29871ZM93.8147 8.28386C94.2391 8.48792 94.4928 8.86046 94.5653 9.38656L94.6183 9.77046H92.8208H91.0233L91.1007 9.42802C91.1991 8.99362 91.2672 8.87165 91.5734 8.58236C92.0832 8.10054 93.1406 7.95975 93.8147 8.28386ZM139.15 8.28386C139.575 8.48792 139.828 8.86046 139.901 9.38656L139.954 9.77046H138.156H136.359L136.436 9.42802C136.535 8.99362 136.603 8.87165 136.909 8.58236C137.419 8.10054 138.476 7.95975 139.15 8.28386ZM36.3307 8.49812C37.061 8.92306 37.3629 9.76839 37.3027 11.2199C37.2603 12.2409 37.0964 12.7143 36.6282 13.1689C35.7972 13.9759 34.1338 13.5478 33.8165 12.4453C33.4133 11.0445 33.6465 9.25224 34.3095 8.6564C34.7451 8.26488 35.7894 8.18312 36.3307 8.49812ZM116.971 13.7919V15.3258H118.474H119.977V13.7919V12.2579H118.474H116.971V13.7919Z" fill="black"/>
</svg>
