<svg width="151" height="32" viewBox="0 0 151 32" fill="none" xmlns="http://www.w3.org/2000/svg">
<path fill-rule="evenodd" clip-rule="evenodd" d="M2.33845 8.45771C2.26957 8.48624 2.06293 8.65796 1.87925 8.83937L1.54529 9.16921V9.89348V10.6177L1.91114 10.9812L2.27708 11.3445H3.00637H3.73566L4.1016 10.9812L4.46746 10.6177V9.89348V9.16921L4.10169 8.80596C3.73892 8.44569 3.73066 8.44254 3.0998 8.4243C2.74997 8.41418 2.40733 8.42919 2.33845 8.45771ZM6.346 8.45771C6.27712 8.48624 6.07048 8.65796 5.8868 8.83937L5.55284 9.16921V9.89348V10.6177L5.91869 10.9812L6.28463 11.3445H7.01393H7.74322L8.10916 10.9812L8.47501 10.6177V9.89348V9.16921L8.10924 8.80596C7.74647 8.44569 7.73821 8.44254 7.10735 8.4243C6.75753 8.41418 6.41488 8.42919 6.346 8.45771ZM10.3536 8.45771C10.2847 8.48624 10.078 8.65796 9.89435 8.83937L9.56039 9.16921V9.89348V10.6177L9.92625 10.9812L10.2922 11.3445H11.0215H11.7508L12.1167 10.9812L12.4826 10.6177V9.89348V9.16921L12.1168 8.80596C11.754 8.44569 11.7458 8.44254 11.1149 8.4243C10.7651 8.41418 10.4224 8.42919 10.3536 8.45771ZM19.3705 12.8353V13.953L21.1447 13.9754L22.9189 13.9978L22.9404 18.6618L22.9621 23.3258H24.5059H26.0498V18.6411V13.9563H27.8448H29.6399V12.837V11.7176H24.5052H19.3705V12.8353ZM0.403803 11.9776C0.267713 12.0271 0.145566 12.1588 0.0907125 12.3152C-0.0303489 12.66 -0.0301817 16.5799 0.0908797 16.9247C0.157338 17.114 0.261618 17.2073 0.48746 17.2795C1.02631 17.4518 1.0026 17.3342 1.0026 19.8369C1.0026 21.5113 1.02965 22.1587 1.10279 22.2313C1.24305 22.3706 3.76781 22.3706 3.90807 22.2313C3.97987 22.16 4.00826 21.618 4.00826 20.3171V18.5025L3.52819 18.0588L3.04812 17.6152L3.0229 14.8563C3.00646 13.0534 2.9668 12.0603 2.90835 11.9904C2.7999 11.8607 0.754213 11.8502 0.403803 11.9776ZM4.41135 11.9759C4.27618 12.0261 4.15278 12.1599 4.09826 12.3152C3.9772 12.66 3.97737 16.5799 4.09843 16.9247C4.16489 17.114 4.26917 17.2073 4.49501 17.2795C5.03386 17.4518 5.01015 17.3342 5.01015 19.8369C5.01015 21.5113 5.0372 22.1587 5.11034 22.2313C5.25227 22.3723 8.77558 22.3723 8.91751 22.2313C8.99065 22.1587 9.0177 21.5113 9.0177 19.8369C9.0177 17.3816 9.01052 17.4233 9.45035 17.3136C9.573 17.2831 9.74182 17.1828 9.82556 17.091C9.96524 16.9377 9.97784 16.733 9.97784 14.6133C9.97784 12.3198 9.97642 12.3013 9.78782 12.1138C9.5993 11.9265 9.57709 11.9247 7.11612 11.9089C5.62381 11.8994 4.54552 11.926 4.41135 11.9759ZM11.1258 11.9777C11.0465 12.0573 11.0215 12.7536 11.0215 14.8823V17.6822L10.5695 18.0211C10.3208 18.2075 10.0954 18.417 10.0685 18.4866C9.96874 18.7448 10.0151 22.1273 10.1198 22.2313C10.26 22.3706 12.7848 22.3706 12.9251 22.2313C12.9982 22.1587 13.0253 21.5113 13.0253 19.8369C13.0253 17.3816 13.0181 17.4233 13.4579 17.3136C13.5806 17.2831 13.7494 17.1828 13.8331 17.091C13.9728 16.9377 13.9854 16.733 13.9854 14.6133C13.9854 11.7083 14.117 11.9361 12.4179 11.899C11.5427 11.8798 11.2027 11.9005 11.1258 11.9777ZM144.941 13.293V14.5368H144.356H143.772V15.5317V16.5267H144.352H144.932L144.957 19.0764C144.982 21.5538 144.988 21.6383 145.18 22.0607C145.429 22.6072 145.865 23.0019 146.495 23.2513C146.941 23.4279 147.112 23.4455 148.364 23.4443C149.213 23.4435 149.877 23.4033 150.096 23.3397L150.451 23.2365V22.2447C150.451 21.1518 150.466 21.1755 149.908 21.3749C149.725 21.4406 149.321 21.496 149.012 21.498C148.512 21.5012 148.421 21.476 148.19 21.2713C147.832 20.9538 147.787 20.6365 147.783 18.4151L147.779 16.531L149.094 16.5081L150.409 16.4853L150.433 15.511L150.456 14.5368H149.118H147.779V13.293V12.0493H146.36H144.941V13.293ZM34.0232 14.4257C32.8007 14.6854 31.6632 15.5307 31.1541 16.5578C30.4547 17.9686 30.4693 20.0171 31.1887 21.427C31.4656 21.9697 32.211 22.7119 32.7854 23.017C34.12 23.7258 36.6039 23.7716 37.9374 23.1121C39.3848 22.3964 40.1801 21.1139 40.2999 19.3028C40.4665 16.7826 39.1259 14.8911 36.8355 14.4149C36.0757 14.257 34.7941 14.2619 34.0232 14.4257ZM53.0262 14.3785C51.8316 14.5611 50.9987 14.9622 50.3498 15.6673C49.7009 16.3724 49.5442 17.077 49.8188 18.0552C49.9339 18.465 50.046 18.6439 50.4247 19.0214C50.9668 19.5618 51.4558 19.7749 52.7251 20.0239C54.3419 20.3411 54.702 20.4507 54.8711 20.6771C55.0917 20.9724 54.9593 21.3006 54.5512 21.47C53.5645 21.8794 51.6981 21.5773 50.3931 20.7968C50.1262 20.6373 49.8561 20.5067 49.7928 20.5067C49.7003 20.5067 49.6777 20.7408 49.6777 21.6977V22.8887L50.0325 23.0177C51.1921 23.4393 52.4287 23.6151 53.7687 23.5489C55.3093 23.4729 56.4487 23.0732 57.1714 22.3554C57.7208 21.8098 57.8969 21.3588 57.893 20.5067C57.8894 19.6943 57.7449 19.3348 57.2198 18.8319C56.7442 18.3766 56.0862 18.1199 54.7109 17.8535C53.1383 17.5487 52.8391 17.4447 52.695 17.1525C52.5945 16.9485 52.5997 16.8982 52.7405 16.7109C52.966 16.4109 53.4554 16.2625 54.2279 16.26C55.0516 16.2572 55.7816 16.4412 56.6304 16.8655C56.9875 17.044 57.335 17.19 57.4027 17.19C57.5051 17.19 57.5258 17.0011 57.5258 16.0665V14.9429L57.2127 14.8124C56.3148 14.4385 54.1211 14.2111 53.0262 14.3785ZM62.6694 14.4241C62.3529 14.4915 61.8457 14.6648 61.5423 14.8091C60.8343 15.1461 59.8997 16.0519 59.599 16.6926C58.9374 18.1021 58.9632 20.0592 59.6601 21.3308C59.9692 21.8948 60.7925 22.6524 61.4138 22.9446C62.3631 23.391 63.0286 23.5158 64.4972 23.5231C65.9349 23.5302 66.7583 23.4086 67.7407 23.0439L68.2543 22.8533L68.2775 21.6799C68.2968 20.6995 68.2808 20.5067 68.1795 20.5067C68.1129 20.5067 67.7832 20.6528 67.4467 20.8312C66.5238 21.3209 65.8347 21.5017 64.8905 21.5017C63.8088 21.5017 63.2269 21.3326 62.705 20.8666C62.3315 20.533 62.0343 19.9812 62.0343 19.6213C62.0343 19.5323 62.6417 19.5117 65.2605 19.5117H68.4868L68.4428 18.4131C68.4102 17.5948 68.3532 17.1805 68.2192 16.7897C67.7751 15.4936 66.9217 14.7408 65.5262 14.414C64.8576 14.2576 63.428 14.2625 62.6694 14.4241ZM91.6133 14.4473C89.8277 14.8831 88.5584 16.1533 88.2567 17.8064C88.1396 18.4474 88.1419 19.6362 88.2612 20.1917C88.6473 21.9897 90.0198 23.1233 92.2161 23.4586C93.6363 23.6755 95.2798 23.5397 96.5994 23.0967L97.3091 22.8585V21.7045C97.3091 20.3545 97.3034 20.3474 96.5739 20.7837C96.3134 20.9394 95.783 21.1694 95.3951 21.2947C94.7478 21.5039 94.6094 21.5195 93.7036 21.4854C92.8463 21.4532 92.6546 21.4187 92.2405 21.2219C91.7322 20.9804 91.3464 20.5702 91.1855 20.1005C90.9682 19.4658 90.7119 19.5162 94.2825 19.492L97.4761 19.4702L97.5004 18.7767C97.5838 16.4088 96.5331 14.8644 94.5374 14.4214C93.742 14.2448 92.3942 14.2567 91.6133 14.4473ZM109.958 14.428C109.131 14.573 108.228 14.9668 107.728 15.4C107.525 15.5763 107.265 15.9294 107.112 16.2387C106.867 16.7324 106.85 16.8217 106.885 17.4199C106.915 17.93 106.974 18.16 107.163 18.506C107.635 19.3667 108.344 19.7364 110.214 20.0958C111.762 20.3936 112.077 20.5259 112.113 20.8956C112.13 21.0732 112.085 21.2134 111.975 21.3222C111.792 21.5042 111.136 21.6675 110.587 21.6675C109.691 21.6675 108.28 21.2521 107.444 20.7417C106.784 20.3387 106.785 20.3365 106.785 21.6992V22.8917L107.502 23.1184C108.894 23.5586 110.507 23.6833 111.878 23.4566C113.076 23.2586 113.82 22.9018 114.428 22.2329C115.366 21.2027 115.276 19.5379 114.237 18.6869C113.806 18.3344 113.213 18.1296 111.795 17.8442C110.271 17.5375 110.066 17.4706 109.904 17.2247C109.545 16.68 110.184 16.2461 111.339 16.2506C112.219 16.254 112.756 16.3856 113.691 16.827C114.114 17.0267 114.519 17.19 114.591 17.19C114.704 17.19 114.718 17.0386 114.698 16.05L114.675 14.9101L114.091 14.7238C113.399 14.5033 111.917 14.2849 111.187 14.2957C110.901 14.2999 110.348 14.3595 109.958 14.428ZM127.597 14.4159C127.099 14.549 126.444 14.862 125.926 15.2152L125.571 15.4568V14.9968V14.5368H124.151H122.732V18.9313V23.3258H124.151H125.571V20.2278V17.1298L126.086 16.8999C126.467 16.7304 126.746 16.6676 127.151 16.6606C127.834 16.6488 128.187 16.7917 128.429 17.1791C128.614 17.4745 128.619 17.5356 128.645 20.403L128.671 23.3258H130.127H131.582L131.581 20.2787C131.581 17.0318 131.529 16.4125 131.204 15.7764C130.598 14.5881 129.085 14.0176 127.597 14.4159ZM136.949 14.4473C135.163 14.8831 133.894 16.1533 133.592 17.8064C133.476 18.4438 133.477 19.6358 133.595 20.1811C133.985 21.9892 135.354 23.1232 137.552 23.4586C138.972 23.6755 140.615 23.5397 141.935 23.0967L142.645 22.8585V21.7045C142.645 20.3545 142.639 20.3474 141.909 20.7837C141.649 20.9394 141.118 21.1694 140.731 21.2947C140.083 21.5039 139.945 21.5195 139.039 21.4854C138.182 21.4532 137.99 21.4187 137.576 21.2219C137.068 20.9804 136.682 20.5702 136.521 20.1005C136.304 19.4658 136.047 19.5162 139.618 19.492L142.811 19.4702L142.836 18.7767C142.919 16.4088 141.869 14.8644 139.873 14.4214C139.077 14.2448 137.73 14.2567 136.949 14.4473ZM42.247 18.9313V23.3258H43.7081H45.1692V20.3913V17.4566L45.7598 17.3129C46.2256 17.1996 46.596 17.1769 47.5131 17.2061L48.6758 17.2429V15.8816V14.5203L47.9452 14.5548C47.0648 14.5965 46.4707 14.8067 45.7554 15.3296C45.4787 15.532 45.2335 15.6976 45.2107 15.6976C45.1879 15.6976 45.1692 15.4364 45.1692 15.1172V14.5368H43.7081H42.247V18.9313ZM70.3833 18.9293V23.3258H71.8444H73.3055V20.3931V17.4604L73.7021 17.3459C73.967 17.2695 74.5491 17.2315 75.4554 17.2315H76.8122L76.8121 15.8841V14.5368H76.199C75.3264 14.5368 74.5548 14.8128 73.7751 15.4038C73.562 15.5654 73.3708 15.6976 73.3503 15.6976C73.3299 15.6976 73.302 15.4458 73.2885 15.1379L73.2638 14.5782L71.8235 14.5555L70.3833 14.5329V18.9293ZM77.3474 14.7442C77.3951 14.9332 78.6287 18.1586 80.0586 21.8333L80.6232 23.2843L82.2535 23.3068L83.8839 23.3292L84.3087 22.2289C85.8112 18.3375 86.9406 15.4364 87.0831 15.1018C87.174 14.8881 87.2485 14.6727 87.2485 14.6231C87.2485 14.5607 86.793 14.5399 85.7687 14.5556L84.2889 14.5782L83.3478 17.3973C82.8301 18.9479 82.3842 20.2724 82.3568 20.3408C82.3062 20.4674 82.213 20.2102 80.9811 16.5475L80.3049 14.5368H78.7999H77.2949L77.3474 14.7442ZM99.4381 18.9313V23.3258H100.856H102.275L102.297 20.4113L102.319 17.4969L102.652 17.3669C102.909 17.2672 103.322 17.2363 104.427 17.2342L105.867 17.2315V15.8743V14.5169L105.095 14.5507C104.442 14.5791 104.234 14.6256 103.748 14.8512C103.433 14.9979 102.996 15.2484 102.777 15.4078C102.559 15.5671 102.357 15.6976 102.328 15.6976C102.3 15.6976 102.277 15.4364 102.277 15.1172V14.5368H100.857H99.4381V18.9313ZM64.7926 16.2987C65.1997 16.5025 65.4807 16.9186 65.5767 17.4595L65.632 17.7705H63.8331H62.0343L62.0361 17.5839C62.0388 17.3128 62.313 16.7643 62.558 16.5404C63.0534 16.0875 64.137 15.9704 64.7926 16.2987ZM93.8147 16.2839C94.2391 16.4879 94.4928 16.8605 94.5653 17.3866L94.6183 17.7705H92.8208H91.0233L91.1007 17.428C91.1991 16.9936 91.2672 16.8717 91.5734 16.5824C92.0832 16.1005 93.1406 15.9597 93.8147 16.2839ZM139.15 16.2839C139.575 16.4879 139.828 16.8605 139.901 17.3866L139.954 17.7705H138.156H136.359L136.436 17.428C136.535 16.9936 136.603 16.8717 136.909 16.5824C137.419 16.1005 138.476 15.9597 139.15 16.2839ZM36.3307 16.4981C37.061 16.9231 37.3629 17.7684 37.3027 19.2199C37.2603 20.2409 37.0964 20.7143 36.6282 21.1689C35.7972 21.9759 34.1338 21.5478 33.8165 20.4453C33.4133 19.0445 33.6465 17.2522 34.3095 16.6564C34.7451 16.2649 35.7894 16.1831 36.3307 16.4981ZM116.971 21.7919V23.3258H118.474H119.977V21.7919V20.2579H118.474H116.971V21.7919Z" fill="white"/>
</svg>
