<svg width="531" height="141" viewBox="0 0 531 141" fill="none" xmlns="http://www.w3.org/2000/svg">
<line x1="293" y1="41.5" x2="360" y2="41.5" stroke="#FF2222"/>
<rect x="216" y="4" width="46" height="76" rx="3" fill="#EBEBED" stroke="#222226" stroke-width="2"/>
<path fill-rule="evenodd" clip-rule="evenodd" d="M223.811 15H226.324C226.356 15 226.385 15.0138 226.406 15.0378C226.426 15.0617 226.435 15.0933 226.43 15.1244L224.579 26.3522C224.571 26.4016 224.53 26.4386 224.48 26.4415L221.716 26.5998C221.714 26.5999 221.712 26.6 221.71 26.6C221.68 26.6 221.651 26.5872 221.631 26.5645C221.609 26.5402 221.6 26.5075 221.605 26.4754L223.166 17.0901C223.134 15.6918 221.413 15.3537 221.203 15.3013C220.977 15.2448 221.001 15 221.001 15H223.811ZM237.278 15.0506C237.259 15.0192 237.225 15 237.189 15H234.477C234.438 15 234.402 15.0218 234.384 15.0564L230.642 22.2541L229.368 15.0867C229.359 15.0365 229.316 15 229.266 15H226.535C226.504 15 226.475 15.014 226.455 15.0381C226.435 15.0621 226.427 15.0939 226.433 15.1247L228.454 25.9039C228.464 25.9537 228.507 25.9895 228.557 25.9895C228.559 25.9895 228.561 25.9894 228.563 25.9893L231.715 25.808C231.751 25.8059 231.784 25.7845 231.801 25.7516L237.281 15.1537C237.298 15.1211 237.297 15.082 237.278 15.0506ZM245.724 17.3251C245.689 16.9995 245.615 16.7102 245.503 16.465C245.391 16.2198 245.249 16.0097 245.083 15.8406C244.919 15.6743 244.747 15.5356 244.569 15.4272C244.138 15.1792 243.626 15.0356 243.041 15H237.861C237.811 15 237.768 15.0365 237.76 15.0863L236.088 25.2585C236.082 25.2895 236.092 25.3212 236.112 25.3447C236.132 25.3666 236.159 25.3789 236.188 25.3789C236.19 25.3789 236.192 25.3788 236.194 25.3788L238.798 25.2278C238.846 25.2251 238.885 25.1892 238.893 25.1414L239.204 23.2247L241.739 23.2245C242.316 23.1893 242.861 23.0466 243.357 22.8004C243.787 22.588 244.207 22.246 244.604 21.7841C245.005 21.3178 245.284 20.6543 245.434 19.8115L245.672 18.4482C245.741 18.0266 245.759 17.6487 245.724 17.3251ZM242.72 19.7558C242.689 19.9128 242.632 20.0501 242.55 20.1651C242.479 20.2685 242.382 20.3609 242.264 20.4396C242.151 20.5143 241.995 20.5521 241.801 20.5521H239.628L240.088 17.6552H242.294C242.482 17.6552 242.619 17.6929 242.701 17.7669C242.791 17.8479 242.856 17.9394 242.894 18.0354C242.934 18.1476 242.95 18.2844 242.941 18.4313L242.72 19.7558ZM255.897 15H253.261C253.211 15 253.168 15.0385 253.16 15.0909L252.221 21.0234L250.185 15.0719C250.17 15.0288 250.132 15 250.088 15H247.453C247.402 15 247.359 15.0385 247.351 15.0909L245.743 25.2521C245.738 25.2847 245.747 25.3181 245.768 25.3428C245.787 25.3659 245.815 25.3789 245.845 25.3789C245.847 25.3789 248.526 25.2176 248.526 25.2176C248.574 25.2147 248.614 25.1769 248.622 25.1266L249.294 20.8388L250.714 25.0077C250.73 25.0533 250.771 25.0809 250.817 25.0796L254.39 24.8644C254.438 24.8615 254.478 24.8238 254.486 24.7734L255.999 15.1267C256.004 15.095 255.995 15.0628 255.975 15.0385C255.956 15.0141 255.927 15 255.897 15Z" fill="#FF3344"/>
<line x1="220" y1="57" x2="256" y2="57" stroke="black" stroke-width="2"/>
<line x1="220" y1="41" x2="256" y2="41" stroke="black" stroke-width="2"/>
<line x1="220" y1="71" x2="256" y2="71" stroke="black" stroke-width="2"/>
<circle cx="221.5" cy="64.5" r="1.5" fill="black"/>
<circle cx="221.5" cy="48.5" r="1.5" fill="black"/>
<circle cx="229.5" cy="64.5" r="1.5" fill="black"/>
<circle cx="229.5" cy="48.5" r="1.5" fill="black"/>
<rect x="165" y="100" width="148" height="41" fill="#F2F2F2"/>
<path d="M178.131 116.469H183.064V117.799H181.4V123.676H183.064V125H178.131V123.676H179.754V117.799H178.131V116.469Z" fill="black"/>
<path d="M187.799 122.615L189.41 116.469H191.227L188.643 125H186.967L184.389 116.469H186.205L187.799 122.615Z" fill="black"/>
<path d="M193.934 121.871V125H192.287V116.469H195.205C195.67 116.469 196.09 116.537 196.465 116.674C196.84 116.807 197.158 116.994 197.42 117.236C197.686 117.475 197.889 117.762 198.029 118.098C198.174 118.434 198.246 118.807 198.246 119.217C198.246 119.6 198.174 119.953 198.029 120.277C197.889 120.602 197.686 120.883 197.42 121.121C197.158 121.355 196.84 121.539 196.465 121.672C196.09 121.805 195.67 121.871 195.205 121.871H193.934ZM193.934 120.535H195.205C195.439 120.535 195.643 120.5 195.814 120.43C195.986 120.359 196.129 120.264 196.242 120.143C196.359 120.021 196.445 119.883 196.5 119.727C196.559 119.566 196.588 119.4 196.588 119.229C196.588 119.029 196.559 118.844 196.5 118.672C196.445 118.5 196.359 118.35 196.242 118.221C196.129 118.092 195.986 117.99 195.814 117.916C195.643 117.842 195.439 117.805 195.205 117.805H193.934V120.535Z" fill="black"/>
<path d="M205.014 125H203.373L201 119.498V125H199.342V116.469H201L203.355 121.947L203.361 116.469H205.014V125Z" fill="black"/>
<path d="M217.998 123.219H215.438L214.934 125H213.199L215.994 116.469H217.488L220.23 125H218.496L217.998 123.219ZM215.842 121.818H217.611L216.738 118.678L215.842 121.818Z" fill="black"/>
<path d="M222.545 118.66L222.645 119.539C222.871 119.223 223.146 118.979 223.471 118.807C223.795 118.631 224.154 118.543 224.549 118.543C224.869 118.543 225.162 118.59 225.428 118.684C225.693 118.777 225.922 118.928 226.113 119.135C226.309 119.338 226.459 119.602 226.564 119.926C226.674 120.246 226.729 120.637 226.729 121.098V125H225.1V121.121C225.1 120.871 225.07 120.666 225.012 120.506C224.957 120.342 224.877 120.213 224.771 120.119C224.666 120.025 224.539 119.961 224.391 119.926C224.242 119.887 224.074 119.867 223.887 119.867C223.609 119.867 223.373 119.924 223.178 120.037C222.982 120.146 222.824 120.299 222.703 120.494V125H221.068V118.66H222.545Z" fill="black"/>
<path d="M231.264 117.107V118.66H233.631V119.861H231.264V122.586C231.264 122.816 231.289 123.01 231.34 123.166C231.395 123.318 231.471 123.441 231.568 123.535C231.666 123.625 231.783 123.689 231.92 123.729C232.061 123.768 232.217 123.787 232.389 123.787C232.514 123.787 232.641 123.781 232.77 123.77C232.902 123.758 233.027 123.744 233.145 123.729C233.266 123.709 233.377 123.689 233.479 123.67C233.584 123.65 233.674 123.631 233.748 123.611L233.906 124.73C233.793 124.797 233.66 124.855 233.508 124.906C233.355 124.953 233.193 124.992 233.021 125.023C232.85 125.055 232.67 125.078 232.482 125.094C232.299 125.113 232.117 125.123 231.938 125.123C231.59 125.123 231.273 125.078 230.988 124.988C230.707 124.895 230.465 124.752 230.262 124.561C230.062 124.365 229.908 124.119 229.799 123.822C229.689 123.521 229.635 123.162 229.635 122.744V119.861H228.188V118.66H229.635V117.107H231.264Z" fill="black"/>
<path d="M235.916 118.66H239.367V123.676H241.084V125H235.916V123.676H237.721V119.99H235.916V118.66ZM237.604 117.037C237.604 116.912 237.625 116.797 237.668 116.691C237.715 116.582 237.779 116.49 237.861 116.416C237.943 116.338 238.041 116.277 238.154 116.234C238.271 116.191 238.4 116.17 238.541 116.17C238.83 116.17 239.059 116.252 239.227 116.416C239.398 116.576 239.484 116.783 239.484 117.037C239.484 117.291 239.398 117.5 239.227 117.664C239.059 117.824 238.83 117.904 238.541 117.904C238.4 117.904 238.271 117.883 238.154 117.84C238.041 117.797 237.943 117.738 237.861 117.664C237.779 117.586 237.715 117.494 237.668 117.389C237.625 117.279 237.604 117.162 237.604 117.037Z" fill="black"/>
<path d="M248.396 121.895H243.516V120.576H248.396V121.895Z" fill="black"/>
<path d="M256.107 117.811H253.477V125H251.824V117.811H249.229V116.469H256.107V117.811Z" fill="black"/>
<path d="M261.656 118.543C261.902 118.543 262.129 118.561 262.336 118.596C262.547 118.627 262.717 118.662 262.846 118.701L262.605 120.324C262.391 120.273 262.17 120.236 261.943 120.213C261.721 120.186 261.508 120.172 261.305 120.172C260.848 120.172 260.48 120.26 260.203 120.436C259.93 120.611 259.725 120.863 259.588 121.191V125H257.959V118.66H259.477L259.553 119.697C259.811 119.338 260.119 119.057 260.479 118.854C260.838 118.646 261.23 118.543 261.656 118.543Z" fill="black"/>
<path d="M268.271 125C268.232 124.922 268.199 124.832 268.172 124.73C268.145 124.629 268.121 124.521 268.102 124.408C268.012 124.506 267.908 124.598 267.791 124.684C267.674 124.77 267.543 124.846 267.398 124.912C267.258 124.975 267.102 125.023 266.93 125.059C266.758 125.098 266.572 125.117 266.373 125.117C266.049 125.117 265.75 125.07 265.477 124.977C265.207 124.883 264.975 124.752 264.779 124.584C264.584 124.416 264.432 124.217 264.322 123.986C264.213 123.752 264.158 123.498 264.158 123.225C264.158 122.557 264.406 122.041 264.902 121.678C265.402 121.311 266.146 121.127 267.135 121.127H268.043V120.752C268.043 120.447 267.943 120.207 267.744 120.031C267.545 119.852 267.258 119.762 266.883 119.762C266.551 119.762 266.309 119.834 266.156 119.979C266.004 120.119 265.928 120.309 265.928 120.547H264.299C264.299 120.277 264.357 120.021 264.475 119.779C264.596 119.537 264.77 119.324 264.996 119.141C265.227 118.957 265.506 118.812 265.834 118.707C266.166 118.598 266.545 118.543 266.971 118.543C267.354 118.543 267.709 118.59 268.037 118.684C268.369 118.777 268.656 118.916 268.898 119.1C269.141 119.283 269.33 119.516 269.467 119.797C269.604 120.074 269.672 120.396 269.672 120.764V123.482C269.672 123.822 269.693 124.104 269.736 124.326C269.779 124.549 269.842 124.74 269.924 124.9V125H268.271ZM266.719 123.857C266.883 123.857 267.035 123.838 267.176 123.799C267.316 123.76 267.443 123.709 267.557 123.646C267.67 123.584 267.768 123.514 267.85 123.436C267.932 123.354 267.996 123.271 268.043 123.189V122.1H267.211C266.957 122.1 266.74 122.125 266.561 122.176C266.381 122.223 266.234 122.291 266.121 122.381C266.008 122.467 265.924 122.572 265.869 122.697C265.814 122.818 265.787 122.951 265.787 123.096C265.787 123.314 265.863 123.496 266.016 123.641C266.172 123.785 266.406 123.857 266.719 123.857Z" fill="black"/>
<path d="M274.324 123.816C274.484 123.816 274.637 123.793 274.781 123.746C274.926 123.699 275.053 123.633 275.162 123.547C275.271 123.461 275.355 123.357 275.414 123.236C275.477 123.115 275.504 122.98 275.496 122.832H277.031C277.039 123.16 276.971 123.465 276.826 123.746C276.686 124.027 276.492 124.27 276.246 124.473C276 124.676 275.713 124.836 275.385 124.953C275.061 125.066 274.717 125.123 274.354 125.123C273.861 125.123 273.43 125.041 273.059 124.877C272.688 124.709 272.377 124.48 272.127 124.191C271.881 123.902 271.693 123.564 271.564 123.178C271.439 122.787 271.377 122.369 271.377 121.924V121.748C271.377 121.303 271.439 120.887 271.564 120.5C271.689 120.109 271.877 119.77 272.127 119.48C272.377 119.191 272.686 118.963 273.053 118.795C273.424 118.627 273.854 118.543 274.342 118.543C274.732 118.543 275.094 118.602 275.426 118.719C275.758 118.836 276.043 119.002 276.281 119.217C276.523 119.428 276.711 119.686 276.844 119.99C276.977 120.291 277.039 120.629 277.031 121.004H275.496C275.504 120.848 275.48 120.699 275.426 120.559C275.371 120.418 275.291 120.297 275.186 120.195C275.08 120.094 274.953 120.014 274.805 119.955C274.656 119.893 274.494 119.861 274.318 119.861C274.061 119.861 273.848 119.914 273.68 120.02C273.512 120.125 273.377 120.266 273.275 120.441C273.178 120.617 273.107 120.818 273.064 121.045C273.025 121.271 273.006 121.506 273.006 121.748V121.924C273.006 122.17 273.025 122.408 273.064 122.639C273.104 122.865 273.172 123.066 273.27 123.242C273.371 123.414 273.506 123.553 273.674 123.658C273.846 123.764 274.062 123.816 274.324 123.816Z" fill="black"/>
<path d="M281.109 122.381L280.371 123.066V125H278.742V116H280.371V121.145L280.863 120.582L282.615 118.66H284.572L282.182 121.303L284.906 125H282.908L281.109 122.381Z" fill="black"/>
<path d="M289.008 125.117C288.52 125.117 288.076 125.037 287.678 124.877C287.279 124.717 286.938 124.5 286.652 124.227C286.367 123.949 286.146 123.625 285.99 123.254C285.838 122.879 285.762 122.479 285.762 122.053V121.818C285.762 121.334 285.838 120.893 285.99 120.494C286.143 120.092 286.355 119.746 286.629 119.457C286.902 119.168 287.227 118.943 287.602 118.783C287.977 118.623 288.385 118.543 288.826 118.543C289.283 118.543 289.689 118.619 290.045 118.771C290.404 118.92 290.707 119.131 290.953 119.404C291.203 119.678 291.393 120.008 291.521 120.395C291.65 120.777 291.715 121.201 291.715 121.666V122.357H287.414C287.445 122.572 287.508 122.77 287.602 122.949C287.699 123.125 287.822 123.277 287.971 123.406C288.119 123.535 288.289 123.635 288.48 123.705C288.672 123.775 288.881 123.811 289.107 123.811C289.268 123.811 289.426 123.795 289.582 123.764C289.742 123.732 289.895 123.688 290.039 123.629C290.184 123.566 290.318 123.49 290.443 123.4C290.568 123.311 290.678 123.205 290.771 123.084L291.586 123.963C291.484 124.107 291.352 124.25 291.188 124.391C291.027 124.527 290.836 124.65 290.613 124.76C290.395 124.865 290.15 124.951 289.881 125.018C289.611 125.084 289.32 125.117 289.008 125.117ZM288.814 119.861C288.631 119.861 288.463 119.895 288.311 119.961C288.158 120.023 288.023 120.115 287.906 120.236C287.793 120.357 287.697 120.502 287.619 120.67C287.541 120.838 287.482 121.025 287.443 121.232H290.115V121.104C290.107 120.932 290.074 120.77 290.016 120.617C289.957 120.465 289.873 120.334 289.764 120.225C289.654 120.111 289.52 120.023 289.359 119.961C289.203 119.895 289.021 119.861 288.814 119.861Z" fill="black"/>
<path d="M297.691 118.543C297.938 118.543 298.164 118.561 298.371 118.596C298.582 118.627 298.752 118.662 298.881 118.701L298.641 120.324C298.426 120.273 298.205 120.236 297.979 120.213C297.756 120.186 297.543 120.172 297.34 120.172C296.883 120.172 296.516 120.26 296.238 120.436C295.965 120.611 295.76 120.863 295.623 121.191V125H293.994V118.66H295.512L295.588 119.697C295.846 119.338 296.154 119.057 296.514 118.854C296.873 118.646 297.266 118.543 297.691 118.543Z" fill="black"/>
<path d="M444 68L444 78" stroke="#222226" stroke-width="6" stroke-linecap="round"/>
<line x1="426" y1="78" x2="461" y2="78" stroke="#222226" stroke-width="6" stroke-linecap="round"/>
<rect x="399" y="8" width="89" height="59" rx="3" fill="#EBEBED" stroke="#222226" stroke-width="2"/>
<line x1="116" y1="41.5" x2="183" y2="41.5" stroke="#FF2222"/>
<rect x="357" y="100" width="174" height="41" fill="#F2F2F2"/>
<path d="M376.053 109.469H381.209V110.412H379.164V117.062H381.209V118H376.053V117.062H378.051V110.412H376.053V109.469Z" fill="black"/>
<path d="M385.814 116.254L387.83 109.469H388.984L386.295 118H385.352L382.656 109.469H383.816L385.814 116.254Z" fill="black"/>
<path d="M391.65 114.578V118H390.566V109.469H393.332C393.715 109.477 394.076 109.537 394.416 109.65C394.76 109.764 395.061 109.928 395.318 110.143C395.576 110.357 395.779 110.623 395.928 110.939C396.08 111.256 396.156 111.619 396.156 112.029C396.156 112.439 396.08 112.803 395.928 113.119C395.779 113.432 395.576 113.695 395.318 113.91C395.061 114.125 394.76 114.289 394.416 114.402C394.076 114.516 393.715 114.574 393.332 114.578H391.65ZM391.65 113.688H393.332C393.582 113.684 393.812 113.645 394.023 113.57C394.234 113.492 394.418 113.383 394.574 113.242C394.73 113.102 394.852 112.932 394.938 112.732C395.027 112.529 395.072 112.299 395.072 112.041C395.072 111.783 395.027 111.551 394.938 111.344C394.852 111.137 394.73 110.961 394.574 110.816C394.422 110.672 394.238 110.561 394.023 110.482C393.812 110.404 393.582 110.363 393.332 110.359H391.65V113.688Z" fill="black"/>
<path d="M403.018 118H401.916L398.605 111.625L398.588 118H397.492V109.469H398.594L401.904 115.832L401.922 109.469H403.018V118Z" fill="black"/>
<path d="M417.461 114.9C417.461 115.354 417.406 115.777 417.297 116.172C417.188 116.562 417.027 116.902 416.816 117.191C416.605 117.48 416.344 117.707 416.031 117.871C415.723 118.035 415.367 118.117 414.965 118.117C414.559 118.117 414.205 118.045 413.904 117.9C413.607 117.756 413.354 117.549 413.143 117.279L413.09 118H412.094V109H413.178V112.34C413.385 112.082 413.635 111.885 413.928 111.748C414.221 111.611 414.562 111.543 414.953 111.543C415.359 111.543 415.719 111.623 416.031 111.783C416.344 111.943 416.605 112.166 416.816 112.451C417.027 112.736 417.188 113.078 417.297 113.477C417.406 113.871 417.461 114.305 417.461 114.777V114.9ZM416.377 114.777C416.377 114.469 416.346 114.176 416.283 113.898C416.225 113.617 416.129 113.371 415.996 113.16C415.863 112.945 415.689 112.775 415.475 112.65C415.26 112.525 414.996 112.463 414.684 112.463C414.496 112.463 414.324 112.488 414.168 112.539C414.012 112.586 413.871 112.654 413.746 112.744C413.625 112.83 413.516 112.934 413.418 113.055C413.324 113.172 413.244 113.301 413.178 113.441V116.213C413.248 116.354 413.33 116.484 413.424 116.605C413.521 116.723 413.633 116.826 413.758 116.916C413.883 117.006 414.023 117.076 414.18 117.127C414.336 117.174 414.508 117.197 414.695 117.197C414.992 117.197 415.246 117.137 415.457 117.016C415.672 116.891 415.846 116.723 415.979 116.512C416.115 116.301 416.215 116.057 416.277 115.779C416.344 115.502 416.377 115.209 416.377 114.9V114.777Z" fill="black"/>
<path d="M419.465 109H422.705V117.062H424.773V118H419.465V117.062H421.621V109.943H419.465V109Z" fill="black"/>
<path d="M426.197 114.771C426.197 114.314 426.264 113.891 426.396 113.5C426.529 113.105 426.719 112.764 426.965 112.475C427.215 112.186 427.518 111.959 427.873 111.795C428.229 111.627 428.629 111.543 429.074 111.543C429.523 111.543 429.926 111.627 430.281 111.795C430.641 111.959 430.943 112.186 431.189 112.475C431.439 112.764 431.631 113.105 431.764 113.5C431.896 113.891 431.963 114.314 431.963 114.771V114.9C431.963 115.357 431.896 115.781 431.764 116.172C431.631 116.562 431.439 116.902 431.189 117.191C430.943 117.48 430.643 117.707 430.287 117.871C429.932 118.035 429.531 118.117 429.086 118.117C428.637 118.117 428.232 118.035 427.873 117.871C427.518 117.707 427.215 117.48 426.965 117.191C426.719 116.902 426.529 116.562 426.396 116.172C426.264 115.781 426.197 115.357 426.197 114.9V114.771ZM427.281 114.9C427.281 115.213 427.318 115.512 427.393 115.797C427.467 116.078 427.578 116.326 427.727 116.541C427.879 116.756 428.068 116.926 428.295 117.051C428.521 117.176 428.785 117.238 429.086 117.238C429.383 117.238 429.643 117.176 429.865 117.051C430.092 116.926 430.279 116.756 430.428 116.541C430.58 116.326 430.693 116.078 430.768 115.797C430.842 115.512 430.879 115.213 430.879 114.9V114.771C430.879 114.463 430.84 114.168 430.762 113.887C430.688 113.602 430.574 113.352 430.422 113.137C430.273 112.922 430.086 112.752 429.859 112.627C429.637 112.498 429.375 112.434 429.074 112.434C428.773 112.434 428.512 112.498 428.289 112.627C428.066 112.752 427.879 112.922 427.727 113.137C427.578 113.352 427.467 113.602 427.393 113.887C427.318 114.168 427.281 114.463 427.281 114.771V114.9Z" fill="black"/>
<path d="M436.41 117.238C436.605 117.238 436.795 117.207 436.979 117.145C437.166 117.082 437.332 116.996 437.477 116.887C437.621 116.773 437.736 116.643 437.822 116.494C437.912 116.342 437.959 116.178 437.963 116.002H438.988C438.984 116.283 438.91 116.553 438.766 116.811C438.625 117.064 438.436 117.289 438.197 117.484C437.959 117.676 437.686 117.83 437.377 117.947C437.068 118.061 436.746 118.117 436.41 118.117C435.93 118.117 435.51 118.031 435.15 117.859C434.791 117.688 434.49 117.457 434.248 117.168C434.01 116.875 433.83 116.539 433.709 116.16C433.588 115.777 433.527 115.375 433.527 114.953V114.707C433.527 114.289 433.588 113.889 433.709 113.506C433.83 113.123 434.01 112.787 434.248 112.498C434.49 112.205 434.791 111.973 435.15 111.801C435.51 111.629 435.93 111.543 436.41 111.543C436.785 111.543 437.129 111.604 437.441 111.725C437.758 111.842 438.029 112.004 438.256 112.211C438.486 112.414 438.666 112.656 438.795 112.938C438.924 113.219 438.988 113.52 438.988 113.84H437.963C437.959 113.648 437.916 113.469 437.834 113.301C437.756 113.129 437.648 112.979 437.512 112.85C437.375 112.721 437.211 112.619 437.02 112.545C436.832 112.471 436.629 112.434 436.41 112.434C436.074 112.434 435.791 112.502 435.561 112.639C435.334 112.771 435.15 112.947 435.01 113.166C434.869 113.381 434.768 113.623 434.705 113.893C434.646 114.162 434.617 114.434 434.617 114.707V114.953C434.617 115.23 434.646 115.506 434.705 115.779C434.768 116.049 434.867 116.293 435.004 116.512C435.145 116.727 435.328 116.902 435.555 117.039C435.785 117.172 436.07 117.238 436.41 117.238Z" fill="black"/>
<path d="M442.814 115.041L442.018 115.809V118H440.928V109H442.018V114.508L442.727 113.746L444.807 111.66H446.125L443.559 114.303L446.518 118H445.141L442.814 115.041Z" fill="black"/>
<path d="M452.336 116.318C452.336 116.189 452.311 116.074 452.26 115.973C452.209 115.867 452.123 115.771 452.002 115.686C451.881 115.6 451.721 115.521 451.521 115.451C451.322 115.377 451.074 115.311 450.777 115.252C450.414 115.178 450.082 115.088 449.781 114.982C449.484 114.877 449.229 114.752 449.014 114.607C448.803 114.459 448.639 114.287 448.521 114.092C448.404 113.893 448.346 113.662 448.346 113.4C448.346 113.143 448.406 112.902 448.527 112.68C448.648 112.453 448.818 112.256 449.037 112.088C449.256 111.92 449.516 111.787 449.816 111.689C450.121 111.592 450.455 111.543 450.818 111.543C451.209 111.543 451.561 111.594 451.873 111.695C452.186 111.797 452.451 111.938 452.67 112.117C452.889 112.297 453.057 112.508 453.174 112.75C453.295 112.988 453.355 113.246 453.355 113.523H452.271C452.271 113.387 452.236 113.254 452.166 113.125C452.096 112.992 451.998 112.875 451.873 112.773C451.748 112.672 451.596 112.59 451.416 112.527C451.24 112.465 451.041 112.434 450.818 112.434C450.588 112.434 450.385 112.459 450.209 112.51C450.037 112.561 449.893 112.629 449.775 112.715C449.662 112.801 449.576 112.9 449.518 113.014C449.459 113.127 449.43 113.244 449.43 113.365C449.43 113.49 449.453 113.602 449.5 113.699C449.547 113.797 449.627 113.885 449.74 113.963C449.857 114.041 450.012 114.111 450.203 114.174C450.398 114.236 450.645 114.297 450.941 114.355C451.332 114.438 451.682 114.533 451.99 114.643C452.299 114.748 452.559 114.877 452.77 115.029C452.98 115.178 453.141 115.352 453.25 115.551C453.363 115.75 453.42 115.98 453.42 116.242C453.42 116.523 453.355 116.779 453.227 117.01C453.102 117.24 452.926 117.438 452.699 117.602C452.473 117.766 452.201 117.893 451.885 117.982C451.568 118.072 451.223 118.117 450.848 118.117C450.418 118.117 450.035 118.061 449.699 117.947C449.363 117.83 449.078 117.678 448.844 117.49C448.613 117.299 448.436 117.078 448.311 116.828C448.189 116.578 448.129 116.318 448.129 116.049H449.213C449.229 116.271 449.287 116.459 449.389 116.611C449.494 116.764 449.623 116.887 449.775 116.98C449.932 117.074 450.104 117.141 450.291 117.18C450.479 117.219 450.664 117.238 450.848 117.238C451.305 117.238 451.666 117.154 451.932 116.986C452.197 116.818 452.332 116.596 452.336 116.318Z" fill="black"/>
<path d="M466.703 118C466.66 117.918 466.625 117.816 466.598 117.695C466.574 117.57 466.557 117.441 466.545 117.309C466.436 117.418 466.312 117.521 466.176 117.619C466.043 117.717 465.895 117.803 465.73 117.877C465.57 117.951 465.398 118.01 465.215 118.053C465.031 118.096 464.836 118.117 464.629 118.117C464.293 118.117 463.988 118.068 463.715 117.971C463.445 117.873 463.215 117.742 463.023 117.578C462.836 117.41 462.689 117.213 462.584 116.986C462.482 116.756 462.432 116.508 462.432 116.242C462.432 115.895 462.5 115.59 462.637 115.328C462.777 115.066 462.975 114.85 463.229 114.678C463.482 114.502 463.787 114.371 464.143 114.285C464.502 114.199 464.902 114.156 465.344 114.156H466.527V113.658C466.527 113.467 466.492 113.295 466.422 113.143C466.352 112.99 466.252 112.861 466.123 112.756C465.994 112.646 465.836 112.562 465.648 112.504C465.465 112.445 465.258 112.416 465.027 112.416C464.812 112.416 464.619 112.443 464.447 112.498C464.279 112.553 464.137 112.625 464.02 112.715C463.902 112.805 463.811 112.912 463.744 113.037C463.682 113.158 463.65 113.285 463.65 113.418H462.561C462.564 113.188 462.623 112.961 462.736 112.738C462.854 112.516 463.02 112.316 463.234 112.141C463.453 111.961 463.717 111.816 464.025 111.707C464.338 111.598 464.691 111.543 465.086 111.543C465.445 111.543 465.779 111.588 466.088 111.678C466.396 111.764 466.662 111.896 466.885 112.076C467.111 112.252 467.289 112.473 467.418 112.738C467.547 113.004 467.611 113.314 467.611 113.67V116.617C467.611 116.828 467.631 117.053 467.67 117.291C467.709 117.525 467.764 117.73 467.834 117.906V118H466.703ZM464.787 117.174C464.998 117.174 465.195 117.146 465.379 117.092C465.562 117.037 465.729 116.965 465.877 116.875C466.029 116.785 466.16 116.684 466.27 116.57C466.379 116.453 466.465 116.332 466.527 116.207V114.924H465.52C464.887 114.924 464.395 115.018 464.043 115.205C463.691 115.393 463.516 115.688 463.516 116.09C463.516 116.246 463.541 116.391 463.592 116.523C463.646 116.656 463.727 116.771 463.832 116.869C463.938 116.963 464.07 117.037 464.23 117.092C464.391 117.146 464.576 117.174 464.787 117.174Z" fill="black"/>
<path d="M469.539 114.777C469.539 114.305 469.598 113.871 469.715 113.477C469.836 113.078 470.006 112.736 470.225 112.451C470.447 112.166 470.715 111.943 471.027 111.783C471.34 111.623 471.689 111.543 472.076 111.543C472.455 111.543 472.785 111.607 473.066 111.736C473.352 111.861 473.598 112.045 473.805 112.287V109H474.889V118H473.893L473.846 117.332C473.635 117.59 473.383 117.785 473.09 117.918C472.797 118.051 472.455 118.117 472.064 118.117C471.682 118.117 471.334 118.035 471.021 117.871C470.713 117.707 470.449 117.48 470.23 117.191C470.012 116.902 469.842 116.562 469.721 116.172C469.6 115.777 469.539 115.354 469.539 114.9V114.777ZM470.623 114.9C470.623 115.209 470.656 115.502 470.723 115.779C470.789 116.057 470.891 116.301 471.027 116.512C471.168 116.723 471.346 116.891 471.561 117.016C471.775 117.137 472.033 117.197 472.334 117.197C472.518 117.197 472.684 117.176 472.832 117.133C472.98 117.09 473.115 117.029 473.236 116.951C473.357 116.869 473.465 116.773 473.559 116.664C473.652 116.551 473.734 116.426 473.805 116.289V113.348C473.664 113.09 473.475 112.879 473.236 112.715C472.998 112.547 472.701 112.463 472.346 112.463C472.041 112.463 471.779 112.525 471.561 112.65C471.346 112.775 471.168 112.945 471.027 113.16C470.891 113.371 470.789 113.617 470.723 113.898C470.656 114.176 470.623 114.469 470.623 114.777V114.9Z" fill="black"/>
<path d="M481.164 116.318C481.164 116.189 481.139 116.074 481.088 115.973C481.037 115.867 480.951 115.771 480.83 115.686C480.709 115.6 480.549 115.521 480.35 115.451C480.15 115.377 479.902 115.311 479.605 115.252C479.242 115.178 478.91 115.088 478.609 114.982C478.312 114.877 478.057 114.752 477.842 114.607C477.631 114.459 477.467 114.287 477.35 114.092C477.232 113.893 477.174 113.662 477.174 113.4C477.174 113.143 477.234 112.902 477.355 112.68C477.477 112.453 477.646 112.256 477.865 112.088C478.084 111.92 478.344 111.787 478.645 111.689C478.949 111.592 479.283 111.543 479.646 111.543C480.037 111.543 480.389 111.594 480.701 111.695C481.014 111.797 481.279 111.938 481.498 112.117C481.717 112.297 481.885 112.508 482.002 112.75C482.123 112.988 482.184 113.246 482.184 113.523H481.1C481.1 113.387 481.064 113.254 480.994 113.125C480.924 112.992 480.826 112.875 480.701 112.773C480.576 112.672 480.424 112.59 480.244 112.527C480.068 112.465 479.869 112.434 479.646 112.434C479.416 112.434 479.213 112.459 479.037 112.51C478.865 112.561 478.721 112.629 478.604 112.715C478.49 112.801 478.404 112.9 478.346 113.014C478.287 113.127 478.258 113.244 478.258 113.365C478.258 113.49 478.281 113.602 478.328 113.699C478.375 113.797 478.455 113.885 478.568 113.963C478.686 114.041 478.84 114.111 479.031 114.174C479.227 114.236 479.473 114.297 479.77 114.355C480.16 114.438 480.51 114.533 480.818 114.643C481.127 114.748 481.387 114.877 481.598 115.029C481.809 115.178 481.969 115.352 482.078 115.551C482.191 115.75 482.248 115.98 482.248 116.242C482.248 116.523 482.184 116.779 482.055 117.01C481.93 117.24 481.754 117.438 481.527 117.602C481.301 117.766 481.029 117.893 480.713 117.982C480.396 118.072 480.051 118.117 479.676 118.117C479.246 118.117 478.863 118.061 478.527 117.947C478.191 117.83 477.906 117.678 477.672 117.49C477.441 117.299 477.264 117.078 477.139 116.828C477.018 116.578 476.957 116.318 476.957 116.049H478.041C478.057 116.271 478.115 116.459 478.217 116.611C478.322 116.764 478.451 116.887 478.604 116.98C478.76 117.074 478.932 117.141 479.119 117.18C479.307 117.219 479.492 117.238 479.676 117.238C480.133 117.238 480.494 117.154 480.76 116.986C481.025 116.818 481.16 116.596 481.164 116.318Z" fill="black"/>
<path d="M495.531 118C495.488 117.918 495.453 117.816 495.426 117.695C495.402 117.57 495.385 117.441 495.373 117.309C495.264 117.418 495.141 117.521 495.004 117.619C494.871 117.717 494.723 117.803 494.559 117.877C494.398 117.951 494.227 118.01 494.043 118.053C493.859 118.096 493.664 118.117 493.457 118.117C493.121 118.117 492.816 118.068 492.543 117.971C492.273 117.873 492.043 117.742 491.852 117.578C491.664 117.41 491.518 117.213 491.412 116.986C491.311 116.756 491.26 116.508 491.26 116.242C491.26 115.895 491.328 115.59 491.465 115.328C491.605 115.066 491.803 114.85 492.057 114.678C492.311 114.502 492.615 114.371 492.971 114.285C493.33 114.199 493.73 114.156 494.172 114.156H495.355V113.658C495.355 113.467 495.32 113.295 495.25 113.143C495.18 112.99 495.08 112.861 494.951 112.756C494.822 112.646 494.664 112.562 494.477 112.504C494.293 112.445 494.086 112.416 493.855 112.416C493.641 112.416 493.447 112.443 493.275 112.498C493.107 112.553 492.965 112.625 492.848 112.715C492.73 112.805 492.639 112.912 492.572 113.037C492.51 113.158 492.479 113.285 492.479 113.418H491.389C491.393 113.188 491.451 112.961 491.564 112.738C491.682 112.516 491.848 112.316 492.062 112.141C492.281 111.961 492.545 111.816 492.854 111.707C493.166 111.598 493.52 111.543 493.914 111.543C494.273 111.543 494.607 111.588 494.916 111.678C495.225 111.764 495.49 111.896 495.713 112.076C495.939 112.252 496.117 112.473 496.246 112.738C496.375 113.004 496.439 113.314 496.439 113.67V116.617C496.439 116.828 496.459 117.053 496.498 117.291C496.537 117.525 496.592 117.73 496.662 117.906V118H495.531ZM493.615 117.174C493.826 117.174 494.023 117.146 494.207 117.092C494.391 117.037 494.557 116.965 494.705 116.875C494.857 116.785 494.988 116.684 495.098 116.57C495.207 116.453 495.293 116.332 495.355 116.207V114.924H494.348C493.715 114.924 493.223 115.018 492.871 115.205C492.52 115.393 492.344 115.688 492.344 116.09C492.344 116.246 492.369 116.391 492.42 116.523C492.475 116.656 492.555 116.771 492.66 116.869C492.766 116.963 492.898 117.037 493.059 117.092C493.219 117.146 493.404 117.174 493.615 117.174Z" fill="black"/>
<path d="M499.545 111.66L499.621 112.598C499.852 112.27 500.135 112.014 500.471 111.83C500.807 111.643 501.182 111.547 501.596 111.543C501.928 111.543 502.229 111.59 502.498 111.684C502.771 111.777 503.004 111.924 503.195 112.123C503.387 112.322 503.533 112.576 503.635 112.885C503.74 113.189 503.793 113.553 503.793 113.975V118H502.709V113.998C502.709 113.717 502.678 113.479 502.615 113.283C502.553 113.088 502.459 112.93 502.334 112.809C502.213 112.688 502.062 112.6 501.883 112.545C501.707 112.49 501.504 112.463 501.273 112.463C500.91 112.463 500.59 112.555 500.312 112.738C500.039 112.918 499.82 113.156 499.656 113.453V118H498.572V111.66H499.545Z" fill="black"/>
<path d="M505.574 114.777C505.574 114.305 505.633 113.871 505.75 113.477C505.871 113.078 506.041 112.736 506.26 112.451C506.482 112.166 506.75 111.943 507.062 111.783C507.375 111.623 507.725 111.543 508.111 111.543C508.49 111.543 508.82 111.607 509.102 111.736C509.387 111.861 509.633 112.045 509.84 112.287V109H510.924V118H509.928L509.881 117.332C509.67 117.59 509.418 117.785 509.125 117.918C508.832 118.051 508.49 118.117 508.1 118.117C507.717 118.117 507.369 118.035 507.057 117.871C506.748 117.707 506.484 117.48 506.266 117.191C506.047 116.902 505.877 116.562 505.756 116.172C505.635 115.777 505.574 115.354 505.574 114.9V114.777ZM506.658 114.9C506.658 115.209 506.691 115.502 506.758 115.779C506.824 116.057 506.926 116.301 507.062 116.512C507.203 116.723 507.381 116.891 507.596 117.016C507.811 117.137 508.068 117.197 508.369 117.197C508.553 117.197 508.719 117.176 508.867 117.133C509.016 117.09 509.15 117.029 509.271 116.951C509.393 116.869 509.5 116.773 509.594 116.664C509.688 116.551 509.77 116.426 509.84 116.289V113.348C509.699 113.09 509.51 112.879 509.271 112.715C509.033 112.547 508.736 112.463 508.381 112.463C508.076 112.463 507.814 112.525 507.596 112.65C507.381 112.775 507.203 112.945 507.062 113.16C506.926 113.371 506.824 113.617 506.758 113.898C506.691 114.176 506.658 114.469 506.658 114.777V114.9Z" fill="black"/>
<path d="M402.543 127.213H403.316C403.59 127.213 403.83 127.176 404.037 127.102C404.248 127.027 404.424 126.926 404.564 126.797C404.709 126.668 404.818 126.514 404.893 126.334C404.967 126.154 405.004 125.957 405.004 125.742C405.004 125.246 404.877 124.873 404.623 124.623C404.369 124.369 403.998 124.242 403.51 124.242C403.279 124.242 403.068 124.277 402.877 124.348C402.689 124.414 402.527 124.512 402.391 124.641C402.258 124.77 402.154 124.924 402.08 125.104C402.006 125.283 401.969 125.484 401.969 125.707H400.879C400.879 125.383 400.941 125.078 401.066 124.793C401.195 124.504 401.375 124.254 401.605 124.043C401.836 123.828 402.111 123.66 402.432 123.539C402.756 123.414 403.115 123.352 403.51 123.352C403.893 123.352 404.242 123.404 404.559 123.51C404.875 123.611 405.146 123.764 405.373 123.967C405.6 124.17 405.775 124.422 405.9 124.723C406.025 125.023 406.088 125.371 406.088 125.766C406.088 125.93 406.062 126.1 406.012 126.275C405.961 126.451 405.883 126.623 405.777 126.791C405.672 126.955 405.535 127.111 405.367 127.26C405.203 127.404 405.006 127.525 404.775 127.623C405.053 127.713 405.283 127.83 405.467 127.975C405.654 128.119 405.803 128.281 405.912 128.461C406.025 128.641 406.104 128.83 406.146 129.029C406.193 129.229 406.217 129.426 406.217 129.621C406.217 130.02 406.148 130.373 406.012 130.682C405.875 130.99 405.686 131.252 405.443 131.467C405.201 131.678 404.914 131.84 404.582 131.953C404.254 132.062 403.898 132.117 403.516 132.117C403.141 132.117 402.787 132.064 402.455 131.959C402.127 131.854 401.842 131.699 401.6 131.496C401.357 131.293 401.164 131.045 401.02 130.752C400.879 130.459 400.809 130.125 400.809 129.75H401.893C401.893 129.973 401.93 130.176 402.004 130.359C402.082 130.543 402.191 130.699 402.332 130.828C402.473 130.957 402.643 131.057 402.842 131.127C403.045 131.197 403.27 131.232 403.516 131.232C403.762 131.232 403.984 131.201 404.184 131.139C404.383 131.072 404.553 130.973 404.693 130.84C404.834 130.707 404.941 130.543 405.016 130.348C405.094 130.148 405.133 129.914 405.133 129.645C405.133 129.379 405.088 129.15 404.998 128.959C404.912 128.764 404.789 128.602 404.629 128.473C404.473 128.344 404.281 128.248 404.055 128.186C403.832 128.123 403.586 128.092 403.316 128.092H402.543V127.213Z" fill="black"/>
<path d="M413.225 128.713H408.742V127.822H413.225V128.713Z" fill="black"/>
<path d="M419.846 125.543C419.947 125.543 420.053 125.547 420.162 125.555C420.271 125.559 420.375 125.568 420.473 125.584C420.574 125.596 420.666 125.611 420.748 125.631C420.834 125.65 420.904 125.672 420.959 125.695L420.812 126.756C420.602 126.709 420.4 126.676 420.209 126.656C420.021 126.633 419.824 126.621 419.617 126.621C419.109 126.621 418.697 126.736 418.381 126.967C418.068 127.197 417.838 127.52 417.689 127.934V132H416.6V125.66H417.631L417.684 126.668C417.941 126.32 418.25 126.047 418.609 125.848C418.973 125.645 419.385 125.543 419.846 125.543Z" fill="black"/>
<path d="M422.693 128.777C422.693 128.305 422.752 127.871 422.869 127.477C422.99 127.078 423.16 126.736 423.379 126.451C423.602 126.166 423.869 125.943 424.182 125.783C424.494 125.623 424.844 125.543 425.23 125.543C425.609 125.543 425.939 125.607 426.221 125.736C426.506 125.861 426.752 126.045 426.959 126.287V123H428.043V132H427.047L427 131.332C426.789 131.59 426.537 131.785 426.244 131.918C425.951 132.051 425.609 132.117 425.219 132.117C424.836 132.117 424.488 132.035 424.176 131.871C423.867 131.707 423.604 131.48 423.385 131.191C423.166 130.902 422.996 130.562 422.875 130.172C422.754 129.777 422.693 129.354 422.693 128.9V128.777ZM423.777 128.9C423.777 129.209 423.811 129.502 423.877 129.779C423.943 130.057 424.045 130.301 424.182 130.512C424.322 130.723 424.5 130.891 424.715 131.016C424.93 131.137 425.188 131.197 425.488 131.197C425.672 131.197 425.838 131.176 425.986 131.133C426.135 131.09 426.27 131.029 426.391 130.951C426.512 130.869 426.619 130.773 426.713 130.664C426.807 130.551 426.889 130.426 426.959 130.289V127.348C426.818 127.09 426.629 126.879 426.391 126.715C426.152 126.547 425.855 126.463 425.5 126.463C425.195 126.463 424.934 126.525 424.715 126.65C424.5 126.775 424.322 126.945 424.182 127.16C424.045 127.371 423.943 127.617 423.877 127.898C423.811 128.176 423.777 128.469 423.777 128.777V128.9Z" fill="black"/>
<path d="M442.662 128.9C442.662 129.354 442.607 129.777 442.498 130.172C442.389 130.562 442.229 130.902 442.018 131.191C441.807 131.48 441.545 131.707 441.232 131.871C440.924 132.035 440.57 132.117 440.172 132.117C439.785 132.117 439.443 132.055 439.146 131.93C438.854 131.805 438.602 131.625 438.391 131.391V134.438H437.307V125.66H438.297L438.35 126.352C438.561 126.09 438.814 125.891 439.111 125.754C439.412 125.613 439.76 125.543 440.154 125.543C440.561 125.543 440.92 125.623 441.232 125.783C441.545 125.943 441.807 126.166 442.018 126.451C442.229 126.736 442.389 127.078 442.498 127.477C442.607 127.871 442.662 128.305 442.662 128.777V128.9ZM441.578 128.777C441.578 128.469 441.543 128.176 441.473 127.898C441.406 127.617 441.301 127.371 441.156 127.16C441.016 126.945 440.836 126.775 440.617 126.65C440.398 126.525 440.137 126.463 439.832 126.463C439.484 126.463 439.191 126.545 438.953 126.709C438.719 126.869 438.531 127.076 438.391 127.33V130.383C438.531 130.633 438.719 130.838 438.953 130.998C439.188 131.154 439.484 131.232 439.844 131.232C440.145 131.232 440.404 131.17 440.623 131.045C440.842 130.916 441.021 130.744 441.162 130.529C441.303 130.314 441.406 130.066 441.473 129.785C441.543 129.504 441.578 129.209 441.578 128.9V128.777Z" fill="black"/>
<path d="M448.686 132C448.643 131.918 448.607 131.816 448.58 131.695C448.557 131.57 448.539 131.441 448.527 131.309C448.418 131.418 448.295 131.521 448.158 131.619C448.025 131.717 447.877 131.803 447.713 131.877C447.553 131.951 447.381 132.01 447.197 132.053C447.014 132.096 446.818 132.117 446.611 132.117C446.275 132.117 445.971 132.068 445.697 131.971C445.428 131.873 445.197 131.742 445.006 131.578C444.818 131.41 444.672 131.213 444.566 130.986C444.465 130.756 444.414 130.508 444.414 130.242C444.414 129.895 444.482 129.59 444.619 129.328C444.76 129.066 444.957 128.85 445.211 128.678C445.465 128.502 445.77 128.371 446.125 128.285C446.484 128.199 446.885 128.156 447.326 128.156H448.51V127.658C448.51 127.467 448.475 127.295 448.404 127.143C448.334 126.99 448.234 126.861 448.105 126.756C447.977 126.646 447.818 126.562 447.631 126.504C447.447 126.445 447.24 126.416 447.01 126.416C446.795 126.416 446.602 126.443 446.43 126.498C446.262 126.553 446.119 126.625 446.002 126.715C445.885 126.805 445.793 126.912 445.727 127.037C445.664 127.158 445.633 127.285 445.633 127.418H444.543C444.547 127.188 444.605 126.961 444.719 126.738C444.836 126.516 445.002 126.316 445.217 126.141C445.436 125.961 445.699 125.816 446.008 125.707C446.32 125.598 446.674 125.543 447.068 125.543C447.428 125.543 447.762 125.588 448.07 125.678C448.379 125.764 448.645 125.896 448.867 126.076C449.094 126.252 449.271 126.473 449.4 126.738C449.529 127.004 449.594 127.314 449.594 127.67V130.617C449.594 130.828 449.613 131.053 449.652 131.291C449.691 131.525 449.746 131.73 449.816 131.906V132H448.686ZM446.77 131.174C446.98 131.174 447.178 131.146 447.361 131.092C447.545 131.037 447.711 130.965 447.859 130.875C448.012 130.785 448.143 130.684 448.252 130.57C448.361 130.453 448.447 130.332 448.51 130.207V128.924H447.502C446.869 128.924 446.377 129.018 446.025 129.205C445.674 129.393 445.498 129.688 445.498 130.09C445.498 130.246 445.523 130.391 445.574 130.523C445.629 130.656 445.709 130.771 445.814 130.869C445.92 130.963 446.053 131.037 446.213 131.092C446.373 131.146 446.559 131.174 446.77 131.174Z" fill="black"/>
<path d="M455.881 125.543C455.982 125.543 456.088 125.547 456.197 125.555C456.307 125.559 456.41 125.568 456.508 125.584C456.609 125.596 456.701 125.611 456.783 125.631C456.869 125.65 456.939 125.672 456.994 125.695L456.848 126.756C456.637 126.709 456.436 126.676 456.244 126.656C456.057 126.633 455.859 126.621 455.652 126.621C455.145 126.621 454.732 126.736 454.416 126.967C454.104 127.197 453.873 127.52 453.725 127.934V132H452.635V125.66H453.666L453.719 126.668C453.977 126.32 454.285 126.047 454.645 125.848C455.008 125.645 455.42 125.543 455.881 125.543Z" fill="black"/>
<path d="M461.5 124.125V125.66H463.914V126.498H461.5V129.943C461.5 130.189 461.531 130.393 461.594 130.553C461.656 130.713 461.742 130.842 461.852 130.939C461.961 131.033 462.086 131.1 462.227 131.139C462.371 131.178 462.523 131.197 462.684 131.197C462.801 131.197 462.922 131.191 463.047 131.18C463.172 131.164 463.293 131.146 463.41 131.127C463.531 131.107 463.643 131.088 463.744 131.068C463.85 131.045 463.936 131.025 464.002 131.01L464.154 131.777C464.064 131.832 463.955 131.881 463.826 131.924C463.697 131.963 463.557 131.996 463.404 132.023C463.252 132.055 463.09 132.078 462.918 132.094C462.75 132.109 462.582 132.117 462.414 132.117C462.133 132.117 461.869 132.078 461.623 132C461.381 131.918 461.17 131.791 460.99 131.619C460.811 131.443 460.668 131.219 460.562 130.945C460.461 130.668 460.41 130.334 460.41 129.943V126.498H458.746V125.66H460.41V124.125H461.5Z" fill="black"/>
<path d="M466.311 125.66H469.551V131.062H471.619V132H466.311V131.062H468.467V126.604H466.311V125.66ZM468.326 123.996C468.326 123.816 468.379 123.666 468.484 123.545C468.594 123.42 468.758 123.357 468.977 123.357C469.191 123.357 469.354 123.42 469.463 123.545C469.572 123.666 469.627 123.816 469.627 123.996C469.627 124.172 469.572 124.318 469.463 124.436C469.354 124.553 469.191 124.611 468.977 124.611C468.758 124.611 468.594 124.553 468.484 124.436C468.379 124.318 468.326 124.172 468.326 123.996Z" fill="black"/>
<path d="M476.148 132.117C475.703 132.117 475.293 132.041 474.918 131.889C474.547 131.736 474.229 131.523 473.963 131.25C473.697 130.977 473.49 130.652 473.342 130.277C473.193 129.902 473.119 129.494 473.119 129.053V128.807C473.119 128.295 473.201 127.838 473.365 127.436C473.529 127.029 473.746 126.688 474.016 126.41C474.289 126.129 474.598 125.914 474.941 125.766C475.289 125.617 475.645 125.543 476.008 125.543C476.465 125.543 476.863 125.623 477.203 125.783C477.547 125.939 477.832 126.158 478.059 126.439C478.285 126.717 478.453 127.045 478.562 127.424C478.676 127.803 478.732 128.213 478.732 128.654V129.141H474.203C474.215 129.43 474.27 129.701 474.367 129.955C474.469 130.209 474.605 130.432 474.777 130.623C474.953 130.811 475.162 130.959 475.404 131.068C475.646 131.178 475.914 131.232 476.207 131.232C476.594 131.232 476.938 131.154 477.238 130.998C477.539 130.842 477.789 130.635 477.988 130.377L478.65 130.893C478.545 131.053 478.412 131.207 478.252 131.355C478.096 131.5 477.914 131.629 477.707 131.742C477.5 131.855 477.266 131.945 477.004 132.012C476.742 132.082 476.457 132.117 476.148 132.117ZM476.008 126.434C475.789 126.434 475.582 126.475 475.387 126.557C475.191 126.635 475.016 126.752 474.859 126.908C474.703 127.061 474.57 127.25 474.461 127.477C474.355 127.699 474.281 127.957 474.238 128.25H477.648V128.168C477.637 127.957 477.596 127.748 477.525 127.541C477.459 127.334 477.359 127.148 477.227 126.984C477.094 126.82 476.926 126.688 476.723 126.586C476.523 126.484 476.285 126.434 476.008 126.434Z" fill="black"/>
<path d="M484.768 130.318C484.768 130.189 484.742 130.074 484.691 129.973C484.641 129.867 484.555 129.771 484.434 129.686C484.312 129.6 484.152 129.521 483.953 129.451C483.754 129.377 483.506 129.311 483.209 129.252C482.846 129.178 482.514 129.088 482.213 128.982C481.916 128.877 481.66 128.752 481.445 128.607C481.234 128.459 481.07 128.287 480.953 128.092C480.836 127.893 480.777 127.662 480.777 127.4C480.777 127.143 480.838 126.902 480.959 126.68C481.08 126.453 481.25 126.256 481.469 126.088C481.688 125.92 481.947 125.787 482.248 125.689C482.553 125.592 482.887 125.543 483.25 125.543C483.641 125.543 483.992 125.594 484.305 125.695C484.617 125.797 484.883 125.938 485.102 126.117C485.32 126.297 485.488 126.508 485.605 126.75C485.727 126.988 485.787 127.246 485.787 127.523H484.703C484.703 127.387 484.668 127.254 484.598 127.125C484.527 126.992 484.43 126.875 484.305 126.773C484.18 126.672 484.027 126.59 483.848 126.527C483.672 126.465 483.473 126.434 483.25 126.434C483.02 126.434 482.816 126.459 482.641 126.51C482.469 126.561 482.324 126.629 482.207 126.715C482.094 126.801 482.008 126.9 481.949 127.014C481.891 127.127 481.861 127.244 481.861 127.365C481.861 127.49 481.885 127.602 481.932 127.699C481.979 127.797 482.059 127.885 482.172 127.963C482.289 128.041 482.443 128.111 482.635 128.174C482.83 128.236 483.076 128.297 483.373 128.355C483.764 128.438 484.113 128.533 484.422 128.643C484.73 128.748 484.99 128.877 485.201 129.029C485.412 129.178 485.572 129.352 485.682 129.551C485.795 129.75 485.852 129.98 485.852 130.242C485.852 130.523 485.787 130.779 485.658 131.01C485.533 131.24 485.357 131.438 485.131 131.602C484.904 131.766 484.633 131.893 484.316 131.982C484 132.072 483.654 132.117 483.279 132.117C482.85 132.117 482.467 132.061 482.131 131.947C481.795 131.83 481.51 131.678 481.275 131.49C481.045 131.299 480.867 131.078 480.742 130.828C480.621 130.578 480.561 130.318 480.561 130.049H481.645C481.66 130.271 481.719 130.459 481.82 130.611C481.926 130.764 482.055 130.887 482.207 130.98C482.363 131.074 482.535 131.141 482.723 131.18C482.91 131.219 483.096 131.238 483.279 131.238C483.736 131.238 484.098 131.154 484.363 130.986C484.629 130.818 484.764 130.596 484.768 130.318Z" fill="black"/>
<rect y="100" width="92" height="41" fill="#F2F2F2"/>
<path d="M27.9395 121.607L28.5605 116.469H30.0723L28.8887 125H27.4004L26.5918 119.961L25.8125 125H24.3242L23.1523 116.469H24.6582L25.2676 121.572L25.9941 116.469H27.1719L27.9395 121.607Z" fill="black"/>
<path d="M34.1094 125.117C33.6211 125.117 33.1777 125.037 32.7793 124.877C32.3809 124.717 32.0391 124.5 31.7539 124.227C31.4688 123.949 31.248 123.625 31.0918 123.254C30.9395 122.879 30.8633 122.479 30.8633 122.053V121.818C30.8633 121.334 30.9395 120.893 31.0918 120.494C31.2441 120.092 31.457 119.746 31.7305 119.457C32.0039 119.168 32.3281 118.943 32.7031 118.783C33.0781 118.623 33.4863 118.543 33.9277 118.543C34.3848 118.543 34.791 118.619 35.1465 118.771C35.5059 118.92 35.8086 119.131 36.0547 119.404C36.3047 119.678 36.4941 120.008 36.623 120.395C36.752 120.777 36.8164 121.201 36.8164 121.666V122.357H32.5156C32.5469 122.572 32.6094 122.77 32.7031 122.949C32.8008 123.125 32.9238 123.277 33.0723 123.406C33.2207 123.535 33.3906 123.635 33.582 123.705C33.7734 123.775 33.9824 123.811 34.209 123.811C34.3691 123.811 34.5273 123.795 34.6836 123.764C34.8438 123.732 34.9961 123.688 35.1406 123.629C35.2852 123.566 35.4199 123.49 35.5449 123.4C35.6699 123.311 35.7793 123.205 35.873 123.084L36.6875 123.963C36.5859 124.107 36.4531 124.25 36.2891 124.391C36.1289 124.527 35.9375 124.65 35.7148 124.76C35.4961 124.865 35.252 124.951 34.9824 125.018C34.7129 125.084 34.4219 125.117 34.1094 125.117ZM33.916 119.861C33.7324 119.861 33.5645 119.895 33.4121 119.961C33.2598 120.023 33.125 120.115 33.0078 120.236C32.8945 120.357 32.7988 120.502 32.7207 120.67C32.6426 120.838 32.584 121.025 32.5449 121.232H35.2168V121.104C35.209 120.932 35.1758 120.77 35.1172 120.617C35.0586 120.465 34.9746 120.334 34.8652 120.225C34.7559 120.111 34.6211 120.023 34.4609 119.961C34.3047 119.895 34.123 119.861 33.916 119.861Z" fill="black"/>
<path d="M43.9531 121.895C43.9531 122.367 43.9004 122.801 43.7949 123.195C43.6934 123.59 43.5391 123.93 43.332 124.215C43.125 124.5 42.8672 124.723 42.5586 124.883C42.25 125.039 41.8906 125.117 41.4805 125.117C41.1094 125.117 40.7871 125.049 40.5137 124.912C40.2441 124.771 40.0117 124.576 39.8164 124.326L39.7402 125H38.2754V116H39.9043V119.234C40.0918 119.016 40.3125 118.846 40.5664 118.725C40.8242 118.604 41.125 118.543 41.4688 118.543C41.8828 118.543 42.2441 118.623 42.5527 118.783C42.8652 118.943 43.125 119.166 43.332 119.451C43.5391 119.736 43.6934 120.078 43.7949 120.477C43.9004 120.871 43.9531 121.303 43.9531 121.771V121.895ZM42.3242 121.771C42.3242 121.514 42.3047 121.27 42.2656 121.039C42.2266 120.809 42.1582 120.607 42.0605 120.436C41.9668 120.26 41.8379 120.121 41.6738 120.02C41.5098 119.918 41.3047 119.867 41.0586 119.867C40.7617 119.867 40.5195 119.93 40.332 120.055C40.1484 120.18 40.0059 120.352 39.9043 120.57V123.096C40.0059 123.314 40.1484 123.486 40.332 123.611C40.5195 123.736 40.7656 123.799 41.0703 123.799C41.3164 123.799 41.5195 123.752 41.6797 123.658C41.8398 123.561 41.9668 123.428 42.0605 123.26C42.1582 123.088 42.2266 122.887 42.2656 122.656C42.3047 122.422 42.3242 122.168 42.3242 121.895V121.771Z" fill="black"/>
<path d="M49.5371 123.26C49.5371 123.162 49.5137 123.076 49.4668 123.002C49.4238 122.928 49.3438 122.859 49.2266 122.797C49.1133 122.73 48.9609 122.67 48.7695 122.615C48.5781 122.561 48.3359 122.506 48.043 122.451C47.6719 122.377 47.332 122.285 47.0234 122.176C46.7188 122.062 46.457 121.928 46.2383 121.771C46.0195 121.611 45.8477 121.428 45.7227 121.221C45.6016 121.014 45.541 120.775 45.541 120.506C45.541 120.244 45.6035 119.994 45.7285 119.756C45.8535 119.518 46.0332 119.309 46.2676 119.129C46.502 118.949 46.7871 118.807 47.123 118.701C47.459 118.596 47.8379 118.543 48.2598 118.543C48.7012 118.543 49.0977 118.596 49.4492 118.701C49.8008 118.803 50.0977 118.945 50.3398 119.129C50.5859 119.309 50.7734 119.523 50.9023 119.773C51.0312 120.023 51.0957 120.295 51.0957 120.588H49.4668C49.4668 120.342 49.3672 120.137 49.168 119.973C48.9688 119.805 48.666 119.721 48.2598 119.721C47.8809 119.721 47.5938 119.789 47.3984 119.926C47.207 120.062 47.1113 120.23 47.1113 120.43C47.1113 120.523 47.1309 120.611 47.1699 120.693C47.209 120.771 47.2773 120.844 47.375 120.91C47.4766 120.973 47.6133 121.031 47.7852 121.086C47.957 121.137 48.1758 121.182 48.4414 121.221C48.8242 121.283 49.1797 121.363 49.5078 121.461C49.8359 121.559 50.1191 121.686 50.3574 121.842C50.5957 121.994 50.7812 122.182 50.9141 122.404C51.0508 122.623 51.1191 122.885 51.1191 123.189C51.1191 123.471 51.0508 123.73 50.9141 123.969C50.7812 124.203 50.5898 124.406 50.3398 124.578C50.0938 124.75 49.7949 124.885 49.4434 124.982C49.0918 125.076 48.6992 125.123 48.2656 125.123C47.7891 125.123 47.3672 125.061 47 124.936C46.6367 124.811 46.332 124.648 46.0859 124.449C45.8398 124.246 45.6523 124.018 45.5234 123.764C45.3984 123.506 45.3359 123.248 45.3359 122.99H46.8887C46.9004 123.162 46.9473 123.311 47.0293 123.436C47.1113 123.557 47.2168 123.656 47.3457 123.734C47.4746 123.809 47.6211 123.863 47.7852 123.898C47.9531 123.934 48.125 123.951 48.3008 123.951C48.7031 123.951 49.0098 123.887 49.2207 123.758C49.4316 123.629 49.5371 123.463 49.5371 123.26Z" fill="black"/>
<path d="M53.0879 118.66H56.5391V123.676H58.2559V125H53.0879V123.676H54.8926V119.99H53.0879V118.66ZM54.7754 117.037C54.7754 116.912 54.7969 116.797 54.8398 116.691C54.8867 116.582 54.9512 116.49 55.0332 116.416C55.1152 116.338 55.2129 116.277 55.3262 116.234C55.4434 116.191 55.5723 116.17 55.7129 116.17C56.002 116.17 56.2305 116.252 56.3984 116.416C56.5703 116.576 56.6562 116.783 56.6562 117.037C56.6562 117.291 56.5703 117.5 56.3984 117.664C56.2305 117.824 56.002 117.904 55.7129 117.904C55.5723 117.904 55.4434 117.883 55.3262 117.84C55.2129 117.797 55.1152 117.738 55.0332 117.664C54.9512 117.586 54.8867 117.494 54.8398 117.389C54.7969 117.279 54.7754 117.162 54.7754 117.037Z" fill="black"/>
<path d="M62.8496 117.107V118.66H65.2168V119.861H62.8496V122.586C62.8496 122.816 62.875 123.01 62.9258 123.166C62.9805 123.318 63.0566 123.441 63.1543 123.535C63.252 123.625 63.3691 123.689 63.5059 123.729C63.6465 123.768 63.8027 123.787 63.9746 123.787C64.0996 123.787 64.2266 123.781 64.3555 123.77C64.4883 123.758 64.6133 123.744 64.7305 123.729C64.8516 123.709 64.9629 123.689 65.0645 123.67C65.1699 123.65 65.2598 123.631 65.334 123.611L65.4922 124.73C65.3789 124.797 65.2461 124.855 65.0938 124.906C64.9414 124.953 64.7793 124.992 64.6074 125.023C64.4355 125.055 64.2559 125.078 64.0684 125.094C63.8848 125.113 63.7031 125.123 63.5234 125.123C63.1758 125.123 62.8594 125.078 62.5742 124.988C62.293 124.895 62.0508 124.752 61.8477 124.561C61.6484 124.365 61.4941 124.119 61.3848 123.822C61.2754 123.521 61.2207 123.162 61.2207 122.744V119.861H59.7734V118.66H61.2207V117.107H62.8496Z" fill="black"/>
<path d="M70.1445 125.117C69.6562 125.117 69.2129 125.037 68.8145 124.877C68.416 124.717 68.0742 124.5 67.7891 124.227C67.5039 123.949 67.2832 123.625 67.127 123.254C66.9746 122.879 66.8984 122.479 66.8984 122.053V121.818C66.8984 121.334 66.9746 120.893 67.127 120.494C67.2793 120.092 67.4922 119.746 67.7656 119.457C68.0391 119.168 68.3633 118.943 68.7383 118.783C69.1133 118.623 69.5215 118.543 69.9629 118.543C70.4199 118.543 70.8262 118.619 71.1816 118.771C71.541 118.92 71.8438 119.131 72.0898 119.404C72.3398 119.678 72.5293 120.008 72.6582 120.395C72.7871 120.777 72.8516 121.201 72.8516 121.666V122.357H68.5508C68.582 122.572 68.6445 122.77 68.7383 122.949C68.8359 123.125 68.959 123.277 69.1074 123.406C69.2559 123.535 69.4258 123.635 69.6172 123.705C69.8086 123.775 70.0176 123.811 70.2441 123.811C70.4043 123.811 70.5625 123.795 70.7188 123.764C70.8789 123.732 71.0312 123.688 71.1758 123.629C71.3203 123.566 71.4551 123.49 71.5801 123.4C71.7051 123.311 71.8145 123.205 71.9082 123.084L72.7227 123.963C72.6211 124.107 72.4883 124.25 72.3242 124.391C72.1641 124.527 71.9727 124.65 71.75 124.76C71.5312 124.865 71.2871 124.951 71.0176 125.018C70.748 125.084 70.457 125.117 70.1445 125.117ZM69.9512 119.861C69.7676 119.861 69.5996 119.895 69.4473 119.961C69.2949 120.023 69.1602 120.115 69.043 120.236C68.9297 120.357 68.834 120.502 68.7559 120.67C68.6777 120.838 68.6191 121.025 68.5801 121.232H71.252V121.104C71.2441 120.932 71.2109 120.77 71.1523 120.617C71.0938 120.465 71.0098 120.334 70.9004 120.225C70.791 120.111 70.6562 120.023 70.4961 119.961C70.3398 119.895 70.1582 119.861 69.9512 119.861Z" fill="black"/>
<path d="M45.5013 77C64.6012 77 80.0846 61.33 80.0846 42C80.0846 22.67 64.6012 7 45.5013 7C26.4015 7 10.918 22.67 10.918 42C10.918 61.33 26.4015 77 45.5013 77Z" fill="#EBEBED" stroke="#222226" stroke-width="2" stroke-linecap="round" stroke-linejoin="round"/>
<path d="M10.918 42H80.0846" stroke="black" stroke-width="2" stroke-linecap="round" stroke-linejoin="round"/>
<path d="M45.5013 7C54.1516 16.5842 59.0675 29.0221 59.3346 42C59.0675 54.9779 54.1516 67.4158 45.5013 77C36.851 67.4158 31.9351 54.9779 31.668 42C31.9351 29.0221 36.851 16.5842 45.5013 7V7Z" stroke="black" stroke-width="2" stroke-linecap="round" stroke-linejoin="round"/>
<rect x="413" y="18" width="60" height="10" fill="#C4C4C4" fill-opacity="0.31"/>
<rect x="463" y="32" width="10" height="16" fill="#C4C4C4"/>
<rect x="413" y="32" width="45" height="16" fill="#C4C4C4"/>
<rect x="413" y="52" width="45" height="14" fill="#C4C4C4"/>
<rect x="463" y="52" width="10" height="14" fill="#C4C4C4" fill-opacity="0.31"/>
</svg>
