<svg width="667" height="198" viewBox="0 0 667 198" fill="none" xmlns="http://www.w3.org/2000/svg">
<path d="M70 125L70 135" stroke="#222226" stroke-width="6" stroke-linecap="round"/>
<line x1="52" y1="135" x2="87" y2="135" stroke="#222226" stroke-width="6" stroke-linecap="round"/>
<rect x="25" y="65" width="89" height="59" rx="3" fill="#EBEBED" stroke="#222226" stroke-width="2"/>
<rect x="311" y="61" width="46" height="76" rx="3" fill="#EBEBED" stroke="#222226" stroke-width="2"/>
<line x1="147" y1="98.5" x2="270" y2="98.5" stroke="#FF2222"/>
<line x1="395" y1="98.5" x2="518" y2="98.5" stroke="#FF2222"/>
<line x1="315" y1="72" x2="351" y2="72" stroke="black" stroke-width="2"/>
<line x1="315" y1="86" x2="351" y2="86" stroke="black" stroke-width="2"/>
<line x1="315" y1="100" x2="351" y2="100" stroke="black" stroke-width="2"/>
<line x1="315" y1="114" x2="351" y2="114" stroke="black" stroke-width="2"/>
<line x1="315" y1="128" x2="351" y2="128" stroke="black" stroke-width="2"/>
<circle cx="316.5" cy="79.5" r="1.5" fill="black"/>
<circle cx="316.5" cy="93.5" r="1.5" fill="black"/>
<circle cx="316.5" cy="107.5" r="1.5" fill="black"/>
<circle cx="316.5" cy="121.5" r="1.5" fill="black"/>
<circle cx="324.5" cy="79.5" r="1.5" fill="black"/>
<circle cx="324.5" cy="93.5" r="1.5" fill="black"/>
<circle cx="324.5" cy="107.5" r="1.5" fill="black"/>
<circle cx="324.5" cy="121.5" r="1.5" fill="black"/>
<path d="M591.501 134C610.601 134 626.085 118.33 626.085 99C626.085 79.67 610.601 64 591.501 64C572.401 64 556.918 79.67 556.918 99C556.918 118.33 572.401 134 591.501 134Z" fill="#EBEBED" stroke="#222226" stroke-width="2" stroke-linecap="round" stroke-linejoin="round"/>
<path d="M556.918 99H626.085" stroke="black" stroke-width="2" stroke-linecap="round" stroke-linejoin="round"/>
<path d="M591.501 64C600.152 73.5842 605.067 86.0221 605.335 99C605.067 111.978 600.152 124.416 591.501 134C582.851 124.416 577.935 111.978 577.668 99C577.935 86.0221 582.851 73.5842 591.501 64V64Z" stroke="black" stroke-width="2" stroke-linecap="round" stroke-linejoin="round"/>
<rect y="157" width="140" height="41" fill="#F2F2F2"/>
<path d="M15.9629 173.219H13.4023L12.8984 175H11.1641L13.959 166.469H15.4531L18.1953 175H16.4609L15.9629 173.219ZM13.8066 171.818H15.5762L14.7031 168.678L13.8066 171.818ZM19.373 166H22.918V173.676H24.7344V175H19.373V173.676H21.2715V167.33H19.373V166ZM26.6738 168.66H30.125V173.676H31.8418V175H26.6738V173.676H28.4785V169.99H26.6738V168.66ZM28.3613 167.037C28.3613 166.912 28.3828 166.797 28.4258 166.691C28.4727 166.582 28.5371 166.49 28.6191 166.416C28.7012 166.338 28.7988 166.277 28.9121 166.234C29.0293 166.191 29.1582 166.17 29.2988 166.17C29.5879 166.17 29.8164 166.252 29.9844 166.416C30.1562 166.576 30.2422 166.783 30.2422 167.037C30.2422 167.291 30.1562 167.5 29.9844 167.664C29.8164 167.824 29.5879 167.904 29.2988 167.904C29.1582 167.904 29.0293 167.883 28.9121 167.84C28.7988 167.797 28.7012 167.738 28.6191 167.664C28.5371 167.586 28.4727 167.494 28.4258 167.389C28.3828 167.279 28.3613 167.162 28.3613 167.037ZM36.2539 173.816C36.4141 173.816 36.5664 173.793 36.7109 173.746C36.8555 173.699 36.9824 173.633 37.0918 173.547C37.2012 173.461 37.2852 173.357 37.3438 173.236C37.4062 173.115 37.4336 172.98 37.4258 172.832H38.9609C38.9688 173.16 38.9004 173.465 38.7559 173.746C38.6152 174.027 38.4219 174.27 38.1758 174.473C37.9297 174.676 37.6426 174.836 37.3145 174.953C36.9902 175.066 36.6465 175.123 36.2832 175.123C35.791 175.123 35.3594 175.041 34.9883 174.877C34.6172 174.709 34.3066 174.48 34.0566 174.191C33.8105 173.902 33.623 173.564 33.4941 173.178C33.3691 172.787 33.3066 172.369 33.3066 171.924V171.748C33.3066 171.303 33.3691 170.887 33.4941 170.5C33.6191 170.109 33.8066 169.77 34.0566 169.48C34.3066 169.191 34.6152 168.963 34.9824 168.795C35.3535 168.627 35.7832 168.543 36.2715 168.543C36.6621 168.543 37.0234 168.602 37.3555 168.719C37.6875 168.836 37.9727 169.002 38.2109 169.217C38.4531 169.428 38.6406 169.686 38.7734 169.99C38.9062 170.291 38.9688 170.629 38.9609 171.004H37.4258C37.4336 170.848 37.4102 170.699 37.3555 170.559C37.3008 170.418 37.2207 170.297 37.1152 170.195C37.0098 170.094 36.8828 170.014 36.7344 169.955C36.5859 169.893 36.4238 169.861 36.248 169.861C35.9902 169.861 35.7773 169.914 35.6094 170.02C35.4414 170.125 35.3066 170.266 35.2051 170.441C35.1074 170.617 35.0371 170.818 34.9941 171.045C34.9551 171.271 34.9355 171.506 34.9355 171.748V171.924C34.9355 172.17 34.9551 172.408 34.9941 172.639C35.0332 172.865 35.1016 173.066 35.1992 173.242C35.3008 173.414 35.4355 173.553 35.6035 173.658C35.7754 173.764 35.9922 173.816 36.2539 173.816ZM43.7305 175.117C43.2422 175.117 42.7988 175.037 42.4004 174.877C42.002 174.717 41.6602 174.5 41.375 174.227C41.0898 173.949 40.8691 173.625 40.7129 173.254C40.5605 172.879 40.4844 172.479 40.4844 172.053V171.818C40.4844 171.334 40.5605 170.893 40.7129 170.494C40.8652 170.092 41.0781 169.746 41.3516 169.457C41.625 169.168 41.9492 168.943 42.3242 168.783C42.6992 168.623 43.1074 168.543 43.5488 168.543C44.0059 168.543 44.4121 168.619 44.7676 168.771C45.127 168.92 45.4297 169.131 45.6758 169.404C45.9258 169.678 46.1152 170.008 46.2441 170.395C46.373 170.777 46.4375 171.201 46.4375 171.666V172.357H42.1367C42.168 172.572 42.2305 172.77 42.3242 172.949C42.4219 173.125 42.5449 173.277 42.6934 173.406C42.8418 173.535 43.0117 173.635 43.2031 173.705C43.3945 173.775 43.6035 173.811 43.8301 173.811C43.9902 173.811 44.1484 173.795 44.3047 173.764C44.4648 173.732 44.6172 173.688 44.7617 173.629C44.9062 173.566 45.041 173.49 45.166 173.4C45.291 173.311 45.4004 173.205 45.4941 173.084L46.3086 173.963C46.207 174.107 46.0742 174.25 45.9102 174.391C45.75 174.527 45.5586 174.65 45.3359 174.76C45.1172 174.865 44.873 174.951 44.6035 175.018C44.334 175.084 44.043 175.117 43.7305 175.117ZM43.5371 169.861C43.3535 169.861 43.1855 169.895 43.0332 169.961C42.8809 170.023 42.7461 170.115 42.6289 170.236C42.5156 170.357 42.4199 170.502 42.3418 170.67C42.2637 170.838 42.2051 171.025 42.166 171.232H44.8379V171.104C44.8301 170.932 44.7969 170.77 44.7383 170.617C44.6797 170.465 44.5957 170.334 44.4863 170.225C44.377 170.111 44.2422 170.023 44.082 169.961C43.9258 169.895 43.7441 169.861 43.5371 169.861ZM12.0195 180.469H17.1758V181.412H15.1309V188.062H17.1758V189H12.0195V188.062H14.0176V181.412H12.0195V180.469ZM20.4102 185.578V189H19.3262V180.469H22.0918C22.4746 180.477 22.8359 180.537 23.1758 180.65C23.5195 180.764 23.8203 180.928 24.0781 181.143C24.3359 181.357 24.5391 181.623 24.6875 181.939C24.8398 182.256 24.916 182.619 24.916 183.029C24.916 183.439 24.8398 183.803 24.6875 184.119C24.5391 184.432 24.3359 184.695 24.0781 184.91C23.8203 185.125 23.5195 185.289 23.1758 185.402C22.8359 185.516 22.4746 185.574 22.0918 185.578H20.4102ZM20.4102 184.688H22.0918C22.3418 184.684 22.5723 184.645 22.7832 184.57C22.9941 184.492 23.1777 184.383 23.334 184.242C23.4902 184.102 23.6113 183.932 23.6973 183.732C23.7871 183.529 23.832 183.299 23.832 183.041C23.832 182.783 23.7871 182.551 23.6973 182.344C23.6113 182.137 23.4902 181.961 23.334 181.816C23.1816 181.672 22.998 181.561 22.7832 181.482C22.5723 181.404 22.3418 181.363 22.0918 181.359H20.4102V184.688ZM37.1562 189H36.0723V181.852L33.8398 182.701V181.711L37.0684 180.469H37.1562V189ZM46.0801 189H40.4902V188.221L43.2852 185.115C43.5352 184.838 43.7441 184.592 43.9121 184.377C44.0801 184.162 44.2148 183.965 44.3164 183.785C44.418 183.602 44.4902 183.43 44.5332 183.27C44.5762 183.105 44.5977 182.938 44.5977 182.766C44.5977 182.555 44.5625 182.357 44.4922 182.174C44.4258 181.986 44.3262 181.824 44.1934 181.688C44.0645 181.551 43.9062 181.443 43.7188 181.365C43.5352 181.283 43.3262 181.242 43.0918 181.242C42.8066 181.242 42.5586 181.283 42.3477 181.365C42.1406 181.447 41.9668 181.564 41.8262 181.717C41.6895 181.865 41.5859 182.047 41.5156 182.262C41.4492 182.477 41.416 182.717 41.416 182.982H40.3262C40.3262 182.623 40.3887 182.285 40.5137 181.969C40.6387 181.648 40.8184 181.369 41.0527 181.131C41.291 180.893 41.5801 180.703 41.9199 180.562C42.2637 180.422 42.6543 180.352 43.0918 180.352C43.4941 180.352 43.8555 180.412 44.1758 180.533C44.5 180.65 44.7734 180.814 44.9961 181.025C45.2188 181.236 45.3887 181.486 45.5059 181.775C45.627 182.064 45.6875 182.379 45.6875 182.719C45.6875 182.973 45.6445 183.225 45.5586 183.475C45.4727 183.721 45.3555 183.965 45.207 184.207C45.0625 184.449 44.8926 184.689 44.6973 184.928C44.5059 185.162 44.3027 185.396 44.0879 185.631L41.7969 188.115H46.0801V189ZM49.3203 184.213H50.0938C50.3672 184.213 50.6074 184.176 50.8145 184.102C51.0254 184.027 51.2012 183.926 51.3418 183.797C51.4863 183.668 51.5957 183.514 51.6699 183.334C51.7441 183.154 51.7812 182.957 51.7812 182.742C51.7812 182.246 51.6543 181.873 51.4004 181.623C51.1465 181.369 50.7754 181.242 50.2871 181.242C50.0566 181.242 49.8457 181.277 49.6543 181.348C49.4668 181.414 49.3047 181.512 49.168 181.641C49.0352 181.77 48.9316 181.924 48.8574 182.104C48.7832 182.283 48.7461 182.484 48.7461 182.707H47.6562C47.6562 182.383 47.7188 182.078 47.8438 181.793C47.9727 181.504 48.1523 181.254 48.3828 181.043C48.6133 180.828 48.8887 180.66 49.209 180.539C49.5332 180.414 49.8926 180.352 50.2871 180.352C50.6699 180.352 51.0195 180.404 51.3359 180.51C51.6523 180.611 51.9238 180.764 52.1504 180.967C52.377 181.17 52.5527 181.422 52.6777 181.723C52.8027 182.023 52.8652 182.371 52.8652 182.766C52.8652 182.93 52.8398 183.1 52.7891 183.275C52.7383 183.451 52.6602 183.623 52.5547 183.791C52.4492 183.955 52.3125 184.111 52.1445 184.26C51.9805 184.404 51.7832 184.525 51.5527 184.623C51.8301 184.713 52.0605 184.83 52.2441 184.975C52.4316 185.119 52.5801 185.281 52.6895 185.461C52.8027 185.641 52.8809 185.83 52.9238 186.029C52.9707 186.229 52.9941 186.426 52.9941 186.621C52.9941 187.02 52.9258 187.373 52.7891 187.682C52.6523 187.99 52.4629 188.252 52.2207 188.467C51.9785 188.678 51.6914 188.84 51.3594 188.953C51.0312 189.062 50.6758 189.117 50.293 189.117C49.918 189.117 49.5645 189.064 49.2324 188.959C48.9043 188.854 48.6191 188.699 48.377 188.496C48.1348 188.293 47.9414 188.045 47.7969 187.752C47.6562 187.459 47.5859 187.125 47.5859 186.75H48.6699C48.6699 186.973 48.707 187.176 48.7812 187.359C48.8594 187.543 48.9688 187.699 49.1094 187.828C49.25 187.957 49.4199 188.057 49.6191 188.127C49.8223 188.197 50.0469 188.232 50.293 188.232C50.5391 188.232 50.7617 188.201 50.9609 188.139C51.1602 188.072 51.3301 187.973 51.4707 187.84C51.6113 187.707 51.7188 187.543 51.793 187.348C51.8711 187.148 51.9102 186.914 51.9102 186.645C51.9102 186.379 51.8652 186.15 51.7754 185.959C51.6895 185.764 51.5664 185.602 51.4062 185.473C51.25 185.344 51.0586 185.248 50.832 185.186C50.6094 185.123 50.3633 185.092 50.0938 185.092H49.3203V184.213ZM57.1484 188.297C57.1484 188.18 57.166 188.07 57.2012 187.969C57.2402 187.867 57.2949 187.779 57.3652 187.705C57.4355 187.627 57.5234 187.566 57.6289 187.523C57.7344 187.48 57.8574 187.459 57.998 187.459C58.1387 187.459 58.2617 187.48 58.3672 187.523C58.4766 187.566 58.5664 187.627 58.6367 187.705C58.7109 187.779 58.7656 187.867 58.8008 187.969C58.8398 188.07 58.8594 188.18 58.8594 188.297C58.8594 188.41 58.8398 188.518 58.8008 188.619C58.7656 188.717 58.7109 188.803 58.6367 188.877C58.5664 188.951 58.4766 189.008 58.3672 189.047C58.2617 189.09 58.1387 189.111 57.998 189.111C57.8574 189.111 57.7344 189.09 57.6289 189.047C57.5234 189.008 57.4355 188.951 57.3652 188.877C57.2949 188.803 57.2402 188.717 57.2012 188.619C57.166 188.518 57.1484 188.41 57.1484 188.297ZM66.8633 186.135H68.0527V187.02H66.8633V189H65.7793V187.02H61.8887V186.381L65.709 180.469H66.8633V186.135ZM63.0898 186.135H65.7793V181.91L65.6035 182.238L63.0898 186.135ZM70.0625 184.723L70.4902 180.469H74.8672V181.523H71.4043L71.1641 183.797C71.332 183.699 71.5332 183.613 71.7676 183.539C72.002 183.465 72.2734 183.428 72.582 183.428C72.9766 183.428 73.3301 183.496 73.6426 183.633C73.9551 183.77 74.2207 183.963 74.4395 184.213C74.6582 184.459 74.8262 184.758 74.9434 185.109C75.0605 185.461 75.1191 185.852 75.1191 186.281C75.1191 186.688 75.0645 187.064 74.9551 187.412C74.8457 187.76 74.6797 188.061 74.457 188.314C74.2383 188.564 73.9609 188.762 73.625 188.906C73.2891 189.047 72.8945 189.117 72.4414 189.117C72.0938 189.117 71.7656 189.068 71.457 188.971C71.1484 188.873 70.873 188.727 70.6309 188.531C70.3926 188.336 70.1953 188.09 70.0391 187.793C69.8867 187.496 69.791 187.15 69.752 186.756H70.7832C70.8496 187.24 71.0273 187.607 71.3164 187.857C71.6094 188.107 71.9844 188.232 72.4414 188.232C72.6992 188.232 72.9277 188.188 73.127 188.098C73.3262 188.004 73.4922 187.873 73.625 187.705C73.7617 187.533 73.8633 187.328 73.9297 187.09C74 186.852 74.0352 186.586 74.0352 186.293C74.0352 186.027 73.9961 185.779 73.918 185.549C73.8438 185.318 73.7344 185.119 73.5898 184.951C73.4453 184.779 73.2676 184.645 73.0566 184.547C72.8457 184.449 72.6035 184.4 72.3301 184.4C72.1504 184.4 71.9941 184.414 71.8613 184.441C71.7324 184.465 71.6152 184.5 71.5098 184.547C71.4043 184.594 71.3047 184.65 71.2109 184.717C71.1211 184.783 71.0273 184.859 70.9297 184.945L70.0625 184.723ZM81.2773 186.135H82.4668V187.02H81.2773V189H80.1934V187.02H76.3027V186.381L80.123 180.469H81.2773V186.135ZM77.5039 186.135H80.1934V181.91L80.0176 182.238L77.5039 186.135ZM85.9766 188.297C85.9766 188.18 85.9941 188.07 86.0293 187.969C86.0684 187.867 86.123 187.779 86.1934 187.705C86.2637 187.627 86.3516 187.566 86.457 187.523C86.5625 187.48 86.6855 187.459 86.8262 187.459C86.9668 187.459 87.0898 187.48 87.1953 187.523C87.3047 187.566 87.3945 187.627 87.4648 187.705C87.5391 187.779 87.5938 187.867 87.6289 187.969C87.668 188.07 87.6875 188.18 87.6875 188.297C87.6875 188.41 87.668 188.518 87.6289 188.619C87.5938 188.717 87.5391 188.803 87.4648 188.877C87.3945 188.951 87.3047 189.008 87.1953 189.047C87.0898 189.09 86.9668 189.111 86.8262 189.111C86.6855 189.111 86.5625 189.09 86.457 189.047C86.3516 189.008 86.2637 188.951 86.1934 188.877C86.123 188.803 86.0684 188.717 86.0293 188.619C85.9941 188.518 85.9766 188.41 85.9766 188.297ZM96.6992 181.078L93.166 189H92.0293L95.5508 181.418H90.9336V180.469H96.6992V181.078ZM102.5 180.463V181.436H102.406C102.047 181.436 101.725 181.473 101.439 181.547C101.158 181.621 100.91 181.723 100.695 181.852C100.48 181.98 100.295 182.135 100.139 182.314C99.9863 182.49 99.8594 182.684 99.7578 182.895C99.6562 183.105 99.5781 183.326 99.5234 183.557C99.4688 183.787 99.4336 184.021 99.418 184.26C99.5195 184.139 99.6367 184.027 99.7695 183.926C99.9023 183.82 100.045 183.73 100.197 183.656C100.354 183.578 100.52 183.518 100.695 183.475C100.875 183.428 101.062 183.404 101.258 183.404C101.684 183.404 102.051 183.486 102.359 183.65C102.668 183.811 102.922 184.023 103.121 184.289C103.32 184.555 103.467 184.855 103.561 185.191C103.654 185.527 103.701 185.869 103.701 186.217C103.701 186.615 103.645 186.99 103.531 187.342C103.422 187.693 103.256 188.002 103.033 188.268C102.811 188.529 102.533 188.736 102.201 188.889C101.873 189.041 101.492 189.117 101.059 189.117C100.75 189.117 100.467 189.072 100.209 188.982C99.9551 188.893 99.7266 188.771 99.5234 188.619C99.3203 188.463 99.1426 188.279 98.9902 188.068C98.8379 187.857 98.7109 187.631 98.6094 187.389C98.5117 187.146 98.4375 186.895 98.3867 186.633C98.3359 186.371 98.3105 186.109 98.3105 185.848V185.338C98.3105 184.947 98.334 184.557 98.3809 184.166C98.4316 183.771 98.5156 183.395 98.6328 183.035C98.75 182.676 98.9082 182.34 99.1074 182.027C99.3066 181.711 99.5566 181.438 99.8574 181.207C100.162 180.977 100.523 180.795 100.941 180.662C101.359 180.529 101.848 180.463 102.406 180.463H102.5ZM101.082 184.307C100.898 184.307 100.721 184.336 100.549 184.395C100.377 184.453 100.217 184.535 100.068 184.641C99.9199 184.746 99.7891 184.873 99.6758 185.021C99.5625 185.17 99.4727 185.334 99.4062 185.514V185.877C99.4062 186.252 99.4512 186.586 99.541 186.879C99.6309 187.168 99.752 187.412 99.9043 187.611C100.057 187.811 100.232 187.963 100.432 188.068C100.631 188.17 100.84 188.221 101.059 188.221C101.312 188.221 101.537 188.172 101.732 188.074C101.928 187.977 102.092 187.842 102.225 187.67C102.361 187.498 102.463 187.293 102.529 187.055C102.6 186.812 102.635 186.551 102.635 186.27C102.635 186.02 102.604 185.777 102.541 185.543C102.479 185.305 102.383 185.094 102.254 184.91C102.125 184.727 101.963 184.58 101.768 184.471C101.572 184.361 101.344 184.307 101.082 184.307ZM107.598 188.297C107.598 188.18 107.615 188.07 107.65 187.969C107.689 187.867 107.744 187.779 107.814 187.705C107.885 187.627 107.973 187.566 108.078 187.523C108.184 187.48 108.307 187.459 108.447 187.459C108.588 187.459 108.711 187.48 108.816 187.523C108.926 187.566 109.016 187.627 109.086 187.705C109.16 187.779 109.215 187.867 109.25 187.969C109.289 188.07 109.309 188.18 109.309 188.297C109.309 188.41 109.289 188.518 109.25 188.619C109.215 188.717 109.16 188.803 109.086 188.877C109.016 188.951 108.926 189.008 108.816 189.047C108.711 189.09 108.588 189.111 108.447 189.111C108.307 189.111 108.184 189.09 108.078 189.047C107.973 189.008 107.885 188.951 107.814 188.877C107.744 188.803 107.689 188.717 107.65 188.619C107.615 188.518 107.598 188.41 107.598 188.297ZM114.084 188.039C114.471 188.039 114.811 188.006 115.104 187.939C115.396 187.869 115.65 187.771 115.865 187.646C116.084 187.521 116.266 187.375 116.41 187.207C116.555 187.035 116.672 186.848 116.762 186.645C116.855 186.438 116.924 186.221 116.967 185.994C117.01 185.764 117.037 185.529 117.049 185.291C116.955 185.408 116.848 185.52 116.727 185.625C116.605 185.727 116.469 185.816 116.316 185.895C116.164 185.973 115.994 186.035 115.807 186.082C115.623 186.125 115.422 186.146 115.203 186.146C114.781 186.146 114.416 186.064 114.107 185.9C113.803 185.732 113.551 185.514 113.352 185.244C113.152 184.975 113.006 184.67 112.912 184.33C112.818 183.99 112.771 183.648 112.771 183.305C112.771 182.902 112.826 182.523 112.936 182.168C113.049 181.809 113.215 181.496 113.434 181.23C113.656 180.961 113.932 180.748 114.26 180.592C114.592 180.432 114.977 180.352 115.414 180.352C115.742 180.352 116.037 180.398 116.299 180.492C116.564 180.582 116.797 180.709 116.996 180.873C117.199 181.033 117.373 181.225 117.518 181.447C117.662 181.666 117.779 181.904 117.869 182.162C117.963 182.416 118.031 182.684 118.074 182.965C118.117 183.242 118.139 183.521 118.139 183.803V184.195C118.139 184.559 118.121 184.932 118.086 185.314C118.051 185.693 117.98 186.061 117.875 186.416C117.773 186.771 117.629 187.107 117.441 187.424C117.254 187.736 117.01 188.01 116.709 188.244C116.408 188.479 116.043 188.664 115.613 188.801C115.184 188.938 114.674 189.006 114.084 189.006H113.973V188.039H114.084ZM115.379 185.25C115.562 185.25 115.74 185.221 115.912 185.162C116.088 185.1 116.248 185.014 116.393 184.904C116.541 184.791 116.672 184.66 116.785 184.512C116.902 184.359 116.994 184.191 117.061 184.008V183.656C117.061 183.277 117.016 182.939 116.926 182.643C116.84 182.346 116.721 182.096 116.568 181.893C116.42 181.686 116.246 181.527 116.047 181.418C115.852 181.309 115.643 181.254 115.42 181.254C115.166 181.254 114.941 181.305 114.746 181.406C114.551 181.508 114.385 181.648 114.248 181.828C114.115 182.004 114.014 182.215 113.943 182.461C113.873 182.703 113.838 182.965 113.838 183.246C113.838 183.496 113.869 183.742 113.932 183.984C113.994 184.223 114.088 184.436 114.213 184.623C114.342 184.811 114.502 184.963 114.693 185.08C114.889 185.193 115.117 185.25 115.379 185.25Z" fill="black"/>
<rect x="300" y="157" width="68" height="41" fill="#F2F2F2"/>
<path d="M327.131 173.469H332.064V174.799H330.4V180.676H332.064V182H327.131V180.676H328.754V174.799H327.131V173.469ZM338.404 179.773C338.404 179.621 338.377 179.479 338.322 179.346C338.271 179.213 338.182 179.09 338.053 178.977C337.928 178.859 337.762 178.754 337.555 178.66C337.352 178.562 337.098 178.473 336.793 178.391C336.422 178.289 336.066 178.162 335.727 178.01C335.391 177.857 335.094 177.674 334.836 177.459C334.578 177.244 334.371 176.994 334.215 176.709C334.062 176.424 333.986 176.096 333.986 175.725C333.986 175.365 334.062 175.039 334.215 174.746C334.367 174.453 334.578 174.203 334.848 173.996C335.117 173.789 335.436 173.631 335.803 173.521C336.17 173.408 336.568 173.352 336.998 173.352C337.443 173.352 337.85 173.416 338.217 173.545C338.588 173.674 338.906 173.855 339.172 174.09C339.438 174.32 339.645 174.596 339.793 174.916C339.941 175.236 340.016 175.588 340.016 175.971H338.41C338.402 175.779 338.367 175.604 338.305 175.443C338.246 175.283 338.156 175.146 338.035 175.033C337.918 174.916 337.77 174.826 337.59 174.764C337.414 174.697 337.207 174.664 336.969 174.664C336.75 174.664 336.555 174.691 336.383 174.746C336.215 174.797 336.072 174.871 335.955 174.969C335.838 175.062 335.748 175.176 335.686 175.309C335.627 175.438 335.598 175.578 335.598 175.73C335.598 175.891 335.637 176.035 335.715 176.164C335.797 176.293 335.914 176.41 336.066 176.516C336.219 176.617 336.402 176.711 336.617 176.797C336.836 176.883 337.082 176.963 337.355 177.037C337.746 177.15 338.105 177.289 338.434 177.453C338.762 177.617 339.043 177.812 339.277 178.039C339.516 178.262 339.699 178.518 339.828 178.807C339.961 179.092 340.027 179.41 340.027 179.762C340.027 180.137 339.951 180.471 339.799 180.764C339.65 181.053 339.443 181.299 339.178 181.502C338.912 181.701 338.596 181.854 338.229 181.959C337.861 182.061 337.461 182.111 337.027 182.111C336.758 182.111 336.488 182.086 336.219 182.035C335.953 181.988 335.697 181.914 335.451 181.812C335.209 181.711 334.982 181.584 334.771 181.432C334.561 181.279 334.377 181.102 334.221 180.898C334.068 180.695 333.947 180.465 333.857 180.207C333.771 179.949 333.729 179.664 333.729 179.352H335.346C335.354 179.609 335.398 179.83 335.48 180.014C335.562 180.197 335.676 180.348 335.82 180.465C335.969 180.582 336.145 180.668 336.348 180.723C336.555 180.777 336.781 180.805 337.027 180.805C337.246 180.805 337.439 180.779 337.607 180.729C337.779 180.678 337.924 180.607 338.041 180.518C338.158 180.428 338.248 180.32 338.311 180.195C338.373 180.066 338.404 179.926 338.404 179.773ZM342.934 178.871V182H341.287V173.469H344.205C344.67 173.469 345.09 173.537 345.465 173.674C345.84 173.807 346.158 173.994 346.42 174.236C346.686 174.475 346.889 174.762 347.029 175.098C347.174 175.434 347.246 175.807 347.246 176.217C347.246 176.6 347.174 176.953 347.029 177.277C346.889 177.602 346.686 177.883 346.42 178.121C346.158 178.355 345.84 178.539 345.465 178.672C345.09 178.805 344.67 178.871 344.205 178.871H342.934ZM342.934 177.535H344.205C344.439 177.535 344.643 177.5 344.814 177.43C344.986 177.359 345.129 177.264 345.242 177.143C345.359 177.021 345.445 176.883 345.5 176.727C345.559 176.566 345.588 176.4 345.588 176.229C345.588 176.029 345.559 175.844 345.5 175.672C345.445 175.5 345.359 175.35 345.242 175.221C345.129 175.092 344.986 174.99 344.814 174.916C344.643 174.842 344.439 174.805 344.205 174.805H342.934V177.535Z" fill="black"/>
<rect x="546" y="157" width="92" height="41" fill="#F2F2F2"/>
<path d="M573.939 178.607L574.561 173.469H576.072L574.889 182H573.4L572.592 176.961L571.812 182H570.324L569.152 173.469H570.658L571.268 178.572L571.994 173.469H573.172L573.939 178.607ZM580.109 182.117C579.621 182.117 579.178 182.037 578.779 181.877C578.381 181.717 578.039 181.5 577.754 181.227C577.469 180.949 577.248 180.625 577.092 180.254C576.939 179.879 576.863 179.479 576.863 179.053V178.818C576.863 178.334 576.939 177.893 577.092 177.494C577.244 177.092 577.457 176.746 577.73 176.457C578.004 176.168 578.328 175.943 578.703 175.783C579.078 175.623 579.486 175.543 579.928 175.543C580.385 175.543 580.791 175.619 581.146 175.771C581.506 175.92 581.809 176.131 582.055 176.404C582.305 176.678 582.494 177.008 582.623 177.395C582.752 177.777 582.816 178.201 582.816 178.666V179.357H578.516C578.547 179.572 578.609 179.77 578.703 179.949C578.801 180.125 578.924 180.277 579.072 180.406C579.221 180.535 579.391 180.635 579.582 180.705C579.773 180.775 579.982 180.811 580.209 180.811C580.369 180.811 580.527 180.795 580.684 180.764C580.844 180.732 580.996 180.688 581.141 180.629C581.285 180.566 581.42 180.49 581.545 180.4C581.67 180.311 581.779 180.205 581.873 180.084L582.688 180.963C582.586 181.107 582.453 181.25 582.289 181.391C582.129 181.527 581.938 181.65 581.715 181.76C581.496 181.865 581.252 181.951 580.982 182.018C580.713 182.084 580.422 182.117 580.109 182.117ZM579.916 176.861C579.732 176.861 579.564 176.895 579.412 176.961C579.26 177.023 579.125 177.115 579.008 177.236C578.895 177.357 578.799 177.502 578.721 177.67C578.643 177.838 578.584 178.025 578.545 178.232H581.217V178.104C581.209 177.932 581.176 177.77 581.117 177.617C581.059 177.465 580.975 177.334 580.865 177.225C580.756 177.111 580.621 177.023 580.461 176.961C580.305 176.895 580.123 176.861 579.916 176.861ZM589.953 178.895C589.953 179.367 589.9 179.801 589.795 180.195C589.693 180.59 589.539 180.93 589.332 181.215C589.125 181.5 588.867 181.723 588.559 181.883C588.25 182.039 587.891 182.117 587.48 182.117C587.109 182.117 586.787 182.049 586.514 181.912C586.244 181.771 586.012 181.576 585.816 181.326L585.74 182H584.275V173H585.904V176.234C586.092 176.016 586.312 175.846 586.566 175.725C586.824 175.604 587.125 175.543 587.469 175.543C587.883 175.543 588.244 175.623 588.553 175.783C588.865 175.943 589.125 176.166 589.332 176.451C589.539 176.736 589.693 177.078 589.795 177.477C589.9 177.871 589.953 178.303 589.953 178.771V178.895ZM588.324 178.771C588.324 178.514 588.305 178.27 588.266 178.039C588.227 177.809 588.158 177.607 588.061 177.436C587.967 177.26 587.838 177.121 587.674 177.02C587.51 176.918 587.305 176.867 587.059 176.867C586.762 176.867 586.52 176.93 586.332 177.055C586.148 177.18 586.006 177.352 585.904 177.57V180.096C586.006 180.314 586.148 180.486 586.332 180.611C586.52 180.736 586.766 180.799 587.07 180.799C587.316 180.799 587.52 180.752 587.68 180.658C587.84 180.561 587.967 180.428 588.061 180.26C588.158 180.088 588.227 179.887 588.266 179.656C588.305 179.422 588.324 179.168 588.324 178.895V178.771ZM595.537 180.26C595.537 180.162 595.514 180.076 595.467 180.002C595.424 179.928 595.344 179.859 595.227 179.797C595.113 179.73 594.961 179.67 594.77 179.615C594.578 179.561 594.336 179.506 594.043 179.451C593.672 179.377 593.332 179.285 593.023 179.176C592.719 179.062 592.457 178.928 592.238 178.771C592.02 178.611 591.848 178.428 591.723 178.221C591.602 178.014 591.541 177.775 591.541 177.506C591.541 177.244 591.604 176.994 591.729 176.756C591.854 176.518 592.033 176.309 592.268 176.129C592.502 175.949 592.787 175.807 593.123 175.701C593.459 175.596 593.838 175.543 594.26 175.543C594.701 175.543 595.098 175.596 595.449 175.701C595.801 175.803 596.098 175.945 596.34 176.129C596.586 176.309 596.773 176.523 596.902 176.773C597.031 177.023 597.096 177.295 597.096 177.588H595.467C595.467 177.342 595.367 177.137 595.168 176.973C594.969 176.805 594.666 176.721 594.26 176.721C593.881 176.721 593.594 176.789 593.398 176.926C593.207 177.062 593.111 177.23 593.111 177.43C593.111 177.523 593.131 177.611 593.17 177.693C593.209 177.771 593.277 177.844 593.375 177.91C593.477 177.973 593.613 178.031 593.785 178.086C593.957 178.137 594.176 178.182 594.441 178.221C594.824 178.283 595.18 178.363 595.508 178.461C595.836 178.559 596.119 178.686 596.357 178.842C596.596 178.994 596.781 179.182 596.914 179.404C597.051 179.623 597.119 179.885 597.119 180.189C597.119 180.471 597.051 180.73 596.914 180.969C596.781 181.203 596.59 181.406 596.34 181.578C596.094 181.75 595.795 181.885 595.443 181.982C595.092 182.076 594.699 182.123 594.266 182.123C593.789 182.123 593.367 182.061 593 181.936C592.637 181.811 592.332 181.648 592.086 181.449C591.84 181.246 591.652 181.018 591.523 180.764C591.398 180.506 591.336 180.248 591.336 179.99H592.889C592.9 180.162 592.947 180.311 593.029 180.436C593.111 180.557 593.217 180.656 593.346 180.734C593.475 180.809 593.621 180.863 593.785 180.898C593.953 180.934 594.125 180.951 594.301 180.951C594.703 180.951 595.01 180.887 595.221 180.758C595.432 180.629 595.537 180.463 595.537 180.26ZM599.088 175.66H602.539V180.676H604.256V182H599.088V180.676H600.893V176.99H599.088V175.66ZM600.775 174.037C600.775 173.912 600.797 173.797 600.84 173.691C600.887 173.582 600.951 173.49 601.033 173.416C601.115 173.338 601.213 173.277 601.326 173.234C601.443 173.191 601.572 173.17 601.713 173.17C602.002 173.17 602.23 173.252 602.398 173.416C602.57 173.576 602.656 173.783 602.656 174.037C602.656 174.291 602.57 174.5 602.398 174.664C602.23 174.824 602.002 174.904 601.713 174.904C601.572 174.904 601.443 174.883 601.326 174.84C601.213 174.797 601.115 174.738 601.033 174.664C600.951 174.586 600.887 174.494 600.84 174.389C600.797 174.279 600.775 174.162 600.775 174.037ZM608.85 174.107V175.66H611.217V176.861H608.85V179.586C608.85 179.816 608.875 180.01 608.926 180.166C608.98 180.318 609.057 180.441 609.154 180.535C609.252 180.625 609.369 180.689 609.506 180.729C609.646 180.768 609.803 180.787 609.975 180.787C610.1 180.787 610.227 180.781 610.355 180.77C610.488 180.758 610.613 180.744 610.73 180.729C610.852 180.709 610.963 180.689 611.064 180.67C611.17 180.65 611.26 180.631 611.334 180.611L611.492 181.73C611.379 181.797 611.246 181.855 611.094 181.906C610.941 181.953 610.779 181.992 610.607 182.023C610.436 182.055 610.256 182.078 610.068 182.094C609.885 182.113 609.703 182.123 609.523 182.123C609.176 182.123 608.859 182.078 608.574 181.988C608.293 181.895 608.051 181.752 607.848 181.561C607.648 181.365 607.494 181.119 607.385 180.822C607.275 180.521 607.221 180.162 607.221 179.744V176.861H605.773V175.66H607.221V174.107H608.85ZM616.145 182.117C615.656 182.117 615.213 182.037 614.814 181.877C614.416 181.717 614.074 181.5 613.789 181.227C613.504 180.949 613.283 180.625 613.127 180.254C612.975 179.879 612.898 179.479 612.898 179.053V178.818C612.898 178.334 612.975 177.893 613.127 177.494C613.279 177.092 613.492 176.746 613.766 176.457C614.039 176.168 614.363 175.943 614.738 175.783C615.113 175.623 615.521 175.543 615.963 175.543C616.42 175.543 616.826 175.619 617.182 175.771C617.541 175.92 617.844 176.131 618.09 176.404C618.34 176.678 618.529 177.008 618.658 177.395C618.787 177.777 618.852 178.201 618.852 178.666V179.357H614.551C614.582 179.572 614.645 179.77 614.738 179.949C614.836 180.125 614.959 180.277 615.107 180.406C615.256 180.535 615.426 180.635 615.617 180.705C615.809 180.775 616.018 180.811 616.244 180.811C616.404 180.811 616.562 180.795 616.719 180.764C616.879 180.732 617.031 180.688 617.176 180.629C617.32 180.566 617.455 180.49 617.58 180.4C617.705 180.311 617.814 180.205 617.908 180.084L618.723 180.963C618.621 181.107 618.488 181.25 618.324 181.391C618.164 181.527 617.973 181.65 617.75 181.76C617.531 181.865 617.287 181.951 617.018 182.018C616.748 182.084 616.457 182.117 616.145 182.117ZM615.951 176.861C615.768 176.861 615.6 176.895 615.447 176.961C615.295 177.023 615.16 177.115 615.043 177.236C614.93 177.357 614.834 177.502 614.756 177.67C614.678 177.838 614.619 178.025 614.58 178.232H617.252V178.104C617.244 177.932 617.211 177.77 617.152 177.617C617.094 177.465 617.01 177.334 616.9 177.225C616.791 177.111 616.656 177.023 616.496 176.961C616.34 176.895 616.158 176.861 615.951 176.861Z" fill="black"/>
<rect x="523" width="144" height="41" fill="#222226"/>
<path d="M536.757 17.5146H534.758L534.318 19H533.229L535.307 12.6016H536.234L538.273 19H537.188L536.757 17.5146ZM535.026 16.6138H536.494L535.769 14.1045L535.026 16.6138ZM539.28 12.25H541.851V18.1299H543.301V19H539.28V18.1299H540.792V13.1245H539.28V12.25ZM544.72 14.2451H547.256V18.1299H548.667V19H544.72V18.1299H546.197V15.1196H544.72V14.2451ZM546.109 13.0146C546.109 12.8506 546.162 12.7158 546.267 12.6104C546.373 12.502 546.521 12.4478 546.711 12.4478C546.904 12.4478 547.054 12.502 547.159 12.6104C547.268 12.7158 547.322 12.8506 547.322 13.0146C547.322 13.1787 547.268 13.3149 547.159 13.4233C547.054 13.5288 546.904 13.5815 546.711 13.5815C546.521 13.5815 546.373 13.5288 546.267 13.4233C546.162 13.3149 546.109 13.1787 546.109 13.0146ZM551.976 18.2529C552.104 18.2529 552.229 18.2324 552.349 18.1914C552.472 18.1504 552.581 18.0933 552.674 18.02C552.768 17.9468 552.841 17.8604 552.894 17.7607C552.95 17.6611 552.976 17.5527 552.973 17.4355H553.966C553.969 17.6641 553.917 17.8794 553.808 18.0815C553.703 18.2808 553.558 18.4551 553.373 18.6045C553.191 18.7539 552.98 18.8726 552.74 18.9604C552.5 19.0483 552.248 19.0923 551.984 19.0923C551.618 19.0923 551.297 19.0293 551.022 18.9033C550.747 18.7773 550.517 18.606 550.332 18.3892C550.147 18.1694 550.008 17.916 549.915 17.6289C549.824 17.3389 549.778 17.0312 549.778 16.7061V16.5479C549.778 16.2227 549.824 15.915 549.915 15.625C550.008 15.335 550.147 15.0815 550.332 14.8647C550.517 14.6479 550.747 14.4766 551.022 14.3506C551.297 14.2217 551.617 14.1572 551.98 14.1572C552.267 14.1572 552.532 14.2012 552.775 14.2891C553.021 14.377 553.232 14.5 553.408 14.6582C553.587 14.8164 553.725 15.0054 553.821 15.2251C553.921 15.4448 553.969 15.6851 553.966 15.9458H552.973C552.976 15.8169 552.953 15.6953 552.903 15.5811C552.856 15.4668 552.787 15.3672 552.696 15.2822C552.605 15.1973 552.499 15.1299 552.375 15.0801C552.252 15.0303 552.118 15.0054 551.971 15.0054C551.751 15.0054 551.568 15.0508 551.422 15.1416C551.275 15.2295 551.158 15.3467 551.07 15.4932C550.982 15.6367 550.919 15.8008 550.881 15.9854C550.846 16.1699 550.829 16.3574 550.829 16.5479V16.7061C550.829 16.8994 550.846 17.0884 550.881 17.2729C550.919 17.4575 550.982 17.623 551.07 17.7695C551.158 17.9131 551.275 18.0303 551.422 18.1211C551.568 18.209 551.753 18.2529 551.976 18.2529ZM557.517 19.0879C557.166 19.0879 556.845 19.0293 556.555 18.9121C556.265 18.7949 556.016 18.6338 555.808 18.4287C555.603 18.2236 555.443 17.9819 555.329 17.7036C555.214 17.4224 555.157 17.1191 555.157 16.7939V16.6138C555.157 16.2358 555.217 15.896 555.337 15.5942C555.46 15.2925 555.623 15.0347 555.825 14.8208C556.03 14.6069 556.268 14.4429 556.537 14.3286C556.81 14.2144 557.095 14.1572 557.394 14.1572C557.74 14.1572 558.044 14.2158 558.308 14.333C558.572 14.4473 558.792 14.6099 558.967 14.8208C559.146 15.0288 559.281 15.2764 559.372 15.5635C559.462 15.8506 559.508 16.1655 559.508 16.5083V16.9521H556.212C556.229 17.1367 556.275 17.3081 556.348 17.4663C556.421 17.6245 556.517 17.7622 556.634 17.8794C556.754 17.9937 556.893 18.0845 557.051 18.1519C557.212 18.2163 557.388 18.2485 557.579 18.2485C557.845 18.2485 558.09 18.1958 558.312 18.0903C558.538 17.9849 558.721 17.8398 558.862 17.6553L559.433 18.1914C559.357 18.3057 559.259 18.417 559.139 18.5254C559.019 18.6309 558.878 18.7261 558.717 18.811C558.556 18.8931 558.374 18.959 558.172 19.0088C557.973 19.0615 557.754 19.0879 557.517 19.0879ZM557.39 15.0054C557.243 15.0054 557.107 15.0317 556.981 15.0845C556.855 15.1372 556.742 15.2148 556.643 15.3174C556.543 15.417 556.458 15.54 556.388 15.6865C556.32 15.8301 556.272 15.9941 556.243 16.1787H558.471V16.0996C558.462 15.959 558.434 15.8242 558.387 15.6953C558.343 15.5635 558.277 15.4463 558.189 15.3438C558.102 15.2412 557.99 15.1592 557.855 15.0977C557.724 15.0361 557.568 15.0054 557.39 15.0054ZM568.06 17.6729L568.134 18.0244L568.213 17.6772L569.365 14.2451H570.45L568.587 19H567.682L565.801 14.2451H566.886L568.06 17.6729ZM571.747 14.2451H574.282V18.1299H575.693V19H571.747V18.1299H573.223V15.1196H571.747V14.2451ZM573.135 13.0146C573.135 12.8506 573.188 12.7158 573.293 12.6104C573.399 12.502 573.547 12.4478 573.737 12.4478C573.931 12.4478 574.08 12.502 574.186 12.6104C574.294 12.7158 574.348 12.8506 574.348 13.0146C574.348 13.1787 574.294 13.3149 574.186 13.4233C574.08 13.5288 573.931 13.5815 573.737 13.5815C573.547 13.5815 573.399 13.5288 573.293 13.4233C573.188 13.3149 573.135 13.1787 573.135 13.0146ZM580.021 17.7124C580.021 17.6333 580.005 17.5615 579.973 17.4971C579.941 17.4297 579.882 17.3696 579.797 17.3169C579.715 17.2612 579.601 17.21 579.455 17.1631C579.311 17.1162 579.126 17.0708 578.901 17.0269C578.62 16.9683 578.365 16.8979 578.136 16.8159C577.911 16.7339 577.716 16.6357 577.552 16.5215C577.391 16.4072 577.266 16.2754 577.178 16.126C577.09 15.9736 577.046 15.7979 577.046 15.5986C577.046 15.4053 577.092 15.2222 577.183 15.0493C577.273 14.8735 577.402 14.7197 577.569 14.5879C577.739 14.4561 577.944 14.3521 578.185 14.2759C578.428 14.1968 578.699 14.1572 578.998 14.1572C579.314 14.1572 579.597 14.1968 579.846 14.2759C580.098 14.355 580.31 14.4634 580.483 14.6011C580.656 14.7358 580.788 14.8955 580.878 15.0801C580.972 15.2646 581.019 15.4624 581.019 15.6733H579.969C579.969 15.5796 579.948 15.4902 579.907 15.4053C579.866 15.3174 579.805 15.2397 579.723 15.1724C579.641 15.105 579.538 15.0522 579.415 15.0142C579.295 14.9731 579.156 14.9526 578.998 14.9526C578.839 14.9526 578.702 14.9702 578.584 15.0054C578.47 15.0376 578.375 15.0815 578.299 15.1372C578.223 15.1899 578.166 15.2529 578.127 15.3262C578.092 15.3994 578.075 15.4756 578.075 15.5547C578.075 15.6338 578.088 15.7056 578.114 15.77C578.144 15.8345 578.196 15.8931 578.272 15.9458C578.349 15.9985 578.454 16.0469 578.589 16.0908C578.724 16.1318 578.898 16.1714 579.112 16.2095C579.411 16.2622 579.679 16.3281 579.916 16.4072C580.156 16.4863 580.36 16.583 580.527 16.6973C580.697 16.8115 580.827 16.9478 580.918 17.106C581.009 17.2612 581.054 17.4443 581.054 17.6553C581.054 17.8662 581.006 18.0596 580.909 18.2354C580.812 18.4111 580.675 18.5635 580.496 18.6924C580.317 18.8184 580.102 18.9165 579.85 18.9868C579.601 19.0571 579.321 19.0923 579.011 19.0923C578.665 19.0923 578.36 19.0469 578.097 18.9561C577.833 18.8623 577.612 18.7407 577.433 18.5913C577.254 18.4419 577.118 18.272 577.024 18.0815C576.934 17.8911 576.888 17.6978 576.888 17.5015H577.908C577.917 17.6479 577.955 17.7725 578.022 17.875C578.089 17.9775 578.176 18.061 578.281 18.1255C578.387 18.187 578.504 18.2324 578.633 18.2617C578.762 18.2881 578.892 18.3013 579.024 18.3013C579.349 18.3013 579.597 18.2471 579.767 18.1387C579.937 18.0273 580.021 17.8853 580.021 17.7124ZM582.557 14.2451H585.093V18.1299H586.503V19H582.557V18.1299H584.034V15.1196H582.557V14.2451ZM583.946 13.0146C583.946 12.8506 583.999 12.7158 584.104 12.6104C584.209 12.502 584.357 12.4478 584.548 12.4478C584.741 12.4478 584.891 12.502 584.996 12.6104C585.104 12.7158 585.159 12.8506 585.159 13.0146C585.159 13.1787 585.104 13.3149 584.996 13.4233C584.891 13.5288 584.741 13.5815 584.548 13.5815C584.357 13.5815 584.209 13.5288 584.104 13.4233C583.999 13.3149 583.946 13.1787 583.946 13.0146ZM589.839 13.0938V14.2451H591.636V15.0273H589.839V17.3081C589.839 17.4868 589.859 17.6348 589.9 17.752C589.944 17.8691 590.004 17.9629 590.081 18.0332C590.157 18.1035 590.246 18.1533 590.349 18.1826C590.451 18.209 590.564 18.2222 590.687 18.2222C590.778 18.2222 590.872 18.2178 590.968 18.209C591.068 18.1973 591.163 18.1855 591.254 18.1738C591.348 18.1592 591.433 18.1445 591.509 18.1299C591.588 18.1123 591.654 18.0962 591.707 18.0815L591.825 18.8066C591.749 18.8506 591.657 18.8916 591.548 18.9297C591.443 18.9648 591.327 18.9941 591.201 19.0176C591.075 19.041 590.943 19.0586 590.806 19.0703C590.671 19.085 590.538 19.0923 590.406 19.0923C590.168 19.0923 589.95 19.0601 589.751 18.9956C589.555 18.9282 589.385 18.8257 589.241 18.688C589.101 18.5474 588.989 18.3687 588.907 18.1519C588.828 17.9321 588.789 17.6699 588.789 17.3652V15.0273H587.628V14.2451H588.789V13.0938H589.839ZM595.354 19.0879C595.002 19.0879 594.682 19.0293 594.392 18.9121C594.102 18.7949 593.853 18.6338 593.645 18.4287C593.439 18.2236 593.28 17.9819 593.166 17.7036C593.051 17.4224 592.994 17.1191 592.994 16.7939V16.6138C592.994 16.2358 593.054 15.896 593.174 15.5942C593.297 15.2925 593.46 15.0347 593.662 14.8208C593.867 14.6069 594.104 14.4429 594.374 14.3286C594.646 14.2144 594.932 14.1572 595.231 14.1572C595.577 14.1572 595.881 14.2158 596.145 14.333C596.409 14.4473 596.628 14.6099 596.804 14.8208C596.983 15.0288 597.118 15.2764 597.208 15.5635C597.299 15.8506 597.345 16.1655 597.345 16.5083V16.9521H594.049C594.066 17.1367 594.112 17.3081 594.185 17.4663C594.258 17.6245 594.354 17.7622 594.471 17.8794C594.591 17.9937 594.73 18.0845 594.888 18.1519C595.049 18.2163 595.225 18.2485 595.416 18.2485C595.682 18.2485 595.927 18.1958 596.149 18.0903C596.375 17.9849 596.558 17.8398 596.699 17.6553L597.27 18.1914C597.194 18.3057 597.096 18.417 596.976 18.5254C596.855 18.6309 596.715 18.7261 596.554 18.811C596.393 18.8931 596.211 18.959 596.009 19.0088C595.81 19.0615 595.591 19.0879 595.354 19.0879ZM595.227 15.0054C595.08 15.0054 594.944 15.0317 594.818 15.0845C594.692 15.1372 594.579 15.2148 594.479 15.3174C594.38 15.417 594.295 15.54 594.225 15.6865C594.157 15.8301 594.109 15.9941 594.08 16.1787H596.308V16.0996C596.299 15.959 596.271 15.8242 596.224 15.6953C596.18 15.5635 596.114 15.4463 596.026 15.3438C595.938 15.2412 595.827 15.1592 595.692 15.0977C595.561 15.0361 595.405 15.0054 595.227 15.0054ZM598.404 16.5874C598.404 16.2271 598.448 15.8975 598.536 15.5986C598.624 15.2998 598.75 15.0435 598.914 14.8296C599.078 14.6157 599.275 14.4502 599.507 14.333C599.741 14.2158 600.003 14.1572 600.293 14.1572C600.554 14.1572 600.784 14.2026 600.983 14.2935C601.183 14.3813 601.357 14.5088 601.506 14.6758V12.25H602.561V19H601.607L601.555 18.5166C601.405 18.7012 601.225 18.8433 601.014 18.9429C600.806 19.0396 600.563 19.0879 600.285 19.0879C599.998 19.0879 599.738 19.0278 599.507 18.9077C599.275 18.7847 599.078 18.6162 598.914 18.4023C598.752 18.1885 598.626 17.9351 598.536 17.6421C598.448 17.3462 598.404 17.0254 598.404 16.6797V16.5874ZM599.454 16.6797C599.454 16.8936 599.475 17.0942 599.516 17.2817C599.557 17.4692 599.621 17.6333 599.709 17.7739C599.8 17.9146 599.914 18.0259 600.052 18.1079C600.192 18.187 600.359 18.2266 600.553 18.2266C600.793 18.2266 600.989 18.1753 601.142 18.0728C601.294 17.9673 601.416 17.8267 601.506 17.6509V15.5854C601.416 15.4126 601.292 15.2749 601.137 15.1724C600.985 15.0698 600.793 15.0186 600.562 15.0186C600.365 15.0186 600.197 15.0596 600.056 15.1416C599.918 15.2236 599.804 15.3364 599.713 15.48C599.625 15.6235 599.56 15.7905 599.516 15.981C599.475 16.1714 599.454 16.3735 599.454 16.5874V16.6797ZM613.517 16.6709C613.517 17.0166 613.476 17.3374 613.394 17.6333C613.312 17.9292 613.191 18.1855 613.033 18.4023C612.875 18.6162 612.68 18.7847 612.449 18.9077C612.22 19.0278 611.957 19.0879 611.658 19.0879C611.388 19.0879 611.149 19.0439 610.941 18.9561C610.736 18.8682 610.559 18.7422 610.41 18.5781V20.8281H609.359V14.2451H610.326L610.37 14.7241C610.522 14.5425 610.703 14.4033 610.911 14.3066C611.122 14.207 611.366 14.1572 611.645 14.1572C611.946 14.1572 612.213 14.2158 612.444 14.333C612.679 14.4502 612.875 14.6157 613.033 14.8296C613.191 15.0405 613.312 15.2954 613.394 15.5942C613.476 15.8901 613.517 16.2183 613.517 16.5786V16.6709ZM612.466 16.5786C612.466 16.3647 612.444 16.1641 612.4 15.9766C612.356 15.7861 612.289 15.6206 612.198 15.48C612.107 15.3364 611.992 15.2236 611.851 15.1416C611.71 15.0596 611.543 15.0186 611.35 15.0186C611.116 15.0186 610.922 15.0684 610.77 15.168C610.618 15.2676 610.498 15.4009 610.41 15.5679V17.6948C610.498 17.8589 610.616 17.9922 610.766 18.0947C610.918 18.1973 611.116 18.2485 611.359 18.2485C611.552 18.2485 611.719 18.2061 611.86 18.1211C612 18.0361 612.115 17.9219 612.203 17.7783C612.293 17.6348 612.359 17.4678 612.4 17.2773C612.444 17.0869 612.466 16.8848 612.466 16.6709V16.5786ZM617.792 19C617.763 18.9414 617.738 18.8726 617.718 18.7935C617.7 18.7144 617.684 18.6294 617.669 18.5386C617.596 18.6147 617.513 18.6865 617.419 18.7539C617.328 18.8184 617.226 18.8755 617.111 18.9253C617 18.9751 616.878 19.0146 616.747 19.0439C616.618 19.0732 616.479 19.0879 616.329 19.0879C616.077 19.0879 615.849 19.0527 615.644 18.9824C615.441 18.9092 615.267 18.8096 615.121 18.6836C614.977 18.5547 614.866 18.4038 614.787 18.231C614.708 18.0581 614.668 17.8706 614.668 17.6685C614.668 17.1587 614.857 16.769 615.235 16.4995C615.616 16.23 616.161 16.0952 616.87 16.0952H617.639V15.7832C617.639 15.5312 617.554 15.332 617.384 15.1855C617.214 15.0361 616.974 14.9614 616.663 14.9614C616.522 14.9614 616.399 14.979 616.294 15.0142C616.188 15.0464 616.101 15.0918 616.03 15.1504C615.96 15.209 615.907 15.2778 615.872 15.3569C615.837 15.436 615.819 15.521 615.819 15.6118H614.769C614.769 15.4272 614.812 15.2485 614.896 15.0757C614.984 14.8999 615.112 14.7446 615.279 14.6099C615.446 14.4722 615.649 14.3623 615.89 14.2803C616.133 14.1982 616.41 14.1572 616.72 14.1572C617.001 14.1572 617.262 14.1924 617.502 14.2627C617.743 14.3301 617.951 14.4326 618.126 14.5703C618.302 14.7051 618.44 14.875 618.54 15.0801C618.639 15.2822 618.689 15.5195 618.689 15.792V17.9102C618.689 18.1182 618.704 18.3086 618.733 18.4814C618.765 18.6514 618.811 18.7993 618.869 18.9253V19H617.792ZM616.527 18.2397C616.662 18.2397 616.788 18.2236 616.905 18.1914C617.025 18.1562 617.132 18.1123 617.226 18.0596C617.322 18.0039 617.404 17.9409 617.472 17.8706C617.542 17.8003 617.598 17.7285 617.639 17.6553V16.7632H616.971C616.543 16.7632 616.227 16.832 616.021 16.9697C615.819 17.1074 615.718 17.3037 615.718 17.5586C615.718 17.6553 615.734 17.7461 615.767 17.8311C615.799 17.9131 615.847 17.9849 615.912 18.0464C615.979 18.105 616.062 18.1519 616.162 18.187C616.265 18.2222 616.386 18.2397 616.527 18.2397ZM620.029 16.5874C620.029 16.2271 620.073 15.8975 620.161 15.5986C620.252 15.2998 620.381 15.0435 620.548 14.8296C620.715 14.6157 620.916 14.4502 621.15 14.333C621.387 14.2158 621.652 14.1572 621.945 14.1572C622.229 14.1572 622.476 14.2056 622.684 14.3022C622.892 14.3989 623.07 14.5381 623.22 14.7197L623.264 14.2451H624.217V18.8726C624.217 19.1919 624.165 19.4746 624.059 19.7207C623.954 19.9697 623.806 20.1792 623.615 20.3491C623.428 20.519 623.202 20.6479 622.938 20.7358C622.675 20.8267 622.385 20.8721 622.068 20.8721C621.939 20.8721 621.793 20.8574 621.629 20.8281C621.468 20.8018 621.305 20.7563 621.141 20.6919C620.977 20.6304 620.82 20.5483 620.671 20.4458C620.521 20.3462 620.394 20.2246 620.289 20.0811L620.79 19.4526C620.968 19.6636 621.16 19.8145 621.365 19.9053C621.573 19.9961 621.787 20.0415 622.007 20.0415C622.183 20.0415 622.342 20.0166 622.486 19.9668C622.629 19.917 622.751 19.8438 622.851 19.7471C622.95 19.6504 623.026 19.5303 623.079 19.3867C623.135 19.2461 623.163 19.0835 623.163 18.8989V18.5781C623.013 18.7422 622.837 18.8682 622.635 18.9561C622.436 19.0439 622.203 19.0879 621.937 19.0879C621.646 19.0879 621.384 19.0278 621.15 18.9077C620.916 18.7847 620.715 18.6162 620.548 18.4023C620.381 18.1885 620.252 17.9351 620.161 17.6421C620.073 17.3462 620.029 17.0254 620.029 16.6797V16.5874ZM621.084 16.6797C621.084 16.8936 621.106 17.0942 621.15 17.2817C621.194 17.4692 621.261 17.6333 621.352 17.7739C621.443 17.9146 621.559 18.0259 621.699 18.1079C621.843 18.187 622.011 18.2266 622.205 18.2266C622.448 18.2266 622.646 18.1768 622.798 18.0771C622.95 17.9746 623.072 17.8384 623.163 17.6685V15.5679C623.069 15.4009 622.946 15.2676 622.793 15.168C622.641 15.0684 622.448 15.0186 622.213 15.0186C622.02 15.0186 621.852 15.0596 621.708 15.1416C621.567 15.2236 621.45 15.3364 621.356 15.48C621.266 15.6235 621.197 15.7905 621.15 15.981C621.106 16.1714 621.084 16.3735 621.084 16.5874V16.6797ZM627.786 19.0879C627.434 19.0879 627.113 19.0293 626.823 18.9121C626.533 18.7949 626.284 18.6338 626.076 18.4287C625.871 18.2236 625.711 17.9819 625.597 17.7036C625.483 17.4224 625.426 17.1191 625.426 16.7939V16.6138C625.426 16.2358 625.486 15.896 625.606 15.5942C625.729 15.2925 625.892 15.0347 626.094 14.8208C626.299 14.6069 626.536 14.4429 626.806 14.3286C627.078 14.2144 627.364 14.1572 627.663 14.1572C628.008 14.1572 628.313 14.2158 628.577 14.333C628.84 14.4473 629.06 14.6099 629.236 14.8208C629.415 15.0288 629.549 15.2764 629.64 15.5635C629.731 15.8506 629.776 16.1655 629.776 16.5083V16.9521H626.48C626.498 17.1367 626.543 17.3081 626.617 17.4663C626.69 17.6245 626.785 17.7622 626.902 17.8794C627.022 17.9937 627.162 18.0845 627.32 18.1519C627.481 18.2163 627.657 18.2485 627.847 18.2485C628.114 18.2485 628.358 18.1958 628.581 18.0903C628.807 17.9849 628.99 17.8398 629.13 17.6553L629.702 18.1914C629.625 18.3057 629.527 18.417 629.407 18.5254C629.287 18.6309 629.146 18.7261 628.985 18.811C628.824 18.8931 628.643 18.959 628.44 19.0088C628.241 19.0615 628.023 19.0879 627.786 19.0879ZM627.658 15.0054C627.512 15.0054 627.375 15.0317 627.25 15.0845C627.124 15.1372 627.011 15.2148 626.911 15.3174C626.812 15.417 626.727 15.54 626.656 15.6865C626.589 15.8301 626.541 15.9941 626.511 16.1787H628.739V16.0996C628.73 15.959 628.703 15.8242 628.656 15.6953C628.612 15.5635 628.546 15.4463 628.458 15.3438C628.37 15.2412 628.259 15.1592 628.124 15.0977C627.992 15.0361 627.837 15.0054 627.658 15.0054ZM640.459 19H636.162V18.2749L638.245 16.0029C638.42 15.8066 638.567 15.6338 638.684 15.4844C638.804 15.332 638.899 15.1929 638.97 15.0669C639.04 14.9409 639.09 14.8237 639.119 14.7153C639.148 14.6069 639.163 14.4971 639.163 14.3857C639.163 14.2393 639.14 14.1045 639.093 13.9814C639.049 13.8555 638.984 13.7485 638.899 13.6606C638.817 13.5698 638.716 13.4995 638.596 13.4497C638.479 13.3999 638.347 13.375 638.201 13.375C637.82 13.375 637.539 13.479 637.357 13.687C637.178 13.895 637.089 14.1821 637.089 14.5483H636.034C636.034 14.27 636.084 14.0078 636.184 13.7617C636.286 13.5127 636.431 13.2959 636.619 13.1113C636.809 12.9268 637.039 12.7817 637.309 12.6763C637.578 12.5679 637.881 12.5137 638.218 12.5137C638.535 12.5137 638.816 12.5591 639.062 12.6499C639.308 12.7407 639.516 12.8682 639.686 13.0322C639.856 13.1934 639.985 13.3853 640.073 13.6079C640.161 13.8306 640.205 14.0752 640.205 14.3418C640.205 14.541 640.172 14.7344 640.108 14.9219C640.043 15.1064 639.954 15.291 639.84 15.4756C639.726 15.6602 639.589 15.8462 639.431 16.0337C639.273 16.2183 639.102 16.4087 638.917 16.605L637.467 18.1606H640.459V19ZM642.881 15.3262H643.509C643.694 15.3262 643.855 15.3027 643.993 15.2559C644.13 15.2061 644.245 15.1372 644.335 15.0493C644.426 14.9614 644.494 14.8574 644.538 14.7373C644.584 14.6143 644.608 14.4795 644.608 14.333C644.608 14.0225 644.526 13.7837 644.362 13.6167C644.201 13.4468 643.956 13.3618 643.628 13.3618C643.484 13.3618 643.351 13.3838 643.228 13.4277C643.108 13.4688 643.002 13.5288 642.912 13.6079C642.824 13.687 642.755 13.7822 642.705 13.8936C642.655 14.0049 642.63 14.1309 642.63 14.2715H641.58C641.58 14.0195 641.63 13.7866 641.729 13.5728C641.832 13.3589 641.973 13.1743 642.151 13.019C642.333 12.8608 642.548 12.7378 642.797 12.6499C643.046 12.5591 643.319 12.5137 643.615 12.5137C643.917 12.5137 644.193 12.5532 644.445 12.6323C644.697 12.7085 644.913 12.8228 645.091 12.9751C645.27 13.1274 645.409 13.3179 645.509 13.5464C645.608 13.772 645.658 14.0342 645.658 14.333C645.658 14.459 645.639 14.5879 645.601 14.7197C645.563 14.8516 645.504 14.979 645.425 15.1021C645.349 15.2251 645.251 15.3408 645.131 15.4492C645.014 15.5547 644.875 15.644 644.713 15.7173C644.907 15.7847 645.069 15.8711 645.201 15.9766C645.333 16.082 645.44 16.2007 645.522 16.3325C645.604 16.4614 645.663 16.6006 645.698 16.75C645.733 16.8994 645.75 17.0518 645.75 17.207C645.75 17.5059 645.696 17.7725 645.588 18.0068C645.479 18.2412 645.329 18.439 645.135 18.6001C644.945 18.7583 644.719 18.8799 644.458 18.9648C644.198 19.0469 643.917 19.0879 643.615 19.0879C643.336 19.0879 643.071 19.0498 642.819 18.9736C642.567 18.8975 642.345 18.7847 642.151 18.6353C641.961 18.4829 641.809 18.2954 641.694 18.0728C641.58 17.8472 641.523 17.5864 641.523 17.2905H642.573C642.573 17.4312 642.598 17.5615 642.648 17.6816C642.698 17.7988 642.768 17.8999 642.859 17.9849C642.953 18.0669 643.064 18.1313 643.193 18.1782C643.322 18.2251 643.467 18.2485 643.628 18.2485C643.962 18.2485 644.224 18.1606 644.415 17.9849C644.608 17.8062 644.705 17.5483 644.705 17.2114C644.705 17.0269 644.677 16.8687 644.621 16.7368C644.565 16.6021 644.485 16.4922 644.379 16.4072C644.277 16.3193 644.152 16.2549 644.006 16.2139C643.859 16.1729 643.694 16.1523 643.509 16.1523H642.881V15.3262ZM650.655 16.728H651.459V17.5762H650.655V19H649.604V17.5762H646.827L646.801 16.939L649.569 12.6016H650.655V16.728ZM647.882 16.728H649.604V14.0034L649.49 14.21L647.882 16.728ZM538.115 26.4536C538.106 26.7114 538.077 26.9692 538.027 27.2271C537.978 27.4849 537.901 27.7163 537.799 27.9214C537.699 28.1265 537.57 28.2935 537.412 28.4224C537.257 28.5513 537.069 28.6157 536.85 28.6157C536.688 28.6157 536.548 28.5762 536.428 28.4971C536.308 28.415 536.217 28.2993 536.155 28.1499C536.053 28.2935 535.933 28.4062 535.795 28.4883C535.66 28.5703 535.514 28.6113 535.355 28.6113C535.2 28.6113 535.062 28.5747 534.942 28.5015C534.825 28.4253 534.729 28.3169 534.652 28.1763C534.579 28.0356 534.528 27.8672 534.499 27.6709C534.469 27.4717 534.465 27.249 534.485 27.0029C534.515 26.6865 534.572 26.4023 534.657 26.1504C534.742 25.8984 534.85 25.6846 534.982 25.5088C535.114 25.333 535.268 25.1982 535.443 25.1045C535.619 25.0078 535.812 24.9595 536.023 24.9595C536.237 24.9595 536.413 24.9961 536.551 25.0693C536.688 25.1426 536.798 25.2275 536.88 25.3242L536.691 27.5874C536.683 27.6899 536.684 27.772 536.696 27.8335C536.71 27.8921 536.729 27.9375 536.753 27.9697C536.779 27.999 536.809 28.0181 536.841 28.0269C536.876 28.0327 536.91 28.0356 536.942 28.0356C537.03 28.0356 537.109 27.9961 537.179 27.917C537.252 27.8379 537.314 27.7295 537.364 27.5918C537.417 27.4512 537.456 27.2856 537.482 27.0952C537.512 26.9019 537.526 26.6924 537.526 26.4668C537.538 26.1035 537.509 25.7842 537.438 25.5088C537.371 25.2334 537.266 25.0034 537.122 24.8188C536.979 24.6313 536.801 24.4907 536.59 24.397C536.382 24.3032 536.145 24.2563 535.878 24.2563C535.583 24.2563 535.314 24.3252 535.074 24.4629C534.837 24.5977 534.633 24.7866 534.463 25.0298C534.293 25.2729 534.16 25.5615 534.063 25.8955C533.967 26.2266 533.913 26.5898 533.901 26.9854C533.869 27.7822 534.006 28.3843 534.314 28.7915C534.622 29.1987 535.073 29.4023 535.667 29.4023C535.849 29.4023 536.031 29.3789 536.212 29.332C536.397 29.2822 536.555 29.2178 536.687 29.1387L536.828 29.7056C536.751 29.7612 536.665 29.8096 536.568 29.8506C536.475 29.8916 536.376 29.9268 536.274 29.9561C536.171 29.9824 536.066 30.0015 535.958 30.0132C535.852 30.0278 535.751 30.0352 535.654 30.0352C535.232 30.0352 534.866 29.9634 534.556 29.8198C534.248 29.6733 533.995 29.4683 533.795 29.2046C533.599 28.938 533.454 28.6172 533.36 28.2422C533.27 27.8672 533.231 27.4482 533.246 26.9854C533.261 26.5254 533.335 26.0918 533.47 25.6846C533.605 25.2773 533.788 24.9214 534.02 24.6167C534.254 24.312 534.531 24.0718 534.85 23.896C535.169 23.7173 535.521 23.6279 535.905 23.6279C536.25 23.6279 536.562 23.6953 536.841 23.8301C537.122 23.9619 537.358 24.1509 537.548 24.397C537.742 24.6431 537.887 24.9404 537.983 25.2891C538.083 25.6377 538.127 26.0259 538.115 26.4536ZM535.153 27.0029C535.139 27.3252 535.165 27.5654 535.232 27.7236C535.303 27.8789 535.404 27.9565 535.536 27.9565C535.632 27.9565 535.728 27.9331 535.821 27.8862C535.915 27.8394 536.001 27.7471 536.081 27.6094V27.5874L536.252 25.6055C536.193 25.5879 536.133 25.5791 536.072 25.5791C535.796 25.5791 535.585 25.7021 535.439 25.9482C535.295 26.1943 535.2 26.5459 535.153 27.0029ZM541.93 30H540.871V24.8979L539.236 25.4956V24.5728L541.864 23.6016H541.93V30ZM548.627 24.186L546.065 30H544.958L547.52 24.4761H544.202V23.6016H548.627V24.186ZM551.347 29.3716C551.347 29.269 551.363 29.1724 551.396 29.0815C551.431 28.9907 551.48 28.9131 551.545 28.8486C551.609 28.7812 551.688 28.7285 551.782 28.6904C551.879 28.6523 551.989 28.6333 552.112 28.6333C552.235 28.6333 552.343 28.6523 552.437 28.6904C552.534 28.7285 552.614 28.7812 552.679 28.8486C552.746 28.9131 552.796 28.9907 552.828 29.0815C552.863 29.1724 552.881 29.269 552.881 29.3716C552.881 29.4741 552.863 29.5693 552.828 29.6572C552.796 29.7422 552.746 29.8169 552.679 29.8813C552.614 29.9458 552.534 29.9956 552.437 30.0308C552.343 30.0688 552.235 30.0879 552.112 30.0879C551.989 30.0879 551.879 30.0688 551.782 30.0308C551.688 29.9956 551.609 29.9458 551.545 29.8813C551.48 29.8169 551.431 29.7422 551.396 29.6572C551.363 29.5693 551.347 29.4741 551.347 29.3716ZM551.347 25.6318C551.347 25.5293 551.363 25.4326 551.396 25.3418C551.431 25.251 551.48 25.1733 551.545 25.1089C551.609 25.0415 551.688 24.9888 551.782 24.9507C551.879 24.9126 551.989 24.8936 552.112 24.8936C552.235 24.8936 552.343 24.9126 552.437 24.9507C552.534 24.9888 552.614 25.0415 552.679 25.1089C552.746 25.1733 552.796 25.251 552.828 25.3418C552.863 25.4326 552.881 25.5293 552.881 25.6318C552.881 25.7344 552.863 25.8296 552.828 25.9175C552.796 26.0024 552.746 26.0771 552.679 26.1416C552.614 26.2061 552.534 26.2573 552.437 26.2954C552.343 26.3306 552.235 26.3481 552.112 26.3481C551.989 26.3481 551.879 26.3306 551.782 26.2954C551.688 26.2573 551.609 26.2061 551.545 26.1416C551.48 26.0771 551.431 26.0024 551.396 25.9175C551.363 25.8296 551.347 25.7344 551.347 25.6318ZM555.478 26.8271L555.825 23.6016H559.249V24.542H556.695L556.533 26.0581C556.635 25.9995 556.771 25.9424 556.941 25.8867C557.111 25.8311 557.308 25.8032 557.53 25.8032C557.832 25.8032 558.102 25.853 558.339 25.9526C558.579 26.0522 558.781 26.1958 558.945 26.3833C559.109 26.5679 559.235 26.7935 559.323 27.0601C559.411 27.3237 559.455 27.6226 559.455 27.9565C559.455 28.2524 559.413 28.5308 559.328 28.7915C559.246 29.0493 559.118 29.2749 558.945 29.4683C558.775 29.6587 558.56 29.8096 558.299 29.9209C558.039 30.0322 557.731 30.0879 557.376 30.0879C557.11 30.0879 556.854 30.0498 556.607 29.9736C556.364 29.8945 556.147 29.7803 555.957 29.6309C555.767 29.4785 555.61 29.2896 555.487 29.064C555.367 28.8384 555.298 28.5762 555.28 28.2773H556.295C556.336 28.5938 556.452 28.8354 556.643 29.0024C556.833 29.1665 557.078 29.2485 557.376 29.2485C557.549 29.2485 557.7 29.2163 557.829 29.1519C557.958 29.0874 558.065 28.998 558.15 28.8838C558.235 28.7666 558.298 28.6274 558.339 28.4663C558.383 28.3022 558.405 28.1235 558.405 27.9302C558.405 27.7456 558.38 27.5757 558.33 27.4204C558.283 27.2651 558.211 27.1318 558.115 27.0205C558.018 26.9062 557.898 26.8169 557.754 26.7524C557.611 26.688 557.445 26.6558 557.258 26.6558C557.132 26.6558 557.023 26.666 556.933 26.6865C556.842 26.7041 556.76 26.7305 556.687 26.7656C556.616 26.7979 556.552 26.8374 556.493 26.8843C556.435 26.9312 556.376 26.981 556.317 27.0337L555.478 26.8271ZM563.551 30H562.492V24.8979L560.857 25.4956V24.5728L563.485 23.6016H563.551V30Z" fill="white"/>
<rect x="265" width="144" height="41" fill="#FF2222"/>
<path d="M278.757 17.5146H276.758L276.318 19H275.229L277.307 12.6016H278.234L280.273 19H279.188L278.757 17.5146ZM277.026 16.6138H278.494L277.769 14.1045L277.026 16.6138ZM281.28 12.25H283.851V18.1299H285.301V19H281.28V18.1299H282.792V13.1245H281.28V12.25ZM286.72 14.2451H289.256V18.1299H290.667V19H286.72V18.1299H288.197V15.1196H286.72V14.2451ZM288.109 13.0146C288.109 12.8506 288.162 12.7158 288.267 12.6104C288.373 12.502 288.521 12.4478 288.711 12.4478C288.904 12.4478 289.054 12.502 289.159 12.6104C289.268 12.7158 289.322 12.8506 289.322 13.0146C289.322 13.1787 289.268 13.3149 289.159 13.4233C289.054 13.5288 288.904 13.5815 288.711 13.5815C288.521 13.5815 288.373 13.5288 288.267 13.4233C288.162 13.3149 288.109 13.1787 288.109 13.0146ZM293.976 18.2529C294.104 18.2529 294.229 18.2324 294.349 18.1914C294.472 18.1504 294.581 18.0933 294.674 18.02C294.768 17.9468 294.841 17.8604 294.894 17.7607C294.95 17.6611 294.976 17.5527 294.973 17.4355H295.966C295.969 17.6641 295.917 17.8794 295.808 18.0815C295.703 18.2808 295.558 18.4551 295.373 18.6045C295.191 18.7539 294.98 18.8726 294.74 18.9604C294.5 19.0483 294.248 19.0923 293.984 19.0923C293.618 19.0923 293.297 19.0293 293.022 18.9033C292.747 18.7773 292.517 18.606 292.332 18.3892C292.147 18.1694 292.008 17.916 291.915 17.6289C291.824 17.3389 291.778 17.0312 291.778 16.7061V16.5479C291.778 16.2227 291.824 15.915 291.915 15.625C292.008 15.335 292.147 15.0815 292.332 14.8647C292.517 14.6479 292.747 14.4766 293.022 14.3506C293.297 14.2217 293.617 14.1572 293.98 14.1572C294.267 14.1572 294.532 14.2012 294.775 14.2891C295.021 14.377 295.232 14.5 295.408 14.6582C295.587 14.8164 295.725 15.0054 295.821 15.2251C295.921 15.4448 295.969 15.6851 295.966 15.9458H294.973C294.976 15.8169 294.953 15.6953 294.903 15.5811C294.856 15.4668 294.787 15.3672 294.696 15.2822C294.605 15.1973 294.499 15.1299 294.375 15.0801C294.252 15.0303 294.118 15.0054 293.971 15.0054C293.751 15.0054 293.568 15.0508 293.422 15.1416C293.275 15.2295 293.158 15.3467 293.07 15.4932C292.982 15.6367 292.919 15.8008 292.881 15.9854C292.846 16.1699 292.829 16.3574 292.829 16.5479V16.7061C292.829 16.8994 292.846 17.0884 292.881 17.2729C292.919 17.4575 292.982 17.623 293.07 17.7695C293.158 17.9131 293.275 18.0303 293.422 18.1211C293.568 18.209 293.753 18.2529 293.976 18.2529ZM299.517 19.0879C299.166 19.0879 298.845 19.0293 298.555 18.9121C298.265 18.7949 298.016 18.6338 297.808 18.4287C297.603 18.2236 297.443 17.9819 297.329 17.7036C297.214 17.4224 297.157 17.1191 297.157 16.7939V16.6138C297.157 16.2358 297.217 15.896 297.337 15.5942C297.46 15.2925 297.623 15.0347 297.825 14.8208C298.03 14.6069 298.268 14.4429 298.537 14.3286C298.81 14.2144 299.095 14.1572 299.394 14.1572C299.74 14.1572 300.044 14.2158 300.308 14.333C300.572 14.4473 300.792 14.6099 300.967 14.8208C301.146 15.0288 301.281 15.2764 301.372 15.5635C301.462 15.8506 301.508 16.1655 301.508 16.5083V16.9521H298.212C298.229 17.1367 298.275 17.3081 298.348 17.4663C298.421 17.6245 298.517 17.7622 298.634 17.8794C298.754 17.9937 298.893 18.0845 299.051 18.1519C299.212 18.2163 299.388 18.2485 299.579 18.2485C299.845 18.2485 300.09 18.1958 300.312 18.0903C300.538 17.9849 300.721 17.8398 300.862 17.6553L301.433 18.1914C301.357 18.3057 301.259 18.417 301.139 18.5254C301.019 18.6309 300.878 18.7261 300.717 18.811C300.556 18.8931 300.374 18.959 300.172 19.0088C299.973 19.0615 299.754 19.0879 299.517 19.0879ZM299.39 15.0054C299.243 15.0054 299.107 15.0317 298.981 15.0845C298.855 15.1372 298.742 15.2148 298.643 15.3174C298.543 15.417 298.458 15.54 298.388 15.6865C298.32 15.8301 298.272 15.9941 298.243 16.1787H300.471V16.0996C300.462 15.959 300.434 15.8242 300.387 15.6953C300.343 15.5635 300.277 15.4463 300.189 15.3438C300.102 15.2412 299.99 15.1592 299.855 15.0977C299.724 15.0361 299.568 15.0054 299.39 15.0054ZM310.06 17.6729L310.134 18.0244L310.213 17.6772L311.365 14.2451H312.45L310.587 19H309.682L307.801 14.2451H308.886L310.06 17.6729ZM313.747 14.2451H316.282V18.1299H317.693V19H313.747V18.1299H315.223V15.1196H313.747V14.2451ZM315.135 13.0146C315.135 12.8506 315.188 12.7158 315.293 12.6104C315.399 12.502 315.547 12.4478 315.737 12.4478C315.931 12.4478 316.08 12.502 316.186 12.6104C316.294 12.7158 316.348 12.8506 316.348 13.0146C316.348 13.1787 316.294 13.3149 316.186 13.4233C316.08 13.5288 315.931 13.5815 315.737 13.5815C315.547 13.5815 315.399 13.5288 315.293 13.4233C315.188 13.3149 315.135 13.1787 315.135 13.0146ZM322.021 17.7124C322.021 17.6333 322.005 17.5615 321.973 17.4971C321.941 17.4297 321.882 17.3696 321.797 17.3169C321.715 17.2612 321.601 17.21 321.455 17.1631C321.311 17.1162 321.126 17.0708 320.901 17.0269C320.62 16.9683 320.365 16.8979 320.136 16.8159C319.911 16.7339 319.716 16.6357 319.552 16.5215C319.391 16.4072 319.266 16.2754 319.178 16.126C319.09 15.9736 319.046 15.7979 319.046 15.5986C319.046 15.4053 319.092 15.2222 319.183 15.0493C319.273 14.8735 319.402 14.7197 319.569 14.5879C319.739 14.4561 319.944 14.3521 320.185 14.2759C320.428 14.1968 320.699 14.1572 320.998 14.1572C321.314 14.1572 321.597 14.1968 321.846 14.2759C322.098 14.355 322.31 14.4634 322.483 14.6011C322.656 14.7358 322.788 14.8955 322.878 15.0801C322.972 15.2646 323.019 15.4624 323.019 15.6733H321.969C321.969 15.5796 321.948 15.4902 321.907 15.4053C321.866 15.3174 321.805 15.2397 321.723 15.1724C321.641 15.105 321.538 15.0522 321.415 15.0142C321.295 14.9731 321.156 14.9526 320.998 14.9526C320.839 14.9526 320.702 14.9702 320.584 15.0054C320.47 15.0376 320.375 15.0815 320.299 15.1372C320.223 15.1899 320.166 15.2529 320.127 15.3262C320.092 15.3994 320.075 15.4756 320.075 15.5547C320.075 15.6338 320.088 15.7056 320.114 15.77C320.144 15.8345 320.196 15.8931 320.272 15.9458C320.349 15.9985 320.454 16.0469 320.589 16.0908C320.724 16.1318 320.898 16.1714 321.112 16.2095C321.411 16.2622 321.679 16.3281 321.916 16.4072C322.156 16.4863 322.36 16.583 322.527 16.6973C322.697 16.8115 322.827 16.9478 322.918 17.106C323.009 17.2612 323.054 17.4443 323.054 17.6553C323.054 17.8662 323.006 18.0596 322.909 18.2354C322.812 18.4111 322.675 18.5635 322.496 18.6924C322.317 18.8184 322.102 18.9165 321.85 18.9868C321.601 19.0571 321.321 19.0923 321.011 19.0923C320.665 19.0923 320.36 19.0469 320.097 18.9561C319.833 18.8623 319.612 18.7407 319.433 18.5913C319.254 18.4419 319.118 18.272 319.024 18.0815C318.934 17.8911 318.888 17.6978 318.888 17.5015H319.908C319.917 17.6479 319.955 17.7725 320.022 17.875C320.089 17.9775 320.176 18.061 320.281 18.1255C320.387 18.187 320.504 18.2324 320.633 18.2617C320.762 18.2881 320.892 18.3013 321.024 18.3013C321.349 18.3013 321.597 18.2471 321.767 18.1387C321.937 18.0273 322.021 17.8853 322.021 17.7124ZM324.557 14.2451H327.093V18.1299H328.503V19H324.557V18.1299H326.034V15.1196H324.557V14.2451ZM325.946 13.0146C325.946 12.8506 325.999 12.7158 326.104 12.6104C326.209 12.502 326.357 12.4478 326.548 12.4478C326.741 12.4478 326.891 12.502 326.996 12.6104C327.104 12.7158 327.159 12.8506 327.159 13.0146C327.159 13.1787 327.104 13.3149 326.996 13.4233C326.891 13.5288 326.741 13.5815 326.548 13.5815C326.357 13.5815 326.209 13.5288 326.104 13.4233C325.999 13.3149 325.946 13.1787 325.946 13.0146ZM331.839 13.0938V14.2451H333.636V15.0273H331.839V17.3081C331.839 17.4868 331.859 17.6348 331.9 17.752C331.944 17.8691 332.004 17.9629 332.081 18.0332C332.157 18.1035 332.246 18.1533 332.349 18.1826C332.451 18.209 332.564 18.2222 332.687 18.2222C332.778 18.2222 332.872 18.2178 332.968 18.209C333.068 18.1973 333.163 18.1855 333.254 18.1738C333.348 18.1592 333.433 18.1445 333.509 18.1299C333.588 18.1123 333.654 18.0962 333.707 18.0815L333.825 18.8066C333.749 18.8506 333.657 18.8916 333.548 18.9297C333.443 18.9648 333.327 18.9941 333.201 19.0176C333.075 19.041 332.943 19.0586 332.806 19.0703C332.671 19.085 332.538 19.0923 332.406 19.0923C332.168 19.0923 331.95 19.0601 331.751 18.9956C331.555 18.9282 331.385 18.8257 331.241 18.688C331.101 18.5474 330.989 18.3687 330.907 18.1519C330.828 17.9321 330.789 17.6699 330.789 17.3652V15.0273H329.628V14.2451H330.789V13.0938H331.839ZM337.354 19.0879C337.002 19.0879 336.682 19.0293 336.392 18.9121C336.102 18.7949 335.853 18.6338 335.645 18.4287C335.439 18.2236 335.28 17.9819 335.166 17.7036C335.051 17.4224 334.994 17.1191 334.994 16.7939V16.6138C334.994 16.2358 335.054 15.896 335.174 15.5942C335.297 15.2925 335.46 15.0347 335.662 14.8208C335.867 14.6069 336.104 14.4429 336.374 14.3286C336.646 14.2144 336.932 14.1572 337.231 14.1572C337.577 14.1572 337.881 14.2158 338.145 14.333C338.409 14.4473 338.628 14.6099 338.804 14.8208C338.983 15.0288 339.118 15.2764 339.208 15.5635C339.299 15.8506 339.345 16.1655 339.345 16.5083V16.9521H336.049C336.066 17.1367 336.112 17.3081 336.185 17.4663C336.258 17.6245 336.354 17.7622 336.471 17.8794C336.591 17.9937 336.73 18.0845 336.888 18.1519C337.049 18.2163 337.225 18.2485 337.416 18.2485C337.682 18.2485 337.927 18.1958 338.149 18.0903C338.375 17.9849 338.558 17.8398 338.699 17.6553L339.27 18.1914C339.194 18.3057 339.096 18.417 338.976 18.5254C338.855 18.6309 338.715 18.7261 338.554 18.811C338.393 18.8931 338.211 18.959 338.009 19.0088C337.81 19.0615 337.591 19.0879 337.354 19.0879ZM337.227 15.0054C337.08 15.0054 336.944 15.0317 336.818 15.0845C336.692 15.1372 336.579 15.2148 336.479 15.3174C336.38 15.417 336.295 15.54 336.225 15.6865C336.157 15.8301 336.109 15.9941 336.08 16.1787H338.308V16.0996C338.299 15.959 338.271 15.8242 338.224 15.6953C338.18 15.5635 338.114 15.4463 338.026 15.3438C337.938 15.2412 337.827 15.1592 337.692 15.0977C337.561 15.0361 337.405 15.0054 337.227 15.0054ZM340.404 16.5874C340.404 16.2271 340.448 15.8975 340.536 15.5986C340.624 15.2998 340.75 15.0435 340.914 14.8296C341.078 14.6157 341.275 14.4502 341.507 14.333C341.741 14.2158 342.003 14.1572 342.293 14.1572C342.554 14.1572 342.784 14.2026 342.983 14.2935C343.183 14.3813 343.357 14.5088 343.506 14.6758V12.25H344.561V19H343.607L343.555 18.5166C343.405 18.7012 343.225 18.8433 343.014 18.9429C342.806 19.0396 342.563 19.0879 342.285 19.0879C341.998 19.0879 341.738 19.0278 341.507 18.9077C341.275 18.7847 341.078 18.6162 340.914 18.4023C340.752 18.1885 340.626 17.9351 340.536 17.6421C340.448 17.3462 340.404 17.0254 340.404 16.6797V16.5874ZM341.454 16.6797C341.454 16.8936 341.475 17.0942 341.516 17.2817C341.557 17.4692 341.621 17.6333 341.709 17.7739C341.8 17.9146 341.914 18.0259 342.052 18.1079C342.192 18.187 342.359 18.2266 342.553 18.2266C342.793 18.2266 342.989 18.1753 343.142 18.0728C343.294 17.9673 343.416 17.8267 343.506 17.6509V15.5854C343.416 15.4126 343.292 15.2749 343.137 15.1724C342.985 15.0698 342.793 15.0186 342.562 15.0186C342.365 15.0186 342.197 15.0596 342.056 15.1416C341.918 15.2236 341.804 15.3364 341.713 15.48C341.625 15.6235 341.56 15.7905 341.516 15.981C341.475 16.1714 341.454 16.3735 341.454 16.5874V16.6797ZM355.517 16.6709C355.517 17.0166 355.476 17.3374 355.394 17.6333C355.312 17.9292 355.191 18.1855 355.033 18.4023C354.875 18.6162 354.68 18.7847 354.449 18.9077C354.22 19.0278 353.957 19.0879 353.658 19.0879C353.388 19.0879 353.149 19.0439 352.941 18.9561C352.736 18.8682 352.559 18.7422 352.41 18.5781V20.8281H351.359V14.2451H352.326L352.37 14.7241C352.522 14.5425 352.703 14.4033 352.911 14.3066C353.122 14.207 353.366 14.1572 353.645 14.1572C353.946 14.1572 354.213 14.2158 354.444 14.333C354.679 14.4502 354.875 14.6157 355.033 14.8296C355.191 15.0405 355.312 15.2954 355.394 15.5942C355.476 15.8901 355.517 16.2183 355.517 16.5786V16.6709ZM354.466 16.5786C354.466 16.3647 354.444 16.1641 354.4 15.9766C354.356 15.7861 354.289 15.6206 354.198 15.48C354.107 15.3364 353.992 15.2236 353.851 15.1416C353.71 15.0596 353.543 15.0186 353.35 15.0186C353.116 15.0186 352.922 15.0684 352.77 15.168C352.618 15.2676 352.498 15.4009 352.41 15.5679V17.6948C352.498 17.8589 352.616 17.9922 352.766 18.0947C352.918 18.1973 353.116 18.2485 353.359 18.2485C353.552 18.2485 353.719 18.2061 353.86 18.1211C354 18.0361 354.115 17.9219 354.203 17.7783C354.293 17.6348 354.359 17.4678 354.4 17.2773C354.444 17.0869 354.466 16.8848 354.466 16.6709V16.5786ZM359.792 19C359.763 18.9414 359.738 18.8726 359.718 18.7935C359.7 18.7144 359.684 18.6294 359.669 18.5386C359.596 18.6147 359.513 18.6865 359.419 18.7539C359.328 18.8184 359.226 18.8755 359.111 18.9253C359 18.9751 358.878 19.0146 358.747 19.0439C358.618 19.0732 358.479 19.0879 358.329 19.0879C358.077 19.0879 357.849 19.0527 357.644 18.9824C357.441 18.9092 357.267 18.8096 357.121 18.6836C356.977 18.5547 356.866 18.4038 356.787 18.231C356.708 18.0581 356.668 17.8706 356.668 17.6685C356.668 17.1587 356.857 16.769 357.235 16.4995C357.616 16.23 358.161 16.0952 358.87 16.0952H359.639V15.7832C359.639 15.5312 359.554 15.332 359.384 15.1855C359.214 15.0361 358.974 14.9614 358.663 14.9614C358.522 14.9614 358.399 14.979 358.294 15.0142C358.188 15.0464 358.101 15.0918 358.03 15.1504C357.96 15.209 357.907 15.2778 357.872 15.3569C357.837 15.436 357.819 15.521 357.819 15.6118H356.769C356.769 15.4272 356.812 15.2485 356.896 15.0757C356.984 14.8999 357.112 14.7446 357.279 14.6099C357.446 14.4722 357.649 14.3623 357.89 14.2803C358.133 14.1982 358.41 14.1572 358.72 14.1572C359.001 14.1572 359.262 14.1924 359.502 14.2627C359.743 14.3301 359.951 14.4326 360.126 14.5703C360.302 14.7051 360.44 14.875 360.54 15.0801C360.639 15.2822 360.689 15.5195 360.689 15.792V17.9102C360.689 18.1182 360.704 18.3086 360.733 18.4814C360.765 18.6514 360.811 18.7993 360.869 18.9253V19H359.792ZM358.527 18.2397C358.662 18.2397 358.788 18.2236 358.905 18.1914C359.025 18.1562 359.132 18.1123 359.226 18.0596C359.322 18.0039 359.404 17.9409 359.472 17.8706C359.542 17.8003 359.598 17.7285 359.639 17.6553V16.7632H358.971C358.543 16.7632 358.227 16.832 358.021 16.9697C357.819 17.1074 357.718 17.3037 357.718 17.5586C357.718 17.6553 357.734 17.7461 357.767 17.8311C357.799 17.9131 357.847 17.9849 357.912 18.0464C357.979 18.105 358.062 18.1519 358.162 18.187C358.265 18.2222 358.386 18.2397 358.527 18.2397ZM362.029 16.5874C362.029 16.2271 362.073 15.8975 362.161 15.5986C362.252 15.2998 362.381 15.0435 362.548 14.8296C362.715 14.6157 362.916 14.4502 363.15 14.333C363.387 14.2158 363.652 14.1572 363.945 14.1572C364.229 14.1572 364.476 14.2056 364.684 14.3022C364.892 14.3989 365.07 14.5381 365.22 14.7197L365.264 14.2451H366.217V18.8726C366.217 19.1919 366.165 19.4746 366.059 19.7207C365.954 19.9697 365.806 20.1792 365.615 20.3491C365.428 20.519 365.202 20.6479 364.938 20.7358C364.675 20.8267 364.385 20.8721 364.068 20.8721C363.939 20.8721 363.793 20.8574 363.629 20.8281C363.468 20.8018 363.305 20.7563 363.141 20.6919C362.977 20.6304 362.82 20.5483 362.671 20.4458C362.521 20.3462 362.394 20.2246 362.289 20.0811L362.79 19.4526C362.968 19.6636 363.16 19.8145 363.365 19.9053C363.573 19.9961 363.787 20.0415 364.007 20.0415C364.183 20.0415 364.342 20.0166 364.486 19.9668C364.629 19.917 364.751 19.8438 364.851 19.7471C364.95 19.6504 365.026 19.5303 365.079 19.3867C365.135 19.2461 365.163 19.0835 365.163 18.8989V18.5781C365.013 18.7422 364.837 18.8682 364.635 18.9561C364.436 19.0439 364.203 19.0879 363.937 19.0879C363.646 19.0879 363.384 19.0278 363.15 18.9077C362.916 18.7847 362.715 18.6162 362.548 18.4023C362.381 18.1885 362.252 17.9351 362.161 17.6421C362.073 17.3462 362.029 17.0254 362.029 16.6797V16.5874ZM363.084 16.6797C363.084 16.8936 363.106 17.0942 363.15 17.2817C363.194 17.4692 363.261 17.6333 363.352 17.7739C363.443 17.9146 363.559 18.0259 363.699 18.1079C363.843 18.187 364.011 18.2266 364.205 18.2266C364.448 18.2266 364.646 18.1768 364.798 18.0771C364.95 17.9746 365.072 17.8384 365.163 17.6685V15.5679C365.069 15.4009 364.946 15.2676 364.793 15.168C364.641 15.0684 364.448 15.0186 364.213 15.0186C364.02 15.0186 363.852 15.0596 363.708 15.1416C363.567 15.2236 363.45 15.3364 363.356 15.48C363.266 15.6235 363.197 15.7905 363.15 15.981C363.106 16.1714 363.084 16.3735 363.084 16.5874V16.6797ZM369.786 19.0879C369.434 19.0879 369.113 19.0293 368.823 18.9121C368.533 18.7949 368.284 18.6338 368.076 18.4287C367.871 18.2236 367.711 17.9819 367.597 17.7036C367.483 17.4224 367.426 17.1191 367.426 16.7939V16.6138C367.426 16.2358 367.486 15.896 367.606 15.5942C367.729 15.2925 367.892 15.0347 368.094 14.8208C368.299 14.6069 368.536 14.4429 368.806 14.3286C369.078 14.2144 369.364 14.1572 369.663 14.1572C370.008 14.1572 370.313 14.2158 370.577 14.333C370.84 14.4473 371.06 14.6099 371.236 14.8208C371.415 15.0288 371.549 15.2764 371.64 15.5635C371.731 15.8506 371.776 16.1655 371.776 16.5083V16.9521H368.48C368.498 17.1367 368.543 17.3081 368.617 17.4663C368.69 17.6245 368.785 17.7622 368.902 17.8794C369.022 17.9937 369.162 18.0845 369.32 18.1519C369.481 18.2163 369.657 18.2485 369.847 18.2485C370.114 18.2485 370.358 18.1958 370.581 18.0903C370.807 17.9849 370.99 17.8398 371.13 17.6553L371.702 18.1914C371.625 18.3057 371.527 18.417 371.407 18.5254C371.287 18.6309 371.146 18.7261 370.985 18.811C370.824 18.8931 370.643 18.959 370.44 19.0088C370.241 19.0615 370.023 19.0879 369.786 19.0879ZM369.658 15.0054C369.512 15.0054 369.375 15.0317 369.25 15.0845C369.124 15.1372 369.011 15.2148 368.911 15.3174C368.812 15.417 368.727 15.54 368.656 15.6865C368.589 15.8301 368.541 15.9941 368.511 16.1787H370.739V16.0996C370.73 15.959 370.703 15.8242 370.656 15.6953C370.612 15.5635 370.546 15.4463 370.458 15.3438C370.37 15.2412 370.259 15.1592 370.124 15.0977C369.992 15.0361 369.837 15.0054 369.658 15.0054ZM278.81 27.7983L279.267 23.6016H280.251L279.434 30H278.423L277.725 25.7461L277.035 30H276.028L275.211 23.6016H276.195L276.652 27.7764L277.307 23.6016H278.133L278.81 27.7983ZM283.301 30.0879C282.95 30.0879 282.629 30.0293 282.339 29.9121C282.049 29.7949 281.8 29.6338 281.592 29.4287C281.387 29.2236 281.227 28.9819 281.113 28.7036C280.999 28.4224 280.941 28.1191 280.941 27.7939V27.6138C280.941 27.2358 281.001 26.896 281.122 26.5942C281.245 26.2925 281.407 26.0347 281.609 25.8208C281.814 25.6069 282.052 25.4429 282.321 25.3286C282.594 25.2144 282.879 25.1572 283.178 25.1572C283.524 25.1572 283.829 25.2158 284.092 25.333C284.356 25.4473 284.576 25.6099 284.751 25.8208C284.93 26.0288 285.065 26.2764 285.156 26.5635C285.247 26.8506 285.292 27.1655 285.292 27.5083V27.9521H281.996C282.014 28.1367 282.059 28.3081 282.132 28.4663C282.206 28.6245 282.301 28.7622 282.418 28.8794C282.538 28.9937 282.677 29.0845 282.835 29.1519C282.997 29.2163 283.172 29.2485 283.363 29.2485C283.629 29.2485 283.874 29.1958 284.097 29.0903C284.322 28.9849 284.505 28.8398 284.646 28.6553L285.217 29.1914C285.141 29.3057 285.043 29.417 284.923 29.5254C284.803 29.6309 284.662 29.7261 284.501 29.811C284.34 29.8931 284.158 29.959 283.956 30.0088C283.757 30.0615 283.539 30.0879 283.301 30.0879ZM283.174 26.0054C283.027 26.0054 282.891 26.0317 282.765 26.0845C282.639 26.1372 282.526 26.2148 282.427 26.3174C282.327 26.417 282.242 26.54 282.172 26.6865C282.104 26.8301 282.056 26.9941 282.027 27.1787H284.255V27.0996C284.246 26.959 284.218 26.8242 284.171 26.6953C284.127 26.5635 284.062 26.4463 283.974 26.3438C283.886 26.2412 283.774 26.1592 283.64 26.0977C283.508 26.0361 283.353 26.0054 283.174 26.0054ZM290.671 27.6753C290.671 28.0269 290.63 28.3506 290.548 28.6465C290.469 28.9395 290.35 29.1929 290.192 29.4067C290.034 29.6206 289.839 29.7876 289.607 29.9077C289.376 30.0278 289.109 30.0879 288.808 30.0879C288.518 30.0879 288.266 30.0366 288.052 29.9341C287.841 29.8315 287.659 29.6836 287.507 29.4902L287.458 30H286.505V23.25H287.555V25.6978C287.705 25.5249 287.88 25.3916 288.083 25.2979C288.285 25.2041 288.523 25.1572 288.799 25.1572C289.104 25.1572 289.372 25.2173 289.603 25.3374C289.837 25.4546 290.034 25.6201 290.192 25.834C290.35 26.0479 290.469 26.3042 290.548 26.603C290.63 26.8989 290.671 27.2256 290.671 27.583V27.6753ZM289.621 27.583C289.621 27.3721 289.602 27.1729 289.563 26.9854C289.528 26.7949 289.468 26.6279 289.383 26.4844C289.301 26.3408 289.19 26.228 289.049 26.146C288.909 26.061 288.736 26.0186 288.531 26.0186C288.282 26.0186 288.078 26.0757 287.92 26.1899C287.762 26.3042 287.64 26.4536 287.555 26.6382V28.6025C287.64 28.7871 287.762 28.938 287.92 29.0552C288.081 29.1724 288.288 29.231 288.54 29.231C288.739 29.231 288.907 29.1914 289.045 29.1123C289.183 29.0303 289.294 28.9189 289.379 28.7783C289.464 28.6377 289.525 28.4736 289.563 28.2861C289.602 28.0957 289.621 27.8921 289.621 27.6753V27.583ZM294.995 28.7124C294.995 28.6333 294.979 28.5615 294.947 28.4971C294.915 28.4297 294.856 28.3696 294.771 28.3169C294.689 28.2612 294.575 28.21 294.428 28.1631C294.285 28.1162 294.1 28.0708 293.875 28.0269C293.593 27.9683 293.338 27.8979 293.11 27.8159C292.884 27.7339 292.689 27.6357 292.525 27.5215C292.364 27.4072 292.24 27.2754 292.152 27.126C292.064 26.9736 292.02 26.7979 292.02 26.5986C292.02 26.4053 292.065 26.2222 292.156 26.0493C292.247 25.8735 292.376 25.7197 292.543 25.5879C292.713 25.4561 292.918 25.3521 293.158 25.2759C293.401 25.1968 293.672 25.1572 293.971 25.1572C294.288 25.1572 294.57 25.1968 294.819 25.2759C295.071 25.355 295.284 25.4634 295.457 25.6011C295.629 25.7358 295.761 25.8955 295.852 26.0801C295.946 26.2646 295.993 26.4624 295.993 26.6733H294.942C294.942 26.5796 294.922 26.4902 294.881 26.4053C294.84 26.3174 294.778 26.2397 294.696 26.1724C294.614 26.105 294.512 26.0522 294.389 26.0142C294.269 25.9731 294.129 25.9526 293.971 25.9526C293.813 25.9526 293.675 25.9702 293.558 26.0054C293.444 26.0376 293.349 26.0815 293.272 26.1372C293.196 26.1899 293.139 26.2529 293.101 26.3262C293.066 26.3994 293.048 26.4756 293.048 26.5547C293.048 26.6338 293.062 26.7056 293.088 26.77C293.117 26.8345 293.17 26.8931 293.246 26.9458C293.322 26.9985 293.428 27.0469 293.562 27.0908C293.697 27.1318 293.872 27.1714 294.085 27.2095C294.384 27.2622 294.652 27.3281 294.89 27.4072C295.13 27.4863 295.333 27.583 295.5 27.6973C295.67 27.8115 295.801 27.9478 295.892 28.106C295.982 28.2612 296.028 28.4443 296.028 28.6553C296.028 28.8662 295.979 29.0596 295.883 29.2354C295.786 29.4111 295.648 29.5635 295.47 29.6924C295.291 29.8184 295.076 29.9165 294.824 29.9868C294.575 30.0571 294.295 30.0923 293.984 30.0923C293.639 30.0923 293.334 30.0469 293.07 29.9561C292.807 29.8623 292.585 29.7407 292.407 29.5913C292.228 29.4419 292.092 29.272 291.998 29.0815C291.907 28.8911 291.862 28.6978 291.862 28.5015H292.881C292.89 28.6479 292.928 28.7725 292.996 28.875C293.063 28.9775 293.149 29.061 293.255 29.1255C293.36 29.187 293.478 29.2324 293.606 29.2617C293.735 29.2881 293.866 29.3013 293.998 29.3013C294.323 29.3013 294.57 29.2471 294.74 29.1387C294.91 29.0273 294.995 28.8853 294.995 28.7124ZM297.531 25.2451H300.066V29.1299H301.477V30H297.531V29.1299H299.007V26.1196H297.531V25.2451ZM298.919 24.0146C298.919 23.8506 298.972 23.7158 299.078 23.6104C299.183 23.502 299.331 23.4478 299.521 23.4478C299.715 23.4478 299.864 23.502 299.97 23.6104C300.078 23.7158 300.132 23.8506 300.132 24.0146C300.132 24.1787 300.078 24.3149 299.97 24.4233C299.864 24.5288 299.715 24.5815 299.521 24.5815C299.331 24.5815 299.183 24.5288 299.078 24.4233C298.972 24.3149 298.919 24.1787 298.919 24.0146ZM304.812 24.0938V25.2451H306.61V26.0273H304.812V28.3081C304.812 28.4868 304.833 28.6348 304.874 28.752C304.918 28.8691 304.978 28.9629 305.054 29.0332C305.13 29.1035 305.22 29.1533 305.322 29.1826C305.425 29.209 305.538 29.2222 305.661 29.2222C305.751 29.2222 305.845 29.2178 305.942 29.209C306.042 29.1973 306.137 29.1855 306.228 29.1738C306.321 29.1592 306.406 29.1445 306.482 29.1299C306.562 29.1123 306.627 29.0962 306.68 29.0815L306.799 29.8066C306.723 29.8506 306.63 29.8916 306.522 29.9297C306.417 29.9648 306.301 29.9941 306.175 30.0176C306.049 30.041 305.917 30.0586 305.779 30.0703C305.645 30.085 305.511 30.0923 305.379 30.0923C305.142 30.0923 304.924 30.0601 304.725 29.9956C304.528 29.9282 304.358 29.8257 304.215 29.688C304.074 29.5474 303.963 29.3687 303.881 29.1519C303.802 28.9321 303.762 28.6699 303.762 28.3652V26.0273H302.602V25.2451H303.762V24.0938H304.812ZM310.328 30.0879C309.976 30.0879 309.655 30.0293 309.365 29.9121C309.075 29.7949 308.826 29.6338 308.618 29.4287C308.413 29.2236 308.253 28.9819 308.139 28.7036C308.025 28.4224 307.968 28.1191 307.968 27.7939V27.6138C307.968 27.2358 308.028 26.896 308.148 26.5942C308.271 26.2925 308.434 26.0347 308.636 25.8208C308.841 25.6069 309.078 25.4429 309.348 25.3286C309.62 25.2144 309.906 25.1572 310.205 25.1572C310.55 25.1572 310.855 25.2158 311.119 25.333C311.382 25.4473 311.602 25.6099 311.778 25.8208C311.957 26.0288 312.091 26.2764 312.182 26.5635C312.273 26.8506 312.318 27.1655 312.318 27.5083V27.9521H309.022C309.04 28.1367 309.085 28.3081 309.159 28.4663C309.232 28.6245 309.327 28.7622 309.444 28.8794C309.564 28.9937 309.704 29.0845 309.862 29.1519C310.023 29.2163 310.199 29.2485 310.389 29.2485C310.656 29.2485 310.9 29.1958 311.123 29.0903C311.349 28.9849 311.532 28.8398 311.672 28.6553L312.244 29.1914C312.167 29.3057 312.069 29.417 311.949 29.5254C311.829 29.6309 311.688 29.7261 311.527 29.811C311.366 29.8931 311.185 29.959 310.982 30.0088C310.783 30.0615 310.565 30.0879 310.328 30.0879ZM310.2 26.0054C310.054 26.0054 309.917 26.0317 309.792 26.0845C309.666 26.1372 309.553 26.2148 309.453 26.3174C309.354 26.417 309.269 26.54 309.198 26.6865C309.131 26.8301 309.083 26.9941 309.053 27.1787H311.281V27.0996C311.272 26.959 311.245 26.8242 311.198 26.6953C311.154 26.5635 311.088 26.4463 311 26.3438C310.912 26.2412 310.801 26.1592 310.666 26.0977C310.534 26.0361 310.379 26.0054 310.2 26.0054ZM314.819 30.5493H313.861L316.392 23.6016H317.35L314.819 30.5493ZM323.001 30H318.704V29.2749L320.787 27.0029C320.962 26.8066 321.109 26.6338 321.226 26.4844C321.346 26.332 321.441 26.1929 321.512 26.0669C321.582 25.9409 321.632 25.8237 321.661 25.7153C321.69 25.6069 321.705 25.4971 321.705 25.3857C321.705 25.2393 321.682 25.1045 321.635 24.9814C321.591 24.8555 321.526 24.7485 321.441 24.6606C321.359 24.5698 321.258 24.4995 321.138 24.4497C321.021 24.3999 320.889 24.375 320.743 24.375C320.362 24.375 320.081 24.479 319.899 24.687C319.72 24.895 319.631 25.1821 319.631 25.5483H318.576C318.576 25.27 318.626 25.0078 318.726 24.7617C318.828 24.5127 318.973 24.2959 319.161 24.1113C319.351 23.9268 319.581 23.7817 319.851 23.6763C320.12 23.5679 320.423 23.5137 320.76 23.5137C321.077 23.5137 321.358 23.5591 321.604 23.6499C321.85 23.7407 322.058 23.8682 322.228 24.0322C322.398 24.1934 322.527 24.3853 322.615 24.6079C322.703 24.8306 322.747 25.0752 322.747 25.3418C322.747 25.541 322.714 25.7344 322.65 25.9219C322.585 26.1064 322.496 26.291 322.382 26.4756C322.268 26.6602 322.131 26.8462 321.973 27.0337C321.815 27.2183 321.644 27.4087 321.459 27.605L320.009 29.1606H323.001V30ZM325.423 26.3262H326.051C326.236 26.3262 326.397 26.3027 326.535 26.2559C326.672 26.2061 326.787 26.1372 326.877 26.0493C326.968 25.9614 327.036 25.8574 327.08 25.7373C327.126 25.6143 327.15 25.4795 327.15 25.333C327.15 25.0225 327.068 24.7837 326.904 24.6167C326.743 24.4468 326.498 24.3618 326.17 24.3618C326.026 24.3618 325.893 24.3838 325.77 24.4277C325.65 24.4688 325.544 24.5288 325.454 24.6079C325.366 24.687 325.297 24.7822 325.247 24.8936C325.197 25.0049 325.172 25.1309 325.172 25.2715H324.122C324.122 25.0195 324.172 24.7866 324.271 24.5728C324.374 24.3589 324.515 24.1743 324.693 24.019C324.875 23.8608 325.09 23.7378 325.339 23.6499C325.588 23.5591 325.861 23.5137 326.157 23.5137C326.458 23.5137 326.735 23.5532 326.987 23.6323C327.239 23.7085 327.455 23.8228 327.633 23.9751C327.812 24.1274 327.951 24.3179 328.051 24.5464C328.15 24.772 328.2 25.0342 328.2 25.333C328.2 25.459 328.181 25.5879 328.143 25.7197C328.105 25.8516 328.046 25.979 327.967 26.1021C327.891 26.2251 327.793 26.3408 327.673 26.4492C327.556 26.5547 327.417 26.644 327.255 26.7173C327.449 26.7847 327.611 26.8711 327.743 26.9766C327.875 27.082 327.982 27.2007 328.064 27.3325C328.146 27.4614 328.205 27.6006 328.24 27.75C328.275 27.8994 328.292 28.0518 328.292 28.207C328.292 28.5059 328.238 28.7725 328.13 29.0068C328.021 29.2412 327.871 29.439 327.677 29.6001C327.487 29.7583 327.261 29.8799 327 29.9648C326.74 30.0469 326.458 30.0879 326.157 30.0879C325.878 30.0879 325.613 30.0498 325.361 29.9736C325.109 29.8975 324.887 29.7847 324.693 29.6353C324.503 29.4829 324.351 29.2954 324.236 29.0728C324.122 28.8472 324.065 28.5864 324.065 28.2905H325.115C325.115 28.4312 325.14 28.5615 325.19 28.6816C325.24 28.7988 325.31 28.8999 325.401 28.9849C325.495 29.0669 325.606 29.1313 325.735 29.1782C325.864 29.2251 326.009 29.2485 326.17 29.2485C326.504 29.2485 326.766 29.1606 326.957 28.9849C327.15 28.8062 327.247 28.5483 327.247 28.2114C327.247 28.0269 327.219 27.8687 327.163 27.7368C327.107 27.6021 327.027 27.4922 326.921 27.4072C326.819 27.3193 326.694 27.2549 326.548 27.2139C326.401 27.1729 326.236 27.1523 326.051 27.1523H325.423V26.3262ZM333.197 27.728H334.001V28.5762H333.197V30H332.146V28.5762H329.369L329.343 27.939L332.111 23.6016H333.197V27.728ZM330.424 27.728H332.146V25.0034L332.032 25.21L330.424 27.728ZM344.979 26.4536C344.97 26.7114 344.94 26.9692 344.891 27.2271C344.841 27.4849 344.765 27.7163 344.662 27.9214C344.562 28.1265 344.434 28.2935 344.275 28.4224C344.12 28.5513 343.933 28.6157 343.713 28.6157C343.552 28.6157 343.411 28.5762 343.291 28.4971C343.171 28.415 343.08 28.2993 343.019 28.1499C342.916 28.2935 342.796 28.4062 342.658 28.4883C342.523 28.5703 342.377 28.6113 342.219 28.6113C342.063 28.6113 341.926 28.5747 341.806 28.5015C341.688 28.4253 341.592 28.3169 341.516 28.1763C341.442 28.0356 341.391 27.8672 341.362 27.6709C341.333 27.4717 341.328 27.249 341.349 27.0029C341.378 26.6865 341.435 26.4023 341.52 26.1504C341.605 25.8984 341.713 25.6846 341.845 25.5088C341.977 25.333 342.131 25.1982 342.307 25.1045C342.482 25.0078 342.676 24.9595 342.887 24.9595C343.101 24.9595 343.276 24.9961 343.414 25.0693C343.552 25.1426 343.662 25.2275 343.744 25.3242L343.555 27.5874C343.546 27.6899 343.547 27.772 343.559 27.8335C343.574 27.8921 343.593 27.9375 343.616 27.9697C343.643 27.999 343.672 28.0181 343.704 28.0269C343.739 28.0327 343.773 28.0356 343.805 28.0356C343.893 28.0356 343.972 27.9961 344.042 27.917C344.116 27.8379 344.177 27.7295 344.227 27.5918C344.28 27.4512 344.319 27.2856 344.346 27.0952C344.375 26.9019 344.39 26.6924 344.39 26.4668C344.401 26.1035 344.372 25.7842 344.302 25.5088C344.234 25.2334 344.129 25.0034 343.985 24.8188C343.842 24.6313 343.665 24.4907 343.454 24.397C343.246 24.3032 343.008 24.2563 342.742 24.2563C342.446 24.2563 342.178 24.3252 341.938 24.4629C341.7 24.5977 341.497 24.7866 341.327 25.0298C341.157 25.2729 341.023 25.5615 340.927 25.8955C340.83 26.2266 340.776 26.5898 340.764 26.9854C340.732 27.7822 340.87 28.3843 341.177 28.7915C341.485 29.1987 341.936 29.4023 342.531 29.4023C342.712 29.4023 342.894 29.3789 343.076 29.332C343.26 29.2822 343.418 29.2178 343.55 29.1387L343.691 29.7056C343.615 29.7612 343.528 29.8096 343.432 29.8506C343.338 29.8916 343.24 29.9268 343.137 29.9561C343.035 29.9824 342.929 30.0015 342.821 30.0132C342.715 30.0278 342.614 30.0352 342.518 30.0352C342.096 30.0352 341.729 29.9634 341.419 29.8198C341.111 29.6733 340.858 29.4683 340.659 29.2046C340.462 28.938 340.317 28.6172 340.224 28.2422C340.133 27.8672 340.095 27.4482 340.109 26.9854C340.124 26.5254 340.199 26.0918 340.333 25.6846C340.468 25.2773 340.651 24.9214 340.883 24.6167C341.117 24.312 341.394 24.0718 341.713 23.896C342.033 23.7173 342.384 23.6279 342.768 23.6279C343.114 23.6279 343.426 23.6953 343.704 23.8301C343.985 23.9619 344.221 24.1509 344.412 24.397C344.605 24.6431 344.75 24.9404 344.847 25.2891C344.946 25.6377 344.99 26.0259 344.979 26.4536ZM342.017 27.0029C342.002 27.3252 342.028 27.5654 342.096 27.7236C342.166 27.8789 342.267 27.9565 342.399 27.9565C342.496 27.9565 342.591 27.9331 342.685 27.8862C342.778 27.8394 342.865 27.7471 342.944 27.6094V27.5874L343.115 25.6055C343.057 25.5879 342.997 25.5791 342.935 25.5791C342.66 25.5791 342.449 25.7021 342.302 25.9482C342.159 26.1943 342.063 26.5459 342.017 27.0029ZM348.793 30H347.734V24.8979L346.099 25.4956V24.5728L348.727 23.6016H348.793V30ZM355.49 24.186L352.928 30H351.821L354.383 24.4761H351.065V23.6016H355.49V24.186ZM358.21 29.3716C358.21 29.269 358.227 29.1724 358.259 29.0815C358.294 28.9907 358.344 28.9131 358.408 28.8486C358.473 28.7812 358.552 28.7285 358.646 28.6904C358.742 28.6523 358.852 28.6333 358.975 28.6333C359.098 28.6333 359.207 28.6523 359.3 28.6904C359.397 28.7285 359.478 28.7812 359.542 28.8486C359.609 28.9131 359.659 28.9907 359.691 29.0815C359.727 29.1724 359.744 29.269 359.744 29.3716C359.744 29.4741 359.727 29.5693 359.691 29.6572C359.659 29.7422 359.609 29.8169 359.542 29.8813C359.478 29.9458 359.397 29.9956 359.3 30.0308C359.207 30.0688 359.098 30.0879 358.975 30.0879C358.852 30.0879 358.742 30.0688 358.646 30.0308C358.552 29.9956 358.473 29.9458 358.408 29.8813C358.344 29.8169 358.294 29.7422 358.259 29.6572C358.227 29.5693 358.21 29.4741 358.21 29.3716ZM358.21 25.6318C358.21 25.5293 358.227 25.4326 358.259 25.3418C358.294 25.251 358.344 25.1733 358.408 25.1089C358.473 25.0415 358.552 24.9888 358.646 24.9507C358.742 24.9126 358.852 24.8936 358.975 24.8936C359.098 24.8936 359.207 24.9126 359.3 24.9507C359.397 24.9888 359.478 25.0415 359.542 25.1089C359.609 25.1733 359.659 25.251 359.691 25.3418C359.727 25.4326 359.744 25.5293 359.744 25.6318C359.744 25.7344 359.727 25.8296 359.691 25.9175C359.659 26.0024 359.609 26.0771 359.542 26.1416C359.478 26.2061 359.397 26.2573 359.3 26.2954C359.207 26.3306 359.098 26.3481 358.975 26.3481C358.852 26.3481 358.742 26.3306 358.646 26.2954C358.552 26.2573 358.473 26.2061 358.408 26.1416C358.344 26.0771 358.294 26.0024 358.259 25.9175C358.227 25.8296 358.21 25.7344 358.21 25.6318ZM362.341 26.8271L362.688 23.6016H366.112V24.542H363.559L363.396 26.0581C363.499 25.9995 363.635 25.9424 363.805 25.8867C363.975 25.8311 364.171 25.8032 364.394 25.8032C364.695 25.8032 364.965 25.853 365.202 25.9526C365.442 26.0522 365.645 26.1958 365.809 26.3833C365.973 26.5679 366.099 26.7935 366.187 27.0601C366.274 27.3237 366.318 27.6226 366.318 27.9565C366.318 28.2524 366.276 28.5308 366.191 28.7915C366.109 29.0493 365.981 29.2749 365.809 29.4683C365.639 29.6587 365.423 29.8096 365.163 29.9209C364.902 30.0322 364.594 30.0879 364.24 30.0879C363.973 30.0879 363.717 30.0498 363.471 29.9736C363.228 29.8945 363.011 29.7803 362.82 29.6309C362.63 29.4785 362.473 29.2896 362.35 29.064C362.23 28.8384 362.161 28.5762 362.144 28.2773H363.159C363.2 28.5938 363.315 28.8354 363.506 29.0024C363.696 29.1665 363.941 29.2485 364.24 29.2485C364.413 29.2485 364.563 29.2163 364.692 29.1519C364.821 29.0874 364.928 28.998 365.013 28.8838C365.098 28.7666 365.161 28.6274 365.202 28.4663C365.246 28.3022 365.268 28.1235 365.268 27.9302C365.268 27.7456 365.243 27.5757 365.193 27.4204C365.146 27.2651 365.075 27.1318 364.978 27.0205C364.881 26.9062 364.761 26.8169 364.618 26.7524C364.474 26.688 364.309 26.6558 364.121 26.6558C363.995 26.6558 363.887 26.666 363.796 26.6865C363.705 26.7041 363.623 26.7305 363.55 26.7656C363.479 26.7979 363.415 26.8374 363.356 26.8843C363.298 26.9312 363.239 26.981 363.181 27.0337L362.341 26.8271ZM370.414 30H369.355V24.8979L367.72 25.4956V24.5728L370.348 23.6016H370.414V30Z" fill="white"/>
</svg>
