<svg xmlns="http://www.w3.org/2000/svg" xmlns:xlink="http://www.w3.org/1999/xlink" width="1120" height="480" viewBox="0 0 1120 480">
    <defs>
        <path id="a" d="M20.857 98S0 87.579 0 59.79C0 32 27.81 28.525 39.976 25.052 52.143 21.579 62.1 14.952 59.096 5.947 57.356.737 60.834-.999 64.31.737c6.952 3.474 15.642 24.316-1.739 39.947-17.38 15.632-33.023 8.341-41.714 31.263V98z"/>
        <path id="c" d="M19.233 9.646H1050.11c10.856 0 19.707 8.703 19.89 19.557H.003C-.177 18.583 8.288 9.828 18.908 9.65l.325-.003z"/>
        <path id="d" d="M30.505 0h985.785c16.627 0 30.106 13.479 30.106 30.106 0 4.93-1.211 9.786-3.527 14.139L925.826 264.266a18.063 18.063 0 0 1-15.948 9.58H127.155a18.063 18.063 0 0 1-16.236-10.146L3.445 43.3c-7.288-14.944-1.08-32.967 13.864-40.254A30.106 30.106 0 0 1 30.505 0z"/>
        <path id="f" d="M0 0h1142.827v251.055H0z"/>
        <path id="h" d="M729.98.383s257.216 33.158 325.993 40.54a28757.645 28757.645 0 0 0 131.532 13.786v147.196H.77V54.709l296.064-41.984L459.61 37.77 729.98.383z"/>
        <path id="j" d="M3.379 35.828s93.15-15.725 120.831-15.725c27.68 0 103.354 9.754 129.797 9.335 26.443-.42 99.013-12.344 128.563-12.344 29.55 0 94.82 5.955 137.343 5.955 42.522 0 152.048-20.588 197.77-22.285 45.72-1.697 161.007 13.754 189.756 13.754 28.75 0 120.778-13.754 163.486-13.754 42.71 0 150.534 16.33 181.856 16.33l8.402 132.2H.325L3.38 35.829z"/>
        <path id="l" d="M1.647 0h1046.139c6.66 0 12.06 5.4 12.06 12.06 0 1.98-.487 3.928-1.419 5.674l-131.672 246.93a18.09 18.09 0 0 1-15.962 9.578H126.429a18.09 18.09 0 0 1-16.284-10.212L-9.21 17.312c-2.9-5.996-.391-13.208 5.605-16.108A12.06 12.06 0 0 1 1.647 0z"/>
        <path id="m" d="M20.857 98S0 87.579 0 59.79C0 32 27.81 28.525 39.976 25.052 52.143 21.579 62.1 14.952 59.096 5.947 57.356.737 60.834-.999 64.31.737c6.952 3.474 15.642 24.316-1.739 39.947-17.38 15.632-33.023 8.341-41.714 31.263V98z"/>
    </defs>
    <g fill="none" fill-rule="evenodd">
        <path fill="#1E2E3E" d="M745.083 416.208h.379c16.092 0 29.137 13.046 29.137 29.138v61.512c0 16.092-13.045 29.137-29.137 29.137h-.379c-16.092 0-29.137-13.045-29.137-29.137v-61.512c0-16.092 13.045-29.137 29.137-29.137z"/>
        <g transform="translate(356 412)">
            <rect width="312.635" height="124.821" x=".318" y=".173" fill="#1E2E3E" rx="8.131"/>
            <path fill="#26394D" d="M33.721 5.487h8.774a4.539 4.539 0 0 1 4.54 4.539v.299a4.539 4.539 0 0 1-4.54 4.539h-8.774a4.539 4.539 0 0 1-4.538-4.54v-.298a4.539 4.539 0 0 1 4.538-4.539zm21.527 0h8.774a4.539 4.539 0 0 1 4.539 4.539v.299a4.539 4.539 0 0 1-4.539 4.539h-8.774a4.539 4.539 0 0 1-4.539-4.54v-.298a4.539 4.539 0 0 1 4.54-4.539zm21.527 0h8.774a4.539 4.539 0 0 1 4.539 4.539v.299a4.539 4.539 0 0 1-4.539 4.539h-8.774a4.539 4.539 0 0 1-4.539-4.54v-.298a4.539 4.539 0 0 1 4.54-4.539zm21.527 0h8.774a4.539 4.539 0 0 1 4.539 4.539v.299a4.539 4.539 0 0 1-4.539 4.539h-8.774a4.539 4.539 0 0 1-4.539-4.54v-.298a4.539 4.539 0 0 1 4.54-4.539zm21.527 0h8.774a4.539 4.539 0 0 1 4.539 4.539v.299a4.539 4.539 0 0 1-4.54 4.539h-8.773a4.539 4.539 0 0 1-4.539-4.54v-.298a4.539 4.539 0 0 1 4.539-4.539zm21.527 0h8.774a4.539 4.539 0 0 1 4.539 4.539v.299a4.539 4.539 0 0 1-4.54 4.539h-8.773a4.539 4.539 0 0 1-4.539-4.54v-.298a4.539 4.539 0 0 1 4.539-4.539zm21.527 0h8.774a4.539 4.539 0 0 1 4.539 4.539v.299a4.539 4.539 0 0 1-4.54 4.539h-8.773a4.539 4.539 0 0 1-4.539-4.54v-.298a4.539 4.539 0 0 1 4.539-4.539zm21.527 0h8.774a4.539 4.539 0 0 1 4.538 4.539v.299a4.539 4.539 0 0 1-4.538 4.539h-8.774a4.539 4.539 0 0 1-4.54-4.54v-.298a4.539 4.539 0 0 1 4.54-4.539zm21.527 0h8.774a4.539 4.539 0 0 1 4.538 4.539v.299a4.539 4.539 0 0 1-4.538 4.539h-8.774a4.539 4.539 0 0 1-4.54-4.54v-.298a4.539 4.539 0 0 1 4.54-4.539zm21.527 0h8.774a4.539 4.539 0 0 1 4.538 4.539v.299a4.539 4.539 0 0 1-4.538 4.539h-8.774a4.539 4.539 0 0 1-4.54-4.54v-.298a4.539 4.539 0 0 1 4.54-4.539zm21.526 0h8.774a4.539 4.539 0 0 1 4.54 4.539v.299a4.539 4.539 0 0 1-4.54 4.539h-8.774a4.539 4.539 0 0 1-4.538-4.54v-.298a4.539 4.539 0 0 1 4.538-4.539zm21.527 0h8.774a4.539 4.539 0 0 1 4.54 4.539v.299a4.539 4.539 0 0 1-4.54 4.539h-8.774a4.539 4.539 0 0 1-4.538-4.54v-.298a4.539 4.539 0 0 1 4.538-4.539zm21.527 0h8.774a4.539 4.539 0 0 1 4.54 4.539v.299a4.539 4.539 0 0 1-4.54 4.539h-8.774a4.539 4.539 0 0 1-4.539-4.54v-.298a4.539 4.539 0 0 1 4.54-4.539zM12.194 18.51h8.774a4.539 4.539 0 0 1 4.54 4.539v7.591a4.539 4.539 0 0 1-4.54 4.54h-8.774a4.539 4.539 0 0 1-4.538-4.54V23.05a4.539 4.539 0 0 1 4.538-4.539zm20.477 0h8.774a4.539 4.539 0 0 1 4.539 4.539v7.591a4.539 4.539 0 0 1-4.539 4.54h-8.774a4.539 4.539 0 0 1-4.539-4.54V23.05a4.539 4.539 0 0 1 4.54-4.539zm21.002 0h8.774a4.539 4.539 0 0 1 4.539 4.539v7.591a4.539 4.539 0 0 1-4.539 4.54h-8.774a4.539 4.539 0 0 1-4.539-4.54V23.05a4.539 4.539 0 0 1 4.54-4.539zm20.477 0h8.774a4.539 4.539 0 0 1 4.539 4.539v7.591a4.539 4.539 0 0 1-4.54 4.54H74.15a4.539 4.539 0 0 1-4.539-4.54V23.05a4.539 4.539 0 0 1 4.539-4.539zm20.477 0h8.774a4.539 4.539 0 0 1 4.539 4.539v7.591a4.539 4.539 0 0 1-4.54 4.54h-8.773a4.539 4.539 0 0 1-4.54-4.54V23.05a4.539 4.539 0 0 1 4.54-4.539zm21.002 0h8.774a4.539 4.539 0 0 1 4.538 4.539v7.591a4.539 4.539 0 0 1-4.538 4.54h-8.774a4.539 4.539 0 0 1-4.54-4.54V23.05a4.539 4.539 0 0 1 4.54-4.539zm20.476 0h8.774a4.539 4.539 0 0 1 4.54 4.539v7.591a4.539 4.539 0 0 1-4.54 4.54h-8.774a4.539 4.539 0 0 1-4.538-4.54V23.05a4.539 4.539 0 0 1 4.538-4.539zm20.477 0h8.774a4.539 4.539 0 0 1 4.539 4.539v7.591a4.539 4.539 0 0 1-4.539 4.54h-8.774a4.539 4.539 0 0 1-4.539-4.54V23.05a4.539 4.539 0 0 1 4.54-4.539zm21.002 0h8.774a4.539 4.539 0 0 1 4.539 4.539v7.591a4.539 4.539 0 0 1-4.539 4.54h-8.774a4.539 4.539 0 0 1-4.539-4.54V23.05a4.539 4.539 0 0 1 4.54-4.539zm20.477 0h8.774a4.539 4.539 0 0 1 4.539 4.539v7.591a4.539 4.539 0 0 1-4.54 4.54h-8.773a4.539 4.539 0 0 1-4.539-4.54V23.05a4.539 4.539 0 0 1 4.539-4.539zm20.477 0h8.774a4.539 4.539 0 0 1 4.539 4.539v7.591a4.539 4.539 0 0 1-4.54 4.54h-8.773a4.539 4.539 0 0 1-4.54-4.54V23.05a4.539 4.539 0 0 1 4.54-4.539zm21.002 0h8.774a4.539 4.539 0 0 1 4.538 4.539v7.591a4.539 4.539 0 0 1-4.538 4.54h-8.774a4.539 4.539 0 0 1-4.54-4.54V23.05a4.539 4.539 0 0 1 4.54-4.539zm20.476 0h8.774a4.539 4.539 0 0 1 4.54 4.539v7.591a4.539 4.539 0 0 1-4.54 4.54h-8.774a4.539 4.539 0 0 1-4.538-4.54V23.05a4.539 4.539 0 0 1 4.538-4.539zM43.172 38.305h8.774a4.539 4.539 0 0 1 4.539 4.539v7.591a4.539 4.539 0 0 1-4.539 4.539h-8.774a4.539 4.539 0 0 1-4.539-4.539v-7.591a4.539 4.539 0 0 1 4.54-4.54zm20.477 0h8.774a4.539 4.539 0 0 1 4.539 4.539v7.591a4.539 4.539 0 0 1-4.54 4.539H63.65a4.539 4.539 0 0 1-4.539-4.539v-7.591a4.539 4.539 0 0 1 4.539-4.54zm21.002 0h8.774a4.539 4.539 0 0 1 4.539 4.539v7.591a4.539 4.539 0 0 1-4.54 4.539h-8.773a4.539 4.539 0 0 1-4.539-4.539v-7.591a4.539 4.539 0 0 1 4.539-4.54zm20.477 0h8.774a4.539 4.539 0 0 1 4.538 4.539v7.591a4.539 4.539 0 0 1-4.538 4.539h-8.774a4.539 4.539 0 0 1-4.54-4.539v-7.591a4.539 4.539 0 0 1 4.54-4.54zm20.476 0h8.774a4.539 4.539 0 0 1 4.54 4.539v7.591a4.539 4.539 0 0 1-4.54 4.539h-8.774a4.539 4.539 0 0 1-4.538-4.539v-7.591a4.539 4.539 0 0 1 4.538-4.54zm21.002 0h8.774a4.539 4.539 0 0 1 4.54 4.539v7.591a4.539 4.539 0 0 1-4.54 4.539h-8.774a4.539 4.539 0 0 1-4.538-4.539v-7.591a4.539 4.539 0 0 1 4.538-4.54zm20.477 0h8.774a4.539 4.539 0 0 1 4.539 4.539v7.591a4.539 4.539 0 0 1-4.539 4.539h-8.774a4.539 4.539 0 0 1-4.539-4.539v-7.591a4.539 4.539 0 0 1 4.54-4.54zm20.477 0h8.774a4.539 4.539 0 0 1 4.539 4.539v7.591a4.539 4.539 0 0 1-4.539 4.539h-8.774a4.539 4.539 0 0 1-4.539-4.539v-7.591a4.539 4.539 0 0 1 4.539-4.54zm21.002 0h8.774a4.539 4.539 0 0 1 4.539 4.539v7.591a4.539 4.539 0 0 1-4.54 4.539h-8.773a4.539 4.539 0 0 1-4.539-4.539v-7.591a4.539 4.539 0 0 1 4.539-4.54zm20.477 0h8.774a4.539 4.539 0 0 1 4.538 4.539v7.591a4.539 4.539 0 0 1-4.538 4.539h-8.774a4.539 4.539 0 0 1-4.54-4.539v-7.591a4.539 4.539 0 0 1 4.54-4.54zm20.477 0h8.773a4.539 4.539 0 0 1 4.54 4.539v7.591a4.539 4.539 0 0 1-4.54 4.539h-8.773a4.539 4.539 0 0 1-4.54-4.539v-7.591a4.539 4.539 0 0 1 4.54-4.54zm21.001 0h8.774a4.539 4.539 0 0 1 4.54 4.539v7.591a4.539 4.539 0 0 1-4.54 4.539h-8.774a4.539 4.539 0 0 1-4.538-4.539v-7.591a4.539 4.539 0 0 1 4.538-4.54zm20.477 0h8.774a4.539 4.539 0 0 1 4.539 4.539v7.591a4.539 4.539 0 0 1-4.539 4.539h-8.774a4.539 4.539 0 0 1-4.539-4.539v-7.591a4.539 4.539 0 0 1 4.54-4.54zm-9.976-19.795h18.75a4.539 4.539 0 0 1 4.539 4.539v7.591a4.539 4.539 0 0 1-4.539 4.54h-18.75a4.539 4.539 0 0 1-4.539-4.54V23.05a4.539 4.539 0 0 1 4.54-4.539zM12.194 38.305h18.75a4.539 4.539 0 0 1 4.54 4.539v7.591a4.539 4.539 0 0 1-4.54 4.539h-18.75a4.539 4.539 0 0 1-4.538-4.539v-7.591a4.539 4.539 0 0 1 4.538-4.54zM48.423 58.62h8.774a4.539 4.539 0 0 1 4.538 4.54v7.59a4.539 4.539 0 0 1-4.538 4.54h-8.774a4.539 4.539 0 0 1-4.54-4.54v-7.59a4.539 4.539 0 0 1 4.54-4.54zm20.476 0h8.774a4.539 4.539 0 0 1 4.54 4.54v7.59a4.539 4.539 0 0 1-4.54 4.54H68.9a4.539 4.539 0 0 1-4.538-4.54v-7.59a4.539 4.539 0 0 1 4.538-4.54zm21.002 0h8.774a4.539 4.539 0 0 1 4.54 4.54v7.59a4.539 4.539 0 0 1-4.54 4.54h-8.774a4.539 4.539 0 0 1-4.539-4.54v-7.59a4.539 4.539 0 0 1 4.54-4.54zm20.477 0h8.774a4.539 4.539 0 0 1 4.539 4.54v7.59a4.539 4.539 0 0 1-4.539 4.54h-8.774a4.539 4.539 0 0 1-4.539-4.54v-7.59a4.539 4.539 0 0 1 4.54-4.54zm20.477 0h8.774a4.539 4.539 0 0 1 4.539 4.54v7.59a4.539 4.539 0 0 1-4.54 4.54h-8.773a4.539 4.539 0 0 1-4.539-4.54v-7.59a4.539 4.539 0 0 1 4.539-4.54zm21.002 0h8.774a4.539 4.539 0 0 1 4.539 4.54v7.59a4.539 4.539 0 0 1-4.54 4.54h-8.773a4.539 4.539 0 0 1-4.539-4.54v-7.59a4.539 4.539 0 0 1 4.539-4.54zm20.477 0h8.774a4.539 4.539 0 0 1 4.538 4.54v7.59a4.539 4.539 0 0 1-4.538 4.54h-8.774a4.539 4.539 0 0 1-4.54-4.54v-7.59a4.539 4.539 0 0 1 4.54-4.54zm20.476 0h8.774a4.539 4.539 0 0 1 4.54 4.54v7.59a4.539 4.539 0 0 1-4.54 4.54h-8.774a4.539 4.539 0 0 1-4.538-4.54v-7.59a4.539 4.539 0 0 1 4.538-4.54zm20.477 0h8.774a4.539 4.539 0 0 1 4.54 4.54v7.59a4.539 4.539 0 0 1-4.54 4.54h-8.774a4.539 4.539 0 0 1-4.539-4.54v-7.59a4.539 4.539 0 0 1 4.54-4.54zm21.002 0h8.774a4.539 4.539 0 0 1 4.539 4.54v7.59a4.539 4.539 0 0 1-4.539 4.54h-8.774a4.539 4.539 0 0 1-4.539-4.54v-7.59a4.539 4.539 0 0 1 4.54-4.54zm20.477 0h8.774a4.539 4.539 0 0 1 4.539 4.54v7.59a4.539 4.539 0 0 1-4.54 4.54h-8.773a4.539 4.539 0 0 1-4.539-4.54v-7.59a4.539 4.539 0 0 1 4.539-4.54zm21.002 0h24a4.539 4.539 0 0 1 4.539 4.54v7.59a4.539 4.539 0 0 1-4.539 4.54h-24a4.539 4.539 0 0 1-4.539-4.54v-7.59a4.539 4.539 0 0 1 4.539-4.54zm-263.574 0H35.67a4.539 4.539 0 0 1 4.538 4.54v7.59a4.539 4.539 0 0 1-4.538 4.54H12.194a4.539 4.539 0 0 1-4.538-4.54v-7.59a4.539 4.539 0 0 1 4.538-4.54zM58.4 78.415h8.773a4.539 4.539 0 0 1 4.54 4.539v7.591a4.539 4.539 0 0 1-4.54 4.54H58.4a4.539 4.539 0 0 1-4.54-4.54v-7.591a4.539 4.539 0 0 1 4.54-4.54zm20.476 0h8.774a4.539 4.539 0 0 1 4.54 4.539v7.591a4.539 4.539 0 0 1-4.54 4.54h-8.774a4.539 4.539 0 0 1-4.538-4.54v-7.591a4.539 4.539 0 0 1 4.538-4.54zm21.002 0h8.774a4.539 4.539 0 0 1 4.539 4.539v7.591a4.539 4.539 0 0 1-4.539 4.54h-8.774a4.539 4.539 0 0 1-4.539-4.54v-7.591a4.539 4.539 0 0 1 4.54-4.54zm20.477 0h8.774a4.539 4.539 0 0 1 4.539 4.539v7.591a4.539 4.539 0 0 1-4.539 4.54h-8.774a4.539 4.539 0 0 1-4.539-4.54v-7.591a4.539 4.539 0 0 1 4.539-4.54zm20.477 0h8.774a4.539 4.539 0 0 1 4.539 4.539v7.591a4.539 4.539 0 0 1-4.54 4.54h-8.773a4.539 4.539 0 0 1-4.539-4.54v-7.591a4.539 4.539 0 0 1 4.539-4.54zm21.002 0h8.774a4.539 4.539 0 0 1 4.538 4.539v7.591a4.539 4.539 0 0 1-4.538 4.54h-8.774a4.539 4.539 0 0 1-4.54-4.54v-7.591a4.539 4.539 0 0 1 4.54-4.54zm20.477 0h8.773a4.539 4.539 0 0 1 4.54 4.539v7.591a4.539 4.539 0 0 1-4.54 4.54h-8.773a4.539 4.539 0 0 1-4.54-4.54v-7.591a4.539 4.539 0 0 1 4.54-4.54zm20.476 0h8.774a4.539 4.539 0 0 1 4.54 4.539v7.591a4.539 4.539 0 0 1-4.54 4.54h-8.774a4.539 4.539 0 0 1-4.538-4.54v-7.591a4.539 4.539 0 0 1 4.538-4.54zm20.477 0h8.774a4.539 4.539 0 0 1 4.539 4.539v7.591a4.539 4.539 0 0 1-4.539 4.54h-8.774a4.539 4.539 0 0 1-4.539-4.54v-7.591a4.539 4.539 0 0 1 4.54-4.54zm21.002 0h8.774a4.539 4.539 0 0 1 4.539 4.539v7.591a4.539 4.539 0 0 1-4.539 4.54h-8.774a4.539 4.539 0 0 1-4.539-4.54v-7.591a4.539 4.539 0 0 1 4.54-4.54zm21.002 0h34.501a4.539 4.539 0 0 1 4.539 4.539v7.591a4.539 4.539 0 0 1-4.539 4.54h-34.501a4.539 4.539 0 0 1-4.539-4.54v-7.591a4.539 4.539 0 0 1 4.539-4.54zm-253.073 0h33.977a4.539 4.539 0 0 1 4.538 4.539v7.591a4.539 4.539 0 0 1-4.538 4.54H12.194a4.539 4.539 0 0 1-4.538-4.54v-7.591a4.539 4.539 0 0 1 4.538-4.54zm0 20.315h8.774a4.539 4.539 0 0 1 4.54 4.54v9.675a4.539 4.539 0 0 1-4.54 4.538h-8.774a4.539 4.539 0 0 1-4.538-4.538v-9.676a4.539 4.539 0 0 1 4.538-4.539zm20.477 0h8.774a4.539 4.539 0 0 1 4.539 4.54v9.675a4.539 4.539 0 0 1-4.539 4.538h-8.774a4.539 4.539 0 0 1-4.539-4.538v-9.676a4.539 4.539 0 0 1 4.54-4.539zm21.002 0h8.774a4.539 4.539 0 0 1 4.539 4.54v9.675a4.539 4.539 0 0 1-4.539 4.538h-8.774a4.539 4.539 0 0 1-4.539-4.538v-9.676a4.539 4.539 0 0 1 4.54-4.539zm149.638 0h13.5a4.539 4.539 0 0 1 4.539 4.54v9.675a4.539 4.539 0 0 1-4.54 4.538h-13.499a4.539 4.539 0 0 1-4.538-4.538v-9.676a4.539 4.539 0 0 1 4.538-4.539zm25.728 0h8.774a4.539 4.539 0 0 1 4.538 4.54v9.675a4.539 4.539 0 0 1-4.538 4.538h-8.774a4.539 4.539 0 0 1-4.54-4.538v-9.676a4.539 4.539 0 0 1 4.54-4.539zm20.477 9.377h8.773a4.539 4.539 0 0 1 4.54 4.539v.299a4.539 4.539 0 0 1-4.54 4.538h-8.773a4.539 4.539 0 0 1-4.54-4.538v-.3a4.539 4.539 0 0 1 4.54-4.538zm41.478 0h8.774a4.539 4.539 0 0 1 4.539 4.539v.299a4.539 4.539 0 0 1-4.539 4.538h-8.774a4.539 4.539 0 0 1-4.539-4.538v-.3a4.539 4.539 0 0 1 4.54-4.538zm-20.477-9.377h8.774a4.539 4.539 0 0 1 4.54 4.54v9.675a4.539 4.539 0 0 1-4.54 4.538h-8.774a4.539 4.539 0 0 1-4.538-4.538v-9.676a4.539 4.539 0 0 1 4.538-4.539zm-196.367 0h13.5a4.539 4.539 0 0 1 4.538 4.54v9.675a4.539 4.539 0 0 1-4.539 4.538h-13.5a4.539 4.539 0 0 1-4.538-4.538v-9.676a4.539 4.539 0 0 1 4.539-4.539zM12.194 5.487h8.774a4.539 4.539 0 0 1 4.54 4.539v.299a4.539 4.539 0 0 1-4.54 4.539h-8.774a4.539 4.539 0 0 1-4.538-4.54v-.298a4.539 4.539 0 0 1 4.538-4.539zM99.352 98.73h91.731a4.539 4.539 0 0 1 4.54 4.54v9.675a4.539 4.539 0 0 1-4.54 4.538h-91.73a4.539 4.539 0 0 1-4.54-4.538v-9.676a4.539 4.539 0 0 1 4.54-4.539z"/>
        </g>
        <g transform="rotate(75 486.568 745.674)">
            <mask id="b" fill="#fff">
                <use xlink:href="#a"/>
            </mask>
            <use fill="#FA2F38" xlink:href="#a"/>
            <ellipse cx="36.183" cy="53.002" fill="#223040" mask="url(#b)" opacity=".6" rx="5.255" ry="13.047" transform="rotate(61 36.183 53.002)"/>
            <ellipse cx="56.832" cy="43.742" fill="#223040" mask="url(#b)" opacity=".6" rx="2.786" ry="5.051" transform="rotate(52 56.832 43.742)"/>
            <ellipse cx="66.358" cy="28.813" fill="#223040" mask="url(#b)" opacity=".6" rx="5.943" ry="2.946" transform="rotate(116 66.358 28.813)"/>
        </g>
        <path fill="#1E2E3E" d="M476.358 5.62h178.119c6.65 0 12.042 5.391 12.042 12.042 0 .4-.02.8-.06 1.199l-1.686 16.847H466.061l-1.685-16.847c-.663-6.618 4.165-12.52 10.783-13.182.398-.04.799-.06 1.199-.06zM666.693 351.527H464.142c-6.65 0-12.042-5.391-12.042-12.042 0-1.004.125-2.003.373-2.975l15.35-60.204h195.189l15.35 60.204c1.643 6.444-2.25 13-8.694 14.644-.972.248-1.972.373-2.975.373z"/>
        <g transform="translate(31 5)">
            <use fill="#1E2E3E" xlink:href="#c"/>
            <path stroke="#1E2E3E" stroke-width="1.882" d="M.95 28.263h1068.07c-.66-9.891-8.889-17.676-18.91-17.676H19.233c-.103 0-.206 0-.309.002-9.79.166-17.655 7.994-17.973 17.674z"/>
        </g>
        <g transform="translate(41.035 22.168)">
            <mask id="e" fill="#fff">
                <use xlink:href="#d"/>
            </mask>
            <path stroke="#26394D" stroke-width="30.106" d="M30.505 15.053c-2.287 0-4.543.52-6.598 1.523-7.472 3.643-10.576 12.655-6.932 20.127l107.474 220.4a3.01 3.01 0 0 0 2.706 1.69h782.723a3.01 3.01 0 0 0 2.658-1.596L1029.58 37.175a15.053 15.053 0 0 0 1.763-7.07c0-8.313-6.74-15.052-15.053-15.052H30.505z"/>
            <path fill="#26394D" d="M22.079 34.011l106.432 219.812 783.498 2.78 117.272-224.116c3.084-5.893.806-13.17-5.086-16.253a12.042 12.042 0 0 0-5.606-1.373l-985.694 1.86c-6.65.013-12.032 5.414-12.02 12.065.004 1.81.415 3.596 1.204 5.225z" mask="url(#e)"/>
            <g mask="url(#e)" opacity=".4" style="mix-blend-mode:hard-light">
                <g transform="translate(-47.417 22.387)">
                    <mask id="g" fill="#fff">
                        <use xlink:href="#f"/>
                    </mask>
                    <path fill="#EBF3FC" d="M0 0h1142.827v251.055H0z" mask="url(#g)"/>
                    <g fill="#FFF" mask="url(#g)">
                        <path d="M857.246 62.617s9.29-7.324 42.364-9.502c33.075-2.177 49.877 3.844 49.877 3.844s3.803-3.06 14.332-2.64c10.53.419 14.64 3.792 14.64 3.792s13.16-3.116 27.651-1.152c14.49 1.964 19.377 7.527 19.377 7.527s4-3.096 13.36-3.096 15.981 1.934 15.981 1.934 1.63-4.741 13.067-6.935c11.437-2.194 27.26.531 27.26.531s4.217-8.775 20.775-13.043c16.559-4.267 47.187-4.473 47.187-4.473v109.688L652.413 94.248s5.073-6.296 21.96-8.463c16.887-2.168 27.637 0 27.637 0s-2.655-2.837 4.746-5.825c7.4-2.987 18.013-1.715 18.013-1.715s8.322-5.78 27.282-7.969c18.96-2.188 40.573 1.341 40.573 1.341s-.606-3.99 12.89-6.142c13.497-2.151 23.848.978 23.848.978s-2.049-3.19 8.572-5.063c10.621-1.872 19.312 1.227 19.312 1.227zM301.892 58.46s-9.894-6.487-43.032-5.774c-33.138.714-49.352 8.177-49.352 8.177S205.453 58.146 195 59.48c-10.453 1.336-14.254 5.054-14.254 5.054s-13.381-1.957-27.645 1.263c-14.264 3.22-18.647 9.186-18.647 9.186s-4.254-2.734-13.579-1.919c-9.324.816-15.752 3.32-15.752 3.32s-2.037-4.582-13.622-5.77c-11.585-1.19-27.11 2.905-27.11 2.905s-4.966-8.375-21.833-11.183c-16.867-2.808-47.397-.343-47.397-.343l-17.27 120.95 530.81-110.826s-5.601-5.83-22.613-6.517c-17.012-.688-27.533 2.409-27.533 2.409s2.398-3.057-5.235-5.389c-7.633-2.331-18.094-.138-18.094-.138s-8.793-5.034-27.872-5.561c-19.079-.528-40.302 4.872-40.302 4.872s.256-4.029-13.377-4.996c-13.633-.966-23.671 3.053-23.671 3.053s1.763-3.357-8.981-4.296c-10.744-.94-19.131 2.904-19.131 2.904z"/>
                    </g>
                    <g mask="url(#g)">
                        <g transform="translate(-10.25 54.646)">
                            <mask id="i" fill="#fff">
                                <use xlink:href="#h"/>
                            </mask>
                            <use fill="#96A7BB" xlink:href="#h"/>
                            <path fill="#26394D" d="M197.813 80.253c-21.359-2.726 176.498-27.91 258.469-42.072C538.252 24.018 713.33.582 730.926.582c17.596 0-56.317 17.14-189.222 42.391C408.8 68.224 219.172 82.98 197.814 80.253zM-29.779 83.45l-17.456-21.415s326.544-48.976 342.732-48.976c16.187 0-47.188 10.967-115.069 27.584C112.548 57.26-29.779 83.45-29.779 83.45z" mask="url(#i)" opacity=".2"/>
                        </g>
                    </g>
                    <g mask="url(#g)">
                        <g transform="translate(-30.749 121.172)">
                            <mask id="k" fill="#fff">
                                <use xlink:href="#j"/>
                            </mask>
                            <use fill="#96A7BB" xlink:href="#j"/>
                            <path fill="#7A8A99" d="M-2.075 84.468s251.364-18.63 367.555-36.41C481.67 30.28 693.009-2.006 715.789.087c9.051.832-35.455 6.247-87.159 16.401-51.704 10.155-178.324 38.675-172.535 39.897 9.606 2.03 120.442-17.388 146.489-16.518 26.046.87 56.505 13.693 101.974 13.693S933.52 12.731 940.8 14.461c7.28 1.73-99.044 23.215 7.5 41.923 106.544 18.71 382.346 18.71 382.346 18.71v87.816H-5.46l3.385-78.442z" mask="url(#k)"/>
                            <path fill="#D7E9FA" d="M493.31 88.389c-86.788 14.059-166.378 28.558-268.32 30.97-101.94 2.413-217.717 4.505-217.717 4.505s168.485-4.504 249.246-4.504c80.76 0 117.761-4.828 241.258-25.985 121.597-20.83 364.845-64.332 404.6-72.068 13.915-2.708 57.432-11.076 53.283-11.076-4.15 0-346.89 59.454-462.35 78.158z" mask="url(#k)"/>
                            <path fill="#596C80" d="M567.3 22.117c-6-3.272-13.64-1.669-17.774 4.002h22.34a13.822 13.822 0 0 0-1.443-1.678h17.08a13.822 13.822 0 0 0-3.027-3.028c-5.297-3.861-12.421-3.408-17.176.704zm38.075-5.23c4.496-6.168 13.143-7.524 19.312-3.027a13.822 13.822 0 0 1 3.027 3.027h-22.34zM364.11 49.617c4.496-6.168 13.143-7.524 19.312-3.027a13.822 13.822 0 0 1 3.027 3.028h-22.34zm-30.947 8.393c3.403-6.057 11.072-8.21 17.13-4.807a12.58 12.58 0 0 1 3.207 2.572l2.002 2.235h-22.339zm220.831-8.392c4.497-6.17 13.143-7.525 19.312-3.028a13.822 13.822 0 0 1 3.027 3.028h-22.339zm234.563-5.036c4.497-6.169 13.143-7.524 19.312-3.027a13.822 13.822 0 0 1 3.028 3.027h-22.34zm-22.34 5.036c4.498-6.17 13.144-7.525 19.313-3.028a13.822 13.822 0 0 1 3.027 3.028h-22.34z"/>
                            <path fill="#3C5F7F" d="M983.24 13.095a13.822 13.822 0 0 0-1.124-.913c-6.169-4.497-14.815-3.142-19.312 3.027h22.34a13.822 13.822 0 0 0-1.443-1.679h21.548a13.822 13.822 0 0 0-3.027-3.027C996.2 6.114 987.82 7.3 983.24 13.095zM779.008 6.519c4.74-3.65 11.496-3.914 16.575-.212a13.822 13.822 0 0 1 3.027 3.027h-16.3c.23.271.452.55.662.84h-22.339c4.274-5.863 12.295-7.378 18.375-3.655zm-39.597 1.137c4.497-6.17 13.143-7.524 19.312-3.028a13.822 13.822 0 0 1 3.027 3.028h-22.34zm67.018 4.196c4.497-6.169 13.143-7.524 19.312-3.027a13.822 13.822 0 0 1 3.027 3.027h-22.34zm22.34 4.616c4.496-6.17 13.142-7.524 19.311-3.028a13.822 13.822 0 0 1 3.027 3.028h-22.339zm-382.004 9.651c4.497-6.169 13.143-7.524 19.312-3.027a13.822 13.822 0 0 1 3.028 3.027h-22.34zm-21.222-1.678c4.497-6.17 13.143-7.525 19.312-3.028a13.822 13.822 0 0 1 3.027 3.028h-22.34zm-27.924 1.258c4.496-6.168 13.143-7.524 19.312-3.027a13.822 13.822 0 0 1 3.027 3.027h-22.34zm-212.224 4.197c4.497-6.17 13.143-7.525 19.312-3.028a13.822 13.822 0 0 1 3.027 3.028h-22.34zm24.573 4.196c4.497-6.17 13.143-7.524 19.312-3.028a13.822 13.822 0 0 1 3.027 3.028h-22.339zm-167.545 0c4.497-6.17 13.143-7.524 19.312-3.028a13.822 13.822 0 0 1 3.027 3.028h-22.34zm44.679-4.196c4.497-6.17 13.143-7.525 19.312-3.028a13.822 13.822 0 0 1 3.027 3.028h-22.34zm-22.34 0c4.497-6.17 13.143-7.525 19.312-3.028a13.822 13.822 0 0 1 3.028 3.028h-22.34z" opacity=".4"/>
                        </g>
                    </g>
                    <g mask="url(#g)">
                        <path stroke="#596C80" stroke-linecap="square" stroke-width="7.68" d="M345.069 168.294V153.06"/>
                        <path fill="#426455" d="M344.802 152.323l24.503 14.255h-49.006z"/>
                        <path fill="#47695A" d="M345.069 149.248l19.645 11.43h-39.29z"/>
                        <path fill="#547969" d="M345.069 146.515l14.52 8.448h-29.04z"/>
                    </g>
                    <g mask="url(#g)">
                        <path stroke="#596C80" stroke-linecap="square" stroke-width="7.68" d="M313.893 176.016v-22.85"/>
                        <path fill="#426455" d="M313.493 152.059l36.754 21.383h-73.509z"/>
                        <path fill="#47695A" d="M313.893 147.447l29.468 17.144h-58.935z"/>
                        <path fill="#547969" d="M313.893 143.347l21.78 12.672h-43.56z"/>
                    </g>
                    <g mask="url(#g)">
                        <path stroke="#728AA3" stroke-linecap="square" stroke-width="7.68" d="M426.638 145.129v-22.85"/>
                        <path fill="#426455" d="M426.238 121.172l36.754 21.383h-73.508z"/>
                        <path fill="#47695A" d="M426.638 116.56l29.468 17.144H397.17z"/>
                        <path fill="#547969" d="M426.638 112.46l21.78 12.672h-43.56z"/>
                    </g>
                    <g mask="url(#g)">
                        <path stroke="#728AA3" stroke-linecap="square" stroke-width="7.68" d="M718.751 126.122V103.27"/>
                        <path fill="#426455" d="M718.35 102.164l36.755 21.384h-73.508z"/>
                        <path fill="#47695A" d="M718.751 97.552l29.468 17.144h-58.935z"/>
                        <path fill="#547969" d="M718.751 93.453l21.78 12.671h-43.56z"/>
                    </g>
                    <g mask="url(#g)">
                        <path stroke="#728AA3" stroke-linecap="square" stroke-width="7.68" d="M378.197 143.828v-11.97"/>
                        <path fill="#426455" d="M377.987 131.279l19.253 11.2h-38.505z"/>
                        <path fill="#47695A" d="M378.197 128.863l15.435 8.98h-30.87z"/>
                        <path fill="#547969" d="M378.197 126.716l11.409 6.637h-22.818z"/>
                    </g>
                    <g mask="url(#g)">
                        <path stroke="#728AA3" stroke-linecap="square" stroke-width="7.68" d="M65.585 148.58v-11.97"/>
                        <path fill="#426455" d="M65.375 136.03l19.253 11.201H46.123z"/>
                        <path fill="#47695A" d="M65.585 133.615l15.435 8.98H50.15z"/>
                        <path fill="#547969" d="M65.585 131.467l11.409 6.638H54.176z"/>
                    </g>
                    <g mask="url(#g)">
                        <path stroke="#596C80" stroke-linecap="square" stroke-width="7.68" d="M746.938 168.888v-22.85"/>
                        <path fill="#426455" d="M746.537 144.931l36.754 21.383h-73.508z"/>
                        <path fill="#47695A" d="M746.938 140.319l29.467 17.144H717.47z"/>
                        <path fill="#547969" d="M746.938 136.22l21.78 12.67h-43.56z"/>
                    </g>
                    <g mask="url(#g)">
                        <path stroke="#728AA3" stroke-linecap="square" stroke-width="7.68" d="M808.862 135.823V120.59"/>
                        <path fill="#426455" d="M808.595 119.852l24.503 14.255h-49.006z"/>
                        <path fill="#47695A" d="M808.862 116.777l19.645 11.43h-39.29z"/>
                        <path fill="#547969" d="M808.862 114.044l14.52 8.448h-29.04z"/>
                    </g>
                    <g mask="url(#g)">
                        <path stroke="#596C80" stroke-linecap="square" stroke-width="7.68" d="M534.686 168.294V153.06"/>
                        <path fill="#426455" d="M534.42 152.323l24.502 14.255h-49.006z"/>
                        <path fill="#47695A" d="M534.686 149.248l19.645 11.43h-39.29z"/>
                        <path fill="#547969" d="M534.686 146.515l14.52 8.448h-29.04z"/>
                    </g>
                    <g mask="url(#g)">
                        <path stroke="#596C80" stroke-linecap="square" stroke-width="7.68" d="M655.118 150.87v-15.233"/>
                        <path fill="#426455" d="M654.852 134.9l24.502 14.255H630.35z"/>
                        <path fill="#47695A" d="M655.118 131.825l19.645 11.429h-39.29z"/>
                        <path fill="#547969" d="M655.118 129.092l14.52 8.447h-29.04z"/>
                    </g>
                    <g mask="url(#g)">
                        <path stroke="#596C80" stroke-linecap="square" stroke-width="7.68" d="M878.047 161.958v-15.234"/>
                        <path fill="#426455" d="M877.78 145.987l24.503 14.255h-49.006z"/>
                        <path fill="#47695A" d="M878.047 142.912l19.645 11.43h-39.29z"/>
                        <path fill="#547969" d="M878.047 140.18l14.52 8.447h-29.04z"/>
                    </g>
                    <g mask="url(#g)">
                        <path stroke="#596C80" stroke-linecap="square" stroke-width="7.68" d="M988.23 161.958v-15.234"/>
                        <path fill="#426455" d="M987.963 145.987l24.502 14.255H963.46z"/>
                        <path fill="#47695A" d="M988.23 142.912l19.645 11.43h-39.29z"/>
                        <path fill="#547969" d="M988.23 140.18l14.52 8.447h-29.04z"/>
                    </g>
                    <g mask="url(#g)">
                        <path stroke="#596C80" stroke-linecap="square" stroke-width="7.68" d="M585.934 135.823V120.59"/>
                        <path fill="#426455" d="M585.667 119.852l24.503 14.255h-49.006z"/>
                        <path fill="#47695A" d="M585.934 116.777l19.645 11.43h-39.29z"/>
                        <path fill="#547969" d="M585.934 114.044l14.52 8.448h-29.04z"/>
                    </g>
                    <g mask="url(#g)">
                        <path stroke="#728AA3" stroke-linecap="square" stroke-width="7.68" d="M191.325 153.247v-15.234"/>
                        <path fill="#426455" d="M191.058 137.275l24.503 14.256h-49.005z"/>
                        <path fill="#47695A" d="M191.325 134.2l19.645 11.43h-39.29z"/>
                        <path fill="#547969" d="M191.325 131.467l14.52 8.448h-29.04z"/>
                    </g>
                    <path fill="#334D66" d="M332.557 239.276c-4.804-3.388-11.048-3.284-15.673-.171-.617-.67-1.299-1.278-2.037-1.815-5.954-4.328-14.205-3.21-18.806 2.417-25.666.288-50.178.532-73.373.74-4.168-2.202-9.097-2.074-13.086.114l-7.122.06c-4.706-3.023-10.643-2.84-15.1.12-69.57.544-124.817.742-160.396.81a13.844 13.844 0 0 0-8.044.014c-23.862.036-36.857.011-36.857.011v27.955l1245.323 2.908v-61.774s-47.597 2.853-127.883 6.723c-.13-.102-.26-.2-.394-.298-5.479-3.983-12.903-3.353-17.639 1.158-15.78.744-32.651 1.519-50.517 2.312-4.765-2.806-10.664-2.445-15.019.661l-5.956.259a13.77 13.77 0 0 0-.244-.182c-4.654-3.383-10.713-3.438-15.334-.612a13.815 13.815 0 0 0-.306-.23c-5.982-4.348-14.282-3.198-18.87 2.497l-6.01.249a13.837 13.837 0 0 0-12.186.498c-100.04 4.055-221.3 8.195-352.303 11.004-97.734 2.096-190.045 3.556-272.168 4.572z" mask="url(#g)"/>
                </g>
            </g>
            <path stroke="#26394D" stroke-width="30.15" d="M6.455 15.075l117.26 242.39a3.015 3.015 0 0 0 2.714 1.702h784.364a3.015 3.015 0 0 0 2.66-1.596l129.308-242.496H6.455z"/>
        </g>
        <g>
            <path fill="#FFF" d="M461.123 112.138h207.604a4.516 4.516 0 0 1 4.347 5.74l-32.349 114.799a3.01 3.01 0 0 1-2.897 2.194H492.022a3.01 3.01 0 0 1-2.898-2.194l-32.348-114.798a4.516 4.516 0 0 1 4.347-5.74z"/>
            <g fill="#FA2F38">
                <path d="M562.192 145.018a.299.299 0 0 0-.2-.065h-6.064c-.087 0-.167.028-.207.073l-8.37 9.251-2.848-9.212c-.02-.065-.117-.112-.23-.112h-6.106a.322.322 0 0 0-.18.05c-.044.03-.062.071-.05.11l4.522 13.855c.02.064.117.11.229.11h.013l7.049-.233c.082-.003.156-.03.194-.073l12.255-13.621c.038-.042.035-.092-.007-.133M574.363 151.066a1.15 1.15 0 0 1-.38.526c-.16.133-.376.252-.641.353-.253.096-.6.144-1.034.144h-4.86l1.027-3.723h4.934c.422 0 .728.049.912.144.2.104.347.221.432.345.089.144.123.32.103.509l-.493 1.702zm6.718-3.124a2.495 2.495 0 0 0-.495-1.106 3.355 3.355 0 0 0-.938-.802 6.668 6.668 0 0 0-1.15-.532c-.963-.318-2.108-.503-3.418-.549h-11.585c-.111 0-.206.047-.225.111l-3.74 13.075c-.012.04.009.08.055.11a.318.318 0 0 0 .17.044h.012l5.825-.194c.106-.003.194-.05.212-.11l.696-2.465h5.67a15.186 15.186 0 0 0 3.618-.545 9.894 9.894 0 0 0 2.788-1.306c.897-.6 1.522-1.452 1.857-2.535l.532-1.753c.154-.542.194-1.027.116-1.443zM603.831 144.953h-5.893c-.113 0-.21.05-.228.117l-2.1 7.625-4.552-7.65c-.033-.055-.12-.092-.217-.092h-5.894c-.113 0-.21.05-.228.117l-3.596 13.06c-.012.042.009.085.056.117.044.03.106.046.171.046l5.997-.207c.108-.004.198-.052.215-.117l1.504-5.511 3.175 5.358c.034.059.127.094.23.093l7.99-.277c.109-.004.198-.052.215-.117l3.383-12.399c.011-.04-.008-.082-.052-.113a.31.31 0 0 0-.176-.05z"/>
                <path d="M537.877 145.002a.33.33 0 0 0-.182-.049h-6.083c-.117 0-.216.049-.235.115l-4.237 14.635c-.012.04.01.083.058.114.045.03.11.046.177.046h.014l6.181-.204c.111-.004.204-.051.222-.115l4.138-14.43c.012-.04-.008-.081-.053-.112"/>
                <path d="M525.79 144.953s-.054.315.453.388c.506.072 4.946.572 4.332 2.751 0-.008 1.907-1.113 1.907-1.113l.053-2.026h-6.746z"/>
            </g>
            <path fill="#398FE6" d="M524.793 186.975h77.257a3.01 3.01 0 0 1 2.98 3.438l-2.329 16.225a1.505 1.505 0 0 1-1.49 1.291h-75.58c-.749 0-1.384-.55-1.49-1.291l-2.328-16.225a3.01 3.01 0 0 1 2.98-3.438z"/>
            <path fill="#FFF" d="M569.089 194.942l-6.801 6.848c-.232.232-.51.326-.833.326-.324 0-.602-.14-.833-.326l-2.868-2.889c-.463-.465-.463-1.21 0-1.63.462-.466 1.203-.466 1.619 0l2.036 2.05 6.014-6.01c.51-.465 1.25-.465 1.666 0 .462.466.462 1.212 0 1.63z"/>
        </g>
        <g transform="rotate(-90 273.5 43.5)">
            <mask id="n" fill="#fff">
                <use xlink:href="#m"/>
            </mask>
            <use fill="#FA2F38" xlink:href="#m"/>
            <ellipse cx="36.183" cy="53.002" fill="#223040" mask="url(#n)" opacity=".6" rx="5.255" ry="13.047" transform="rotate(61 36.183 53.002)"/>
            <ellipse cx="56.832" cy="43.742" fill="#223040" mask="url(#n)" opacity=".6" rx="2.786" ry="5.051" transform="rotate(52 56.832 43.742)"/>
            <ellipse cx="66.358" cy="28.813" fill="#223040" mask="url(#n)" opacity=".6" rx="5.943" ry="2.946" transform="rotate(116 66.358 28.813)"/>
        </g>
    </g>
</svg>
