<svg xmlns="http://www.w3.org/2000/svg" width="36" height="24" viewBox="0 0 36 24">
    <g fill="none" fill-rule="nonzero">
        <path fill="#FE0000" d="M12.8 6.289h4.682c.645 0 1.052.578.916 1.264l-2.171 9.93c-.17.686-.815 1.264-1.46 1.264h-4.681c-.645 0-1.052-.578-.916-1.264l2.171-9.93c.17-.722.814-1.264 1.459-1.264z"/>
        <path fill="#0B3084" d="M17.075 6.289h5.36c.645 0 .374.578.204 1.264l-2.171 9.93c-.136.686-.102 1.264-.747 1.264h-5.36c-.645 0-1.052-.578-.916-1.264l2.171-9.93c.17-.722.814-1.264 1.459-1.264z"/>
        <path fill="#026B6F" d="M22.232 6.289h4.682c.645 0 1.052.578.916 1.264l-2.171 9.93c-.17.686-.814 1.264-1.459 1.264h-4.682c-.645 0-1.052-.578-.916-1.264l2.171-9.93c.17-.722.815-1.264 1.46-1.264z"/>
    </g>
</svg>
