<svg xmlns="http://www.w3.org/2000/svg" width="36" height="24" viewBox="0 0 36 24">
    <g fill="none" fill-rule="nonzero">
        <path fill="#000" d="M4.35 10.16H3v4.626h1.35c.71 0 1.24-.161 1.677-.536.548-.429.858-1.09.858-1.768 0-1.375-1.04-2.321-2.535-2.321zm1.076 3.465c-.292.25-.657.375-1.259.375h-.255v-3.054h.255c.602 0 .949.108 1.259.375.31.286.51.715.51 1.143 0 .447-.2.893-.51 1.161zM7.304 10.161h1v4.625h-1zM10.478 11.929c-.548-.197-.712-.34-.712-.59 0-.285.292-.518.693-.518.274 0 .511.108.748.375l.474-.625a2.116 2.116 0 0 0-1.386-.517c-.839 0-1.477.571-1.477 1.321 0 .643.292.964 1.167 1.268.365.125.547.214.638.268.183.125.274.285.274.482 0 .375-.31.66-.711.66-.438 0-.784-.214-1.003-.624l-.602.553c.42.607.93.875 1.641.875.949 0 1.623-.625 1.623-1.518-.018-.696-.328-1.035-1.367-1.41zM12.119 12.464c0 1.357 1.094 2.411 2.499 2.411.4 0 .73-.071 1.149-.268v-1.053c-.365.357-.693.5-1.113.5-.93 0-1.587-.661-1.587-1.59 0-.893.675-1.589 1.55-1.589.438 0 .767.16 1.15.518v-1.054c-.402-.196-.73-.285-1.131-.285-1.386 0-2.517 1.071-2.517 2.41zM23.08 13.268l-1.277-3.107H20.8l2.006 4.732h.493l2.042-4.732h-1.003zM25.76 14.786h2.609V14h-1.696v-1.25h1.641v-.786h-1.641v-1.018h1.696v-.785h-2.608zM32.017 11.518c0-.857-.602-1.357-1.678-1.357H28.97v4.625h.912v-1.857h.127l1.277 1.857h1.13l-1.476-1.947c.693-.143 1.076-.607 1.076-1.321zm-1.842.768H29.9v-1.393h.292c.565 0 .893.232.893.678-.018.465-.328.715-.911.715z"/>
        <path fill="#F58025" d="M21.074 12.464c0 1.357-1.131 2.465-2.517 2.465s-2.517-1.108-2.517-2.465c0-1.357 1.13-2.464 2.517-2.464 1.404.018 2.517 1.107 2.517 2.464z"/>
    </g>
</svg>
