<svg xmlns="http://www.w3.org/2000/svg" width="36" height="24" viewBox="0 0 36 24">
    <g fill="none" fill-rule="nonzero">
        <path fill="#7673C0" d="M15.56 8.18h4.846v8.53H15.56z"/>
        <path fill="#EB001B" d="M15.868 12.446a5.376 5.376 0 0 1 2.115-4.266c-2.27-1.748-5.532-1.493-7.491.585a5.343 5.343 0 0 0 0 7.36c1.96 2.078 5.22 2.333 7.491.585a5.376 5.376 0 0 1-2.115-4.264z"/>
        <path fill="#00A1DF" d="M26.943 12.446c0 2.076-1.211 3.97-3.118 4.878a5.634 5.634 0 0 1-5.842-.614 5.385 5.385 0 0 0 2.116-4.265c0-1.664-.78-3.237-2.116-4.265a5.634 5.634 0 0 1 5.843-.615c1.908.908 3.119 2.802 3.119 4.88h-.002z"/>
    </g>
</svg>
