<svg xmlns="http://www.w3.org/2000/svg" width="36" height="24" viewBox="0 0 36 24">
    <g fill="none" fill-rule="nonzero" transform="translate(10 5)">
        <ellipse cx="7" cy="7.5" fill="#FFF" rx="6.6" ry="7.071"/>
        <path fill="#004A97" d="M7 14.714C3.2 14.714.133 11.43.133 7.43.133 3.07 3.267.07 7 .07h1.8c3.733 0 7.133 3 7.133 7.358 0 4-3.4 7.285-7.133 7.285H7zm0-14c-3.467 0-6.267 3-6.267 6.715 0 3.714 2.8 6.714 6.267 6.714 3.467 0 6.267-3 6.267-6.714 0-3.715-2.8-6.715-6.267-6.715zM5.6 11.357V3.43a4.278 4.278 0 0 0-2.533 3.928c0 1.857 1 3.357 2.533 4zm5.4-4c0-1.786-1.067-3.357-2.533-4v7.929c1.466-.572 2.466-2.072 2.533-3.929z"/>
    </g>
</svg>
