<svg width="24" height="24" viewBox="0 0 24 24" fill="none" xmlns="http://www.w3.org/2000/svg">
<path d="M17.9391 12.5953C17.9297 10.875 18.7078 9.57656 20.2828 8.62031C19.4016 7.35938 18.0703 6.66563 16.3125 6.52969C14.6484 6.39844 12.8297 7.5 12.1641 7.5C11.4609 7.5 9.84844 6.57656 8.58281 6.57656C5.96719 6.61875 3.1875 8.6625 3.1875 12.8203C3.1875 14.0484 3.4125 15.3172 3.8625 16.6266C4.4625 18.3469 6.62812 22.5656 8.8875 22.4953C10.0687 22.4672 10.9031 21.6563 12.4406 21.6563C13.9312 21.6563 14.7047 22.4953 16.0219 22.4953C18.3 22.4625 20.2594 18.6281 20.8312 16.9031C17.775 15.4641 17.9391 12.6844 17.9391 12.5953ZM15.2859 4.89844C16.5656 3.37969 16.4484 1.99688 16.4109 1.5C15.2812 1.56563 13.9734 2.26875 13.2281 3.13594C12.4078 4.06406 11.925 5.2125 12.0281 6.50625C13.2516 6.6 14.3672 5.97188 15.2859 4.89844Z" fill="white"/>
</svg>
