<svg width="280" height="280" viewBox="0 0 280 280" fill="none" xmlns="http://www.w3.org/2000/svg">
<path fill-rule="evenodd" clip-rule="evenodd" d="M140.5 7C66.769 7 7 66.769 7 140.5C7 214.231 66.769 274 140.5 274C214.231 274 274 214.231 274 140.5C274 66.769 214.231 7 140.5 7ZM154.627 68.7857C156.838 62.9265 159.016 57.1537 161.194 51.5H156.419L75.2333 140.5V146.857H142.092V153.214L108.663 224.732C108.663 226.321 108.663 227.911 110.254 229.5L205.767 123.018C204.175 121.429 204.175 119.839 204.175 119.839H138.908C135.724 119.839 135.724 116.661 135.724 116.661C142.662 100.499 148.76 84.338 154.627 68.7857Z" fill="white"/>
</svg>
