<svg width="24" height="24" viewBox="0 0 24 24" fill="none" xmlns="http://www.w3.org/2000/svg">
<path d="M21.0966 10.7108C21.1825 11.1651 21.2439 11.6194 21.2439 12.2087C21.2439 17.3534 17.7937 21 12.6 21C7.62728 21 3.59998 16.9727 3.59998 12C3.59998 7.02727 7.62728 3 12.6 3C15.0311 3 17.057 3.88402 18.6286 5.35744L16.1852 7.70259C15.5221 7.06411 14.3558 6.31514 12.6 6.31514C9.5304 6.31514 7.02559 8.85675 7.02559 12C7.02559 15.1432 9.5304 17.6849 12.6 17.6849C16.1606 17.6849 17.499 15.1187 17.7077 13.8049H12.6V10.7107H21.0966V10.7108Z" fill="white"/>
</svg>
