<svg width="23" height="24" viewBox="0 0 23 24" fill="none" xmlns="http://www.w3.org/2000/svg">
<path d="M7.22191 13.8704C7.05785 14.7704 6.40629 18.9657 6.2141 20.1517C6.20004 20.236 6.16723 20.2689 6.07348 20.2689H2.5766C2.22035 20.2689 1.96254 19.9595 2.00941 19.6173L4.75629 2.18448C4.8266 1.73448 5.22973 1.3923 5.69379 1.3923C12.8329 1.3923 13.4328 1.21886 15.2563 1.92667C18.0735 3.01886 18.3313 5.65323 17.3188 8.50323C16.311 11.4376 13.9204 12.6985 10.7516 12.736C8.71722 12.7689 7.49379 12.4079 7.22191 13.8704ZM18.7391 7.12511C18.6547 7.06417 18.6219 7.04073 18.5985 7.18605C18.5047 7.72042 18.3594 8.24073 18.186 8.76105C16.3157 14.0954 11.1313 13.6314 8.60004 13.6314C8.3141 13.6314 8.1266 13.786 8.0891 14.072C7.02972 20.6532 6.81879 22.0267 6.81879 22.0267C6.77191 22.3595 6.98285 22.6314 7.31566 22.6314H10.2922C10.6953 22.6314 11.0282 22.336 11.1079 21.9329C11.1407 21.6798 11.0563 22.2189 11.7829 17.6532C11.9985 16.622 12.4532 16.7298 13.1563 16.7298C16.4844 16.7298 19.0813 15.3798 19.8547 11.4657C20.1594 9.83448 20.0704 8.11886 18.7391 7.12511Z" fill="#F1F8FF"/>
</svg>
