<svg xmlns="http://www.w3.org/2000/svg" viewBox="0 0 128.01 128.01">
  <g fill-rule="evenodd" fill="#ffffff">
    <path d="M48.12 36.73l-5-8.61a41.53 41.53 0 00-14.73 57.22l8.55-5.12a31.58 31.58 0 0111.18-43.49z"/>
    <path d="M94.37 72.63a31.55 31.55 0 01-45 19.35l-4.62 8.84a41.54 41.54 0 0059.17-25.46z"/>
    <path d="M69.01 83a19.66 19.66 0 01-19.25-32.57l-4.5-4.27A25.87 25.87 0 0070.6 89z"/>
    <path d="M64.01 112.64A48.64 48.64 0 11112.65 64a48.64 48.64 0 01-48.64 48.64zM128.01 64a64 64 0 10-64 64 64 64 0 0064-64z"/>
  </g>
</svg>
