<svg data-name="Layer 1" xmlns="http://www.w3.org/2000/svg" xmlns:xlink="http://www.w3.org/1999/xlink" viewBox="0 0 128.01 128.01"><defs><linearGradient id="a" x1="1107.34" y1="-414.99" x2="1107.34" y2="-529.03" gradientTransform="matrix(.5 0 0 -.5 -392.33 -180.11)" gradientUnits="userSpaceOnUse"><stop offset="0" stop-color="#6f6f6e"/><stop offset="1" stop-color="#575756"/></linearGradient><linearGradient id="b" x1="1185.2" y1="-503.71" x2="1185.2" y2="-569.3" xlink:href="#a"/><linearGradient id="c" x1="1145.34" y1="-450.98" x2="1145.34" y2="-538.09" xlink:href="#a"/><linearGradient id="d" x1="1164.56" y1="-358.95" x2="1164.56" y2="-614.07" xlink:href="#a"/></defs><g data-name="Main" fill-rule="evenodd"><path d="M176.11 36.73l-5-8.61a41.53 41.53 0 00-14.73 57.22l8.55-5.12a31.58 31.58 0 0111.19-43.49z" transform="translate(-127.99 .01)" style="isolation:isolate" fill="url(#a)" opacity=".8"/><path d="M222.36 72.63a31.55 31.55 0 01-45 19.35l-4.62 8.84a41.54 41.54 0 0059.17-25.46z" transform="translate(-127.99 .01)" style="isolation:isolate" fill="url(#b)" opacity=".8"/><path d="M197 83a19.66 19.66 0 01-19.25-32.57l-4.5-4.27A25.87 25.87 0 00198.59 89z" transform="translate(-127.99 .01)" style="isolation:isolate" opacity=".6" fill="url(#c)"/><path d="M192 112.64A48.64 48.64 0 11240.64 64 48.64 48.64 0 01192 112.64zM256 64a64 64 0 10-64 64 64 64 0 0064-64z" transform="translate(-127.99 .01)" fill="url(#d)"/></g></svg>